<?xml version="1.0" encoding="UTF-8"?><svg xmlns="http://www.w3.org/2000/svg" xmlns:xlink="http://www.w3.org/1999/xlink" fill-opacity="1" color-rendering="auto" color-interpolation="auto" text-rendering="auto" stroke="black" stroke-linecap="square" width="747" stroke-miterlimit="10" shape-rendering="auto" stroke-opacity="1" fill="black" stroke-dasharray="none" font-weight="normal" stroke-width="1" height="502" font-family="'Dialog'" font-style="normal" stroke-linejoin="miter" font-size="12px" stroke-dashoffset="0" image-rendering="auto">
  <!--Generated by ySVG 2.5-->
  <defs id="genericDefs"/>
  <g>
    <defs id="defs1">
      <clipPath clipPathUnits="userSpaceOnUse" id="clipPath1">
        <path d="M0 0 L747 0 L747 502 L0 502 L0 0 Z"/>
      </clipPath>
      <clipPath clipPathUnits="userSpaceOnUse" id="clipPath2">
        <path d="M599 198 L1346 198 L1346 700 L599 700 L599 198 Z"/>
      </clipPath>
    </defs>
    <g fill="white" text-rendering="geometricPrecision" shape-rendering="geometricPrecision" transform="translate(-599,-198)" stroke="white">
      <rect x="599" width="747" height="502" y="198" clip-path="url(#clipPath2)" stroke="none"/>
    </g>
    <g fill="rgb(204,255,204)" text-rendering="geometricPrecision" shape-rendering="geometricPrecision" transform="matrix(1,0,0,1,-599,-198)" stroke="rgb(204,255,204)">
      <rect x="1203.45" width="80" height="30" y="213.3333" clip-path="url(#clipPath2)" stroke="none"/>
    </g>
    <g text-rendering="geometricPrecision" stroke-miterlimit="1.45" shape-rendering="geometricPrecision" transform="matrix(1,0,0,1,-599,-198)" stroke-linecap="butt">
      <rect fill="none" x="1203.45" width="80" height="30" y="213.3333" clip-path="url(#clipPath2)"/>
      <text x="1209.9929" xml:space="preserve" y="232.4876" clip-path="url(#clipPath2)" font-family="sans-serif" stroke="none">DataFrame</text>
    </g>
    <g fill="rgb(204,255,204)" text-rendering="geometricPrecision" shape-rendering="geometricPrecision" transform="matrix(1,0,0,1,-599,-198)" stroke="rgb(204,255,204)">
      <rect x="972.7" width="115" height="30" y="213.3333" clip-path="url(#clipPath2)" stroke="none"/>
    </g>
    <g text-rendering="geometricPrecision" stroke-miterlimit="1.45" shape-rendering="geometricPrecision" transform="matrix(1,0,0,1,-599,-198)" stroke-linecap="butt">
      <rect fill="none" x="972.7" width="115" height="30" y="213.3333" clip-path="url(#clipPath2)"/>
      <text x="975.8279" xml:space="preserve" y="232.4876" clip-path="url(#clipPath2)" font-family="sans-serif" stroke="none">Nested dataframe</text>
    </g>
    <g fill="rgb(153,204,255)" text-rendering="geometricPrecision" shape-rendering="geometricPrecision" transform="matrix(1,0,0,1,-599,-198)" stroke="rgb(153,204,255)">
      <rect x="752.25" width="30" height="30" y="291" clip-path="url(#clipPath2)" stroke="none"/>
    </g>
    <g text-rendering="geometricPrecision" stroke-miterlimit="1.45" shape-rendering="geometricPrecision" transform="matrix(1,0,0,1,-599,-198)" stroke-linecap="butt">
      <rect fill="none" x="752.25" width="30" height="30" y="291" clip-path="url(#clipPath2)"/>
    </g>
    <g fill="rgb(153,204,255)" text-rendering="geometricPrecision" shape-rendering="geometricPrecision" transform="matrix(1,0,0,1,-599,-198)" stroke="rgb(153,204,255)">
      <rect x="752.25" width="30" height="30" y="491" clip-path="url(#clipPath2)" stroke="none"/>
    </g>
    <g text-rendering="geometricPrecision" stroke-miterlimit="1.45" shape-rendering="geometricPrecision" transform="matrix(1,0,0,1,-599,-198)" stroke-linecap="butt">
      <rect fill="none" x="752.25" width="30" height="30" y="491" clip-path="url(#clipPath2)"/>
    </g>
    <g fill="rgb(153,204,255)" text-rendering="geometricPrecision" shape-rendering="geometricPrecision" transform="matrix(1,0,0,1,-599,-198)" stroke="rgb(153,204,255)">
      <rect x="796.75" width="30" height="30" y="291" clip-path="url(#clipPath2)" stroke="none"/>
    </g>
    <g text-rendering="geometricPrecision" stroke-miterlimit="1.45" shape-rendering="geometricPrecision" transform="matrix(1,0,0,1,-599,-198)" stroke-linecap="butt">
      <rect fill="none" x="796.75" width="30" height="30" y="291" clip-path="url(#clipPath2)"/>
    </g>
    <g fill="rgb(153,204,255)" text-rendering="geometricPrecision" shape-rendering="geometricPrecision" transform="matrix(1,0,0,1,-599,-198)" stroke="rgb(153,204,255)">
      <rect x="796.75" width="30" height="30" y="321" clip-path="url(#clipPath2)" stroke="none"/>
    </g>
    <g text-rendering="geometricPrecision" stroke-miterlimit="1.45" shape-rendering="geometricPrecision" transform="matrix(1,0,0,1,-599,-198)" stroke-linecap="butt">
      <rect fill="none" x="796.75" width="30" height="30" y="321" clip-path="url(#clipPath2)"/>
    </g>
    <g fill="rgb(153,204,255)" text-rendering="geometricPrecision" shape-rendering="geometricPrecision" transform="matrix(1,0,0,1,-599,-198)" stroke="rgb(153,204,255)">
      <rect x="796.75" width="30" height="30" y="351" clip-path="url(#clipPath2)" stroke="none"/>
    </g>
    <g text-rendering="geometricPrecision" stroke-miterlimit="1.45" shape-rendering="geometricPrecision" transform="matrix(1,0,0,1,-599,-198)" stroke-linecap="butt">
      <rect fill="none" x="796.75" width="30" height="30" y="351" clip-path="url(#clipPath2)"/>
    </g>
    <g fill="rgb(153,204,255)" text-rendering="geometricPrecision" shape-rendering="geometricPrecision" transform="matrix(1,0,0,1,-599,-198)" stroke="rgb(153,204,255)">
      <rect x="796.75" width="30" height="30" y="381" clip-path="url(#clipPath2)" stroke="none"/>
    </g>
    <g text-rendering="geometricPrecision" stroke-miterlimit="1.45" shape-rendering="geometricPrecision" transform="matrix(1,0,0,1,-599,-198)" stroke-linecap="butt">
      <rect fill="none" x="796.75" width="30" height="30" y="381" clip-path="url(#clipPath2)"/>
    </g>
    <g fill="rgb(153,204,255)" text-rendering="geometricPrecision" shape-rendering="geometricPrecision" transform="matrix(1,0,0,1,-599,-198)" stroke="rgb(153,204,255)">
      <rect x="796.75" width="30" height="30" y="411" clip-path="url(#clipPath2)" stroke="none"/>
    </g>
    <g text-rendering="geometricPrecision" stroke-miterlimit="1.45" shape-rendering="geometricPrecision" transform="matrix(1,0,0,1,-599,-198)" stroke-linecap="butt">
      <rect fill="none" x="796.75" width="30" height="30" y="411" clip-path="url(#clipPath2)"/>
    </g>
    <g fill="rgb(153,204,255)" text-rendering="geometricPrecision" shape-rendering="geometricPrecision" transform="matrix(1,0,0,1,-599,-198)" stroke="rgb(153,204,255)">
      <rect x="796.75" width="30" height="30" y="441" clip-path="url(#clipPath2)" stroke="none"/>
    </g>
    <g text-rendering="geometricPrecision" stroke-miterlimit="1.45" shape-rendering="geometricPrecision" transform="matrix(1,0,0,1,-599,-198)" stroke-linecap="butt">
      <rect fill="none" x="796.75" width="30" height="30" y="441" clip-path="url(#clipPath2)"/>
    </g>
    <g fill="rgb(153,204,255)" text-rendering="geometricPrecision" shape-rendering="geometricPrecision" transform="matrix(1,0,0,1,-599,-198)" stroke="rgb(153,204,255)">
      <rect x="841.25" width="30" height="30" y="291" clip-path="url(#clipPath2)" stroke="none"/>
    </g>
    <g text-rendering="geometricPrecision" stroke-miterlimit="1.45" shape-rendering="geometricPrecision" transform="matrix(1,0,0,1,-599,-198)" stroke-linecap="butt">
      <rect fill="none" x="841.25" width="30" height="30" y="291" clip-path="url(#clipPath2)"/>
    </g>
    <g fill="rgb(153,204,255)" text-rendering="geometricPrecision" shape-rendering="geometricPrecision" transform="matrix(1,0,0,1,-599,-198)" stroke="rgb(153,204,255)">
      <rect x="841.25" width="30" height="30" y="321" clip-path="url(#clipPath2)" stroke="none"/>
    </g>
    <g text-rendering="geometricPrecision" stroke-miterlimit="1.45" shape-rendering="geometricPrecision" transform="matrix(1,0,0,1,-599,-198)" stroke-linecap="butt">
      <rect fill="none" x="841.25" width="30" height="30" y="321" clip-path="url(#clipPath2)"/>
    </g>
    <g fill="rgb(153,204,255)" text-rendering="geometricPrecision" shape-rendering="geometricPrecision" transform="matrix(1,0,0,1,-599,-198)" stroke="rgb(153,204,255)">
      <rect x="841.25" width="30" height="30" y="351" clip-path="url(#clipPath2)" stroke="none"/>
    </g>
    <g text-rendering="geometricPrecision" stroke-miterlimit="1.45" shape-rendering="geometricPrecision" transform="matrix(1,0,0,1,-599,-198)" stroke-linecap="butt">
      <rect fill="none" x="841.25" width="30" height="30" y="351" clip-path="url(#clipPath2)"/>
    </g>
    <g fill="rgb(153,204,255)" text-rendering="geometricPrecision" shape-rendering="geometricPrecision" transform="matrix(1,0,0,1,-599,-198)" stroke="rgb(153,204,255)">
      <rect x="841.25" width="30" height="30" y="381" clip-path="url(#clipPath2)" stroke="none"/>
    </g>
    <g text-rendering="geometricPrecision" stroke-miterlimit="1.45" shape-rendering="geometricPrecision" transform="matrix(1,0,0,1,-599,-198)" stroke-linecap="butt">
      <rect fill="none" x="841.25" width="30" height="30" y="381" clip-path="url(#clipPath2)"/>
    </g>
    <g fill="rgb(153,204,255)" text-rendering="geometricPrecision" shape-rendering="geometricPrecision" transform="matrix(1,0,0,1,-599,-198)" stroke="rgb(153,204,255)">
      <rect x="841.25" width="30" height="30" y="411" clip-path="url(#clipPath2)" stroke="none"/>
    </g>
    <g text-rendering="geometricPrecision" stroke-miterlimit="1.45" shape-rendering="geometricPrecision" transform="matrix(1,0,0,1,-599,-198)" stroke-linecap="butt">
      <rect fill="none" x="841.25" width="30" height="30" y="411" clip-path="url(#clipPath2)"/>
    </g>
    <g fill="rgb(153,204,255)" text-rendering="geometricPrecision" shape-rendering="geometricPrecision" transform="matrix(1,0,0,1,-599,-198)" stroke="rgb(153,204,255)">
      <rect x="841.25" width="30" height="30" y="441" clip-path="url(#clipPath2)" stroke="none"/>
    </g>
    <g text-rendering="geometricPrecision" stroke-miterlimit="1.45" shape-rendering="geometricPrecision" transform="matrix(1,0,0,1,-599,-198)" stroke-linecap="butt">
      <rect fill="none" x="841.25" width="30" height="30" y="441" clip-path="url(#clipPath2)"/>
      <rect x="742.25" y="280" clip-path="url(#clipPath2)" fill="none" width="136" rx="4" ry="4" height="396.3333"/>
    </g>
    <g fill="rgb(204,255,204)" text-rendering="geometricPrecision" shape-rendering="geometricPrecision" transform="matrix(1,0,0,1,-599,-198)" stroke="rgb(204,255,204)">
      <rect x="738.25" width="147" height="30" y="214.3333" clip-path="url(#clipPath2)" stroke="none"/>
    </g>
    <g text-rendering="geometricPrecision" stroke-miterlimit="1.45" shape-rendering="geometricPrecision" transform="matrix(1,0,0,1,-599,-198)" stroke-linecap="butt">
      <rect fill="none" x="738.25" width="147" height="30" y="214.3333" clip-path="url(#clipPath2)"/>
      <text x="751.8262" xml:space="preserve" y="233.4876" clip-path="url(#clipPath2)" font-family="sans-serif" stroke="none">Grouped Dataframe</text>
    </g>
    <g fill="rgb(204,255,204)" text-rendering="geometricPrecision" shape-rendering="geometricPrecision" transform="matrix(1,0,0,1,-599,-198)" stroke="rgb(204,255,204)">
      <rect x="614.45" width="115" height="30" y="291" clip-path="url(#clipPath2)" stroke="none"/>
    </g>
    <g text-rendering="geometricPrecision" stroke-miterlimit="1.45" shape-rendering="geometricPrecision" transform="matrix(1,0,0,1,-599,-198)" stroke-linecap="butt">
      <rect fill="none" x="614.45" width="115" height="30" y="291" clip-path="url(#clipPath2)"/>
      <text x="618.1609" xml:space="preserve" y="310.1543" clip-path="url(#clipPath2)" font-family="sans-serif" stroke="none">Grouping variable</text>
    </g>
    <g fill="rgb(153,204,255)" text-rendering="geometricPrecision" shape-rendering="geometricPrecision" transform="matrix(1,0,0,1,-599,-198)" stroke="rgb(153,204,255)">
      <rect x="796.75" width="30" height="30" y="491" clip-path="url(#clipPath2)" stroke="none"/>
    </g>
    <g text-rendering="geometricPrecision" stroke-miterlimit="1.45" shape-rendering="geometricPrecision" transform="matrix(1,0,0,1,-599,-198)" stroke-linecap="butt">
      <rect fill="none" x="796.75" width="30" height="30" y="491" clip-path="url(#clipPath2)"/>
    </g>
    <g fill="rgb(153,204,255)" text-rendering="geometricPrecision" shape-rendering="geometricPrecision" transform="matrix(1,0,0,1,-599,-198)" stroke="rgb(153,204,255)">
      <rect x="796.75" width="30" height="30" y="521" clip-path="url(#clipPath2)" stroke="none"/>
    </g>
    <g text-rendering="geometricPrecision" stroke-miterlimit="1.45" shape-rendering="geometricPrecision" transform="matrix(1,0,0,1,-599,-198)" stroke-linecap="butt">
      <rect fill="none" x="796.75" width="30" height="30" y="521" clip-path="url(#clipPath2)"/>
    </g>
    <g fill="rgb(153,204,255)" text-rendering="geometricPrecision" shape-rendering="geometricPrecision" transform="matrix(1,0,0,1,-599,-198)" stroke="rgb(153,204,255)">
      <rect x="796.75" width="30" height="30" y="551" clip-path="url(#clipPath2)" stroke="none"/>
    </g>
    <g text-rendering="geometricPrecision" stroke-miterlimit="1.45" shape-rendering="geometricPrecision" transform="matrix(1,0,0,1,-599,-198)" stroke-linecap="butt">
      <rect fill="none" x="796.75" width="30" height="30" y="551" clip-path="url(#clipPath2)"/>
    </g>
    <g fill="rgb(153,204,255)" text-rendering="geometricPrecision" shape-rendering="geometricPrecision" transform="matrix(1,0,0,1,-599,-198)" stroke="rgb(153,204,255)">
      <rect x="796.75" width="30" height="30" y="581" clip-path="url(#clipPath2)" stroke="none"/>
    </g>
    <g text-rendering="geometricPrecision" stroke-miterlimit="1.45" shape-rendering="geometricPrecision" transform="matrix(1,0,0,1,-599,-198)" stroke-linecap="butt">
      <rect fill="none" x="796.75" width="30" height="30" y="581" clip-path="url(#clipPath2)"/>
    </g>
    <g fill="rgb(153,204,255)" text-rendering="geometricPrecision" shape-rendering="geometricPrecision" transform="matrix(1,0,0,1,-599,-198)" stroke="rgb(153,204,255)">
      <rect x="796.75" width="30" height="30" y="611" clip-path="url(#clipPath2)" stroke="none"/>
    </g>
    <g text-rendering="geometricPrecision" stroke-miterlimit="1.45" shape-rendering="geometricPrecision" transform="matrix(1,0,0,1,-599,-198)" stroke-linecap="butt">
      <rect fill="none" x="796.75" width="30" height="30" y="611" clip-path="url(#clipPath2)"/>
    </g>
    <g fill="rgb(153,204,255)" text-rendering="geometricPrecision" shape-rendering="geometricPrecision" transform="matrix(1,0,0,1,-599,-198)" stroke="rgb(153,204,255)">
      <rect x="796.75" width="30" height="30" y="641" clip-path="url(#clipPath2)" stroke="none"/>
    </g>
    <g text-rendering="geometricPrecision" stroke-miterlimit="1.45" shape-rendering="geometricPrecision" transform="matrix(1,0,0,1,-599,-198)" stroke-linecap="butt">
      <rect fill="none" x="796.75" width="30" height="30" y="641" clip-path="url(#clipPath2)"/>
    </g>
    <g fill="rgb(153,204,255)" text-rendering="geometricPrecision" shape-rendering="geometricPrecision" transform="matrix(1,0,0,1,-599,-198)" stroke="rgb(153,204,255)">
      <rect x="841.25" width="30" height="30" y="491" clip-path="url(#clipPath2)" stroke="none"/>
    </g>
    <g text-rendering="geometricPrecision" stroke-miterlimit="1.45" shape-rendering="geometricPrecision" transform="matrix(1,0,0,1,-599,-198)" stroke-linecap="butt">
      <rect fill="none" x="841.25" width="30" height="30" y="491" clip-path="url(#clipPath2)"/>
    </g>
    <g fill="rgb(153,204,255)" text-rendering="geometricPrecision" shape-rendering="geometricPrecision" transform="matrix(1,0,0,1,-599,-198)" stroke="rgb(153,204,255)">
      <rect x="841.25" width="30" height="30" y="521" clip-path="url(#clipPath2)" stroke="none"/>
    </g>
    <g text-rendering="geometricPrecision" stroke-miterlimit="1.45" shape-rendering="geometricPrecision" transform="matrix(1,0,0,1,-599,-198)" stroke-linecap="butt">
      <rect fill="none" x="841.25" width="30" height="30" y="521" clip-path="url(#clipPath2)"/>
    </g>
    <g fill="rgb(153,204,255)" text-rendering="geometricPrecision" shape-rendering="geometricPrecision" transform="matrix(1,0,0,1,-599,-198)" stroke="rgb(153,204,255)">
      <rect x="841.25" width="30" height="30" y="551" clip-path="url(#clipPath2)" stroke="none"/>
    </g>
    <g text-rendering="geometricPrecision" stroke-miterlimit="1.45" shape-rendering="geometricPrecision" transform="matrix(1,0,0,1,-599,-198)" stroke-linecap="butt">
      <rect fill="none" x="841.25" width="30" height="30" y="551" clip-path="url(#clipPath2)"/>
    </g>
    <g fill="rgb(153,204,255)" text-rendering="geometricPrecision" shape-rendering="geometricPrecision" transform="matrix(1,0,0,1,-599,-198)" stroke="rgb(153,204,255)">
      <rect x="841.25" width="30" height="30" y="581" clip-path="url(#clipPath2)" stroke="none"/>
    </g>
    <g text-rendering="geometricPrecision" stroke-miterlimit="1.45" shape-rendering="geometricPrecision" transform="matrix(1,0,0,1,-599,-198)" stroke-linecap="butt">
      <rect fill="none" x="841.25" width="30" height="30" y="581" clip-path="url(#clipPath2)"/>
    </g>
    <g fill="rgb(153,204,255)" text-rendering="geometricPrecision" shape-rendering="geometricPrecision" transform="matrix(1,0,0,1,-599,-198)" stroke="rgb(153,204,255)">
      <rect x="841.25" width="30" height="30" y="611" clip-path="url(#clipPath2)" stroke="none"/>
    </g>
    <g text-rendering="geometricPrecision" stroke-miterlimit="1.45" shape-rendering="geometricPrecision" transform="matrix(1,0,0,1,-599,-198)" stroke-linecap="butt">
      <rect fill="none" x="841.25" width="30" height="30" y="611" clip-path="url(#clipPath2)"/>
    </g>
    <g fill="rgb(153,204,255)" text-rendering="geometricPrecision" shape-rendering="geometricPrecision" transform="matrix(1,0,0,1,-599,-198)" stroke="rgb(153,204,255)">
      <rect x="841.25" width="30" height="30" y="641" clip-path="url(#clipPath2)" stroke="none"/>
    </g>
    <g text-rendering="geometricPrecision" stroke-miterlimit="1.45" shape-rendering="geometricPrecision" transform="matrix(1,0,0,1,-599,-198)" stroke-linecap="butt">
      <rect fill="none" x="841.25" width="30" height="30" y="641" clip-path="url(#clipPath2)"/>
    </g>
    <g fill="rgb(153,204,255)" text-rendering="geometricPrecision" shape-rendering="geometricPrecision" transform="matrix(1,0,0,1,-599,-198)" stroke="rgb(153,204,255)">
      <rect x="958.5" width="30" height="30" y="291" clip-path="url(#clipPath2)" stroke="none"/>
    </g>
    <g text-rendering="geometricPrecision" stroke-miterlimit="1.45" shape-rendering="geometricPrecision" transform="matrix(1,0,0,1,-599,-198)" stroke-linecap="butt">
      <rect fill="none" x="958.5" width="30" height="30" y="291" clip-path="url(#clipPath2)"/>
    </g>
    <g fill="rgb(153,204,255)" text-rendering="geometricPrecision" shape-rendering="geometricPrecision" transform="matrix(1,0,0,1,-599,-198)" stroke="rgb(153,204,255)">
      <rect x="958.5" width="30" height="30" y="491" clip-path="url(#clipPath2)" stroke="none"/>
    </g>
    <g text-rendering="geometricPrecision" stroke-miterlimit="1.45" shape-rendering="geometricPrecision" transform="matrix(1,0,0,1,-599,-198)" stroke-linecap="butt">
      <rect fill="none" x="958.5" width="30" height="30" y="491" clip-path="url(#clipPath2)"/>
    </g>
    <g fill="rgb(153,204,255)" text-rendering="geometricPrecision" shape-rendering="geometricPrecision" transform="matrix(1,0,0,1,-599,-198)" stroke="rgb(153,204,255)">
      <rect x="1003" width="30" height="30" y="291" clip-path="url(#clipPath2)" stroke="none"/>
    </g>
    <g text-rendering="geometricPrecision" stroke-miterlimit="1.45" shape-rendering="geometricPrecision" transform="matrix(1,0,0,1,-599,-198)" stroke-linecap="butt">
      <rect fill="none" x="1003" width="30" height="30" y="291" clip-path="url(#clipPath2)"/>
    </g>
    <g fill="rgb(153,204,255)" text-rendering="geometricPrecision" shape-rendering="geometricPrecision" transform="matrix(1,0,0,1,-599,-198)" stroke="rgb(153,204,255)">
      <rect x="1003" width="30" height="30" y="321" clip-path="url(#clipPath2)" stroke="none"/>
    </g>
    <g text-rendering="geometricPrecision" stroke-miterlimit="1.45" shape-rendering="geometricPrecision" transform="matrix(1,0,0,1,-599,-198)" stroke-linecap="butt">
      <rect fill="none" x="1003" width="30" height="30" y="321" clip-path="url(#clipPath2)"/>
    </g>
    <g fill="rgb(153,204,255)" text-rendering="geometricPrecision" shape-rendering="geometricPrecision" transform="matrix(1,0,0,1,-599,-198)" stroke="rgb(153,204,255)">
      <rect x="1003" width="30" height="30" y="351" clip-path="url(#clipPath2)" stroke="none"/>
    </g>
    <g text-rendering="geometricPrecision" stroke-miterlimit="1.45" shape-rendering="geometricPrecision" transform="matrix(1,0,0,1,-599,-198)" stroke-linecap="butt">
      <rect fill="none" x="1003" width="30" height="30" y="351" clip-path="url(#clipPath2)"/>
    </g>
    <g fill="rgb(153,204,255)" text-rendering="geometricPrecision" shape-rendering="geometricPrecision" transform="matrix(1,0,0,1,-599,-198)" stroke="rgb(153,204,255)">
      <rect x="1003" width="30" height="30" y="381" clip-path="url(#clipPath2)" stroke="none"/>
    </g>
    <g text-rendering="geometricPrecision" stroke-miterlimit="1.45" shape-rendering="geometricPrecision" transform="matrix(1,0,0,1,-599,-198)" stroke-linecap="butt">
      <rect fill="none" x="1003" width="30" height="30" y="381" clip-path="url(#clipPath2)"/>
    </g>
    <g fill="rgb(153,204,255)" text-rendering="geometricPrecision" shape-rendering="geometricPrecision" transform="matrix(1,0,0,1,-599,-198)" stroke="rgb(153,204,255)">
      <rect x="1003" width="30" height="30" y="411" clip-path="url(#clipPath2)" stroke="none"/>
    </g>
    <g text-rendering="geometricPrecision" stroke-miterlimit="1.45" shape-rendering="geometricPrecision" transform="matrix(1,0,0,1,-599,-198)" stroke-linecap="butt">
      <rect fill="none" x="1003" width="30" height="30" y="411" clip-path="url(#clipPath2)"/>
    </g>
    <g fill="rgb(153,204,255)" text-rendering="geometricPrecision" shape-rendering="geometricPrecision" transform="matrix(1,0,0,1,-599,-198)" stroke="rgb(153,204,255)">
      <rect x="1003" width="30" height="30" y="441" clip-path="url(#clipPath2)" stroke="none"/>
    </g>
    <g text-rendering="geometricPrecision" stroke-miterlimit="1.45" shape-rendering="geometricPrecision" transform="matrix(1,0,0,1,-599,-198)" stroke-linecap="butt">
      <rect fill="none" x="1003" width="30" height="30" y="441" clip-path="url(#clipPath2)"/>
    </g>
    <g fill="rgb(153,204,255)" text-rendering="geometricPrecision" shape-rendering="geometricPrecision" transform="matrix(1,0,0,1,-599,-198)" stroke="rgb(153,204,255)">
      <rect x="1047.5" width="30" height="30" y="291" clip-path="url(#clipPath2)" stroke="none"/>
    </g>
    <g text-rendering="geometricPrecision" stroke-miterlimit="1.45" shape-rendering="geometricPrecision" transform="matrix(1,0,0,1,-599,-198)" stroke-linecap="butt">
      <rect fill="none" x="1047.5" width="30" height="30" y="291" clip-path="url(#clipPath2)"/>
    </g>
    <g fill="rgb(153,204,255)" text-rendering="geometricPrecision" shape-rendering="geometricPrecision" transform="matrix(1,0,0,1,-599,-198)" stroke="rgb(153,204,255)">
      <rect x="1047.5" width="30" height="30" y="321" clip-path="url(#clipPath2)" stroke="none"/>
    </g>
    <g text-rendering="geometricPrecision" stroke-miterlimit="1.45" shape-rendering="geometricPrecision" transform="matrix(1,0,0,1,-599,-198)" stroke-linecap="butt">
      <rect fill="none" x="1047.5" width="30" height="30" y="321" clip-path="url(#clipPath2)"/>
    </g>
    <g fill="rgb(153,204,255)" text-rendering="geometricPrecision" shape-rendering="geometricPrecision" transform="matrix(1,0,0,1,-599,-198)" stroke="rgb(153,204,255)">
      <rect x="1047.5" width="30" height="30" y="351" clip-path="url(#clipPath2)" stroke="none"/>
    </g>
    <g text-rendering="geometricPrecision" stroke-miterlimit="1.45" shape-rendering="geometricPrecision" transform="matrix(1,0,0,1,-599,-198)" stroke-linecap="butt">
      <rect fill="none" x="1047.5" width="30" height="30" y="351" clip-path="url(#clipPath2)"/>
    </g>
    <g fill="rgb(153,204,255)" text-rendering="geometricPrecision" shape-rendering="geometricPrecision" transform="matrix(1,0,0,1,-599,-198)" stroke="rgb(153,204,255)">
      <rect x="1047.5" width="30" height="30" y="381" clip-path="url(#clipPath2)" stroke="none"/>
    </g>
    <g text-rendering="geometricPrecision" stroke-miterlimit="1.45" shape-rendering="geometricPrecision" transform="matrix(1,0,0,1,-599,-198)" stroke-linecap="butt">
      <rect fill="none" x="1047.5" width="30" height="30" y="381" clip-path="url(#clipPath2)"/>
    </g>
    <g fill="rgb(153,204,255)" text-rendering="geometricPrecision" shape-rendering="geometricPrecision" transform="matrix(1,0,0,1,-599,-198)" stroke="rgb(153,204,255)">
      <rect x="1047.5" width="30" height="30" y="411" clip-path="url(#clipPath2)" stroke="none"/>
    </g>
    <g text-rendering="geometricPrecision" stroke-miterlimit="1.45" shape-rendering="geometricPrecision" transform="matrix(1,0,0,1,-599,-198)" stroke-linecap="butt">
      <rect fill="none" x="1047.5" width="30" height="30" y="411" clip-path="url(#clipPath2)"/>
    </g>
    <g fill="rgb(153,204,255)" text-rendering="geometricPrecision" shape-rendering="geometricPrecision" transform="matrix(1,0,0,1,-599,-198)" stroke="rgb(153,204,255)">
      <rect x="1047.5" width="30" height="30" y="441" clip-path="url(#clipPath2)" stroke="none"/>
    </g>
    <g text-rendering="geometricPrecision" stroke-miterlimit="1.45" shape-rendering="geometricPrecision" transform="matrix(1,0,0,1,-599,-198)" stroke-linecap="butt">
      <rect fill="none" x="1047.5" width="30" height="30" y="441" clip-path="url(#clipPath2)"/>
      <rect x="947.2" y="280" clip-path="url(#clipPath2)" fill="none" width="166" rx="4" ry="4" height="404.0833"/>
    </g>
    <g fill="rgb(153,204,255)" text-rendering="geometricPrecision" shape-rendering="geometricPrecision" transform="matrix(1,0,0,1,-599,-198)" stroke="rgb(153,204,255)">
      <rect x="1003" width="30" height="30" y="491" clip-path="url(#clipPath2)" stroke="none"/>
    </g>
    <g text-rendering="geometricPrecision" stroke-miterlimit="1.45" shape-rendering="geometricPrecision" transform="matrix(1,0,0,1,-599,-198)" stroke-linecap="butt">
      <rect fill="none" x="1003" width="30" height="30" y="491" clip-path="url(#clipPath2)"/>
    </g>
    <g fill="rgb(153,204,255)" text-rendering="geometricPrecision" shape-rendering="geometricPrecision" transform="matrix(1,0,0,1,-599,-198)" stroke="rgb(153,204,255)">
      <rect x="1003" width="30" height="30" y="521" clip-path="url(#clipPath2)" stroke="none"/>
    </g>
    <g text-rendering="geometricPrecision" stroke-miterlimit="1.45" shape-rendering="geometricPrecision" transform="matrix(1,0,0,1,-599,-198)" stroke-linecap="butt">
      <rect fill="none" x="1003" width="30" height="30" y="521" clip-path="url(#clipPath2)"/>
    </g>
    <g fill="rgb(153,204,255)" text-rendering="geometricPrecision" shape-rendering="geometricPrecision" transform="matrix(1,0,0,1,-599,-198)" stroke="rgb(153,204,255)">
      <rect x="1003" width="30" height="30" y="551" clip-path="url(#clipPath2)" stroke="none"/>
    </g>
    <g text-rendering="geometricPrecision" stroke-miterlimit="1.45" shape-rendering="geometricPrecision" transform="matrix(1,0,0,1,-599,-198)" stroke-linecap="butt">
      <rect fill="none" x="1003" width="30" height="30" y="551" clip-path="url(#clipPath2)"/>
    </g>
    <g fill="rgb(153,204,255)" text-rendering="geometricPrecision" shape-rendering="geometricPrecision" transform="matrix(1,0,0,1,-599,-198)" stroke="rgb(153,204,255)">
      <rect x="1003" width="30" height="30" y="581" clip-path="url(#clipPath2)" stroke="none"/>
    </g>
    <g text-rendering="geometricPrecision" stroke-miterlimit="1.45" shape-rendering="geometricPrecision" transform="matrix(1,0,0,1,-599,-198)" stroke-linecap="butt">
      <rect fill="none" x="1003" width="30" height="30" y="581" clip-path="url(#clipPath2)"/>
    </g>
    <g fill="rgb(153,204,255)" text-rendering="geometricPrecision" shape-rendering="geometricPrecision" transform="matrix(1,0,0,1,-599,-198)" stroke="rgb(153,204,255)">
      <rect x="1003" width="30" height="30" y="611" clip-path="url(#clipPath2)" stroke="none"/>
    </g>
    <g text-rendering="geometricPrecision" stroke-miterlimit="1.45" shape-rendering="geometricPrecision" transform="matrix(1,0,0,1,-599,-198)" stroke-linecap="butt">
      <rect fill="none" x="1003" width="30" height="30" y="611" clip-path="url(#clipPath2)"/>
    </g>
    <g fill="rgb(153,204,255)" text-rendering="geometricPrecision" shape-rendering="geometricPrecision" transform="matrix(1,0,0,1,-599,-198)" stroke="rgb(153,204,255)">
      <rect x="1003" width="30" height="30" y="641" clip-path="url(#clipPath2)" stroke="none"/>
    </g>
    <g text-rendering="geometricPrecision" stroke-miterlimit="1.45" shape-rendering="geometricPrecision" transform="matrix(1,0,0,1,-599,-198)" stroke-linecap="butt">
      <rect fill="none" x="1003" width="30" height="30" y="641" clip-path="url(#clipPath2)"/>
    </g>
    <g fill="rgb(153,204,255)" text-rendering="geometricPrecision" shape-rendering="geometricPrecision" transform="matrix(1,0,0,1,-599,-198)" stroke="rgb(153,204,255)">
      <rect x="1047.5" width="30" height="30" y="491" clip-path="url(#clipPath2)" stroke="none"/>
    </g>
    <g text-rendering="geometricPrecision" stroke-miterlimit="1.45" shape-rendering="geometricPrecision" transform="matrix(1,0,0,1,-599,-198)" stroke-linecap="butt">
      <rect fill="none" x="1047.5" width="30" height="30" y="491" clip-path="url(#clipPath2)"/>
    </g>
    <g fill="rgb(153,204,255)" text-rendering="geometricPrecision" shape-rendering="geometricPrecision" transform="matrix(1,0,0,1,-599,-198)" stroke="rgb(153,204,255)">
      <rect x="1047.5" width="30" height="30" y="521" clip-path="url(#clipPath2)" stroke="none"/>
    </g>
    <g text-rendering="geometricPrecision" stroke-miterlimit="1.45" shape-rendering="geometricPrecision" transform="matrix(1,0,0,1,-599,-198)" stroke-linecap="butt">
      <rect fill="none" x="1047.5" width="30" height="30" y="521" clip-path="url(#clipPath2)"/>
    </g>
    <g fill="rgb(153,204,255)" text-rendering="geometricPrecision" shape-rendering="geometricPrecision" transform="matrix(1,0,0,1,-599,-198)" stroke="rgb(153,204,255)">
      <rect x="1047.5" width="30" height="30" y="551" clip-path="url(#clipPath2)" stroke="none"/>
    </g>
    <g text-rendering="geometricPrecision" stroke-miterlimit="1.45" shape-rendering="geometricPrecision" transform="matrix(1,0,0,1,-599,-198)" stroke-linecap="butt">
      <rect fill="none" x="1047.5" width="30" height="30" y="551" clip-path="url(#clipPath2)"/>
    </g>
    <g fill="rgb(153,204,255)" text-rendering="geometricPrecision" shape-rendering="geometricPrecision" transform="matrix(1,0,0,1,-599,-198)" stroke="rgb(153,204,255)">
      <rect x="1047.5" width="30" height="30" y="581" clip-path="url(#clipPath2)" stroke="none"/>
    </g>
    <g text-rendering="geometricPrecision" stroke-miterlimit="1.45" shape-rendering="geometricPrecision" transform="matrix(1,0,0,1,-599,-198)" stroke-linecap="butt">
      <rect fill="none" x="1047.5" width="30" height="30" y="581" clip-path="url(#clipPath2)"/>
    </g>
    <g fill="rgb(153,204,255)" text-rendering="geometricPrecision" shape-rendering="geometricPrecision" transform="matrix(1,0,0,1,-599,-198)" stroke="rgb(153,204,255)">
      <rect x="1047.5" width="30" height="30" y="611" clip-path="url(#clipPath2)" stroke="none"/>
    </g>
    <g text-rendering="geometricPrecision" stroke-miterlimit="1.45" shape-rendering="geometricPrecision" transform="matrix(1,0,0,1,-599,-198)" stroke-linecap="butt">
      <rect fill="none" x="1047.5" width="30" height="30" y="611" clip-path="url(#clipPath2)"/>
    </g>
    <g fill="rgb(153,204,255)" text-rendering="geometricPrecision" shape-rendering="geometricPrecision" transform="matrix(1,0,0,1,-599,-198)" stroke="rgb(153,204,255)">
      <rect x="1047.5" width="30" height="30" y="641" clip-path="url(#clipPath2)" stroke="none"/>
    </g>
    <g text-rendering="geometricPrecision" stroke-miterlimit="1.45" shape-rendering="geometricPrecision" transform="matrix(1,0,0,1,-599,-198)" stroke-linecap="butt">
      <rect fill="none" x="1047.5" width="30" height="30" y="641" clip-path="url(#clipPath2)"/>
      <rect x="994.5" y="284.8" clip-path="url(#clipPath2)" fill="none" width="91.5" rx="4" ry="4" height="189.8667"/>
      <rect x="994" y="486.4667" clip-path="url(#clipPath2)" fill="none" width="91.5" rx="4" ry="4" height="189.8667"/>
    </g>
    <g fill="rgb(204,255,204)" text-rendering="geometricPrecision" shape-rendering="geometricPrecision" transform="matrix(1,0,0,1,-599,-198)" stroke="rgb(204,255,204)">
      <path d="M1133.9108 321 L1196.9111 321 L1203.9125 336 L1196.9111 351 L1133.9108 351 L1140.9124 336 Z" fill-rule="evenodd" clip-path="url(#clipPath2)" stroke="none"/>
    </g>
    <g text-rendering="geometricPrecision" stroke-miterlimit="1.45" shape-rendering="geometricPrecision" transform="matrix(1,0,0,1,-599,-198)" stroke-linecap="butt">
      <path fill="none" d="M1133.9108 321 L1196.9111 321 L1203.9125 336 L1196.9111 351 L1133.9108 351 L1140.9124 336 Z" fill-rule="evenodd" clip-path="url(#clipPath2)"/>
      <text x="1143.0638" xml:space="preserve" y="340.1543" clip-path="url(#clipPath2)" font-family="sans-serif" stroke="none">Function</text>
    </g>
    <g fill="rgb(204,255,204)" text-rendering="geometricPrecision" shape-rendering="geometricPrecision" transform="matrix(1,0,0,1,-599,-198)" stroke="rgb(204,255,204)">
      <path d="M1133.9125 521.0001 L1196.9125 521.0001 L1203.9125 536.0002 L1196.9125 551.0002 L1133.9125 551.0002 L1140.9125 536.0002 Z" fill-rule="evenodd" clip-path="url(#clipPath2)" stroke="none"/>
    </g>
    <g text-rendering="geometricPrecision" stroke-miterlimit="1.45" shape-rendering="geometricPrecision" transform="matrix(1,0,0,1,-599,-198)" stroke-linecap="butt">
      <path fill="none" d="M1133.9125 521.0001 L1196.9125 521.0001 L1203.9125 536.0002 L1196.9125 551.0002 L1133.9125 551.0002 L1140.9125 536.0002 Z" fill-rule="evenodd" clip-path="url(#clipPath2)"/>
      <text x="1143.0638" xml:space="preserve" y="540.1543" clip-path="url(#clipPath2)" font-family="sans-serif" stroke="none">Function</text>
    </g>
    <g fill="rgb(153,204,255)" text-rendering="geometricPrecision" shape-rendering="geometricPrecision" transform="matrix(1,0,0,1,-599,-198)" stroke="rgb(153,204,255)">
      <rect x="1239.5" width="30" height="30" y="289.3333" clip-path="url(#clipPath2)" stroke="none"/>
    </g>
    <g text-rendering="geometricPrecision" stroke-miterlimit="1.45" shape-rendering="geometricPrecision" transform="matrix(1,0,0,1,-599,-198)" stroke-linecap="butt">
      <rect fill="none" x="1239.5" width="30" height="30" y="289.3333" clip-path="url(#clipPath2)"/>
    </g>
    <g fill="rgb(153,204,255)" text-rendering="geometricPrecision" shape-rendering="geometricPrecision" transform="matrix(1,0,0,1,-599,-198)" stroke="rgb(153,204,255)">
      <rect x="1239.5" width="30" height="30" y="489.3333" clip-path="url(#clipPath2)" stroke="none"/>
    </g>
    <g text-rendering="geometricPrecision" stroke-miterlimit="1.45" shape-rendering="geometricPrecision" transform="matrix(1,0,0,1,-599,-198)" stroke-linecap="butt">
      <rect fill="none" x="1239.5" width="30" height="30" y="489.3333" clip-path="url(#clipPath2)"/>
    </g>
    <g fill="rgb(153,204,255)" text-rendering="geometricPrecision" shape-rendering="geometricPrecision" transform="matrix(1,0,0,1,-599,-198)" stroke="rgb(153,204,255)">
      <rect x="1284" width="30" height="30" y="289.3333" clip-path="url(#clipPath2)" stroke="none"/>
    </g>
    <g text-rendering="geometricPrecision" stroke-miterlimit="1.45" shape-rendering="geometricPrecision" transform="matrix(1,0,0,1,-599,-198)" stroke-linecap="butt">
      <rect fill="none" x="1284" width="30" height="30" y="289.3333" clip-path="url(#clipPath2)"/>
    </g>
    <g fill="rgb(153,204,255)" text-rendering="geometricPrecision" shape-rendering="geometricPrecision" transform="matrix(1,0,0,1,-599,-198)" stroke="rgb(153,204,255)">
      <rect x="1284" width="30" height="30" y="319.3333" clip-path="url(#clipPath2)" stroke="none"/>
    </g>
    <g text-rendering="geometricPrecision" stroke-miterlimit="1.45" shape-rendering="geometricPrecision" transform="matrix(1,0,0,1,-599,-198)" stroke-linecap="butt">
      <rect fill="none" x="1284" width="30" height="30" y="319.3333" clip-path="url(#clipPath2)"/>
    </g>
    <g fill="rgb(153,204,255)" text-rendering="geometricPrecision" shape-rendering="geometricPrecision" transform="matrix(1,0,0,1,-599,-198)" stroke="rgb(153,204,255)">
      <rect x="1284" width="30" height="30" y="349.3333" clip-path="url(#clipPath2)" stroke="none"/>
    </g>
    <g text-rendering="geometricPrecision" stroke-miterlimit="1.45" shape-rendering="geometricPrecision" transform="matrix(1,0,0,1,-599,-198)" stroke-linecap="butt">
      <rect fill="none" x="1284" width="30" height="30" y="349.3333" clip-path="url(#clipPath2)"/>
      <rect x="1224.625" y="280" clip-path="url(#clipPath2)" fill="none" width="105.4" rx="4" ry="4" height="404.0833"/>
    </g>
    <g fill="rgb(153,204,255)" text-rendering="geometricPrecision" shape-rendering="geometricPrecision" transform="matrix(1,0,0,1,-599,-198)" stroke="rgb(153,204,255)">
      <rect x="1284" width="30" height="30" y="489.3333" clip-path="url(#clipPath2)" stroke="none"/>
    </g>
    <g text-rendering="geometricPrecision" stroke-miterlimit="1.45" shape-rendering="geometricPrecision" transform="matrix(1,0,0,1,-599,-198)" stroke-linecap="butt">
      <rect fill="none" x="1284" width="30" height="30" y="489.3333" clip-path="url(#clipPath2)"/>
    </g>
    <g fill="rgb(153,204,255)" text-rendering="geometricPrecision" shape-rendering="geometricPrecision" transform="matrix(1,0,0,1,-599,-198)" stroke="rgb(153,204,255)">
      <rect x="1284" width="30" height="30" y="519.3333" clip-path="url(#clipPath2)" stroke="none"/>
    </g>
    <g text-rendering="geometricPrecision" stroke-miterlimit="1.45" shape-rendering="geometricPrecision" transform="matrix(1,0,0,1,-599,-198)" stroke-linecap="butt">
      <rect fill="none" x="1284" width="30" height="30" y="519.3333" clip-path="url(#clipPath2)"/>
    </g>
    <g fill="rgb(153,204,255)" text-rendering="geometricPrecision" shape-rendering="geometricPrecision" transform="matrix(1,0,0,1,-599,-198)" stroke="rgb(153,204,255)">
      <rect x="1284" width="30" height="30" y="549.3333" clip-path="url(#clipPath2)" stroke="none"/>
    </g>
    <g text-rendering="geometricPrecision" stroke-miterlimit="1.45" shape-rendering="geometricPrecision" transform="matrix(1,0,0,1,-599,-198)" stroke-linecap="butt">
      <rect fill="none" x="1284" width="30" height="30" y="549.3333" clip-path="url(#clipPath2)"/>
      <rect x="1278.05" y="285.1333" clip-path="url(#clipPath2)" fill="none" width="41.9" rx="4" ry="4" height="99.8667"/>
      <rect x="1278.05" y="484.4" clip-path="url(#clipPath2)" fill="none" width="41.9" rx="4" ry="4" height="100.6"/>
      <path fill="none" d="M811.3062 244.3333 L810.4876 272.0025" clip-path="url(#clipPath2)"/>
      <path d="M810.251 279.999 L815.6037 268.1521 L810.5172 271.0029 L805.6081 267.8564 Z" clip-path="url(#clipPath2)" stroke="none"/>
      <path fill="none" d="M729.45 306 L744.25 306" clip-path="url(#clipPath2)"/>
      <path d="M752.25 306 L740.25 301 L743.25 306 L740.25 311 Z" clip-path="url(#clipPath2)" stroke="none"/>
      <path fill="none" d="M878.2745 479.1294 L941 480.0171 L947.2283 480.1585" clip-path="url(#clipPath2)"/>
      <path d="M947.2283 480.1585 L935.3448 474.8875 L938.2307 479.9543 L935.118 484.8849 Z" clip-path="url(#clipPath2)" stroke="none"/>
      <path fill="none" d="M1030.2 243.3333 L1030.2 271.9813" clip-path="url(#clipPath2)"/>
      <path d="M1030.2 279.9813 L1035.2 267.9813 L1030.2 270.9813 L1025.2 267.9813 Z" clip-path="url(#clipPath2)" stroke="none"/>
      <path fill="none" d="M1203.7969 243.3333 L1093.4161 285.0881" clip-path="url(#clipPath2)"/>
      <path d="M1085.9336 287.9186 L1098.9265 288.3495 L1094.3514 284.7343 L1095.3883 278.9963 Z" clip-path="url(#clipPath2)" stroke="none"/>
      <path fill="none" d="M1086.0225 336 L1132.9452 336" clip-path="url(#clipPath2)"/>
      <path d="M1140.9452 336 L1128.9452 331 L1131.9452 336 L1128.9452 341 Z" clip-path="url(#clipPath2)" stroke="none"/>
      <path fill="none" d="M1085.5171 536 L1132.9376 536" clip-path="url(#clipPath2)"/>
      <path d="M1140.9376 536 L1128.9376 531 L1131.9376 536 L1128.9376 541 Z" clip-path="url(#clipPath2)" stroke="none"/>
      <path fill="none" d="M1203.8164 335.7496 L1270.0393 335.2744" clip-path="url(#clipPath2)"/>
      <path d="M1278.0391 335.217 L1266.0035 330.3033 L1269.0393 335.2816 L1266.0752 340.303 Z" clip-path="url(#clipPath2)" stroke="none"/>
      <path fill="none" d="M1257.0232 243.3333 L1289.4578 279.1775" clip-path="url(#clipPath2)"/>
      <path d="M1294.8254 285.1094 L1290.4814 272.8567 L1288.7867 278.436 L1283.0664 279.5663 Z" clip-path="url(#clipPath2)" stroke="none"/>
      <path fill="none" d="M1203.7528 535.6519 L1270.0255 534.9896" clip-path="url(#clipPath2)"/>
      <path d="M1278.0251 534.9096 L1265.9758 530.0298 L1269.0256 534.9996 L1266.0757 540.0293 Z" clip-path="url(#clipPath2)" stroke="none"/>
    </g>
  </g>
</svg>
