<?xml version="1.0" encoding="UTF-8"?><svg xmlns="http://www.w3.org/2000/svg" xmlns:xlink="http://www.w3.org/1999/xlink" fill-opacity="1" color-rendering="auto" color-interpolation="auto" text-rendering="auto" stroke="black" stroke-linecap="square" width="824" stroke-miterlimit="10" shape-rendering="auto" stroke-opacity="1" fill="black" stroke-dasharray="none" font-weight="normal" stroke-width="1" height="510" font-family="'Dialog'" font-style="normal" stroke-linejoin="miter" font-size="12px" stroke-dashoffset="0" image-rendering="auto">
  <!--Generated by ySVG 2.5-->
  <defs id="genericDefs"/>
  <g>
    <defs id="defs1">
      <clipPath clipPathUnits="userSpaceOnUse" id="clipPath1">
        <path d="M0 0 L824 0 L824 510 L0 510 L0 0 Z"/>
      </clipPath>
      <clipPath clipPathUnits="userSpaceOnUse" id="clipPath2">
        <path d="M592 193 L1416 193 L1416 703 L592 703 L592 193 Z"/>
      </clipPath>
    </defs>
    <g fill="white" text-rendering="geometricPrecision" shape-rendering="geometricPrecision" transform="translate(-592,-193)" stroke="white">
      <rect x="592" width="824" height="510" y="193" clip-path="url(#clipPath2)" stroke="none"/>
    </g>
    <g fill="rgb(204,255,204)" text-rendering="geometricPrecision" shape-rendering="geometricPrecision" transform="matrix(1,0,0,1,-592,-193)" stroke="rgb(204,255,204)">
      <rect x="770.25" width="115" height="30" y="214.3333" clip-path="url(#clipPath2)" stroke="none"/>
    </g>
    <g text-rendering="geometricPrecision" stroke-miterlimit="1.45" shape-rendering="geometricPrecision" transform="matrix(1,0,0,1,-592,-193)" stroke-linecap="butt">
      <rect fill="none" x="770.25" width="115" height="30" y="214.3333" clip-path="url(#clipPath2)"/>
      <text x="773.3779" xml:space="preserve" y="233.4876" clip-path="url(#clipPath2)" font-family="sans-serif" stroke="none">Nested dataframe</text>
    </g>
    <g fill="rgb(153,204,255)" text-rendering="geometricPrecision" shape-rendering="geometricPrecision" transform="matrix(1,0,0,1,-592,-193)" stroke="rgb(153,204,255)">
      <rect x="752.25" width="30" height="30" y="291" clip-path="url(#clipPath2)" stroke="none"/>
    </g>
    <g text-rendering="geometricPrecision" stroke-miterlimit="1.45" shape-rendering="geometricPrecision" transform="matrix(1,0,0,1,-592,-193)" stroke-linecap="butt">
      <rect fill="none" x="752.25" width="30" height="30" y="291" clip-path="url(#clipPath2)"/>
    </g>
    <g fill="rgb(153,204,255)" text-rendering="geometricPrecision" shape-rendering="geometricPrecision" transform="matrix(1,0,0,1,-592,-193)" stroke="rgb(153,204,255)">
      <rect x="752.25" width="30" height="30" y="499.3333" clip-path="url(#clipPath2)" stroke="none"/>
    </g>
    <g text-rendering="geometricPrecision" stroke-miterlimit="1.45" shape-rendering="geometricPrecision" transform="matrix(1,0,0,1,-592,-193)" stroke-linecap="butt">
      <rect fill="none" x="752.25" width="30" height="30" y="499.3333" clip-path="url(#clipPath2)"/>
    </g>
    <g fill="red" text-rendering="geometricPrecision" shape-rendering="geometricPrecision" transform="matrix(1,0,0,1,-592,-193)" stroke="red">
      <rect x="796.75" width="30" height="30" y="291" clip-path="url(#clipPath2)" stroke="none"/>
    </g>
    <g text-rendering="geometricPrecision" stroke-miterlimit="1.45" shape-rendering="geometricPrecision" transform="matrix(1,0,0,1,-592,-193)" stroke-linecap="butt">
      <rect fill="none" x="796.75" width="30" height="30" y="291" clip-path="url(#clipPath2)"/>
    </g>
    <g fill="red" text-rendering="geometricPrecision" shape-rendering="geometricPrecision" transform="matrix(1,0,0,1,-592,-193)" stroke="red">
      <rect x="841.25" width="30" height="30" y="291" clip-path="url(#clipPath2)" stroke="none"/>
    </g>
    <g text-rendering="geometricPrecision" stroke-miterlimit="1.45" shape-rendering="geometricPrecision" transform="matrix(1,0,0,1,-592,-193)" stroke-linecap="butt">
      <rect fill="none" x="841.25" width="30" height="30" y="291" clip-path="url(#clipPath2)"/>
      <rect x="738.25" y="283.0667" clip-path="url(#clipPath2)" fill="none" width="147" rx="4" ry="4" height="396.3333"/>
    </g>
    <g fill="rgb(204,255,204)" text-rendering="geometricPrecision" shape-rendering="geometricPrecision" transform="matrix(1,0,0,1,-592,-193)" stroke="rgb(204,255,204)">
      <rect x="607.25" width="147" height="30" y="214.3333" clip-path="url(#clipPath2)" stroke="none"/>
    </g>
    <g text-rendering="geometricPrecision" stroke-miterlimit="1.45" shape-rendering="geometricPrecision" transform="matrix(1,0,0,1,-592,-193)" stroke-linecap="butt">
      <rect fill="none" x="607.25" width="147" height="30" y="214.3333" clip-path="url(#clipPath2)"/>
      <text x="620.8262" xml:space="preserve" y="233.4876" clip-path="url(#clipPath2)" font-family="sans-serif" stroke="none">Grouped Dataframe</text>
    </g>
    <g fill="rgb(204,255,204)" text-rendering="geometricPrecision" shape-rendering="geometricPrecision" transform="matrix(1,0,0,1,-592,-193)" stroke="rgb(204,255,204)">
      <rect x="607.25" width="115" height="30" y="291" clip-path="url(#clipPath2)" stroke="none"/>
    </g>
    <g text-rendering="geometricPrecision" stroke-miterlimit="1.45" shape-rendering="geometricPrecision" transform="matrix(1,0,0,1,-592,-193)" stroke-linecap="butt">
      <rect fill="none" x="607.25" width="115" height="30" y="291" clip-path="url(#clipPath2)"/>
      <text x="610.9609" xml:space="preserve" y="310.1543" clip-path="url(#clipPath2)" font-family="sans-serif" stroke="none">Grouping variable</text>
    </g>
    <g fill="rgb(153,204,255)" text-rendering="geometricPrecision" shape-rendering="geometricPrecision" transform="matrix(1,0,0,1,-592,-193)" stroke="rgb(153,204,255)">
      <rect x="1028.225" width="30" height="30" y="289.3333" clip-path="url(#clipPath2)" stroke="none"/>
    </g>
    <g text-rendering="geometricPrecision" stroke-miterlimit="1.45" shape-rendering="geometricPrecision" transform="matrix(1,0,0,1,-592,-193)" stroke-linecap="butt">
      <rect fill="none" x="1028.225" width="30" height="30" y="289.3333" clip-path="url(#clipPath2)"/>
    </g>
    <g fill="rgb(153,204,255)" text-rendering="geometricPrecision" shape-rendering="geometricPrecision" transform="matrix(1,0,0,1,-592,-193)" stroke="rgb(153,204,255)">
      <rect x="1028.225" width="30" height="30" y="319.3333" clip-path="url(#clipPath2)" stroke="none"/>
    </g>
    <g text-rendering="geometricPrecision" stroke-miterlimit="1.45" shape-rendering="geometricPrecision" transform="matrix(1,0,0,1,-592,-193)" stroke-linecap="butt">
      <rect fill="none" x="1028.225" width="30" height="30" y="319.3333" clip-path="url(#clipPath2)"/>
    </g>
    <g fill="rgb(153,204,255)" text-rendering="geometricPrecision" shape-rendering="geometricPrecision" transform="matrix(1,0,0,1,-592,-193)" stroke="rgb(153,204,255)">
      <rect x="1028.225" width="30" height="30" y="349.3333" clip-path="url(#clipPath2)" stroke="none"/>
    </g>
    <g text-rendering="geometricPrecision" stroke-miterlimit="1.45" shape-rendering="geometricPrecision" transform="matrix(1,0,0,1,-592,-193)" stroke-linecap="butt">
      <rect fill="none" x="1028.225" width="30" height="30" y="349.3333" clip-path="url(#clipPath2)"/>
    </g>
    <g fill="rgb(153,204,255)" text-rendering="geometricPrecision" shape-rendering="geometricPrecision" transform="matrix(1,0,0,1,-592,-193)" stroke="rgb(153,204,255)">
      <rect x="1028.225" width="30" height="30" y="379.3333" clip-path="url(#clipPath2)" stroke="none"/>
    </g>
    <g text-rendering="geometricPrecision" stroke-miterlimit="1.45" shape-rendering="geometricPrecision" transform="matrix(1,0,0,1,-592,-193)" stroke-linecap="butt">
      <rect fill="none" x="1028.225" width="30" height="30" y="379.3333" clip-path="url(#clipPath2)"/>
    </g>
    <g fill="rgb(153,204,255)" text-rendering="geometricPrecision" shape-rendering="geometricPrecision" transform="matrix(1,0,0,1,-592,-193)" stroke="rgb(153,204,255)">
      <rect x="1028.225" width="30" height="30" y="409.3333" clip-path="url(#clipPath2)" stroke="none"/>
    </g>
    <g text-rendering="geometricPrecision" stroke-miterlimit="1.45" shape-rendering="geometricPrecision" transform="matrix(1,0,0,1,-592,-193)" stroke-linecap="butt">
      <rect fill="none" x="1028.225" width="30" height="30" y="409.3333" clip-path="url(#clipPath2)"/>
    </g>
    <g fill="rgb(153,204,255)" text-rendering="geometricPrecision" shape-rendering="geometricPrecision" transform="matrix(1,0,0,1,-592,-193)" stroke="rgb(153,204,255)">
      <rect x="1028.225" width="30" height="30" y="439.3333" clip-path="url(#clipPath2)" stroke="none"/>
    </g>
    <g text-rendering="geometricPrecision" stroke-miterlimit="1.45" shape-rendering="geometricPrecision" transform="matrix(1,0,0,1,-592,-193)" stroke-linecap="butt">
      <rect fill="none" x="1028.225" width="30" height="30" y="439.3333" clip-path="url(#clipPath2)"/>
    </g>
    <g fill="rgb(153,204,255)" text-rendering="geometricPrecision" shape-rendering="geometricPrecision" transform="matrix(1,0,0,1,-592,-193)" stroke="rgb(153,204,255)">
      <rect x="1072.725" width="30" height="30" y="289.3333" clip-path="url(#clipPath2)" stroke="none"/>
    </g>
    <g text-rendering="geometricPrecision" stroke-miterlimit="1.45" shape-rendering="geometricPrecision" transform="matrix(1,0,0,1,-592,-193)" stroke-linecap="butt">
      <rect fill="none" x="1072.725" width="30" height="30" y="289.3333" clip-path="url(#clipPath2)"/>
    </g>
    <g fill="rgb(153,204,255)" text-rendering="geometricPrecision" shape-rendering="geometricPrecision" transform="matrix(1,0,0,1,-592,-193)" stroke="rgb(153,204,255)">
      <rect x="1072.725" width="30" height="30" y="319.3333" clip-path="url(#clipPath2)" stroke="none"/>
    </g>
    <g text-rendering="geometricPrecision" stroke-miterlimit="1.45" shape-rendering="geometricPrecision" transform="matrix(1,0,0,1,-592,-193)" stroke-linecap="butt">
      <rect fill="none" x="1072.725" width="30" height="30" y="319.3333" clip-path="url(#clipPath2)"/>
    </g>
    <g fill="rgb(153,204,255)" text-rendering="geometricPrecision" shape-rendering="geometricPrecision" transform="matrix(1,0,0,1,-592,-193)" stroke="rgb(153,204,255)">
      <rect x="1072.725" width="30" height="30" y="349.3333" clip-path="url(#clipPath2)" stroke="none"/>
    </g>
    <g text-rendering="geometricPrecision" stroke-miterlimit="1.45" shape-rendering="geometricPrecision" transform="matrix(1,0,0,1,-592,-193)" stroke-linecap="butt">
      <rect fill="none" x="1072.725" width="30" height="30" y="349.3333" clip-path="url(#clipPath2)"/>
    </g>
    <g fill="rgb(153,204,255)" text-rendering="geometricPrecision" shape-rendering="geometricPrecision" transform="matrix(1,0,0,1,-592,-193)" stroke="rgb(153,204,255)">
      <rect x="1072.725" width="30" height="30" y="379.3333" clip-path="url(#clipPath2)" stroke="none"/>
    </g>
    <g text-rendering="geometricPrecision" stroke-miterlimit="1.45" shape-rendering="geometricPrecision" transform="matrix(1,0,0,1,-592,-193)" stroke-linecap="butt">
      <rect fill="none" x="1072.725" width="30" height="30" y="379.3333" clip-path="url(#clipPath2)"/>
    </g>
    <g fill="rgb(153,204,255)" text-rendering="geometricPrecision" shape-rendering="geometricPrecision" transform="matrix(1,0,0,1,-592,-193)" stroke="rgb(153,204,255)">
      <rect x="1072.725" width="30" height="30" y="409.3333" clip-path="url(#clipPath2)" stroke="none"/>
    </g>
    <g text-rendering="geometricPrecision" stroke-miterlimit="1.45" shape-rendering="geometricPrecision" transform="matrix(1,0,0,1,-592,-193)" stroke-linecap="butt">
      <rect fill="none" x="1072.725" width="30" height="30" y="409.3333" clip-path="url(#clipPath2)"/>
    </g>
    <g fill="rgb(153,204,255)" text-rendering="geometricPrecision" shape-rendering="geometricPrecision" transform="matrix(1,0,0,1,-592,-193)" stroke="rgb(153,204,255)">
      <rect x="1072.725" width="30" height="30" y="439.3333" clip-path="url(#clipPath2)" stroke="none"/>
    </g>
    <g text-rendering="geometricPrecision" stroke-miterlimit="1.45" shape-rendering="geometricPrecision" transform="matrix(1,0,0,1,-592,-193)" stroke-linecap="butt">
      <rect fill="none" x="1072.725" width="30" height="30" y="439.3333" clip-path="url(#clipPath2)"/>
      <rect x="1019.725" y="283.1333" clip-path="url(#clipPath2)" fill="none" width="91.5" rx="4" ry="4" height="194.8667"/>
    </g>
    <g fill="rgb(204,153,255)" text-rendering="geometricPrecision" shape-rendering="geometricPrecision" transform="matrix(1,0,0,1,-592,-193)" stroke="rgb(204,153,255)">
      <path d="M1127.7104 283.1334 L1190.7107 283.1334 L1197.712 298.1334 L1190.7107 313.1334 L1127.7104 313.1334 L1134.712 298.1334 Z" fill-rule="evenodd" clip-path="url(#clipPath2)" stroke="none"/>
    </g>
    <g text-rendering="geometricPrecision" stroke-miterlimit="1.45" shape-rendering="geometricPrecision" transform="matrix(1,0,0,1,-592,-193)" stroke-linecap="butt">
      <path fill="none" d="M1127.7104 283.1334 L1190.7107 283.1334 L1197.712 298.1334 L1190.7107 313.1334 L1127.7104 313.1334 L1134.712 298.1334 Z" fill-rule="evenodd" clip-path="url(#clipPath2)"/>
      <text x="1136.8639" xml:space="preserve" y="302.2876" clip-path="url(#clipPath2)" font-family="sans-serif" stroke="none">Function</text>
    </g>
    <g fill="red" text-rendering="geometricPrecision" shape-rendering="geometricPrecision" transform="matrix(1,0,0,1,-592,-193)" stroke="red">
      <rect x="796.75" width="30" height="30" y="499.3333" clip-path="url(#clipPath2)" stroke="none"/>
    </g>
    <g text-rendering="geometricPrecision" stroke-miterlimit="1.45" shape-rendering="geometricPrecision" transform="matrix(1,0,0,1,-592,-193)" stroke-linecap="butt">
      <rect fill="none" x="796.75" width="30" height="30" y="499.3333" clip-path="url(#clipPath2)"/>
    </g>
    <g fill="red" text-rendering="geometricPrecision" shape-rendering="geometricPrecision" transform="matrix(1,0,0,1,-592,-193)" stroke="red">
      <rect x="841.25" width="30" height="30" y="499.3333" clip-path="url(#clipPath2)" stroke="none"/>
    </g>
    <g text-rendering="geometricPrecision" stroke-miterlimit="1.45" shape-rendering="geometricPrecision" transform="matrix(1,0,0,1,-592,-193)" stroke-linecap="butt">
      <rect fill="none" x="841.25" width="30" height="30" y="499.3333" clip-path="url(#clipPath2)"/>
    </g>
    <g fill="rgb(204,153,255)" text-rendering="geometricPrecision" shape-rendering="geometricPrecision" transform="matrix(1,0,0,1,-592,-193)" stroke="rgb(204,153,255)">
      <path d="M919.725 291 L982.725 291 L989.725 487.5417 L982.725 684.0833 L919.725 684.0833 L926.725 487.5417 Z" fill-rule="evenodd" clip-path="url(#clipPath2)" stroke="none"/>
    </g>
    <g text-rendering="geometricPrecision" stroke-miterlimit="1.45" shape-rendering="geometricPrecision" transform="matrix(1,0,0,1,-592,-193)" stroke-linecap="butt">
      <path fill="none" d="M919.725 291 L982.725 291 L989.725 487.5417 L982.725 684.0833 L919.725 684.0833 L926.725 487.5417 Z" fill-rule="evenodd" clip-path="url(#clipPath2)"/>
      <text x="928.976" xml:space="preserve" y="491.696" clip-path="url(#clipPath2)" font-family="sans-serif" stroke="none">Mapping</text>
    </g>
    <g fill="rgb(153,204,255)" text-rendering="geometricPrecision" shape-rendering="geometricPrecision" transform="matrix(1,0,0,1,-592,-193)" stroke="rgb(153,204,255)">
      <rect x="1028.225" width="30" height="30" y="499.3333" clip-path="url(#clipPath2)" stroke="none"/>
    </g>
    <g text-rendering="geometricPrecision" stroke-miterlimit="1.45" shape-rendering="geometricPrecision" transform="matrix(1,0,0,1,-592,-193)" stroke-linecap="butt">
      <rect fill="none" x="1028.225" width="30" height="30" y="499.3333" clip-path="url(#clipPath2)"/>
    </g>
    <g fill="rgb(153,204,255)" text-rendering="geometricPrecision" shape-rendering="geometricPrecision" transform="matrix(1,0,0,1,-592,-193)" stroke="rgb(153,204,255)">
      <rect x="1028.225" width="30" height="30" y="529.3333" clip-path="url(#clipPath2)" stroke="none"/>
    </g>
    <g text-rendering="geometricPrecision" stroke-miterlimit="1.45" shape-rendering="geometricPrecision" transform="matrix(1,0,0,1,-592,-193)" stroke-linecap="butt">
      <rect fill="none" x="1028.225" width="30" height="30" y="529.3333" clip-path="url(#clipPath2)"/>
    </g>
    <g fill="rgb(153,204,255)" text-rendering="geometricPrecision" shape-rendering="geometricPrecision" transform="matrix(1,0,0,1,-592,-193)" stroke="rgb(153,204,255)">
      <rect x="1028.225" width="30" height="30" y="559.3333" clip-path="url(#clipPath2)" stroke="none"/>
    </g>
    <g text-rendering="geometricPrecision" stroke-miterlimit="1.45" shape-rendering="geometricPrecision" transform="matrix(1,0,0,1,-592,-193)" stroke-linecap="butt">
      <rect fill="none" x="1028.225" width="30" height="30" y="559.3333" clip-path="url(#clipPath2)"/>
    </g>
    <g fill="rgb(153,204,255)" text-rendering="geometricPrecision" shape-rendering="geometricPrecision" transform="matrix(1,0,0,1,-592,-193)" stroke="rgb(153,204,255)">
      <rect x="1028.225" width="30" height="30" y="589.3333" clip-path="url(#clipPath2)" stroke="none"/>
    </g>
    <g text-rendering="geometricPrecision" stroke-miterlimit="1.45" shape-rendering="geometricPrecision" transform="matrix(1,0,0,1,-592,-193)" stroke-linecap="butt">
      <rect fill="none" x="1028.225" width="30" height="30" y="589.3333" clip-path="url(#clipPath2)"/>
    </g>
    <g fill="rgb(153,204,255)" text-rendering="geometricPrecision" shape-rendering="geometricPrecision" transform="matrix(1,0,0,1,-592,-193)" stroke="rgb(153,204,255)">
      <rect x="1028.225" width="30" height="30" y="619.3333" clip-path="url(#clipPath2)" stroke="none"/>
    </g>
    <g text-rendering="geometricPrecision" stroke-miterlimit="1.45" shape-rendering="geometricPrecision" transform="matrix(1,0,0,1,-592,-193)" stroke-linecap="butt">
      <rect fill="none" x="1028.225" width="30" height="30" y="619.3333" clip-path="url(#clipPath2)"/>
    </g>
    <g fill="rgb(153,204,255)" text-rendering="geometricPrecision" shape-rendering="geometricPrecision" transform="matrix(1,0,0,1,-592,-193)" stroke="rgb(153,204,255)">
      <rect x="1028.225" width="30" height="30" y="649.3333" clip-path="url(#clipPath2)" stroke="none"/>
    </g>
    <g text-rendering="geometricPrecision" stroke-miterlimit="1.45" shape-rendering="geometricPrecision" transform="matrix(1,0,0,1,-592,-193)" stroke-linecap="butt">
      <rect fill="none" x="1028.225" width="30" height="30" y="649.3333" clip-path="url(#clipPath2)"/>
    </g>
    <g fill="rgb(153,204,255)" text-rendering="geometricPrecision" shape-rendering="geometricPrecision" transform="matrix(1,0,0,1,-592,-193)" stroke="rgb(153,204,255)">
      <rect x="1072.725" width="30" height="30" y="499.3333" clip-path="url(#clipPath2)" stroke="none"/>
    </g>
    <g text-rendering="geometricPrecision" stroke-miterlimit="1.45" shape-rendering="geometricPrecision" transform="matrix(1,0,0,1,-592,-193)" stroke-linecap="butt">
      <rect fill="none" x="1072.725" width="30" height="30" y="499.3333" clip-path="url(#clipPath2)"/>
    </g>
    <g fill="rgb(153,204,255)" text-rendering="geometricPrecision" shape-rendering="geometricPrecision" transform="matrix(1,0,0,1,-592,-193)" stroke="rgb(153,204,255)">
      <rect x="1072.725" width="30" height="30" y="529.3333" clip-path="url(#clipPath2)" stroke="none"/>
    </g>
    <g text-rendering="geometricPrecision" stroke-miterlimit="1.45" shape-rendering="geometricPrecision" transform="matrix(1,0,0,1,-592,-193)" stroke-linecap="butt">
      <rect fill="none" x="1072.725" width="30" height="30" y="529.3333" clip-path="url(#clipPath2)"/>
    </g>
    <g fill="rgb(153,204,255)" text-rendering="geometricPrecision" shape-rendering="geometricPrecision" transform="matrix(1,0,0,1,-592,-193)" stroke="rgb(153,204,255)">
      <rect x="1072.725" width="30" height="30" y="559.3333" clip-path="url(#clipPath2)" stroke="none"/>
    </g>
    <g text-rendering="geometricPrecision" stroke-miterlimit="1.45" shape-rendering="geometricPrecision" transform="matrix(1,0,0,1,-592,-193)" stroke-linecap="butt">
      <rect fill="none" x="1072.725" width="30" height="30" y="559.3333" clip-path="url(#clipPath2)"/>
    </g>
    <g fill="rgb(153,204,255)" text-rendering="geometricPrecision" shape-rendering="geometricPrecision" transform="matrix(1,0,0,1,-592,-193)" stroke="rgb(153,204,255)">
      <rect x="1072.725" width="30" height="30" y="589.3333" clip-path="url(#clipPath2)" stroke="none"/>
    </g>
    <g text-rendering="geometricPrecision" stroke-miterlimit="1.45" shape-rendering="geometricPrecision" transform="matrix(1,0,0,1,-592,-193)" stroke-linecap="butt">
      <rect fill="none" x="1072.725" width="30" height="30" y="589.3333" clip-path="url(#clipPath2)"/>
    </g>
    <g fill="rgb(153,204,255)" text-rendering="geometricPrecision" shape-rendering="geometricPrecision" transform="matrix(1,0,0,1,-592,-193)" stroke="rgb(153,204,255)">
      <rect x="1072.725" width="30" height="30" y="619.3333" clip-path="url(#clipPath2)" stroke="none"/>
    </g>
    <g text-rendering="geometricPrecision" stroke-miterlimit="1.45" shape-rendering="geometricPrecision" transform="matrix(1,0,0,1,-592,-193)" stroke-linecap="butt">
      <rect fill="none" x="1072.725" width="30" height="30" y="619.3333" clip-path="url(#clipPath2)"/>
    </g>
    <g fill="rgb(153,204,255)" text-rendering="geometricPrecision" shape-rendering="geometricPrecision" transform="matrix(1,0,0,1,-592,-193)" stroke="rgb(153,204,255)">
      <rect x="1072.725" width="30" height="30" y="649.3333" clip-path="url(#clipPath2)" stroke="none"/>
    </g>
    <g text-rendering="geometricPrecision" stroke-miterlimit="1.45" shape-rendering="geometricPrecision" transform="matrix(1,0,0,1,-592,-193)" stroke-linecap="butt">
      <rect fill="none" x="1072.725" width="30" height="30" y="649.3333" clip-path="url(#clipPath2)"/>
      <rect x="1019.725" y="493.1333" clip-path="url(#clipPath2)" fill="none" width="91.5" rx="4" ry="4" height="194.8667"/>
    </g>
    <g fill="rgb(204,153,255)" text-rendering="geometricPrecision" shape-rendering="geometricPrecision" transform="matrix(1,0,0,1,-592,-193)" stroke="rgb(204,153,255)">
      <path d="M1127.7125 649.3333 L1190.7124 649.3333 L1197.7124 664.3333 L1190.7124 679.3333 L1127.7125 679.3333 L1134.7124 664.3333 Z" fill-rule="evenodd" clip-path="url(#clipPath2)" stroke="none"/>
    </g>
    <g text-rendering="geometricPrecision" stroke-miterlimit="1.45" shape-rendering="geometricPrecision" transform="matrix(1,0,0,1,-592,-193)" stroke-linecap="butt">
      <path fill="none" d="M1127.7125 649.3333 L1190.7124 649.3333 L1197.7124 664.3333 L1190.7124 679.3333 L1127.7125 679.3333 L1134.7124 664.3333 Z" fill-rule="evenodd" clip-path="url(#clipPath2)"/>
      <text x="1136.8639" xml:space="preserve" y="668.4876" clip-path="url(#clipPath2)" font-family="sans-serif" stroke="none">Function</text>
    </g>
    <g fill="rgb(153,204,255)" text-rendering="geometricPrecision" shape-rendering="geometricPrecision" transform="matrix(1,0,0,1,-592,-193)" stroke="rgb(153,204,255)">
      <rect x="1215.3125" width="30" height="30" y="295.2667" clip-path="url(#clipPath2)" stroke="none"/>
    </g>
    <g text-rendering="geometricPrecision" stroke-miterlimit="1.45" shape-rendering="geometricPrecision" transform="matrix(1,0,0,1,-592,-193)" stroke-linecap="butt">
      <rect fill="none" x="1215.3125" width="30" height="30" y="295.2667" clip-path="url(#clipPath2)"/>
    </g>
    <g fill="rgb(153,204,255)" text-rendering="geometricPrecision" shape-rendering="geometricPrecision" transform="matrix(1,0,0,1,-592,-193)" stroke="rgb(153,204,255)">
      <rect x="1215.3125" width="30" height="30" y="503.6" clip-path="url(#clipPath2)" stroke="none"/>
    </g>
    <g text-rendering="geometricPrecision" stroke-miterlimit="1.45" shape-rendering="geometricPrecision" transform="matrix(1,0,0,1,-592,-193)" stroke-linecap="butt">
      <rect fill="none" x="1215.3125" width="30" height="30" y="503.6" clip-path="url(#clipPath2)"/>
    </g>
    <g fill="red" text-rendering="geometricPrecision" shape-rendering="geometricPrecision" transform="matrix(1,0,0,1,-592,-193)" stroke="red">
      <rect x="1259.8125" width="30" height="30" y="295.2667" clip-path="url(#clipPath2)" stroke="none"/>
    </g>
    <g text-rendering="geometricPrecision" stroke-miterlimit="1.45" shape-rendering="geometricPrecision" transform="matrix(1,0,0,1,-592,-193)" stroke-linecap="butt">
      <rect fill="none" x="1259.8125" width="30" height="30" y="295.2667" clip-path="url(#clipPath2)"/>
    </g>
    <g fill="red" text-rendering="geometricPrecision" shape-rendering="geometricPrecision" transform="matrix(1,0,0,1,-592,-193)" stroke="red">
      <rect x="1304.3125" width="30" height="30" y="295.2667" clip-path="url(#clipPath2)" stroke="none"/>
    </g>
    <g text-rendering="geometricPrecision" stroke-miterlimit="1.45" shape-rendering="geometricPrecision" transform="matrix(1,0,0,1,-592,-193)" stroke-linecap="butt">
      <rect fill="none" x="1304.3125" width="30" height="30" y="295.2667" clip-path="url(#clipPath2)"/>
      <rect x="1206.6" y="283.0667" clip-path="url(#clipPath2)" fill="none" width="194.2" rx="4" ry="4" height="396.3333"/>
    </g>
    <g fill="rgb(204,255,204)" text-rendering="geometricPrecision" shape-rendering="geometricPrecision" transform="matrix(1,0,0,1,-592,-193)" stroke="rgb(204,255,204)">
      <rect x="1230.2" width="147" height="30" y="208.7333" clip-path="url(#clipPath2)" stroke="none"/>
    </g>
    <g text-rendering="geometricPrecision" stroke-miterlimit="1.45" shape-rendering="geometricPrecision" transform="matrix(1,0,0,1,-592,-193)" stroke-linecap="butt">
      <rect fill="none" x="1230.2" width="147" height="30" y="208.7333" clip-path="url(#clipPath2)"/>
      <text x="1243.7761" xml:space="preserve" y="227.8876" clip-path="url(#clipPath2)" font-family="sans-serif" stroke="none">Grouped Dataframe</text>
    </g>
    <g fill="red" text-rendering="geometricPrecision" shape-rendering="geometricPrecision" transform="matrix(1,0,0,1,-592,-193)" stroke="red">
      <rect x="1259.8125" width="30" height="30" y="503.6" clip-path="url(#clipPath2)" stroke="none"/>
    </g>
    <g text-rendering="geometricPrecision" stroke-miterlimit="1.45" shape-rendering="geometricPrecision" transform="matrix(1,0,0,1,-592,-193)" stroke-linecap="butt">
      <rect fill="none" x="1259.8125" width="30" height="30" y="503.6" clip-path="url(#clipPath2)"/>
    </g>
    <g fill="red" text-rendering="geometricPrecision" shape-rendering="geometricPrecision" transform="matrix(1,0,0,1,-592,-193)" stroke="red">
      <rect x="1304.3125" width="30" height="30" y="503.6" clip-path="url(#clipPath2)" stroke="none"/>
    </g>
    <g text-rendering="geometricPrecision" stroke-miterlimit="1.45" shape-rendering="geometricPrecision" transform="matrix(1,0,0,1,-592,-193)" stroke-linecap="butt">
      <rect fill="none" x="1304.3125" width="30" height="30" y="503.6" clip-path="url(#clipPath2)"/>
    </g>
    <g fill="red" text-rendering="geometricPrecision" shape-rendering="geometricPrecision" transform="matrix(1,0,0,1,-592,-193)" stroke="red">
      <rect x="1348.8125" width="30" height="30" y="295.2667" clip-path="url(#clipPath2)" stroke="none"/>
    </g>
    <g text-rendering="geometricPrecision" stroke-miterlimit="1.45" shape-rendering="geometricPrecision" transform="matrix(1,0,0,1,-592,-193)" stroke-linecap="butt">
      <rect fill="none" x="1348.8125" width="30" height="30" y="295.2667" clip-path="url(#clipPath2)"/>
    </g>
    <g fill="red" text-rendering="geometricPrecision" shape-rendering="geometricPrecision" transform="matrix(1,0,0,1,-592,-193)" stroke="red">
      <rect x="1348.8125" width="30" height="30" y="503.6" clip-path="url(#clipPath2)" stroke="none"/>
    </g>
    <g text-rendering="geometricPrecision" stroke-miterlimit="1.45" shape-rendering="geometricPrecision" transform="matrix(1,0,0,1,-592,-193)" stroke-linecap="butt">
      <rect fill="none" x="1348.8125" width="30" height="30" y="503.6" clip-path="url(#clipPath2)"/>
      <path fill="none" d="M856.25 244.3315 L856.25 283" clip-path="url(#clipPath2)"/>
      <path d="M856.25 291 L861.25 279 L856.25 282 L851.25 279 Z" clip-path="url(#clipPath2)" stroke="none"/>
      <path fill="none" d="M717.2964 244.3333 L804.303 280.044" clip-path="url(#clipPath2)"/>
      <path d="M811.7039 283.0816 L802.501 273.8997 L803.3779 279.6643 L798.704 283.1508 Z" clip-path="url(#clipPath2)" stroke="none"/>
      <path fill="none" d="M722.25 306 L744.25 306" clip-path="url(#clipPath2)"/>
      <path d="M752.25 306 L740.25 301 L743.25 306 L740.25 311 Z" clip-path="url(#clipPath2)" stroke="none"/>
      <path fill="none" d="M1111.2004 298.1333 L1126.7179 298.1333" clip-path="url(#clipPath2)"/>
      <path d="M1134.7179 298.1333 L1122.7179 293.1333 L1125.7179 298.1333 L1122.7179 303.1333 Z" clip-path="url(#clipPath2)" stroke="none"/>
      <path fill="none" d="M871.25 514.3333 L917.7922 514.3333" clip-path="url(#clipPath2)"/>
      <path d="M925.7922 514.3333 L913.7922 509.3333 L916.7922 514.3333 L913.7922 519.3333 Z" clip-path="url(#clipPath2)" stroke="none"/>
      <path fill="none" d="M871.25 306 L912.2192 306" clip-path="url(#clipPath2)"/>
      <path d="M920.2192 306 L908.2192 301 L911.2192 306 L908.2192 311 Z" clip-path="url(#clipPath2)" stroke="none"/>
      <path fill="none" d="M983.2972 307.6295 L1011.7212 307.6295" clip-path="url(#clipPath2)"/>
      <path d="M1019.7212 307.6295 L1007.7212 302.6295 L1010.7212 307.6295 L1007.7212 312.6295 Z" clip-path="url(#clipPath2)" stroke="none"/>
      <path fill="none" d="M988.5783 519.6296 L1011.7493 519.6296" clip-path="url(#clipPath2)"/>
      <path d="M1019.7493 519.6296 L1007.7493 514.6296 L1010.7493 519.6296 L1007.7493 524.6296 Z" clip-path="url(#clipPath2)" stroke="none"/>
      <path fill="none" d="M1111.1812 664.3333 L1126.7074 664.3333" clip-path="url(#clipPath2)"/>
      <path d="M1134.7074 664.3333 L1122.7074 659.3333 L1125.7074 664.3333 L1122.7074 669.3333 Z" clip-path="url(#clipPath2)" stroke="none"/>
      <path fill="none" d="M1303.7 238.7333 L1303.7 275.0572" clip-path="url(#clipPath2)"/>
      <path d="M1303.7 283.0572 L1308.7 271.0572 L1303.7 274.0572 L1298.7 271.0572 Z" clip-path="url(#clipPath2)" stroke="none"/>
      <path fill="none" d="M1162.7125 313.1176 L1162.7125 394.3333 L1162.7125 394.3333 L1363.8125 394.3333 L1363.8125 333.2667" clip-path="url(#clipPath2)"/>
      <path d="M1363.8125 325.2667 L1358.8125 337.2667 L1363.8125 334.2667 L1368.8125 337.2667 Z" clip-path="url(#clipPath2)" stroke="none"/>
      <path fill="none" d="M1197.7201 664.3333 L1362.7 664.3333 L1362.7 664.3333 L1363.637 541.5998" clip-path="url(#clipPath2)"/>
      <path d="M1363.698 533.6 L1358.6066 545.5615 L1363.6294 542.5998 L1368.6063 545.6378 Z" clip-path="url(#clipPath2)" stroke="none"/>
    </g>
  </g>
</svg>
