<?xml version="1.0" encoding="UTF-8"?><svg xmlns="http://www.w3.org/2000/svg" xmlns:xlink="http://www.w3.org/1999/xlink" fill-opacity="1" color-rendering="auto" color-interpolation="auto" text-rendering="auto" stroke="black" stroke-linecap="square" width="861" stroke-miterlimit="10" shape-rendering="auto" stroke-opacity="1" fill="black" stroke-dasharray="none" font-weight="normal" stroke-width="1" height="496" font-family="'Dialog'" font-style="normal" stroke-linejoin="miter" font-size="12px" stroke-dashoffset="0" image-rendering="auto">
  <!--Generated by ySVG 2.5-->
  <defs id="genericDefs"/>
  <g>
    <defs id="defs1">
      <clipPath clipPathUnits="userSpaceOnUse" id="clipPath1">
        <path d="M0 0 L861 0 L861 496 L0 496 L0 0 Z"/>
      </clipPath>
      <clipPath clipPathUnits="userSpaceOnUse" id="clipPath2">
        <path d="M379 199 L1240 199 L1240 695 L379 695 L379 199 Z"/>
      </clipPath>
    </defs>
    <g fill="white" text-rendering="geometricPrecision" shape-rendering="geometricPrecision" transform="translate(-379,-199)" stroke="white">
      <rect x="379" width="861" height="496" y="199" clip-path="url(#clipPath2)" stroke="none"/>
    </g>
    <g fill="rgb(153,204,255)" text-rendering="geometricPrecision" shape-rendering="geometricPrecision" transform="matrix(1,0,0,1,-379,-199)" stroke="rgb(153,204,255)">
      <rect x="427.25" width="30" height="30" y="291" clip-path="url(#clipPath2)" stroke="none"/>
    </g>
    <g text-rendering="geometricPrecision" stroke-miterlimit="1.45" shape-rendering="geometricPrecision" transform="matrix(1,0,0,1,-379,-199)" stroke-linecap="butt">
      <rect fill="none" x="427.25" width="30" height="30" y="291" clip-path="url(#clipPath2)"/>
    </g>
    <g fill="rgb(153,204,255)" text-rendering="geometricPrecision" shape-rendering="geometricPrecision" transform="matrix(1,0,0,1,-379,-199)" stroke="rgb(153,204,255)">
      <rect x="427.25" width="30" height="30" y="321" clip-path="url(#clipPath2)" stroke="none"/>
    </g>
    <g text-rendering="geometricPrecision" stroke-miterlimit="1.45" shape-rendering="geometricPrecision" transform="matrix(1,0,0,1,-379,-199)" stroke-linecap="butt">
      <rect fill="none" x="427.25" width="30" height="30" y="321" clip-path="url(#clipPath2)"/>
    </g>
    <g fill="rgb(153,204,255)" text-rendering="geometricPrecision" shape-rendering="geometricPrecision" transform="matrix(1,0,0,1,-379,-199)" stroke="rgb(153,204,255)">
      <rect x="427.25" width="30" height="30" y="351" clip-path="url(#clipPath2)" stroke="none"/>
    </g>
    <g text-rendering="geometricPrecision" stroke-miterlimit="1.45" shape-rendering="geometricPrecision" transform="matrix(1,0,0,1,-379,-199)" stroke-linecap="butt">
      <rect fill="none" x="427.25" width="30" height="30" y="351" clip-path="url(#clipPath2)"/>
    </g>
    <g fill="rgb(153,204,255)" text-rendering="geometricPrecision" shape-rendering="geometricPrecision" transform="matrix(1,0,0,1,-379,-199)" stroke="rgb(153,204,255)">
      <rect x="427.25" width="30" height="30" y="381" clip-path="url(#clipPath2)" stroke="none"/>
    </g>
    <g text-rendering="geometricPrecision" stroke-miterlimit="1.45" shape-rendering="geometricPrecision" transform="matrix(1,0,0,1,-379,-199)" stroke-linecap="butt">
      <rect fill="none" x="427.25" width="30" height="30" y="381" clip-path="url(#clipPath2)"/>
    </g>
    <g fill="rgb(153,204,255)" text-rendering="geometricPrecision" shape-rendering="geometricPrecision" transform="matrix(1,0,0,1,-379,-199)" stroke="rgb(153,204,255)">
      <rect x="427.25" width="30" height="30" y="411" clip-path="url(#clipPath2)" stroke="none"/>
    </g>
    <g text-rendering="geometricPrecision" stroke-miterlimit="1.45" shape-rendering="geometricPrecision" transform="matrix(1,0,0,1,-379,-199)" stroke-linecap="butt">
      <rect fill="none" x="427.25" width="30" height="30" y="411" clip-path="url(#clipPath2)"/>
    </g>
    <g fill="rgb(153,204,255)" text-rendering="geometricPrecision" shape-rendering="geometricPrecision" transform="matrix(1,0,0,1,-379,-199)" stroke="rgb(153,204,255)">
      <rect x="427.25" width="30" height="30" y="441" clip-path="url(#clipPath2)" stroke="none"/>
    </g>
    <g text-rendering="geometricPrecision" stroke-miterlimit="1.45" shape-rendering="geometricPrecision" transform="matrix(1,0,0,1,-379,-199)" stroke-linecap="butt">
      <rect fill="none" x="427.25" width="30" height="30" y="441" clip-path="url(#clipPath2)"/>
    </g>
    <g fill="rgb(153,204,255)" text-rendering="geometricPrecision" shape-rendering="geometricPrecision" transform="matrix(1,0,0,1,-379,-199)" stroke="rgb(153,204,255)">
      <rect x="471.75" width="30" height="30" y="291" clip-path="url(#clipPath2)" stroke="none"/>
    </g>
    <g text-rendering="geometricPrecision" stroke-miterlimit="1.45" shape-rendering="geometricPrecision" transform="matrix(1,0,0,1,-379,-199)" stroke-linecap="butt">
      <rect fill="none" x="471.75" width="30" height="30" y="291" clip-path="url(#clipPath2)"/>
    </g>
    <g fill="rgb(153,204,255)" text-rendering="geometricPrecision" shape-rendering="geometricPrecision" transform="matrix(1,0,0,1,-379,-199)" stroke="rgb(153,204,255)">
      <rect x="471.75" width="30" height="30" y="321" clip-path="url(#clipPath2)" stroke="none"/>
    </g>
    <g text-rendering="geometricPrecision" stroke-miterlimit="1.45" shape-rendering="geometricPrecision" transform="matrix(1,0,0,1,-379,-199)" stroke-linecap="butt">
      <rect fill="none" x="471.75" width="30" height="30" y="321" clip-path="url(#clipPath2)"/>
    </g>
    <g fill="rgb(153,204,255)" text-rendering="geometricPrecision" shape-rendering="geometricPrecision" transform="matrix(1,0,0,1,-379,-199)" stroke="rgb(153,204,255)">
      <rect x="471.75" width="30" height="30" y="351" clip-path="url(#clipPath2)" stroke="none"/>
    </g>
    <g text-rendering="geometricPrecision" stroke-miterlimit="1.45" shape-rendering="geometricPrecision" transform="matrix(1,0,0,1,-379,-199)" stroke-linecap="butt">
      <rect fill="none" x="471.75" width="30" height="30" y="351" clip-path="url(#clipPath2)"/>
    </g>
    <g fill="rgb(153,204,255)" text-rendering="geometricPrecision" shape-rendering="geometricPrecision" transform="matrix(1,0,0,1,-379,-199)" stroke="rgb(153,204,255)">
      <rect x="471.75" width="30" height="30" y="381" clip-path="url(#clipPath2)" stroke="none"/>
    </g>
    <g text-rendering="geometricPrecision" stroke-miterlimit="1.45" shape-rendering="geometricPrecision" transform="matrix(1,0,0,1,-379,-199)" stroke-linecap="butt">
      <rect fill="none" x="471.75" width="30" height="30" y="381" clip-path="url(#clipPath2)"/>
    </g>
    <g fill="rgb(153,204,255)" text-rendering="geometricPrecision" shape-rendering="geometricPrecision" transform="matrix(1,0,0,1,-379,-199)" stroke="rgb(153,204,255)">
      <rect x="471.75" width="30" height="30" y="411" clip-path="url(#clipPath2)" stroke="none"/>
    </g>
    <g text-rendering="geometricPrecision" stroke-miterlimit="1.45" shape-rendering="geometricPrecision" transform="matrix(1,0,0,1,-379,-199)" stroke-linecap="butt">
      <rect fill="none" x="471.75" width="30" height="30" y="411" clip-path="url(#clipPath2)"/>
    </g>
    <g fill="rgb(153,204,255)" text-rendering="geometricPrecision" shape-rendering="geometricPrecision" transform="matrix(1,0,0,1,-379,-199)" stroke="rgb(153,204,255)">
      <rect x="471.75" width="30" height="30" y="441" clip-path="url(#clipPath2)" stroke="none"/>
    </g>
    <g text-rendering="geometricPrecision" stroke-miterlimit="1.45" shape-rendering="geometricPrecision" transform="matrix(1,0,0,1,-379,-199)" stroke-linecap="butt">
      <rect fill="none" x="471.75" width="30" height="30" y="441" clip-path="url(#clipPath2)"/>
    </g>
    <g fill="rgb(153,204,255)" text-rendering="geometricPrecision" shape-rendering="geometricPrecision" transform="matrix(1,0,0,1,-379,-199)" stroke="rgb(153,204,255)">
      <rect x="516.25" width="30" height="30" y="291" clip-path="url(#clipPath2)" stroke="none"/>
    </g>
    <g text-rendering="geometricPrecision" stroke-miterlimit="1.45" shape-rendering="geometricPrecision" transform="matrix(1,0,0,1,-379,-199)" stroke-linecap="butt">
      <rect fill="none" x="516.25" width="30" height="30" y="291" clip-path="url(#clipPath2)"/>
    </g>
    <g fill="rgb(153,204,255)" text-rendering="geometricPrecision" shape-rendering="geometricPrecision" transform="matrix(1,0,0,1,-379,-199)" stroke="rgb(153,204,255)">
      <rect x="516.25" width="30" height="30" y="321" clip-path="url(#clipPath2)" stroke="none"/>
    </g>
    <g text-rendering="geometricPrecision" stroke-miterlimit="1.45" shape-rendering="geometricPrecision" transform="matrix(1,0,0,1,-379,-199)" stroke-linecap="butt">
      <rect fill="none" x="516.25" width="30" height="30" y="321" clip-path="url(#clipPath2)"/>
    </g>
    <g fill="rgb(153,204,255)" text-rendering="geometricPrecision" shape-rendering="geometricPrecision" transform="matrix(1,0,0,1,-379,-199)" stroke="rgb(153,204,255)">
      <rect x="516.25" width="30" height="30" y="351" clip-path="url(#clipPath2)" stroke="none"/>
    </g>
    <g text-rendering="geometricPrecision" stroke-miterlimit="1.45" shape-rendering="geometricPrecision" transform="matrix(1,0,0,1,-379,-199)" stroke-linecap="butt">
      <rect fill="none" x="516.25" width="30" height="30" y="351" clip-path="url(#clipPath2)"/>
    </g>
    <g fill="rgb(153,204,255)" text-rendering="geometricPrecision" shape-rendering="geometricPrecision" transform="matrix(1,0,0,1,-379,-199)" stroke="rgb(153,204,255)">
      <rect x="516.25" width="30" height="30" y="381" clip-path="url(#clipPath2)" stroke="none"/>
    </g>
    <g text-rendering="geometricPrecision" stroke-miterlimit="1.45" shape-rendering="geometricPrecision" transform="matrix(1,0,0,1,-379,-199)" stroke-linecap="butt">
      <rect fill="none" x="516.25" width="30" height="30" y="381" clip-path="url(#clipPath2)"/>
    </g>
    <g fill="rgb(153,204,255)" text-rendering="geometricPrecision" shape-rendering="geometricPrecision" transform="matrix(1,0,0,1,-379,-199)" stroke="rgb(153,204,255)">
      <rect x="516.25" width="30" height="30" y="411" clip-path="url(#clipPath2)" stroke="none"/>
    </g>
    <g text-rendering="geometricPrecision" stroke-miterlimit="1.45" shape-rendering="geometricPrecision" transform="matrix(1,0,0,1,-379,-199)" stroke-linecap="butt">
      <rect fill="none" x="516.25" width="30" height="30" y="411" clip-path="url(#clipPath2)"/>
    </g>
    <g fill="rgb(153,204,255)" text-rendering="geometricPrecision" shape-rendering="geometricPrecision" transform="matrix(1,0,0,1,-379,-199)" stroke="rgb(153,204,255)">
      <rect x="516.25" width="30" height="30" y="441" clip-path="url(#clipPath2)" stroke="none"/>
    </g>
    <g text-rendering="geometricPrecision" stroke-miterlimit="1.45" shape-rendering="geometricPrecision" transform="matrix(1,0,0,1,-379,-199)" stroke-linecap="butt">
      <rect fill="none" x="516.25" width="30" height="30" y="441" clip-path="url(#clipPath2)"/>
      <rect x="408.5" y="280" clip-path="url(#clipPath2)" fill="none" width="156.5" rx="4" ry="4" height="200"/>
    </g>
    <g fill="rgb(204,255,204)" text-rendering="geometricPrecision" shape-rendering="geometricPrecision" transform="matrix(1,0,0,1,-379,-199)" stroke="rgb(204,255,204)">
      <rect x="446.75" width="80" height="30" y="214.3333" clip-path="url(#clipPath2)" stroke="none"/>
    </g>
    <g text-rendering="geometricPrecision" stroke-miterlimit="1.45" shape-rendering="geometricPrecision" transform="matrix(1,0,0,1,-379,-199)" stroke-linecap="butt">
      <rect fill="none" x="446.75" width="80" height="30" y="214.3333" clip-path="url(#clipPath2)"/>
      <text x="453.293" xml:space="preserve" y="233.4876" clip-path="url(#clipPath2)" font-family="sans-serif" stroke="none">DataFrame</text>
    </g>
    <g fill="rgb(204,255,204)" text-rendering="geometricPrecision" shape-rendering="geometricPrecision" transform="matrix(1,0,0,1,-379,-199)" stroke="rgb(204,255,204)">
      <rect x="596.125" width="115" height="30" y="291" clip-path="url(#clipPath2)" stroke="none"/>
    </g>
    <g text-rendering="geometricPrecision" stroke-miterlimit="1.45" shape-rendering="geometricPrecision" transform="matrix(1,0,0,1,-379,-199)" stroke-linecap="butt">
      <rect fill="none" x="596.125" width="115" height="30" y="291" clip-path="url(#clipPath2)"/>
      <text x="604.4092" xml:space="preserve" y="310.1543" clip-path="url(#clipPath2)" font-family="sans-serif" stroke="none">Columns of data</text>
    </g>
    <g fill="rgb(153,204,255)" text-rendering="geometricPrecision" shape-rendering="geometricPrecision" transform="matrix(1,0,0,1,-379,-199)" stroke="rgb(153,204,255)">
      <rect x="752.25" width="30" height="30" y="291" clip-path="url(#clipPath2)" stroke="none"/>
    </g>
    <g text-rendering="geometricPrecision" stroke-miterlimit="1.45" shape-rendering="geometricPrecision" transform="matrix(1,0,0,1,-379,-199)" stroke-linecap="butt">
      <rect fill="none" x="752.25" width="30" height="30" y="291" clip-path="url(#clipPath2)"/>
    </g>
    <g fill="rgb(153,204,255)" text-rendering="geometricPrecision" shape-rendering="geometricPrecision" transform="matrix(1,0,0,1,-379,-199)" stroke="rgb(153,204,255)">
      <rect x="752.25" width="30" height="30" y="491" clip-path="url(#clipPath2)" stroke="none"/>
    </g>
    <g text-rendering="geometricPrecision" stroke-miterlimit="1.45" shape-rendering="geometricPrecision" transform="matrix(1,0,0,1,-379,-199)" stroke-linecap="butt">
      <rect fill="none" x="752.25" width="30" height="30" y="491" clip-path="url(#clipPath2)"/>
    </g>
    <g fill="rgb(153,204,255)" text-rendering="geometricPrecision" shape-rendering="geometricPrecision" transform="matrix(1,0,0,1,-379,-199)" stroke="rgb(153,204,255)">
      <rect x="796.75" width="30" height="30" y="291" clip-path="url(#clipPath2)" stroke="none"/>
    </g>
    <g text-rendering="geometricPrecision" stroke-miterlimit="1.45" shape-rendering="geometricPrecision" transform="matrix(1,0,0,1,-379,-199)" stroke-linecap="butt">
      <rect fill="none" x="796.75" width="30" height="30" y="291" clip-path="url(#clipPath2)"/>
    </g>
    <g fill="rgb(153,204,255)" text-rendering="geometricPrecision" shape-rendering="geometricPrecision" transform="matrix(1,0,0,1,-379,-199)" stroke="rgb(153,204,255)">
      <rect x="796.75" width="30" height="30" y="321" clip-path="url(#clipPath2)" stroke="none"/>
    </g>
    <g text-rendering="geometricPrecision" stroke-miterlimit="1.45" shape-rendering="geometricPrecision" transform="matrix(1,0,0,1,-379,-199)" stroke-linecap="butt">
      <rect fill="none" x="796.75" width="30" height="30" y="321" clip-path="url(#clipPath2)"/>
    </g>
    <g fill="rgb(153,204,255)" text-rendering="geometricPrecision" shape-rendering="geometricPrecision" transform="matrix(1,0,0,1,-379,-199)" stroke="rgb(153,204,255)">
      <rect x="796.75" width="30" height="30" y="351" clip-path="url(#clipPath2)" stroke="none"/>
    </g>
    <g text-rendering="geometricPrecision" stroke-miterlimit="1.45" shape-rendering="geometricPrecision" transform="matrix(1,0,0,1,-379,-199)" stroke-linecap="butt">
      <rect fill="none" x="796.75" width="30" height="30" y="351" clip-path="url(#clipPath2)"/>
    </g>
    <g fill="rgb(153,204,255)" text-rendering="geometricPrecision" shape-rendering="geometricPrecision" transform="matrix(1,0,0,1,-379,-199)" stroke="rgb(153,204,255)">
      <rect x="796.75" width="30" height="30" y="381" clip-path="url(#clipPath2)" stroke="none"/>
    </g>
    <g text-rendering="geometricPrecision" stroke-miterlimit="1.45" shape-rendering="geometricPrecision" transform="matrix(1,0,0,1,-379,-199)" stroke-linecap="butt">
      <rect fill="none" x="796.75" width="30" height="30" y="381" clip-path="url(#clipPath2)"/>
    </g>
    <g fill="rgb(153,204,255)" text-rendering="geometricPrecision" shape-rendering="geometricPrecision" transform="matrix(1,0,0,1,-379,-199)" stroke="rgb(153,204,255)">
      <rect x="796.75" width="30" height="30" y="411" clip-path="url(#clipPath2)" stroke="none"/>
    </g>
    <g text-rendering="geometricPrecision" stroke-miterlimit="1.45" shape-rendering="geometricPrecision" transform="matrix(1,0,0,1,-379,-199)" stroke-linecap="butt">
      <rect fill="none" x="796.75" width="30" height="30" y="411" clip-path="url(#clipPath2)"/>
    </g>
    <g fill="rgb(153,204,255)" text-rendering="geometricPrecision" shape-rendering="geometricPrecision" transform="matrix(1,0,0,1,-379,-199)" stroke="rgb(153,204,255)">
      <rect x="796.75" width="30" height="30" y="441" clip-path="url(#clipPath2)" stroke="none"/>
    </g>
    <g text-rendering="geometricPrecision" stroke-miterlimit="1.45" shape-rendering="geometricPrecision" transform="matrix(1,0,0,1,-379,-199)" stroke-linecap="butt">
      <rect fill="none" x="796.75" width="30" height="30" y="441" clip-path="url(#clipPath2)"/>
    </g>
    <g fill="rgb(153,204,255)" text-rendering="geometricPrecision" shape-rendering="geometricPrecision" transform="matrix(1,0,0,1,-379,-199)" stroke="rgb(153,204,255)">
      <rect x="945.875" width="30" height="30" y="291" clip-path="url(#clipPath2)" stroke="none"/>
    </g>
    <g text-rendering="geometricPrecision" stroke-miterlimit="1.45" shape-rendering="geometricPrecision" transform="matrix(1,0,0,1,-379,-199)" stroke-linecap="butt">
      <rect fill="none" x="945.875" width="30" height="30" y="291" clip-path="url(#clipPath2)"/>
    </g>
    <g fill="rgb(153,204,255)" text-rendering="geometricPrecision" shape-rendering="geometricPrecision" transform="matrix(1,0,0,1,-379,-199)" stroke="rgb(153,204,255)">
      <rect x="945.875" width="30" height="30" y="321" clip-path="url(#clipPath2)" stroke="none"/>
    </g>
    <g text-rendering="geometricPrecision" stroke-miterlimit="1.45" shape-rendering="geometricPrecision" transform="matrix(1,0,0,1,-379,-199)" stroke-linecap="butt">
      <rect fill="none" x="945.875" width="30" height="30" y="321" clip-path="url(#clipPath2)"/>
    </g>
    <g fill="rgb(153,204,255)" text-rendering="geometricPrecision" shape-rendering="geometricPrecision" transform="matrix(1,0,0,1,-379,-199)" stroke="rgb(153,204,255)">
      <rect x="945.875" width="30" height="30" y="351" clip-path="url(#clipPath2)" stroke="none"/>
    </g>
    <g text-rendering="geometricPrecision" stroke-miterlimit="1.45" shape-rendering="geometricPrecision" transform="matrix(1,0,0,1,-379,-199)" stroke-linecap="butt">
      <rect fill="none" x="945.875" width="30" height="30" y="351" clip-path="url(#clipPath2)"/>
    </g>
    <g fill="rgb(153,204,255)" text-rendering="geometricPrecision" shape-rendering="geometricPrecision" transform="matrix(1,0,0,1,-379,-199)" stroke="rgb(153,204,255)">
      <rect x="945.875" width="30" height="30" y="381" clip-path="url(#clipPath2)" stroke="none"/>
    </g>
    <g text-rendering="geometricPrecision" stroke-miterlimit="1.45" shape-rendering="geometricPrecision" transform="matrix(1,0,0,1,-379,-199)" stroke-linecap="butt">
      <rect fill="none" x="945.875" width="30" height="30" y="381" clip-path="url(#clipPath2)"/>
    </g>
    <g fill="rgb(153,204,255)" text-rendering="geometricPrecision" shape-rendering="geometricPrecision" transform="matrix(1,0,0,1,-379,-199)" stroke="rgb(153,204,255)">
      <rect x="945.875" width="30" height="30" y="411" clip-path="url(#clipPath2)" stroke="none"/>
    </g>
    <g text-rendering="geometricPrecision" stroke-miterlimit="1.45" shape-rendering="geometricPrecision" transform="matrix(1,0,0,1,-379,-199)" stroke-linecap="butt">
      <rect fill="none" x="945.875" width="30" height="30" y="411" clip-path="url(#clipPath2)"/>
    </g>
    <g fill="rgb(153,204,255)" text-rendering="geometricPrecision" shape-rendering="geometricPrecision" transform="matrix(1,0,0,1,-379,-199)" stroke="rgb(153,204,255)">
      <rect x="945.875" width="30" height="30" y="441" clip-path="url(#clipPath2)" stroke="none"/>
    </g>
    <g text-rendering="geometricPrecision" stroke-miterlimit="1.45" shape-rendering="geometricPrecision" transform="matrix(1,0,0,1,-379,-199)" stroke-linecap="butt">
      <rect fill="none" x="945.875" width="30" height="30" y="441" clip-path="url(#clipPath2)"/>
      <rect x="743.75" y="282.8333" clip-path="url(#clipPath2)" fill="none" width="136" rx="4" ry="4" height="396.3333"/>
    </g>
    <g fill="rgb(204,255,204)" text-rendering="geometricPrecision" shape-rendering="geometricPrecision" transform="matrix(1,0,0,1,-379,-199)" stroke="rgb(204,255,204)">
      <rect x="738.25" width="147" height="30" y="214.3333" clip-path="url(#clipPath2)" stroke="none"/>
    </g>
    <g text-rendering="geometricPrecision" stroke-miterlimit="1.45" shape-rendering="geometricPrecision" transform="matrix(1,0,0,1,-379,-199)" stroke-linecap="butt">
      <rect fill="none" x="738.25" width="147" height="30" y="214.3333" clip-path="url(#clipPath2)"/>
      <text x="751.8262" xml:space="preserve" y="233.4876" clip-path="url(#clipPath2)" font-family="sans-serif" stroke="none">Grouped Dataframe</text>
    </g>
    <g fill="rgb(204,255,204)" text-rendering="geometricPrecision" shape-rendering="geometricPrecision" transform="matrix(1,0,0,1,-379,-199)" stroke="rgb(204,255,204)">
      <rect x="596.125" width="115" height="30" y="343" clip-path="url(#clipPath2)" stroke="none"/>
    </g>
    <g text-rendering="geometricPrecision" stroke-miterlimit="1.45" shape-rendering="geometricPrecision" transform="matrix(1,0,0,1,-379,-199)" stroke-linecap="butt">
      <rect fill="none" x="596.125" width="115" height="30" y="343" clip-path="url(#clipPath2)"/>
      <text x="599.8359" xml:space="preserve" y="362.1543" clip-path="url(#clipPath2)" font-family="sans-serif" stroke="none">Grouping variable</text>
    </g>
    <g fill="rgb(153,204,255)" text-rendering="geometricPrecision" shape-rendering="geometricPrecision" transform="matrix(1,0,0,1,-379,-199)" stroke="rgb(153,204,255)">
      <rect x="796.75" width="30" height="30" y="491" clip-path="url(#clipPath2)" stroke="none"/>
    </g>
    <g text-rendering="geometricPrecision" stroke-miterlimit="1.45" shape-rendering="geometricPrecision" transform="matrix(1,0,0,1,-379,-199)" stroke-linecap="butt">
      <rect fill="none" x="796.75" width="30" height="30" y="491" clip-path="url(#clipPath2)"/>
    </g>
    <g fill="rgb(153,204,255)" text-rendering="geometricPrecision" shape-rendering="geometricPrecision" transform="matrix(1,0,0,1,-379,-199)" stroke="rgb(153,204,255)">
      <rect x="796.75" width="30" height="30" y="521" clip-path="url(#clipPath2)" stroke="none"/>
    </g>
    <g text-rendering="geometricPrecision" stroke-miterlimit="1.45" shape-rendering="geometricPrecision" transform="matrix(1,0,0,1,-379,-199)" stroke-linecap="butt">
      <rect fill="none" x="796.75" width="30" height="30" y="521" clip-path="url(#clipPath2)"/>
    </g>
    <g fill="rgb(153,204,255)" text-rendering="geometricPrecision" shape-rendering="geometricPrecision" transform="matrix(1,0,0,1,-379,-199)" stroke="rgb(153,204,255)">
      <rect x="796.75" width="30" height="30" y="551" clip-path="url(#clipPath2)" stroke="none"/>
    </g>
    <g text-rendering="geometricPrecision" stroke-miterlimit="1.45" shape-rendering="geometricPrecision" transform="matrix(1,0,0,1,-379,-199)" stroke-linecap="butt">
      <rect fill="none" x="796.75" width="30" height="30" y="551" clip-path="url(#clipPath2)"/>
    </g>
    <g fill="rgb(153,204,255)" text-rendering="geometricPrecision" shape-rendering="geometricPrecision" transform="matrix(1,0,0,1,-379,-199)" stroke="rgb(153,204,255)">
      <rect x="796.75" width="30" height="30" y="581" clip-path="url(#clipPath2)" stroke="none"/>
    </g>
    <g text-rendering="geometricPrecision" stroke-miterlimit="1.45" shape-rendering="geometricPrecision" transform="matrix(1,0,0,1,-379,-199)" stroke-linecap="butt">
      <rect fill="none" x="796.75" width="30" height="30" y="581" clip-path="url(#clipPath2)"/>
    </g>
    <g fill="rgb(153,204,255)" text-rendering="geometricPrecision" shape-rendering="geometricPrecision" transform="matrix(1,0,0,1,-379,-199)" stroke="rgb(153,204,255)">
      <rect x="796.75" width="30" height="30" y="611" clip-path="url(#clipPath2)" stroke="none"/>
    </g>
    <g text-rendering="geometricPrecision" stroke-miterlimit="1.45" shape-rendering="geometricPrecision" transform="matrix(1,0,0,1,-379,-199)" stroke-linecap="butt">
      <rect fill="none" x="796.75" width="30" height="30" y="611" clip-path="url(#clipPath2)"/>
    </g>
    <g fill="rgb(153,204,255)" text-rendering="geometricPrecision" shape-rendering="geometricPrecision" transform="matrix(1,0,0,1,-379,-199)" stroke="rgb(153,204,255)">
      <rect x="796.75" width="30" height="30" y="641" clip-path="url(#clipPath2)" stroke="none"/>
    </g>
    <g text-rendering="geometricPrecision" stroke-miterlimit="1.45" shape-rendering="geometricPrecision" transform="matrix(1,0,0,1,-379,-199)" stroke-linecap="butt">
      <rect fill="none" x="796.75" width="30" height="30" y="641" clip-path="url(#clipPath2)"/>
    </g>
    <g fill="rgb(204,255,204)" text-rendering="geometricPrecision" shape-rendering="geometricPrecision" transform="matrix(1,0,0,1,-379,-199)" stroke="rgb(204,255,204)">
      <path d="M990.375 291 L1054.275 291 L1061.375 306 L1054.275 321 L990.375 321 L997.475 306 Z" fill-rule="evenodd" clip-path="url(#clipPath2)" stroke="none"/>
    </g>
    <g text-rendering="geometricPrecision" stroke-miterlimit="1.45" shape-rendering="geometricPrecision" transform="matrix(1,0,0,1,-379,-199)" stroke-linecap="butt">
      <path fill="none" d="M990.375 291 L1054.275 291 L1061.375 306 L1054.275 321 L990.375 321 L997.475 306 Z" fill-rule="evenodd" clip-path="url(#clipPath2)"/>
      <text x="1000.0264" xml:space="preserve" y="310.1543" clip-path="url(#clipPath2)" font-family="sans-serif" stroke="none">Function</text>
    </g>
    <g fill="rgb(153,204,255)" text-rendering="geometricPrecision" shape-rendering="geometricPrecision" transform="matrix(1,0,0,1,-379,-199)" stroke="rgb(153,204,255)">
      <rect x="841.25" width="30" height="30" y="641" clip-path="url(#clipPath2)" stroke="none"/>
    </g>
    <g text-rendering="geometricPrecision" stroke-miterlimit="1.45" shape-rendering="geometricPrecision" transform="matrix(1,0,0,1,-379,-199)" stroke-linecap="butt">
      <rect fill="none" x="841.25" width="30" height="30" y="641" clip-path="url(#clipPath2)"/>
    </g>
    <g fill="rgb(153,204,255)" text-rendering="geometricPrecision" shape-rendering="geometricPrecision" transform="matrix(1,0,0,1,-379,-199)" stroke="rgb(153,204,255)">
      <rect x="841.25" width="30" height="30" y="611" clip-path="url(#clipPath2)" stroke="none"/>
    </g>
    <g text-rendering="geometricPrecision" stroke-miterlimit="1.45" shape-rendering="geometricPrecision" transform="matrix(1,0,0,1,-379,-199)" stroke-linecap="butt">
      <rect fill="none" x="841.25" width="30" height="30" y="611" clip-path="url(#clipPath2)"/>
    </g>
    <g fill="rgb(153,204,255)" text-rendering="geometricPrecision" shape-rendering="geometricPrecision" transform="matrix(1,0,0,1,-379,-199)" stroke="rgb(153,204,255)">
      <rect x="841.25" width="30" height="30" y="581" clip-path="url(#clipPath2)" stroke="none"/>
    </g>
    <g text-rendering="geometricPrecision" stroke-miterlimit="1.45" shape-rendering="geometricPrecision" transform="matrix(1,0,0,1,-379,-199)" stroke-linecap="butt">
      <rect fill="none" x="841.25" width="30" height="30" y="581" clip-path="url(#clipPath2)"/>
    </g>
    <g fill="rgb(153,204,255)" text-rendering="geometricPrecision" shape-rendering="geometricPrecision" transform="matrix(1,0,0,1,-379,-199)" stroke="rgb(153,204,255)">
      <rect x="841.25" width="30" height="30" y="551" clip-path="url(#clipPath2)" stroke="none"/>
    </g>
    <g text-rendering="geometricPrecision" stroke-miterlimit="1.45" shape-rendering="geometricPrecision" transform="matrix(1,0,0,1,-379,-199)" stroke-linecap="butt">
      <rect fill="none" x="841.25" width="30" height="30" y="551" clip-path="url(#clipPath2)"/>
    </g>
    <g fill="rgb(153,204,255)" text-rendering="geometricPrecision" shape-rendering="geometricPrecision" transform="matrix(1,0,0,1,-379,-199)" stroke="rgb(153,204,255)">
      <rect x="841.25" width="30" height="30" y="521" clip-path="url(#clipPath2)" stroke="none"/>
    </g>
    <g text-rendering="geometricPrecision" stroke-miterlimit="1.45" shape-rendering="geometricPrecision" transform="matrix(1,0,0,1,-379,-199)" stroke-linecap="butt">
      <rect fill="none" x="841.25" width="30" height="30" y="521" clip-path="url(#clipPath2)"/>
    </g>
    <g fill="rgb(153,204,255)" text-rendering="geometricPrecision" shape-rendering="geometricPrecision" transform="matrix(1,0,0,1,-379,-199)" stroke="rgb(153,204,255)">
      <rect x="841.25" width="30" height="30" y="491" clip-path="url(#clipPath2)" stroke="none"/>
    </g>
    <g text-rendering="geometricPrecision" stroke-miterlimit="1.45" shape-rendering="geometricPrecision" transform="matrix(1,0,0,1,-379,-199)" stroke-linecap="butt">
      <rect fill="none" x="841.25" width="30" height="30" y="491" clip-path="url(#clipPath2)"/>
    </g>
    <g fill="rgb(204,255,204)" text-rendering="geometricPrecision" shape-rendering="geometricPrecision" transform="matrix(1,0,0,1,-379,-199)" stroke="rgb(204,255,204)">
      <path d="M990.375 491 L1054.275 491 L1061.375 506 L1054.275 521 L990.375 521 L997.475 506 Z" fill-rule="evenodd" clip-path="url(#clipPath2)" stroke="none"/>
    </g>
    <g text-rendering="geometricPrecision" stroke-miterlimit="1.45" shape-rendering="geometricPrecision" transform="matrix(1,0,0,1,-379,-199)" stroke-linecap="butt">
      <path fill="none" d="M990.375 491 L1054.275 491 L1061.375 506 L1054.275 521 L990.375 521 L997.475 506 Z" fill-rule="evenodd" clip-path="url(#clipPath2)"/>
      <text x="1000.0264" xml:space="preserve" y="510.1543" clip-path="url(#clipPath2)" font-family="sans-serif" stroke="none">Function</text>
    </g>
    <g fill="rgb(153,204,255)" text-rendering="geometricPrecision" shape-rendering="geometricPrecision" transform="matrix(1,0,0,1,-379,-199)" stroke="rgb(153,204,255)">
      <rect x="1091.375" width="30" height="30" y="291" clip-path="url(#clipPath2)" stroke="none"/>
    </g>
    <g text-rendering="geometricPrecision" stroke-miterlimit="1.45" shape-rendering="geometricPrecision" transform="matrix(1,0,0,1,-379,-199)" stroke-linecap="butt">
      <rect fill="none" x="1091.375" width="30" height="30" y="291" clip-path="url(#clipPath2)"/>
    </g>
    <g fill="rgb(153,204,255)" text-rendering="geometricPrecision" shape-rendering="geometricPrecision" transform="matrix(1,0,0,1,-379,-199)" stroke="rgb(153,204,255)">
      <rect x="1091.375" width="30" height="30" y="491" clip-path="url(#clipPath2)" stroke="none"/>
    </g>
    <g text-rendering="geometricPrecision" stroke-miterlimit="1.45" shape-rendering="geometricPrecision" transform="matrix(1,0,0,1,-379,-199)" stroke-linecap="butt">
      <rect fill="none" x="1091.375" width="30" height="30" y="491" clip-path="url(#clipPath2)"/>
    </g>
    <g fill="rgb(153,204,255)" text-rendering="geometricPrecision" shape-rendering="geometricPrecision" transform="matrix(1,0,0,1,-379,-199)" stroke="rgb(153,204,255)">
      <rect x="1135.875" width="30" height="30" y="291" clip-path="url(#clipPath2)" stroke="none"/>
    </g>
    <g text-rendering="geometricPrecision" stroke-miterlimit="1.45" shape-rendering="geometricPrecision" transform="matrix(1,0,0,1,-379,-199)" stroke-linecap="butt">
      <rect fill="none" x="1135.875" width="30" height="30" y="291" clip-path="url(#clipPath2)"/>
    </g>
    <g fill="rgb(153,204,255)" text-rendering="geometricPrecision" shape-rendering="geometricPrecision" transform="matrix(1,0,0,1,-379,-199)" stroke="rgb(153,204,255)">
      <rect x="1180.375" width="30" height="30" y="291" clip-path="url(#clipPath2)" stroke="none"/>
    </g>
    <g text-rendering="geometricPrecision" stroke-miterlimit="1.45" shape-rendering="geometricPrecision" transform="matrix(1,0,0,1,-379,-199)" stroke-linecap="butt">
      <rect fill="none" x="1180.375" width="30" height="30" y="291" clip-path="url(#clipPath2)"/>
      <rect x="1082.875" y="282.8333" clip-path="url(#clipPath2)" fill="none" width="136" rx="4" ry="4" height="396.3333"/>
    </g>
    <g fill="rgb(204,255,204)" text-rendering="geometricPrecision" shape-rendering="geometricPrecision" transform="matrix(1,0,0,1,-379,-199)" stroke="rgb(204,255,204)">
      <rect x="1077.375" width="147" height="30" y="214.3333" clip-path="url(#clipPath2)" stroke="none"/>
    </g>
    <g text-rendering="geometricPrecision" stroke-miterlimit="1.45" shape-rendering="geometricPrecision" transform="matrix(1,0,0,1,-379,-199)" stroke-linecap="butt">
      <rect fill="none" x="1077.375" width="147" height="30" y="214.3333" clip-path="url(#clipPath2)"/>
      <text x="1090.9512" xml:space="preserve" y="233.4876" clip-path="url(#clipPath2)" font-family="sans-serif" stroke="none">Grouped Dataframe</text>
    </g>
    <g fill="rgb(153,204,255)" text-rendering="geometricPrecision" shape-rendering="geometricPrecision" transform="matrix(1,0,0,1,-379,-199)" stroke="rgb(153,204,255)">
      <rect x="1135.875" width="30" height="30" y="491" clip-path="url(#clipPath2)" stroke="none"/>
    </g>
    <g text-rendering="geometricPrecision" stroke-miterlimit="1.45" shape-rendering="geometricPrecision" transform="matrix(1,0,0,1,-379,-199)" stroke-linecap="butt">
      <rect fill="none" x="1135.875" width="30" height="30" y="491" clip-path="url(#clipPath2)"/>
    </g>
    <g fill="rgb(153,204,255)" text-rendering="geometricPrecision" shape-rendering="geometricPrecision" transform="matrix(1,0,0,1,-379,-199)" stroke="rgb(153,204,255)">
      <rect x="1180.375" width="30" height="30" y="491" clip-path="url(#clipPath2)" stroke="none"/>
    </g>
    <g text-rendering="geometricPrecision" stroke-miterlimit="1.45" shape-rendering="geometricPrecision" transform="matrix(1,0,0,1,-379,-199)" stroke-linecap="butt">
      <rect fill="none" x="1180.375" width="30" height="30" y="491" clip-path="url(#clipPath2)"/>
      <path fill="none" d="M486.75 244.3333 L486.75 271.9822" clip-path="url(#clipPath2)"/>
      <path d="M486.75 279.9822 L491.75 267.9822 L486.75 270.9822 L481.75 267.9822 Z" clip-path="url(#clipPath2)" stroke="none"/>
      <path fill="none" d="M596.125 306 L554.25 306" clip-path="url(#clipPath2)"/>
      <path d="M546.25 306 L558.25 311 L555.25 306 L558.25 301 Z" clip-path="url(#clipPath2)" stroke="none"/>
      <path fill="none" d="M826.75 306 L937.875 306" clip-path="url(#clipPath2)"/>
      <path d="M945.875 306 L933.875 301 L936.875 306 L933.875 311 Z" clip-path="url(#clipPath2)" stroke="none"/>
      <path fill="none" d="M564.9637 429.1623 L735.757 430.6664" clip-path="url(#clipPath2)"/>
      <path d="M743.7567 430.7368 L731.8012 425.6313 L734.7571 430.6576 L731.7131 435.631 Z" clip-path="url(#clipPath2)" stroke="none"/>
      <path fill="none" d="M811.75 244.3333 L811.75 274.8296" clip-path="url(#clipPath2)"/>
      <path d="M811.75 282.8296 L816.75 270.8296 L811.75 273.8296 L806.75 270.8296 Z" clip-path="url(#clipPath2)" stroke="none"/>
      <path fill="none" d="M686.4014 343 L744.9756 316.1938" clip-path="url(#clipPath2)"/>
      <path d="M752.25 312.8647 L739.2577 313.3118 L744.0663 316.6099 L743.4191 322.4048 Z" clip-path="url(#clipPath2)" stroke="none"/>
      <path fill="none" d="M975.875 306 L989.5059 306" clip-path="url(#clipPath2)"/>
      <path d="M997.5059 306 L985.5059 301 L988.5059 306 L985.5059 311 Z" clip-path="url(#clipPath2)" stroke="none"/>
      <path fill="none" d="M871.25 506 L989.4491 506" clip-path="url(#clipPath2)"/>
      <path d="M997.4491 506 L985.4491 501 L988.4491 506 L985.4491 511 Z" clip-path="url(#clipPath2)" stroke="none"/>
      <path fill="none" d="M1025.875 320.9819 L1025.875 367 L1195.375 367 L1195.375 329" clip-path="url(#clipPath2)"/>
      <path d="M1195.375 321 L1190.375 333 L1195.375 330 L1200.375 333 Z" clip-path="url(#clipPath2)" stroke="none"/>
      <path fill="none" d="M1150.875 244.3333 L1150.875 274.8296" clip-path="url(#clipPath2)"/>
      <path d="M1150.875 282.8296 L1155.875 270.8296 L1150.875 273.8296 L1145.875 270.8296 Z" clip-path="url(#clipPath2)" stroke="none"/>
      <path fill="none" d="M1025.875 520.9875 L1025.875 565.8333 L1195.375 565.8333 L1195.375 529" clip-path="url(#clipPath2)"/>
      <path d="M1195.375 521 L1190.375 533 L1195.375 530 L1200.375 533 Z" clip-path="url(#clipPath2)" stroke="none"/>
    </g>
  </g>
</svg>
