<?xml version="1.0" encoding="UTF-8"?><svg xmlns="http://www.w3.org/2000/svg" xmlns:xlink="http://www.w3.org/1999/xlink" fill-opacity="1" color-rendering="auto" color-interpolation="auto" text-rendering="auto" stroke="black" stroke-linecap="square" width="572" stroke-miterlimit="10" shape-rendering="auto" stroke-opacity="1" fill="black" stroke-dasharray="none" font-weight="normal" stroke-width="1" height="493" font-family="'Dialog'" font-style="normal" stroke-linejoin="miter" font-size="12px" stroke-dashoffset="0" image-rendering="auto">
  <!--Generated by ySVG 2.5-->
  <defs id="genericDefs"/>
  <g>
    <defs id="defs1">
      <clipPath clipPathUnits="userSpaceOnUse" id="clipPath1">
        <path d="M0 0 L572 0 L572 493 L0 493 L0 0 Z"/>
      </clipPath>
      <clipPath clipPathUnits="userSpaceOnUse" id="clipPath2">
        <path d="M329 199 L901 199 L901 692 L329 692 L329 199 Z"/>
      </clipPath>
    </defs>
    <g fill="white" text-rendering="geometricPrecision" shape-rendering="geometricPrecision" transform="translate(-329,-199)" stroke="white">
      <rect x="329" width="572" height="493" y="199" clip-path="url(#clipPath2)" stroke="none"/>
    </g>
    <g fill="rgb(153,204,255)" text-rendering="geometricPrecision" shape-rendering="geometricPrecision" transform="matrix(1,0,0,1,-329,-199)" stroke="rgb(153,204,255)">
      <rect x="377.5" width="30" height="30" y="291" clip-path="url(#clipPath2)" stroke="none"/>
    </g>
    <g text-rendering="geometricPrecision" stroke-miterlimit="1.45" shape-rendering="geometricPrecision" transform="matrix(1,0,0,1,-329,-199)" stroke-linecap="butt">
      <rect fill="none" x="377.5" width="30" height="30" y="291" clip-path="url(#clipPath2)"/>
    </g>
    <g fill="rgb(153,204,255)" text-rendering="geometricPrecision" shape-rendering="geometricPrecision" transform="matrix(1,0,0,1,-329,-199)" stroke="rgb(153,204,255)">
      <rect x="377.5" width="30" height="30" y="321" clip-path="url(#clipPath2)" stroke="none"/>
    </g>
    <g text-rendering="geometricPrecision" stroke-miterlimit="1.45" shape-rendering="geometricPrecision" transform="matrix(1,0,0,1,-329,-199)" stroke-linecap="butt">
      <rect fill="none" x="377.5" width="30" height="30" y="321" clip-path="url(#clipPath2)"/>
    </g>
    <g fill="rgb(153,204,255)" text-rendering="geometricPrecision" shape-rendering="geometricPrecision" transform="matrix(1,0,0,1,-329,-199)" stroke="rgb(153,204,255)">
      <rect x="377.5" width="30" height="30" y="351" clip-path="url(#clipPath2)" stroke="none"/>
    </g>
    <g text-rendering="geometricPrecision" stroke-miterlimit="1.45" shape-rendering="geometricPrecision" transform="matrix(1,0,0,1,-329,-199)" stroke-linecap="butt">
      <rect fill="none" x="377.5" width="30" height="30" y="351" clip-path="url(#clipPath2)"/>
    </g>
    <g fill="rgb(153,204,255)" text-rendering="geometricPrecision" shape-rendering="geometricPrecision" transform="matrix(1,0,0,1,-329,-199)" stroke="rgb(153,204,255)">
      <rect x="377.5" width="30" height="30" y="381" clip-path="url(#clipPath2)" stroke="none"/>
    </g>
    <g text-rendering="geometricPrecision" stroke-miterlimit="1.45" shape-rendering="geometricPrecision" transform="matrix(1,0,0,1,-329,-199)" stroke-linecap="butt">
      <rect fill="none" x="377.5" width="30" height="30" y="381" clip-path="url(#clipPath2)"/>
    </g>
    <g fill="rgb(153,204,255)" text-rendering="geometricPrecision" shape-rendering="geometricPrecision" transform="matrix(1,0,0,1,-329,-199)" stroke="rgb(153,204,255)">
      <rect x="377.5" width="30" height="30" y="411" clip-path="url(#clipPath2)" stroke="none"/>
    </g>
    <g text-rendering="geometricPrecision" stroke-miterlimit="1.45" shape-rendering="geometricPrecision" transform="matrix(1,0,0,1,-329,-199)" stroke-linecap="butt">
      <rect fill="none" x="377.5" width="30" height="30" y="411" clip-path="url(#clipPath2)"/>
    </g>
    <g fill="rgb(153,204,255)" text-rendering="geometricPrecision" shape-rendering="geometricPrecision" transform="matrix(1,0,0,1,-329,-199)" stroke="rgb(153,204,255)">
      <rect x="377.5" width="30" height="30" y="441" clip-path="url(#clipPath2)" stroke="none"/>
    </g>
    <g text-rendering="geometricPrecision" stroke-miterlimit="1.45" shape-rendering="geometricPrecision" transform="matrix(1,0,0,1,-329,-199)" stroke-linecap="butt">
      <rect fill="none" x="377.5" width="30" height="30" y="441" clip-path="url(#clipPath2)"/>
    </g>
    <g fill="rgb(153,204,255)" text-rendering="geometricPrecision" shape-rendering="geometricPrecision" transform="matrix(1,0,0,1,-329,-199)" stroke="rgb(153,204,255)">
      <rect x="422" width="30" height="30" y="291" clip-path="url(#clipPath2)" stroke="none"/>
    </g>
    <g text-rendering="geometricPrecision" stroke-miterlimit="1.45" shape-rendering="geometricPrecision" transform="matrix(1,0,0,1,-329,-199)" stroke-linecap="butt">
      <rect fill="none" x="422" width="30" height="30" y="291" clip-path="url(#clipPath2)"/>
    </g>
    <g fill="rgb(153,204,255)" text-rendering="geometricPrecision" shape-rendering="geometricPrecision" transform="matrix(1,0,0,1,-329,-199)" stroke="rgb(153,204,255)">
      <rect x="422" width="30" height="30" y="321" clip-path="url(#clipPath2)" stroke="none"/>
    </g>
    <g text-rendering="geometricPrecision" stroke-miterlimit="1.45" shape-rendering="geometricPrecision" transform="matrix(1,0,0,1,-329,-199)" stroke-linecap="butt">
      <rect fill="none" x="422" width="30" height="30" y="321" clip-path="url(#clipPath2)"/>
    </g>
    <g fill="rgb(153,204,255)" text-rendering="geometricPrecision" shape-rendering="geometricPrecision" transform="matrix(1,0,0,1,-329,-199)" stroke="rgb(153,204,255)">
      <rect x="422" width="30" height="30" y="351" clip-path="url(#clipPath2)" stroke="none"/>
    </g>
    <g text-rendering="geometricPrecision" stroke-miterlimit="1.45" shape-rendering="geometricPrecision" transform="matrix(1,0,0,1,-329,-199)" stroke-linecap="butt">
      <rect fill="none" x="422" width="30" height="30" y="351" clip-path="url(#clipPath2)"/>
    </g>
    <g fill="rgb(153,204,255)" text-rendering="geometricPrecision" shape-rendering="geometricPrecision" transform="matrix(1,0,0,1,-329,-199)" stroke="rgb(153,204,255)">
      <rect x="422" width="30" height="30" y="381" clip-path="url(#clipPath2)" stroke="none"/>
    </g>
    <g text-rendering="geometricPrecision" stroke-miterlimit="1.45" shape-rendering="geometricPrecision" transform="matrix(1,0,0,1,-329,-199)" stroke-linecap="butt">
      <rect fill="none" x="422" width="30" height="30" y="381" clip-path="url(#clipPath2)"/>
    </g>
    <g fill="rgb(153,204,255)" text-rendering="geometricPrecision" shape-rendering="geometricPrecision" transform="matrix(1,0,0,1,-329,-199)" stroke="rgb(153,204,255)">
      <rect x="422" width="30" height="30" y="411" clip-path="url(#clipPath2)" stroke="none"/>
    </g>
    <g text-rendering="geometricPrecision" stroke-miterlimit="1.45" shape-rendering="geometricPrecision" transform="matrix(1,0,0,1,-329,-199)" stroke-linecap="butt">
      <rect fill="none" x="422" width="30" height="30" y="411" clip-path="url(#clipPath2)"/>
    </g>
    <g fill="rgb(153,204,255)" text-rendering="geometricPrecision" shape-rendering="geometricPrecision" transform="matrix(1,0,0,1,-329,-199)" stroke="rgb(153,204,255)">
      <rect x="422" width="30" height="30" y="441" clip-path="url(#clipPath2)" stroke="none"/>
    </g>
    <g text-rendering="geometricPrecision" stroke-miterlimit="1.45" shape-rendering="geometricPrecision" transform="matrix(1,0,0,1,-329,-199)" stroke-linecap="butt">
      <rect fill="none" x="422" width="30" height="30" y="441" clip-path="url(#clipPath2)"/>
    </g>
    <g fill="rgb(153,204,255)" text-rendering="geometricPrecision" shape-rendering="geometricPrecision" transform="matrix(1,0,0,1,-329,-199)" stroke="rgb(153,204,255)">
      <rect x="466.5" width="30" height="30" y="291" clip-path="url(#clipPath2)" stroke="none"/>
    </g>
    <g text-rendering="geometricPrecision" stroke-miterlimit="1.45" shape-rendering="geometricPrecision" transform="matrix(1,0,0,1,-329,-199)" stroke-linecap="butt">
      <rect fill="none" x="466.5" width="30" height="30" y="291" clip-path="url(#clipPath2)"/>
    </g>
    <g fill="rgb(153,204,255)" text-rendering="geometricPrecision" shape-rendering="geometricPrecision" transform="matrix(1,0,0,1,-329,-199)" stroke="rgb(153,204,255)">
      <rect x="466.5" width="30" height="30" y="321" clip-path="url(#clipPath2)" stroke="none"/>
    </g>
    <g text-rendering="geometricPrecision" stroke-miterlimit="1.45" shape-rendering="geometricPrecision" transform="matrix(1,0,0,1,-329,-199)" stroke-linecap="butt">
      <rect fill="none" x="466.5" width="30" height="30" y="321" clip-path="url(#clipPath2)"/>
    </g>
    <g fill="rgb(153,204,255)" text-rendering="geometricPrecision" shape-rendering="geometricPrecision" transform="matrix(1,0,0,1,-329,-199)" stroke="rgb(153,204,255)">
      <rect x="466.5" width="30" height="30" y="351" clip-path="url(#clipPath2)" stroke="none"/>
    </g>
    <g text-rendering="geometricPrecision" stroke-miterlimit="1.45" shape-rendering="geometricPrecision" transform="matrix(1,0,0,1,-329,-199)" stroke-linecap="butt">
      <rect fill="none" x="466.5" width="30" height="30" y="351" clip-path="url(#clipPath2)"/>
    </g>
    <g fill="rgb(153,204,255)" text-rendering="geometricPrecision" shape-rendering="geometricPrecision" transform="matrix(1,0,0,1,-329,-199)" stroke="rgb(153,204,255)">
      <rect x="466.5" width="30" height="30" y="381" clip-path="url(#clipPath2)" stroke="none"/>
    </g>
    <g text-rendering="geometricPrecision" stroke-miterlimit="1.45" shape-rendering="geometricPrecision" transform="matrix(1,0,0,1,-329,-199)" stroke-linecap="butt">
      <rect fill="none" x="466.5" width="30" height="30" y="381" clip-path="url(#clipPath2)"/>
    </g>
    <g fill="rgb(153,204,255)" text-rendering="geometricPrecision" shape-rendering="geometricPrecision" transform="matrix(1,0,0,1,-329,-199)" stroke="rgb(153,204,255)">
      <rect x="466.5" width="30" height="30" y="411" clip-path="url(#clipPath2)" stroke="none"/>
    </g>
    <g text-rendering="geometricPrecision" stroke-miterlimit="1.45" shape-rendering="geometricPrecision" transform="matrix(1,0,0,1,-329,-199)" stroke-linecap="butt">
      <rect fill="none" x="466.5" width="30" height="30" y="411" clip-path="url(#clipPath2)"/>
    </g>
    <g fill="rgb(153,204,255)" text-rendering="geometricPrecision" shape-rendering="geometricPrecision" transform="matrix(1,0,0,1,-329,-199)" stroke="rgb(153,204,255)">
      <rect x="466.5" width="30" height="30" y="441" clip-path="url(#clipPath2)" stroke="none"/>
    </g>
    <g text-rendering="geometricPrecision" stroke-miterlimit="1.45" shape-rendering="geometricPrecision" transform="matrix(1,0,0,1,-329,-199)" stroke-linecap="butt">
      <rect fill="none" x="466.5" width="30" height="30" y="441" clip-path="url(#clipPath2)"/>
      <rect x="358.75" y="280" clip-path="url(#clipPath2)" fill="none" width="156.5" rx="4" ry="4" height="200"/>
    </g>
    <g fill="rgb(204,255,204)" text-rendering="geometricPrecision" shape-rendering="geometricPrecision" transform="matrix(1,0,0,1,-329,-199)" stroke="rgb(204,255,204)">
      <rect x="397" width="80" height="30" y="214.3333" clip-path="url(#clipPath2)" stroke="none"/>
    </g>
    <g text-rendering="geometricPrecision" stroke-miterlimit="1.45" shape-rendering="geometricPrecision" transform="matrix(1,0,0,1,-329,-199)" stroke-linecap="butt">
      <rect fill="none" x="397" width="80" height="30" y="214.3333" clip-path="url(#clipPath2)"/>
      <text x="403.543" xml:space="preserve" y="233.4876" clip-path="url(#clipPath2)" font-family="sans-serif" stroke="none">DataFrame</text>
    </g>
    <g fill="rgb(204,255,204)" text-rendering="geometricPrecision" shape-rendering="geometricPrecision" transform="matrix(1,0,0,1,-329,-199)" stroke="rgb(204,255,204)">
      <rect x="571.25" width="115" height="30" y="291" clip-path="url(#clipPath2)" stroke="none"/>
    </g>
    <g text-rendering="geometricPrecision" stroke-miterlimit="1.45" shape-rendering="geometricPrecision" transform="matrix(1,0,0,1,-329,-199)" stroke-linecap="butt">
      <rect fill="none" x="571.25" width="115" height="30" y="291" clip-path="url(#clipPath2)"/>
      <text x="579.5342" xml:space="preserve" y="310.1543" clip-path="url(#clipPath2)" font-family="sans-serif" stroke="none">Columns of data</text>
    </g>
    <g fill="rgb(153,204,255)" text-rendering="geometricPrecision" shape-rendering="geometricPrecision" transform="matrix(1,0,0,1,-329,-199)" stroke="rgb(153,204,255)">
      <rect x="752.25" width="30" height="30" y="291" clip-path="url(#clipPath2)" stroke="none"/>
    </g>
    <g text-rendering="geometricPrecision" stroke-miterlimit="1.45" shape-rendering="geometricPrecision" transform="matrix(1,0,0,1,-329,-199)" stroke-linecap="butt">
      <rect fill="none" x="752.25" width="30" height="30" y="291" clip-path="url(#clipPath2)"/>
    </g>
    <g fill="rgb(153,204,255)" text-rendering="geometricPrecision" shape-rendering="geometricPrecision" transform="matrix(1,0,0,1,-329,-199)" stroke="rgb(153,204,255)">
      <rect x="752.25" width="30" height="30" y="491" clip-path="url(#clipPath2)" stroke="none"/>
    </g>
    <g text-rendering="geometricPrecision" stroke-miterlimit="1.45" shape-rendering="geometricPrecision" transform="matrix(1,0,0,1,-329,-199)" stroke-linecap="butt">
      <rect fill="none" x="752.25" width="30" height="30" y="491" clip-path="url(#clipPath2)"/>
    </g>
    <g fill="rgb(153,204,255)" text-rendering="geometricPrecision" shape-rendering="geometricPrecision" transform="matrix(1,0,0,1,-329,-199)" stroke="rgb(153,204,255)">
      <rect x="796.75" width="30" height="30" y="291" clip-path="url(#clipPath2)" stroke="none"/>
    </g>
    <g text-rendering="geometricPrecision" stroke-miterlimit="1.45" shape-rendering="geometricPrecision" transform="matrix(1,0,0,1,-329,-199)" stroke-linecap="butt">
      <rect fill="none" x="796.75" width="30" height="30" y="291" clip-path="url(#clipPath2)"/>
    </g>
    <g fill="rgb(153,204,255)" text-rendering="geometricPrecision" shape-rendering="geometricPrecision" transform="matrix(1,0,0,1,-329,-199)" stroke="rgb(153,204,255)">
      <rect x="796.75" width="30" height="30" y="321" clip-path="url(#clipPath2)" stroke="none"/>
    </g>
    <g text-rendering="geometricPrecision" stroke-miterlimit="1.45" shape-rendering="geometricPrecision" transform="matrix(1,0,0,1,-329,-199)" stroke-linecap="butt">
      <rect fill="none" x="796.75" width="30" height="30" y="321" clip-path="url(#clipPath2)"/>
    </g>
    <g fill="rgb(153,204,255)" text-rendering="geometricPrecision" shape-rendering="geometricPrecision" transform="matrix(1,0,0,1,-329,-199)" stroke="rgb(153,204,255)">
      <rect x="796.75" width="30" height="30" y="351" clip-path="url(#clipPath2)" stroke="none"/>
    </g>
    <g text-rendering="geometricPrecision" stroke-miterlimit="1.45" shape-rendering="geometricPrecision" transform="matrix(1,0,0,1,-329,-199)" stroke-linecap="butt">
      <rect fill="none" x="796.75" width="30" height="30" y="351" clip-path="url(#clipPath2)"/>
    </g>
    <g fill="rgb(153,204,255)" text-rendering="geometricPrecision" shape-rendering="geometricPrecision" transform="matrix(1,0,0,1,-329,-199)" stroke="rgb(153,204,255)">
      <rect x="796.75" width="30" height="30" y="381" clip-path="url(#clipPath2)" stroke="none"/>
    </g>
    <g text-rendering="geometricPrecision" stroke-miterlimit="1.45" shape-rendering="geometricPrecision" transform="matrix(1,0,0,1,-329,-199)" stroke-linecap="butt">
      <rect fill="none" x="796.75" width="30" height="30" y="381" clip-path="url(#clipPath2)"/>
    </g>
    <g fill="rgb(153,204,255)" text-rendering="geometricPrecision" shape-rendering="geometricPrecision" transform="matrix(1,0,0,1,-329,-199)" stroke="rgb(153,204,255)">
      <rect x="796.75" width="30" height="30" y="411" clip-path="url(#clipPath2)" stroke="none"/>
    </g>
    <g text-rendering="geometricPrecision" stroke-miterlimit="1.45" shape-rendering="geometricPrecision" transform="matrix(1,0,0,1,-329,-199)" stroke-linecap="butt">
      <rect fill="none" x="796.75" width="30" height="30" y="411" clip-path="url(#clipPath2)"/>
    </g>
    <g fill="rgb(153,204,255)" text-rendering="geometricPrecision" shape-rendering="geometricPrecision" transform="matrix(1,0,0,1,-329,-199)" stroke="rgb(153,204,255)">
      <rect x="796.75" width="30" height="30" y="441" clip-path="url(#clipPath2)" stroke="none"/>
    </g>
    <g text-rendering="geometricPrecision" stroke-miterlimit="1.45" shape-rendering="geometricPrecision" transform="matrix(1,0,0,1,-329,-199)" stroke-linecap="butt">
      <rect fill="none" x="796.75" width="30" height="30" y="441" clip-path="url(#clipPath2)"/>
    </g>
    <g fill="rgb(153,204,255)" text-rendering="geometricPrecision" shape-rendering="geometricPrecision" transform="matrix(1,0,0,1,-329,-199)" stroke="rgb(153,204,255)">
      <rect x="841.25" width="30" height="30" y="291" clip-path="url(#clipPath2)" stroke="none"/>
    </g>
    <g text-rendering="geometricPrecision" stroke-miterlimit="1.45" shape-rendering="geometricPrecision" transform="matrix(1,0,0,1,-329,-199)" stroke-linecap="butt">
      <rect fill="none" x="841.25" width="30" height="30" y="291" clip-path="url(#clipPath2)"/>
    </g>
    <g fill="rgb(153,204,255)" text-rendering="geometricPrecision" shape-rendering="geometricPrecision" transform="matrix(1,0,0,1,-329,-199)" stroke="rgb(153,204,255)">
      <rect x="841.25" width="30" height="30" y="321" clip-path="url(#clipPath2)" stroke="none"/>
    </g>
    <g text-rendering="geometricPrecision" stroke-miterlimit="1.45" shape-rendering="geometricPrecision" transform="matrix(1,0,0,1,-329,-199)" stroke-linecap="butt">
      <rect fill="none" x="841.25" width="30" height="30" y="321" clip-path="url(#clipPath2)"/>
    </g>
    <g fill="rgb(153,204,255)" text-rendering="geometricPrecision" shape-rendering="geometricPrecision" transform="matrix(1,0,0,1,-329,-199)" stroke="rgb(153,204,255)">
      <rect x="841.25" width="30" height="30" y="351" clip-path="url(#clipPath2)" stroke="none"/>
    </g>
    <g text-rendering="geometricPrecision" stroke-miterlimit="1.45" shape-rendering="geometricPrecision" transform="matrix(1,0,0,1,-329,-199)" stroke-linecap="butt">
      <rect fill="none" x="841.25" width="30" height="30" y="351" clip-path="url(#clipPath2)"/>
    </g>
    <g fill="rgb(153,204,255)" text-rendering="geometricPrecision" shape-rendering="geometricPrecision" transform="matrix(1,0,0,1,-329,-199)" stroke="rgb(153,204,255)">
      <rect x="841.25" width="30" height="30" y="381" clip-path="url(#clipPath2)" stroke="none"/>
    </g>
    <g text-rendering="geometricPrecision" stroke-miterlimit="1.45" shape-rendering="geometricPrecision" transform="matrix(1,0,0,1,-329,-199)" stroke-linecap="butt">
      <rect fill="none" x="841.25" width="30" height="30" y="381" clip-path="url(#clipPath2)"/>
    </g>
    <g fill="rgb(153,204,255)" text-rendering="geometricPrecision" shape-rendering="geometricPrecision" transform="matrix(1,0,0,1,-329,-199)" stroke="rgb(153,204,255)">
      <rect x="841.25" width="30" height="30" y="411" clip-path="url(#clipPath2)" stroke="none"/>
    </g>
    <g text-rendering="geometricPrecision" stroke-miterlimit="1.45" shape-rendering="geometricPrecision" transform="matrix(1,0,0,1,-329,-199)" stroke-linecap="butt">
      <rect fill="none" x="841.25" width="30" height="30" y="411" clip-path="url(#clipPath2)"/>
    </g>
    <g fill="rgb(153,204,255)" text-rendering="geometricPrecision" shape-rendering="geometricPrecision" transform="matrix(1,0,0,1,-329,-199)" stroke="rgb(153,204,255)">
      <rect x="841.25" width="30" height="30" y="441" clip-path="url(#clipPath2)" stroke="none"/>
    </g>
    <g text-rendering="geometricPrecision" stroke-miterlimit="1.45" shape-rendering="geometricPrecision" transform="matrix(1,0,0,1,-329,-199)" stroke-linecap="butt">
      <rect fill="none" x="841.25" width="30" height="30" y="441" clip-path="url(#clipPath2)"/>
      <rect x="742.25" y="280" clip-path="url(#clipPath2)" fill="none" width="136" rx="4" ry="4" height="396.3333"/>
    </g>
    <g fill="rgb(204,255,204)" text-rendering="geometricPrecision" shape-rendering="geometricPrecision" transform="matrix(1,0,0,1,-329,-199)" stroke="rgb(204,255,204)">
      <rect x="738.25" width="147" height="30" y="214.3333" clip-path="url(#clipPath2)" stroke="none"/>
    </g>
    <g text-rendering="geometricPrecision" stroke-miterlimit="1.45" shape-rendering="geometricPrecision" transform="matrix(1,0,0,1,-329,-199)" stroke-linecap="butt">
      <rect fill="none" x="738.25" width="147" height="30" y="214.3333" clip-path="url(#clipPath2)"/>
      <text x="751.8262" xml:space="preserve" y="233.4876" clip-path="url(#clipPath2)" font-family="sans-serif" stroke="none">Grouped Dataframe</text>
    </g>
    <g fill="rgb(204,255,204)" text-rendering="geometricPrecision" shape-rendering="geometricPrecision" transform="matrix(1,0,0,1,-329,-199)" stroke="rgb(204,255,204)">
      <rect x="571.25" width="115" height="30" y="343" clip-path="url(#clipPath2)" stroke="none"/>
    </g>
    <g text-rendering="geometricPrecision" stroke-miterlimit="1.45" shape-rendering="geometricPrecision" transform="matrix(1,0,0,1,-329,-199)" stroke-linecap="butt">
      <rect fill="none" x="571.25" width="115" height="30" y="343" clip-path="url(#clipPath2)"/>
      <text x="574.9609" xml:space="preserve" y="362.1543" clip-path="url(#clipPath2)" font-family="sans-serif" stroke="none">Grouping variable</text>
    </g>
    <g fill="rgb(153,204,255)" text-rendering="geometricPrecision" shape-rendering="geometricPrecision" transform="matrix(1,0,0,1,-329,-199)" stroke="rgb(153,204,255)">
      <rect x="796.75" width="30" height="30" y="491" clip-path="url(#clipPath2)" stroke="none"/>
    </g>
    <g text-rendering="geometricPrecision" stroke-miterlimit="1.45" shape-rendering="geometricPrecision" transform="matrix(1,0,0,1,-329,-199)" stroke-linecap="butt">
      <rect fill="none" x="796.75" width="30" height="30" y="491" clip-path="url(#clipPath2)"/>
    </g>
    <g fill="rgb(153,204,255)" text-rendering="geometricPrecision" shape-rendering="geometricPrecision" transform="matrix(1,0,0,1,-329,-199)" stroke="rgb(153,204,255)">
      <rect x="796.75" width="30" height="30" y="521" clip-path="url(#clipPath2)" stroke="none"/>
    </g>
    <g text-rendering="geometricPrecision" stroke-miterlimit="1.45" shape-rendering="geometricPrecision" transform="matrix(1,0,0,1,-329,-199)" stroke-linecap="butt">
      <rect fill="none" x="796.75" width="30" height="30" y="521" clip-path="url(#clipPath2)"/>
    </g>
    <g fill="rgb(153,204,255)" text-rendering="geometricPrecision" shape-rendering="geometricPrecision" transform="matrix(1,0,0,1,-329,-199)" stroke="rgb(153,204,255)">
      <rect x="796.75" width="30" height="30" y="551" clip-path="url(#clipPath2)" stroke="none"/>
    </g>
    <g text-rendering="geometricPrecision" stroke-miterlimit="1.45" shape-rendering="geometricPrecision" transform="matrix(1,0,0,1,-329,-199)" stroke-linecap="butt">
      <rect fill="none" x="796.75" width="30" height="30" y="551" clip-path="url(#clipPath2)"/>
    </g>
    <g fill="rgb(153,204,255)" text-rendering="geometricPrecision" shape-rendering="geometricPrecision" transform="matrix(1,0,0,1,-329,-199)" stroke="rgb(153,204,255)">
      <rect x="796.75" width="30" height="30" y="581" clip-path="url(#clipPath2)" stroke="none"/>
    </g>
    <g text-rendering="geometricPrecision" stroke-miterlimit="1.45" shape-rendering="geometricPrecision" transform="matrix(1,0,0,1,-329,-199)" stroke-linecap="butt">
      <rect fill="none" x="796.75" width="30" height="30" y="581" clip-path="url(#clipPath2)"/>
    </g>
    <g fill="rgb(153,204,255)" text-rendering="geometricPrecision" shape-rendering="geometricPrecision" transform="matrix(1,0,0,1,-329,-199)" stroke="rgb(153,204,255)">
      <rect x="796.75" width="30" height="30" y="611" clip-path="url(#clipPath2)" stroke="none"/>
    </g>
    <g text-rendering="geometricPrecision" stroke-miterlimit="1.45" shape-rendering="geometricPrecision" transform="matrix(1,0,0,1,-329,-199)" stroke-linecap="butt">
      <rect fill="none" x="796.75" width="30" height="30" y="611" clip-path="url(#clipPath2)"/>
    </g>
    <g fill="rgb(153,204,255)" text-rendering="geometricPrecision" shape-rendering="geometricPrecision" transform="matrix(1,0,0,1,-329,-199)" stroke="rgb(153,204,255)">
      <rect x="796.75" width="30" height="30" y="641" clip-path="url(#clipPath2)" stroke="none"/>
    </g>
    <g text-rendering="geometricPrecision" stroke-miterlimit="1.45" shape-rendering="geometricPrecision" transform="matrix(1,0,0,1,-329,-199)" stroke-linecap="butt">
      <rect fill="none" x="796.75" width="30" height="30" y="641" clip-path="url(#clipPath2)"/>
    </g>
    <g fill="rgb(153,204,255)" text-rendering="geometricPrecision" shape-rendering="geometricPrecision" transform="matrix(1,0,0,1,-329,-199)" stroke="rgb(153,204,255)">
      <rect x="841.25" width="30" height="30" y="491" clip-path="url(#clipPath2)" stroke="none"/>
    </g>
    <g text-rendering="geometricPrecision" stroke-miterlimit="1.45" shape-rendering="geometricPrecision" transform="matrix(1,0,0,1,-329,-199)" stroke-linecap="butt">
      <rect fill="none" x="841.25" width="30" height="30" y="491" clip-path="url(#clipPath2)"/>
    </g>
    <g fill="rgb(153,204,255)" text-rendering="geometricPrecision" shape-rendering="geometricPrecision" transform="matrix(1,0,0,1,-329,-199)" stroke="rgb(153,204,255)">
      <rect x="841.25" width="30" height="30" y="521" clip-path="url(#clipPath2)" stroke="none"/>
    </g>
    <g text-rendering="geometricPrecision" stroke-miterlimit="1.45" shape-rendering="geometricPrecision" transform="matrix(1,0,0,1,-329,-199)" stroke-linecap="butt">
      <rect fill="none" x="841.25" width="30" height="30" y="521" clip-path="url(#clipPath2)"/>
    </g>
    <g fill="rgb(153,204,255)" text-rendering="geometricPrecision" shape-rendering="geometricPrecision" transform="matrix(1,0,0,1,-329,-199)" stroke="rgb(153,204,255)">
      <rect x="841.25" width="30" height="30" y="551" clip-path="url(#clipPath2)" stroke="none"/>
    </g>
    <g text-rendering="geometricPrecision" stroke-miterlimit="1.45" shape-rendering="geometricPrecision" transform="matrix(1,0,0,1,-329,-199)" stroke-linecap="butt">
      <rect fill="none" x="841.25" width="30" height="30" y="551" clip-path="url(#clipPath2)"/>
    </g>
    <g fill="rgb(153,204,255)" text-rendering="geometricPrecision" shape-rendering="geometricPrecision" transform="matrix(1,0,0,1,-329,-199)" stroke="rgb(153,204,255)">
      <rect x="841.25" width="30" height="30" y="581" clip-path="url(#clipPath2)" stroke="none"/>
    </g>
    <g text-rendering="geometricPrecision" stroke-miterlimit="1.45" shape-rendering="geometricPrecision" transform="matrix(1,0,0,1,-329,-199)" stroke-linecap="butt">
      <rect fill="none" x="841.25" width="30" height="30" y="581" clip-path="url(#clipPath2)"/>
    </g>
    <g fill="rgb(153,204,255)" text-rendering="geometricPrecision" shape-rendering="geometricPrecision" transform="matrix(1,0,0,1,-329,-199)" stroke="rgb(153,204,255)">
      <rect x="841.25" width="30" height="30" y="611" clip-path="url(#clipPath2)" stroke="none"/>
    </g>
    <g text-rendering="geometricPrecision" stroke-miterlimit="1.45" shape-rendering="geometricPrecision" transform="matrix(1,0,0,1,-329,-199)" stroke-linecap="butt">
      <rect fill="none" x="841.25" width="30" height="30" y="611" clip-path="url(#clipPath2)"/>
    </g>
    <g fill="rgb(153,204,255)" text-rendering="geometricPrecision" shape-rendering="geometricPrecision" transform="matrix(1,0,0,1,-329,-199)" stroke="rgb(153,204,255)">
      <rect x="841.25" width="30" height="30" y="641" clip-path="url(#clipPath2)" stroke="none"/>
    </g>
    <g text-rendering="geometricPrecision" stroke-miterlimit="1.45" shape-rendering="geometricPrecision" transform="matrix(1,0,0,1,-329,-199)" stroke-linecap="butt">
      <rect fill="none" x="841.25" width="30" height="30" y="641" clip-path="url(#clipPath2)"/>
      <path fill="none" d="M437 244.3333 L437 271.9822" clip-path="url(#clipPath2)"/>
      <path d="M437 279.9822 L442 267.9822 L437 270.9822 L432 267.9822 Z" clip-path="url(#clipPath2)" stroke="none"/>
      <path fill="none" d="M571.25 306 L504.5 306" clip-path="url(#clipPath2)"/>
      <path d="M496.5 306 L508.5 311 L505.5 306 L508.5 301 Z" clip-path="url(#clipPath2)" stroke="none"/>
      <path fill="none" d="M515.2917 428.5 L734.2589 428.5" clip-path="url(#clipPath2)"/>
      <path d="M742.2589 428.5 L730.2589 423.5 L733.2589 428.5 L730.2589 433.5 Z" clip-path="url(#clipPath2)" stroke="none"/>
      <path fill="none" d="M811.3062 244.3333 L810.4876 272.0025" clip-path="url(#clipPath2)"/>
      <path d="M810.251 279.999 L815.6037 268.1521 L810.5172 271.0029 L805.6081 267.8564 Z" clip-path="url(#clipPath2)" stroke="none"/>
      <path fill="none" d="M668.7019 343 L744.7605 314.4437" clip-path="url(#clipPath2)"/>
      <path d="M752.25 311.6318 L739.2582 311.1688 L743.8243 314.7952 L742.7732 320.5307 Z" clip-path="url(#clipPath2)" stroke="none"/>
    </g>
  </g>
</svg>
