<?xml version="1.0" encoding="UTF-8"?><svg xmlns="http://www.w3.org/2000/svg" xmlns:xlink="http://www.w3.org/1999/xlink" fill-opacity="1" color-rendering="auto" color-interpolation="auto" text-rendering="auto" stroke="black" stroke-linecap="square" width="724" stroke-miterlimit="10" shape-rendering="auto" stroke-opacity="1" fill="black" stroke-dasharray="none" font-weight="normal" stroke-width="1" height="228" font-family="'Dialog'" font-style="normal" stroke-linejoin="miter" font-size="12px" stroke-dashoffset="0" image-rendering="auto">
  <!--Generated by ySVG 2.5-->
  <defs id="genericDefs"/>
  <g>
    <defs id="defs1">
      <clipPath clipPathUnits="userSpaceOnUse" id="clipPath1">
        <path d="M0 0 L724 0 L724 228 L0 228 L0 0 Z"/>
      </clipPath>
      <clipPath clipPathUnits="userSpaceOnUse" id="clipPath2">
        <path d="M241 318 L965 318 L965 546 L241 546 L241 318 Z"/>
      </clipPath>
    </defs>
    <g fill="white" text-rendering="geometricPrecision" shape-rendering="geometricPrecision" transform="translate(-241,-318)" stroke="white">
      <rect x="241" width="724" height="228" y="318" clip-path="url(#clipPath2)" stroke="none"/>
    </g>
    <g fill="rgb(255,153,204)" text-rendering="geometricPrecision" shape-rendering="geometricPrecision" transform="matrix(1,0,0,1,-241,-318)" stroke="rgb(255,153,204)">
      <path d="M752 333 L886.9999 333 L902 354 L886.9999 375 L752 375 L767.0001 354 Z" fill-rule="evenodd" clip-path="url(#clipPath2)" stroke="none"/>
    </g>
    <g text-rendering="geometricPrecision" stroke-miterlimit="1.45" shape-rendering="geometricPrecision" transform="matrix(1,0,0,1,-241,-318)" stroke-linecap="butt">
      <path fill="none" d="M752 333 L886.9999 333 L902 354 L886.9999 375 L752 375 L767.0001 354 Z" fill-rule="evenodd" clip-path="url(#clipPath2)"/>
      <text x="783.2656" xml:space="preserve" y="358.1543" clip-path="url(#clipPath2)" font-family="sans-serif" stroke="none">P(d_1,p_1,v_1)</text>
    </g>
    <g fill="rgb(255,153,204)" text-rendering="geometricPrecision" shape-rendering="geometricPrecision" transform="matrix(1,0,0,1,-241,-318)" stroke="rgb(255,153,204)">
      <rect x="908" width="42" height="42" y="333" clip-path="url(#clipPath2)" stroke="none"/>
    </g>
    <g text-rendering="geometricPrecision" stroke-miterlimit="1.45" shape-rendering="geometricPrecision" transform="matrix(1,0,0,1,-241,-318)" stroke-linecap="butt">
      <rect fill="none" x="908" width="42" height="42" y="333" clip-path="url(#clipPath2)"/>
      <text x="919.7158" xml:space="preserve" y="358.1543" clip-path="url(#clipPath2)" font-family="sans-serif" stroke="none">r_1</text>
    </g>
    <g fill="rgb(204,153,255)" text-rendering="geometricPrecision" shape-rendering="geometricPrecision" transform="matrix(1,0,0,1,-241,-318)" stroke="rgb(204,153,255)">
      <path d="M616 333 L689.8 333 L698 354 L689.8 375 L616 375 L624.2 354 Z" fill-rule="evenodd" clip-path="url(#clipPath2)" stroke="none"/>
    </g>
    <g text-rendering="geometricPrecision" stroke-miterlimit="1.45" shape-rendering="geometricPrecision" transform="matrix(1,0,0,1,-241,-318)" stroke-linecap="butt">
      <path fill="none" d="M616 333 L689.8 333 L698 354 L689.8 375 L616 375 L624.2 354 Z" fill-rule="evenodd" clip-path="url(#clipPath2)"/>
      <text x="637.9014" xml:space="preserve" y="358.1543" clip-path="url(#clipPath2)" font-family="sans-serif" stroke="none">E(p_1)</text>
    </g>
    <g fill="rgb(204,153,255)" text-rendering="geometricPrecision" shape-rendering="geometricPrecision" transform="matrix(1,0,0,1,-241,-318)" stroke="rgb(204,153,255)">
      <rect x="704" width="42" height="42" y="333" clip-path="url(#clipPath2)" stroke="none"/>
    </g>
    <g text-rendering="geometricPrecision" stroke-miterlimit="1.45" shape-rendering="geometricPrecision" transform="matrix(1,0,0,1,-241,-318)" stroke-linecap="butt">
      <rect fill="none" x="704" width="42" height="42" y="333" clip-path="url(#clipPath2)"/>
      <text x="721.4492" xml:space="preserve" y="358.1543" clip-path="url(#clipPath2)" font-family="sans-serif" stroke="none">v</text>
    </g>
    <g fill="rgb(153,204,255)" text-rendering="geometricPrecision" shape-rendering="geometricPrecision" transform="matrix(1,0,0,1,-241,-318)" stroke="rgb(153,204,255)">
      <path d="M480 333 L553.8 333 L562 354 L553.8 375 L480 375 L488.2 354 Z" fill-rule="evenodd" clip-path="url(#clipPath2)" stroke="none"/>
    </g>
    <g text-rendering="geometricPrecision" stroke-miterlimit="1.45" shape-rendering="geometricPrecision" transform="matrix(1,0,0,1,-241,-318)" stroke-linecap="butt">
      <path fill="none" d="M480 333 L553.8 333 L562 354 L553.8 375 L480 375 L488.2 354 Z" fill-rule="evenodd" clip-path="url(#clipPath2)"/>
      <text x="500.5156" xml:space="preserve" y="358.1543" clip-path="url(#clipPath2)" font-family="sans-serif" stroke="none">M(d_1)</text>
    </g>
    <g fill="rgb(153,204,255)" text-rendering="geometricPrecision" shape-rendering="geometricPrecision" transform="matrix(1,0,0,1,-241,-318)" stroke="rgb(153,204,255)">
      <rect x="568" width="42" height="42" y="333" clip-path="url(#clipPath2)" stroke="none"/>
    </g>
    <g text-rendering="geometricPrecision" stroke-miterlimit="1.45" shape-rendering="geometricPrecision" transform="matrix(1,0,0,1,-241,-318)" stroke-linecap="butt">
      <rect fill="none" x="568" width="42" height="42" y="333" clip-path="url(#clipPath2)"/>
      <text x="578.374" xml:space="preserve" y="358.1543" clip-path="url(#clipPath2)" font-family="sans-serif" stroke="none">p_1</text>
    </g>
    <g fill="silver" text-rendering="geometricPrecision" shape-rendering="geometricPrecision" transform="matrix(1,0,0,1,-241,-318)" stroke="silver">
      <rect x="256" width="82" height="42" y="333" clip-path="url(#clipPath2)" stroke="none"/>
    </g>
    <g text-rendering="geometricPrecision" stroke-miterlimit="1.45" shape-rendering="geometricPrecision" transform="matrix(1,0,0,1,-241,-318)" stroke-linecap="butt">
      <rect fill="none" x="256" width="82" height="42" y="333" clip-path="url(#clipPath2)"/>
      <text x="272.3232" xml:space="preserve" y="358.1543" clip-path="url(#clipPath2)" font-family="sans-serif" stroke="none">d_raw_1</text>
    </g>
    <g fill="rgb(204,255,204)" text-rendering="geometricPrecision" shape-rendering="geometricPrecision" transform="matrix(1,0,0,1,-241,-318)" stroke="rgb(204,255,204)">
      <rect x="432" width="42" height="42" y="333" clip-path="url(#clipPath2)" stroke="none"/>
    </g>
    <g text-rendering="geometricPrecision" stroke-miterlimit="1.45" shape-rendering="geometricPrecision" transform="matrix(1,0,0,1,-241,-318)" stroke-linecap="butt">
      <rect fill="none" x="432" width="42" height="42" y="333" clip-path="url(#clipPath2)"/>
      <text x="442.374" xml:space="preserve" y="358.1543" clip-path="url(#clipPath2)" font-family="sans-serif" stroke="none">d_1</text>
    </g>
    <g fill="rgb(204,255,204)" text-rendering="geometricPrecision" shape-rendering="geometricPrecision" transform="matrix(1,0,0,1,-241,-318)" stroke="rgb(204,255,204)">
      <path d="M344 333 L417.8 333 L426 354 L417.8 375 L344 375 L352.2 354 Z" fill-rule="evenodd" clip-path="url(#clipPath2)" stroke="none"/>
    </g>
    <g text-rendering="geometricPrecision" stroke-miterlimit="1.45" shape-rendering="geometricPrecision" transform="matrix(1,0,0,1,-241,-318)" stroke-linecap="butt">
      <path fill="none" d="M344 333 L417.8 333 L426 354 L417.8 375 L344 375 L352.2 354 Z" fill-rule="evenodd" clip-path="url(#clipPath2)"/>
      <text x="353.8721" xml:space="preserve" y="358.1543" clip-path="url(#clipPath2)" font-family="sans-serif" stroke="none">I(d_raw_1)</text>
    </g>
    <g fill="rgb(255,153,204)" text-rendering="geometricPrecision" shape-rendering="geometricPrecision" transform="matrix(1,0,0,1,-241,-318)" stroke="rgb(255,153,204)">
      <rect x="908" width="42" height="42" y="385" clip-path="url(#clipPath2)" stroke="none"/>
    </g>
    <g text-rendering="geometricPrecision" stroke-miterlimit="1.45" shape-rendering="geometricPrecision" transform="matrix(1,0,0,1,-241,-318)" stroke-linecap="butt">
      <rect fill="none" x="908" width="42" height="42" y="385" clip-path="url(#clipPath2)"/>
      <text x="919.7158" xml:space="preserve" y="410.1543" clip-path="url(#clipPath2)" font-family="sans-serif" stroke="none">r_2</text>
    </g>
    <g fill="rgb(204,153,255)" text-rendering="geometricPrecision" shape-rendering="geometricPrecision" transform="matrix(1,0,0,1,-241,-318)" stroke="rgb(204,153,255)">
      <path d="M616 385 L689.8 385 L698 406 L689.8 427 L616 427 L624.2 406 Z" fill-rule="evenodd" clip-path="url(#clipPath2)" stroke="none"/>
    </g>
    <g text-rendering="geometricPrecision" stroke-miterlimit="1.45" shape-rendering="geometricPrecision" transform="matrix(1,0,0,1,-241,-318)" stroke-linecap="butt">
      <path fill="none" d="M616 385 L689.8 385 L698 406 L689.8 427 L616 427 L624.2 406 Z" fill-rule="evenodd" clip-path="url(#clipPath2)"/>
      <text x="637.9014" xml:space="preserve" y="410.1543" clip-path="url(#clipPath2)" font-family="sans-serif" stroke="none">E(p_2)</text>
    </g>
    <g fill="rgb(204,153,255)" text-rendering="geometricPrecision" shape-rendering="geometricPrecision" transform="matrix(1,0,0,1,-241,-318)" stroke="rgb(204,153,255)">
      <rect x="704" width="42" height="42" y="385" clip-path="url(#clipPath2)" stroke="none"/>
    </g>
    <g text-rendering="geometricPrecision" stroke-miterlimit="1.45" shape-rendering="geometricPrecision" transform="matrix(1,0,0,1,-241,-318)" stroke-linecap="butt">
      <rect fill="none" x="704" width="42" height="42" y="385" clip-path="url(#clipPath2)"/>
      <text x="721.4492" xml:space="preserve" y="410.1543" clip-path="url(#clipPath2)" font-family="sans-serif" stroke="none">v</text>
    </g>
    <g fill="rgb(153,204,255)" text-rendering="geometricPrecision" shape-rendering="geometricPrecision" transform="matrix(1,0,0,1,-241,-318)" stroke="rgb(153,204,255)">
      <path d="M480 385 L553.8 385 L562 406 L553.8 427 L480 427 L488.2 406 Z" fill-rule="evenodd" clip-path="url(#clipPath2)" stroke="none"/>
    </g>
    <g text-rendering="geometricPrecision" stroke-miterlimit="1.45" shape-rendering="geometricPrecision" transform="matrix(1,0,0,1,-241,-318)" stroke-linecap="butt">
      <path fill="none" d="M480 385 L553.8 385 L562 406 L553.8 427 L480 427 L488.2 406 Z" fill-rule="evenodd" clip-path="url(#clipPath2)"/>
      <text x="500.5156" xml:space="preserve" y="410.1543" clip-path="url(#clipPath2)" font-family="sans-serif" stroke="none">M(d_2)</text>
    </g>
    <g fill="rgb(153,204,255)" text-rendering="geometricPrecision" shape-rendering="geometricPrecision" transform="matrix(1,0,0,1,-241,-318)" stroke="rgb(153,204,255)">
      <rect x="568" width="42" height="42" y="385" clip-path="url(#clipPath2)" stroke="none"/>
    </g>
    <g text-rendering="geometricPrecision" stroke-miterlimit="1.45" shape-rendering="geometricPrecision" transform="matrix(1,0,0,1,-241,-318)" stroke-linecap="butt">
      <rect fill="none" x="568" width="42" height="42" y="385" clip-path="url(#clipPath2)"/>
      <text x="578.374" xml:space="preserve" y="410.1543" clip-path="url(#clipPath2)" font-family="sans-serif" stroke="none">p_2</text>
    </g>
    <g fill="rgb(204,255,204)" text-rendering="geometricPrecision" shape-rendering="geometricPrecision" transform="matrix(1,0,0,1,-241,-318)" stroke="rgb(204,255,204)">
      <rect x="432" width="42" height="42" y="385" clip-path="url(#clipPath2)" stroke="none"/>
    </g>
    <g text-rendering="geometricPrecision" stroke-miterlimit="1.45" shape-rendering="geometricPrecision" transform="matrix(1,0,0,1,-241,-318)" stroke-linecap="butt">
      <rect fill="none" x="432" width="42" height="42" y="385" clip-path="url(#clipPath2)"/>
      <text x="442.374" xml:space="preserve" y="410.1543" clip-path="url(#clipPath2)" font-family="sans-serif" stroke="none">d_2</text>
    </g>
    <g fill="rgb(204,255,204)" text-rendering="geometricPrecision" shape-rendering="geometricPrecision" transform="matrix(1,0,0,1,-241,-318)" stroke="rgb(204,255,204)">
      <path d="M344 385 L417.8 385 L426 406 L417.8 427 L344 427 L352.2 406 Z" fill-rule="evenodd" clip-path="url(#clipPath2)" stroke="none"/>
    </g>
    <g text-rendering="geometricPrecision" stroke-miterlimit="1.45" shape-rendering="geometricPrecision" transform="matrix(1,0,0,1,-241,-318)" stroke-linecap="butt">
      <path fill="none" d="M344 385 L417.8 385 L426 406 L417.8 427 L344 427 L352.2 406 Z" fill-rule="evenodd" clip-path="url(#clipPath2)"/>
      <text x="353.8721" xml:space="preserve" y="410.1543" clip-path="url(#clipPath2)" font-family="sans-serif" stroke="none">I(d_raw_2)</text>
    </g>
    <g fill="rgb(255,153,204)" text-rendering="geometricPrecision" shape-rendering="geometricPrecision" transform="matrix(1,0,0,1,-241,-318)" stroke="rgb(255,153,204)">
      <rect x="908" width="42" height="42" y="437" clip-path="url(#clipPath2)" stroke="none"/>
    </g>
    <g text-rendering="geometricPrecision" stroke-miterlimit="1.45" shape-rendering="geometricPrecision" transform="matrix(1,0,0,1,-241,-318)" stroke-linecap="butt">
      <rect fill="none" x="908" width="42" height="42" y="437" clip-path="url(#clipPath2)"/>
      <text x="919.7158" xml:space="preserve" y="462.1543" clip-path="url(#clipPath2)" font-family="sans-serif" stroke="none">r_3</text>
    </g>
    <g fill="rgb(204,153,255)" text-rendering="geometricPrecision" shape-rendering="geometricPrecision" transform="matrix(1,0,0,1,-241,-318)" stroke="rgb(204,153,255)">
      <path d="M616 437 L689.8 437 L698 458 L689.8 479 L616 479 L624.2 458 Z" fill-rule="evenodd" clip-path="url(#clipPath2)" stroke="none"/>
    </g>
    <g text-rendering="geometricPrecision" stroke-miterlimit="1.45" shape-rendering="geometricPrecision" transform="matrix(1,0,0,1,-241,-318)" stroke-linecap="butt">
      <path fill="none" d="M616 437 L689.8 437 L698 458 L689.8 479 L616 479 L624.2 458 Z" fill-rule="evenodd" clip-path="url(#clipPath2)"/>
      <text x="637.9014" xml:space="preserve" y="462.1543" clip-path="url(#clipPath2)" font-family="sans-serif" stroke="none">E(p_3)</text>
    </g>
    <g fill="rgb(204,153,255)" text-rendering="geometricPrecision" shape-rendering="geometricPrecision" transform="matrix(1,0,0,1,-241,-318)" stroke="rgb(204,153,255)">
      <rect x="704" width="42" height="42" y="437" clip-path="url(#clipPath2)" stroke="none"/>
    </g>
    <g text-rendering="geometricPrecision" stroke-miterlimit="1.45" shape-rendering="geometricPrecision" transform="matrix(1,0,0,1,-241,-318)" stroke-linecap="butt">
      <rect fill="none" x="704" width="42" height="42" y="437" clip-path="url(#clipPath2)"/>
      <text x="721.4492" xml:space="preserve" y="462.1543" clip-path="url(#clipPath2)" font-family="sans-serif" stroke="none">v</text>
    </g>
    <g fill="rgb(153,204,255)" text-rendering="geometricPrecision" shape-rendering="geometricPrecision" transform="matrix(1,0,0,1,-241,-318)" stroke="rgb(153,204,255)">
      <path d="M480 437 L553.8 437 L562 458 L553.8 479 L480 479 L488.2 458 Z" fill-rule="evenodd" clip-path="url(#clipPath2)" stroke="none"/>
    </g>
    <g text-rendering="geometricPrecision" stroke-miterlimit="1.45" shape-rendering="geometricPrecision" transform="matrix(1,0,0,1,-241,-318)" stroke-linecap="butt">
      <path fill="none" d="M480 437 L553.8 437 L562 458 L553.8 479 L480 479 L488.2 458 Z" fill-rule="evenodd" clip-path="url(#clipPath2)"/>
      <text x="500.5156" xml:space="preserve" y="462.1543" clip-path="url(#clipPath2)" font-family="sans-serif" stroke="none">M(d_3)</text>
    </g>
    <g fill="rgb(153,204,255)" text-rendering="geometricPrecision" shape-rendering="geometricPrecision" transform="matrix(1,0,0,1,-241,-318)" stroke="rgb(153,204,255)">
      <rect x="568" width="42" height="42" y="437" clip-path="url(#clipPath2)" stroke="none"/>
    </g>
    <g text-rendering="geometricPrecision" stroke-miterlimit="1.45" shape-rendering="geometricPrecision" transform="matrix(1,0,0,1,-241,-318)" stroke-linecap="butt">
      <rect fill="none" x="568" width="42" height="42" y="437" clip-path="url(#clipPath2)"/>
      <text x="578.374" xml:space="preserve" y="462.1543" clip-path="url(#clipPath2)" font-family="sans-serif" stroke="none">p_3</text>
    </g>
    <g fill="rgb(204,255,204)" text-rendering="geometricPrecision" shape-rendering="geometricPrecision" transform="matrix(1,0,0,1,-241,-318)" stroke="rgb(204,255,204)">
      <rect x="432" width="42" height="42" y="437" clip-path="url(#clipPath2)" stroke="none"/>
    </g>
    <g text-rendering="geometricPrecision" stroke-miterlimit="1.45" shape-rendering="geometricPrecision" transform="matrix(1,0,0,1,-241,-318)" stroke-linecap="butt">
      <rect fill="none" x="432" width="42" height="42" y="437" clip-path="url(#clipPath2)"/>
      <text x="442.374" xml:space="preserve" y="462.1543" clip-path="url(#clipPath2)" font-family="sans-serif" stroke="none">d_3</text>
    </g>
    <g fill="rgb(204,255,204)" text-rendering="geometricPrecision" shape-rendering="geometricPrecision" transform="matrix(1,0,0,1,-241,-318)" stroke="rgb(204,255,204)">
      <path d="M344 437 L417.8 437 L426 458 L417.8 479 L344 479 L352.2 458 Z" fill-rule="evenodd" clip-path="url(#clipPath2)" stroke="none"/>
    </g>
    <g text-rendering="geometricPrecision" stroke-miterlimit="1.45" shape-rendering="geometricPrecision" transform="matrix(1,0,0,1,-241,-318)" stroke-linecap="butt">
      <path fill="none" d="M344 437 L417.8 437 L426 458 L417.8 479 L344 479 L352.2 458 Z" fill-rule="evenodd" clip-path="url(#clipPath2)"/>
      <text x="353.8721" xml:space="preserve" y="462.1543" clip-path="url(#clipPath2)" font-family="sans-serif" stroke="none">I(d_raw_3)</text>
    </g>
    <g fill="rgb(255,153,204)" text-rendering="geometricPrecision" shape-rendering="geometricPrecision" transform="matrix(1,0,0,1,-241,-318)" stroke="rgb(255,153,204)">
      <rect x="908" width="42" height="42" y="489" clip-path="url(#clipPath2)" stroke="none"/>
    </g>
    <g text-rendering="geometricPrecision" stroke-miterlimit="1.45" shape-rendering="geometricPrecision" transform="matrix(1,0,0,1,-241,-318)" stroke-linecap="butt">
      <rect fill="none" x="908" width="42" height="42" y="489" clip-path="url(#clipPath2)"/>
      <text x="919.7158" xml:space="preserve" y="514.1543" clip-path="url(#clipPath2)" font-family="sans-serif" stroke="none">r_4</text>
    </g>
    <g fill="rgb(204,153,255)" text-rendering="geometricPrecision" shape-rendering="geometricPrecision" transform="matrix(1,0,0,1,-241,-318)" stroke="rgb(204,153,255)">
      <path d="M616 489 L689.8 489 L698 510 L689.8 531 L616 531 L624.2 510 Z" fill-rule="evenodd" clip-path="url(#clipPath2)" stroke="none"/>
    </g>
    <g text-rendering="geometricPrecision" stroke-miterlimit="1.45" shape-rendering="geometricPrecision" transform="matrix(1,0,0,1,-241,-318)" stroke-linecap="butt">
      <path fill="none" d="M616 489 L689.8 489 L698 510 L689.8 531 L616 531 L624.2 510 Z" fill-rule="evenodd" clip-path="url(#clipPath2)"/>
      <text x="637.9014" xml:space="preserve" y="514.1543" clip-path="url(#clipPath2)" font-family="sans-serif" stroke="none">E(p_4)</text>
    </g>
    <g fill="rgb(204,153,255)" text-rendering="geometricPrecision" shape-rendering="geometricPrecision" transform="matrix(1,0,0,1,-241,-318)" stroke="rgb(204,153,255)">
      <rect x="704" width="42" height="42" y="489" clip-path="url(#clipPath2)" stroke="none"/>
    </g>
    <g text-rendering="geometricPrecision" stroke-miterlimit="1.45" shape-rendering="geometricPrecision" transform="matrix(1,0,0,1,-241,-318)" stroke-linecap="butt">
      <rect fill="none" x="704" width="42" height="42" y="489" clip-path="url(#clipPath2)"/>
      <text x="721.4492" xml:space="preserve" y="514.1543" clip-path="url(#clipPath2)" font-family="sans-serif" stroke="none">v</text>
    </g>
    <g fill="rgb(153,204,255)" text-rendering="geometricPrecision" shape-rendering="geometricPrecision" transform="matrix(1,0,0,1,-241,-318)" stroke="rgb(153,204,255)">
      <path d="M480 489 L553.8 489 L562 510 L553.8 531 L480 531 L488.2 510 Z" fill-rule="evenodd" clip-path="url(#clipPath2)" stroke="none"/>
    </g>
    <g text-rendering="geometricPrecision" stroke-miterlimit="1.45" shape-rendering="geometricPrecision" transform="matrix(1,0,0,1,-241,-318)" stroke-linecap="butt">
      <path fill="none" d="M480 489 L553.8 489 L562 510 L553.8 531 L480 531 L488.2 510 Z" fill-rule="evenodd" clip-path="url(#clipPath2)"/>
      <text x="500.5156" xml:space="preserve" y="514.1543" clip-path="url(#clipPath2)" font-family="sans-serif" stroke="none">M(d_4)</text>
    </g>
    <g fill="rgb(153,204,255)" text-rendering="geometricPrecision" shape-rendering="geometricPrecision" transform="matrix(1,0,0,1,-241,-318)" stroke="rgb(153,204,255)">
      <rect x="568" width="42" height="42" y="489" clip-path="url(#clipPath2)" stroke="none"/>
    </g>
    <g text-rendering="geometricPrecision" stroke-miterlimit="1.45" shape-rendering="geometricPrecision" transform="matrix(1,0,0,1,-241,-318)" stroke-linecap="butt">
      <rect fill="none" x="568" width="42" height="42" y="489" clip-path="url(#clipPath2)"/>
      <text x="578.374" xml:space="preserve" y="514.1543" clip-path="url(#clipPath2)" font-family="sans-serif" stroke="none">p_4</text>
    </g>
    <g fill="rgb(204,255,204)" text-rendering="geometricPrecision" shape-rendering="geometricPrecision" transform="matrix(1,0,0,1,-241,-318)" stroke="rgb(204,255,204)">
      <rect x="432" width="42" height="42" y="489" clip-path="url(#clipPath2)" stroke="none"/>
    </g>
    <g text-rendering="geometricPrecision" stroke-miterlimit="1.45" shape-rendering="geometricPrecision" transform="matrix(1,0,0,1,-241,-318)" stroke-linecap="butt">
      <rect fill="none" x="432" width="42" height="42" y="489" clip-path="url(#clipPath2)"/>
      <text x="442.374" xml:space="preserve" y="514.1543" clip-path="url(#clipPath2)" font-family="sans-serif" stroke="none">d_4</text>
    </g>
    <g fill="rgb(204,255,204)" text-rendering="geometricPrecision" shape-rendering="geometricPrecision" transform="matrix(1,0,0,1,-241,-318)" stroke="rgb(204,255,204)">
      <path d="M344 489 L417.8 489 L426 510 L417.8 531 L344 531 L352.2 510 Z" fill-rule="evenodd" clip-path="url(#clipPath2)" stroke="none"/>
    </g>
    <g text-rendering="geometricPrecision" stroke-miterlimit="1.45" shape-rendering="geometricPrecision" transform="matrix(1,0,0,1,-241,-318)" stroke-linecap="butt">
      <path fill="none" d="M344 489 L417.8 489 L426 510 L417.8 531 L344 531 L352.2 510 Z" fill-rule="evenodd" clip-path="url(#clipPath2)"/>
      <text x="353.8721" xml:space="preserve" y="514.1543" clip-path="url(#clipPath2)" font-family="sans-serif" stroke="none">I(d_raw_3)</text>
    </g>
    <g fill="silver" text-rendering="geometricPrecision" shape-rendering="geometricPrecision" transform="matrix(1,0,0,1,-241,-318)" stroke="silver">
      <rect x="256" width="82" height="42" y="385" clip-path="url(#clipPath2)" stroke="none"/>
    </g>
    <g text-rendering="geometricPrecision" stroke-miterlimit="1.45" shape-rendering="geometricPrecision" transform="matrix(1,0,0,1,-241,-318)" stroke-linecap="butt">
      <rect fill="none" x="256" width="82" height="42" y="385" clip-path="url(#clipPath2)"/>
      <text x="272.3232" xml:space="preserve" y="410.1543" clip-path="url(#clipPath2)" font-family="sans-serif" stroke="none">d_raw_2</text>
    </g>
    <g fill="silver" text-rendering="geometricPrecision" shape-rendering="geometricPrecision" transform="matrix(1,0,0,1,-241,-318)" stroke="silver">
      <rect x="256" width="82" height="42" y="437" clip-path="url(#clipPath2)" stroke="none"/>
    </g>
    <g text-rendering="geometricPrecision" stroke-miterlimit="1.45" shape-rendering="geometricPrecision" transform="matrix(1,0,0,1,-241,-318)" stroke-linecap="butt">
      <rect fill="none" x="256" width="82" height="42" y="437" clip-path="url(#clipPath2)"/>
      <text x="272.3232" xml:space="preserve" y="462.1543" clip-path="url(#clipPath2)" font-family="sans-serif" stroke="none">d_raw_3</text>
    </g>
    <g fill="silver" text-rendering="geometricPrecision" shape-rendering="geometricPrecision" transform="matrix(1,0,0,1,-241,-318)" stroke="silver">
      <rect x="256" width="82" height="42" y="489" clip-path="url(#clipPath2)" stroke="none"/>
    </g>
    <g text-rendering="geometricPrecision" stroke-miterlimit="1.45" shape-rendering="geometricPrecision" transform="matrix(1,0,0,1,-241,-318)" stroke-linecap="butt">
      <rect fill="none" x="256" width="82" height="42" y="489" clip-path="url(#clipPath2)"/>
      <text x="272.3232" xml:space="preserve" y="514.1543" clip-path="url(#clipPath2)" font-family="sans-serif" stroke="none">d_raw_4</text>
    </g>
    <g fill="rgb(255,153,204)" text-rendering="geometricPrecision" shape-rendering="geometricPrecision" transform="matrix(1,0,0,1,-241,-318)" stroke="rgb(255,153,204)">
      <path d="M752 385 L887 385 L902 406 L887 427 L752 427 L767 406 Z" fill-rule="evenodd" clip-path="url(#clipPath2)" stroke="none"/>
    </g>
    <g text-rendering="geometricPrecision" stroke-miterlimit="1.45" shape-rendering="geometricPrecision" transform="matrix(1,0,0,1,-241,-318)" stroke-linecap="butt">
      <path fill="none" d="M752 385 L887 385 L902 406 L887 427 L752 427 L767 406 Z" fill-rule="evenodd" clip-path="url(#clipPath2)"/>
      <text x="783.2656" xml:space="preserve" y="410.1543" clip-path="url(#clipPath2)" font-family="sans-serif" stroke="none">P(d_2,p_2,v_2)</text>
    </g>
    <g fill="rgb(255,153,204)" text-rendering="geometricPrecision" shape-rendering="geometricPrecision" transform="matrix(1,0,0,1,-241,-318)" stroke="rgb(255,153,204)">
      <path d="M752 437 L887 437 L902 458 L887 479 L752 479 L767 458 Z" fill-rule="evenodd" clip-path="url(#clipPath2)" stroke="none"/>
    </g>
    <g text-rendering="geometricPrecision" stroke-miterlimit="1.45" shape-rendering="geometricPrecision" transform="matrix(1,0,0,1,-241,-318)" stroke-linecap="butt">
      <path fill="none" d="M752 437 L887 437 L902 458 L887 479 L752 479 L767 458 Z" fill-rule="evenodd" clip-path="url(#clipPath2)"/>
      <text x="783.2656" xml:space="preserve" y="462.1543" clip-path="url(#clipPath2)" font-family="sans-serif" stroke="none">P(d_3,p_3,v_3)</text>
    </g>
    <g fill="rgb(255,153,204)" text-rendering="geometricPrecision" shape-rendering="geometricPrecision" transform="matrix(1,0,0,1,-241,-318)" stroke="rgb(255,153,204)">
      <path d="M752 489 L887 489 L902 510 L887 531 L752 531 L767 510 Z" fill-rule="evenodd" clip-path="url(#clipPath2)" stroke="none"/>
    </g>
    <g text-rendering="geometricPrecision" stroke-miterlimit="1.45" shape-rendering="geometricPrecision" transform="matrix(1,0,0,1,-241,-318)" stroke-linecap="butt">
      <path fill="none" d="M752 489 L887 489 L902 510 L887 531 L752 531 L767 510 Z" fill-rule="evenodd" clip-path="url(#clipPath2)"/>
      <text x="783.2656" xml:space="preserve" y="514.1543" clip-path="url(#clipPath2)" font-family="sans-serif" stroke="none">P(d_3,p_3,v_3)</text>
    </g>
  </g>
</svg>
