<?xml version="1.0" encoding="UTF-8"?><svg xmlns="http://www.w3.org/2000/svg" xmlns:xlink="http://www.w3.org/1999/xlink" fill-opacity="1" color-rendering="auto" color-interpolation="auto" text-rendering="auto" stroke="black" stroke-linecap="square" width="745" stroke-miterlimit="10" shape-rendering="auto" stroke-opacity="1" fill="black" stroke-dasharray="none" font-weight="normal" stroke-width="1" height="131" font-family="'Dialog'" font-style="normal" stroke-linejoin="miter" font-size="12px" stroke-dashoffset="0" image-rendering="auto">
  <!--Generated by ySVG 2.5-->
  <defs id="genericDefs"/>
  <g>
    <defs id="defs1">
      <clipPath clipPathUnits="userSpaceOnUse" id="clipPath1">
        <path d="M0 0 L745 0 L745 131 L0 131 L0 0 Z"/>
      </clipPath>
      <clipPath clipPathUnits="userSpaceOnUse" id="clipPath2">
        <path d="M281 259 L1026 259 L1026 390 L281 390 L281 259 Z"/>
      </clipPath>
    </defs>
    <g fill="white" text-rendering="geometricPrecision" shape-rendering="geometricPrecision" transform="translate(-281,-259)" stroke="white">
      <rect x="281" width="745" height="131" y="259" clip-path="url(#clipPath2)" stroke="none"/>
    </g>
    <g fill="rgb(255,153,204)" text-rendering="geometricPrecision" shape-rendering="geometricPrecision" transform="matrix(1,0,0,1,-281,-259)" stroke="rgb(255,153,204)">
      <path d="M877 333 L952.6 333 L961 354 L952.6 375 L877 375 L885.4 354 Z" fill-rule="evenodd" clip-path="url(#clipPath2)" stroke="none"/>
    </g>
    <g text-rendering="geometricPrecision" stroke-miterlimit="1.45" shape-rendering="geometricPrecision" transform="matrix(1,0,0,1,-281,-259)" stroke-linecap="butt">
      <path fill="none" d="M877 333 L952.6 333 L961 354 L952.6 375 L877 375 L885.4 354 Z" fill-rule="evenodd" clip-path="url(#clipPath2)"/>
      <text x="895.7178" xml:space="preserve" y="358.1543" clip-path="url(#clipPath2)" font-family="sans-serif" stroke="none">P(d,p,v)</text>
    </g>
    <g fill="rgb(255,153,204)" text-rendering="geometricPrecision" shape-rendering="geometricPrecision" transform="matrix(1,0,0,1,-281,-259)" stroke="rgb(255,153,204)">
      <rect x="969" width="42" height="42" y="333" clip-path="url(#clipPath2)" stroke="none"/>
    </g>
    <g text-rendering="geometricPrecision" stroke-miterlimit="1.45" shape-rendering="geometricPrecision" transform="matrix(1,0,0,1,-281,-259)" stroke-linecap="butt">
      <rect fill="none" x="969" width="42" height="42" y="333" clip-path="url(#clipPath2)"/>
      <text x="987.5332" xml:space="preserve" y="358.1543" clip-path="url(#clipPath2)" font-family="sans-serif" stroke="none">r</text>
    </g>
    <g fill="rgb(204,153,255)" text-rendering="geometricPrecision" shape-rendering="geometricPrecision" transform="matrix(1,0,0,1,-281,-259)" stroke="rgb(204,153,255)">
      <path d="M741 333 L814.8 333 L823 354 L814.8 375 L741 375 L749.2 354 Z" fill-rule="evenodd" clip-path="url(#clipPath2)" stroke="none"/>
    </g>
    <g text-rendering="geometricPrecision" stroke-miterlimit="1.45" shape-rendering="geometricPrecision" transform="matrix(1,0,0,1,-281,-259)" stroke-linecap="butt">
      <path fill="none" d="M741 333 L814.8 333 L823 354 L814.8 375 L741 375 L749.2 354 Z" fill-rule="evenodd" clip-path="url(#clipPath2)"/>
      <text x="769.9766" xml:space="preserve" y="358.1543" clip-path="url(#clipPath2)" font-family="sans-serif" stroke="none">E(x)</text>
    </g>
    <g fill="rgb(204,153,255)" text-rendering="geometricPrecision" shape-rendering="geometricPrecision" transform="matrix(1,0,0,1,-281,-259)" stroke="rgb(204,153,255)">
      <rect x="829" width="42" height="42" y="333" clip-path="url(#clipPath2)" stroke="none"/>
    </g>
    <g text-rendering="geometricPrecision" stroke-miterlimit="1.45" shape-rendering="geometricPrecision" transform="matrix(1,0,0,1,-281,-259)" stroke-linecap="butt">
      <rect fill="none" x="829" width="42" height="42" y="333" clip-path="url(#clipPath2)"/>
      <text x="846.4492" xml:space="preserve" y="358.1543" clip-path="url(#clipPath2)" font-family="sans-serif" stroke="none">v</text>
    </g>
    <g fill="rgb(153,204,255)" text-rendering="geometricPrecision" shape-rendering="geometricPrecision" transform="matrix(1,0,0,1,-281,-259)" stroke="rgb(153,204,255)">
      <path d="M480 333 L553.8 333 L562 354 L553.8 375 L480 375 L488.2 354 Z" fill-rule="evenodd" clip-path="url(#clipPath2)" stroke="none"/>
    </g>
    <g text-rendering="geometricPrecision" stroke-miterlimit="1.45" shape-rendering="geometricPrecision" transform="matrix(1,0,0,1,-281,-259)" stroke-linecap="butt">
      <path fill="none" d="M480 333 L553.8 333 L562 354 L553.8 375 L480 375 L488.2 354 Z" fill-rule="evenodd" clip-path="url(#clipPath2)"/>
      <text x="507.333" xml:space="preserve" y="358.1543" clip-path="url(#clipPath2)" font-family="sans-serif" stroke="none">M(d)</text>
    </g>
    <g fill="rgb(153,204,255)" text-rendering="geometricPrecision" shape-rendering="geometricPrecision" transform="matrix(1,0,0,1,-281,-259)" stroke="rgb(153,204,255)">
      <rect x="568" width="42" height="42" y="333" clip-path="url(#clipPath2)" stroke="none"/>
    </g>
    <g text-rendering="geometricPrecision" stroke-miterlimit="1.45" shape-rendering="geometricPrecision" transform="matrix(1,0,0,1,-281,-259)" stroke-linecap="butt">
      <rect fill="none" x="568" width="42" height="42" y="333" clip-path="url(#clipPath2)"/>
      <text x="585.1914" xml:space="preserve" y="358.1543" clip-path="url(#clipPath2)" font-family="sans-serif" stroke="none">p</text>
    </g>
    <g fill="silver" text-rendering="geometricPrecision" shape-rendering="geometricPrecision" transform="matrix(1,0,0,1,-281,-259)" stroke="silver">
      <rect x="296" width="42" height="42" y="333" clip-path="url(#clipPath2)" stroke="none"/>
    </g>
    <g text-rendering="geometricPrecision" stroke-miterlimit="1.45" shape-rendering="geometricPrecision" transform="matrix(1,0,0,1,-281,-259)" stroke-linecap="butt">
      <rect fill="none" x="296" width="42" height="42" y="333" clip-path="url(#clipPath2)"/>
      <text x="299.1406" xml:space="preserve" y="358.1543" clip-path="url(#clipPath2)" font-family="sans-serif" stroke="none">d_raw</text>
    </g>
    <g fill="rgb(204,255,204)" text-rendering="geometricPrecision" shape-rendering="geometricPrecision" transform="matrix(1,0,0,1,-281,-259)" stroke="rgb(204,255,204)">
      <rect x="432" width="42" height="42" y="333" clip-path="url(#clipPath2)" stroke="none"/>
    </g>
    <g text-rendering="geometricPrecision" stroke-miterlimit="1.45" shape-rendering="geometricPrecision" transform="matrix(1,0,0,1,-281,-259)" stroke-linecap="butt">
      <rect fill="none" x="432" width="42" height="42" y="333" clip-path="url(#clipPath2)"/>
      <text x="449.1914" xml:space="preserve" y="358.1543" clip-path="url(#clipPath2)" font-family="sans-serif" stroke="none">d</text>
    </g>
    <g fill="rgb(204,255,204)" text-rendering="geometricPrecision" shape-rendering="geometricPrecision" transform="matrix(1,0,0,1,-281,-259)" stroke="rgb(204,255,204)">
      <path d="M344 333 L417.8 333 L426 354 L417.8 375 L344 375 L352.2 354 Z" fill-rule="evenodd" clip-path="url(#clipPath2)" stroke="none"/>
    </g>
    <g text-rendering="geometricPrecision" stroke-miterlimit="1.45" shape-rendering="geometricPrecision" transform="matrix(1,0,0,1,-281,-259)" stroke-linecap="butt">
      <path fill="none" d="M344 333 L417.8 333 L426 354 L417.8 375 L344 375 L352.2 354 Z" fill-rule="evenodd" clip-path="url(#clipPath2)"/>
      <text x="360.6895" xml:space="preserve" y="358.1543" clip-path="url(#clipPath2)" font-family="sans-serif" stroke="none">I(d_raw)</text>
    </g>
    <g fill="white" text-rendering="geometricPrecision" shape-rendering="geometricPrecision" transform="matrix(1,0,0,1,-281,-259)" stroke="white">
      <rect x="616" width="119" height="42" y="333" clip-path="url(#clipPath2)" stroke="none"/>
    </g>
    <g text-rendering="geometricPrecision" stroke-miterlimit="1.45" shape-rendering="geometricPrecision" transform="matrix(1,0,0,1,-281,-259)" stroke-linecap="butt">
      <rect fill="none" x="616" width="119" height="42" y="333" clip-path="url(#clipPath2)"/>
      <text x="635.5713" xml:space="preserve" y="358.1543" clip-path="url(#clipPath2)" font-family="sans-serif" stroke="none">Data transfer</text>
    </g>
    <g fill="rgb(255,255,153)" text-rendering="geometricPrecision" shape-rendering="geometricPrecision" transform="matrix(1,0,0,1,-281,-259)" stroke="rgb(255,255,153)">
      <rect x="296" width="314" height="42" y="274" clip-path="url(#clipPath2)" stroke="none"/>
    </g>
    <g text-rendering="geometricPrecision" stroke-miterlimit="1.45" shape-rendering="geometricPrecision" transform="matrix(1,0,0,1,-281,-259)" stroke-linecap="butt">
      <rect fill="none" x="296" width="314" height="42" y="274" clip-path="url(#clipPath2)"/>
      <text x="405.9814" xml:space="preserve" y="299.1543" clip-path="url(#clipPath2)" font-family="sans-serif" stroke="none">Remote system</text>
    </g>
    <g fill="rgb(255,255,153)" text-rendering="geometricPrecision" shape-rendering="geometricPrecision" transform="matrix(1,0,0,1,-281,-259)" stroke="rgb(255,255,153)">
      <rect x="741" width="270" height="42" y="274" clip-path="url(#clipPath2)" stroke="none"/>
    </g>
    <g text-rendering="geometricPrecision" stroke-miterlimit="1.45" shape-rendering="geometricPrecision" transform="matrix(1,0,0,1,-281,-259)" stroke-linecap="butt">
      <rect fill="none" x="741" width="270" height="42" y="274" clip-path="url(#clipPath2)"/>
      <text x="836.7451" xml:space="preserve" y="299.1543" clip-path="url(#clipPath2)" font-family="sans-serif" stroke="none">Local system</text>
    </g>
  </g>
</svg>
