<?xml version="1.0" encoding="UTF-8"?><svg xmlns="http://www.w3.org/2000/svg" xmlns:xlink="http://www.w3.org/1999/xlink" fill-opacity="1" color-rendering="auto" color-interpolation="auto" text-rendering="auto" stroke="black" stroke-linecap="square" width="952" stroke-miterlimit="10" shape-rendering="auto" stroke-opacity="1" fill="black" stroke-dasharray="none" font-weight="normal" stroke-width="1" height="386" font-family="'Dialog'" font-style="normal" stroke-linejoin="miter" font-size="12px" stroke-dashoffset="0" image-rendering="auto">
  <!--Generated by ySVG 2.5-->
  <defs id="genericDefs"/>
  <g>
    <defs id="defs1">
      <clipPath clipPathUnits="userSpaceOnUse" id="clipPath1">
        <path d="M0 0 L952 0 L952 386 L0 386 L0 0 Z"/>
      </clipPath>
      <clipPath clipPathUnits="userSpaceOnUse" id="clipPath2">
        <path d="M547 249 L1499 249 L1499 635 L547 635 L547 249 Z"/>
      </clipPath>
    </defs>
    <g fill="white" text-rendering="geometricPrecision" shape-rendering="geometricPrecision" transform="translate(-547,-249)" stroke="white">
      <rect x="547" width="952" height="386" y="249" clip-path="url(#clipPath2)" stroke="none"/>
    </g>
    <g fill="rgb(204,153,255)" text-rendering="geometricPrecision" shape-rendering="geometricPrecision" transform="matrix(1,0,0,1,-547,-249)" stroke="rgb(204,153,255)">
      <path d="M932.5 363.5 L1090.9 363.5 L1108.5 392 L1090.9 420.5 L932.5 420.5 L950.1 392 Z" fill-rule="evenodd" clip-path="url(#clipPath2)" stroke="none"/>
    </g>
    <g text-rendering="geometricPrecision" stroke-miterlimit="1.45" shape-rendering="geometricPrecision" transform="matrix(1,0,0,1,-547,-249)" stroke-linecap="butt">
      <path fill="none" d="M932.5 363.5 L1090.9 363.5 L1108.5 392 L1090.9 420.5 L932.5 420.5 L950.1 392 Z" fill-rule="evenodd" clip-path="url(#clipPath2)"/>
      <text x="954.6816" xml:space="preserve" y="396.1543" clip-path="url(#clipPath2)" font-family="sans-serif" stroke="none">Vectorized instruction</text>
    </g>
    <g fill="rgb(153,204,255)" text-rendering="geometricPrecision" shape-rendering="geometricPrecision" transform="matrix(1,0,0,1,-547,-249)" stroke="rgb(153,204,255)">
      <rect x="580" width="30" height="30" y="377" clip-path="url(#clipPath2)" stroke="none"/>
    </g>
    <g text-rendering="geometricPrecision" stroke-miterlimit="1.45" shape-rendering="geometricPrecision" transform="matrix(1,0,0,1,-547,-249)" stroke-linecap="butt">
      <rect fill="none" x="580" width="30" height="30" y="377" clip-path="url(#clipPath2)"/>
    </g>
    <g fill="rgb(153,204,255)" text-rendering="geometricPrecision" shape-rendering="geometricPrecision" transform="matrix(1,0,0,1,-547,-249)" stroke="rgb(153,204,255)">
      <rect x="620" width="30" height="30" y="377" clip-path="url(#clipPath2)" stroke="none"/>
    </g>
    <g text-rendering="geometricPrecision" stroke-miterlimit="1.45" shape-rendering="geometricPrecision" transform="matrix(1,0,0,1,-547,-249)" stroke-linecap="butt">
      <rect fill="none" x="620" width="30" height="30" y="377" clip-path="url(#clipPath2)"/>
    </g>
    <g fill="rgb(153,204,255)" text-rendering="geometricPrecision" shape-rendering="geometricPrecision" transform="matrix(1,0,0,1,-547,-249)" stroke="rgb(153,204,255)">
      <rect x="660" width="30" height="30" y="377" clip-path="url(#clipPath2)" stroke="none"/>
    </g>
    <g text-rendering="geometricPrecision" stroke-miterlimit="1.45" shape-rendering="geometricPrecision" transform="matrix(1,0,0,1,-547,-249)" stroke-linecap="butt">
      <rect fill="none" x="660" width="30" height="30" y="377" clip-path="url(#clipPath2)"/>
    </g>
    <g fill="rgb(153,204,255)" text-rendering="geometricPrecision" shape-rendering="geometricPrecision" transform="matrix(1,0,0,1,-547,-249)" stroke="rgb(153,204,255)">
      <rect x="700" width="30" height="30" y="377" clip-path="url(#clipPath2)" stroke="none"/>
    </g>
    <g text-rendering="geometricPrecision" stroke-miterlimit="1.45" shape-rendering="geometricPrecision" transform="matrix(1,0,0,1,-547,-249)" stroke-linecap="butt">
      <rect fill="none" x="700" width="30" height="30" y="377" clip-path="url(#clipPath2)"/>
    </g>
    <g fill="rgb(153,204,255)" text-rendering="geometricPrecision" shape-rendering="geometricPrecision" transform="matrix(1,0,0,1,-547,-249)" stroke="rgb(153,204,255)">
      <rect x="740" width="30" height="30" y="377" clip-path="url(#clipPath2)" stroke="none"/>
    </g>
    <g text-rendering="geometricPrecision" stroke-miterlimit="1.45" shape-rendering="geometricPrecision" transform="matrix(1,0,0,1,-547,-249)" stroke-linecap="butt">
      <rect fill="none" x="740" width="30" height="30" y="377" clip-path="url(#clipPath2)"/>
    </g>
    <g fill="rgb(153,204,255)" text-rendering="geometricPrecision" shape-rendering="geometricPrecision" transform="matrix(1,0,0,1,-547,-249)" stroke="rgb(153,204,255)">
      <rect x="780" width="30" height="30" y="377" clip-path="url(#clipPath2)" stroke="none"/>
    </g>
    <g text-rendering="geometricPrecision" stroke-miterlimit="1.45" shape-rendering="geometricPrecision" transform="matrix(1,0,0,1,-547,-249)" stroke-linecap="butt">
      <rect fill="none" x="780" width="30" height="30" y="377" clip-path="url(#clipPath2)"/>
    </g>
    <g fill="rgb(153,204,255)" text-rendering="geometricPrecision" shape-rendering="geometricPrecision" transform="matrix(1,0,0,1,-547,-249)" stroke="rgb(153,204,255)">
      <rect x="820" width="30" height="30" y="377" clip-path="url(#clipPath2)" stroke="none"/>
    </g>
    <g text-rendering="geometricPrecision" stroke-miterlimit="1.45" shape-rendering="geometricPrecision" transform="matrix(1,0,0,1,-547,-249)" stroke-linecap="butt">
      <rect fill="none" x="820" width="30" height="30" y="377" clip-path="url(#clipPath2)"/>
    </g>
    <g fill="rgb(153,204,255)" text-rendering="geometricPrecision" shape-rendering="geometricPrecision" transform="matrix(1,0,0,1,-547,-249)" stroke="rgb(153,204,255)">
      <rect x="860" width="30" height="30" y="377" clip-path="url(#clipPath2)" stroke="none"/>
    </g>
    <g text-rendering="geometricPrecision" stroke-miterlimit="1.45" shape-rendering="geometricPrecision" transform="matrix(1,0,0,1,-547,-249)" stroke-linecap="butt">
      <rect fill="none" x="860" width="30" height="30" y="377" clip-path="url(#clipPath2)"/>
    </g>
    <g fill="rgb(204,255,204)" text-rendering="geometricPrecision" shape-rendering="geometricPrecision" transform="matrix(1,0,0,1,-547,-249)" stroke="rgb(204,255,204)">
      <rect x="955" width="131" height="57" y="562.5" clip-path="url(#clipPath2)" stroke="none"/>
    </g>
    <g text-rendering="geometricPrecision" stroke-miterlimit="1.45" shape-rendering="geometricPrecision" transform="matrix(1,0,0,1,-547,-249)" stroke-linecap="butt">
      <rect fill="none" x="955" width="131" height="57" y="562.5" clip-path="url(#clipPath2)"/>
      <text x="959.6035" xml:space="preserve" y="595.1543" clip-path="url(#clipPath2)" font-family="sans-serif" stroke="none">Non-vectorized data</text>
      <rect x="562.5" y="363.5" clip-path="url(#clipPath2)" fill="none" width="345" rx="4" ry="4" height="57"/>
    </g>
    <g fill="rgb(204,255,204)" text-rendering="geometricPrecision" shape-rendering="geometricPrecision" transform="matrix(1,0,0,1,-547,-249)" stroke="rgb(204,255,204)">
      <rect x="955" width="131" height="57" y="264" clip-path="url(#clipPath2)" stroke="none"/>
    </g>
    <g text-rendering="geometricPrecision" stroke-miterlimit="1.45" shape-rendering="geometricPrecision" transform="matrix(1,0,0,1,-547,-249)" stroke-linecap="butt">
      <rect fill="none" x="955" width="131" height="57" y="264" clip-path="url(#clipPath2)"/>
      <text x="973.1768" xml:space="preserve" y="296.6543" clip-path="url(#clipPath2)" font-family="sans-serif" stroke="none">Vectorized data</text>
    </g>
    <g fill="rgb(153,204,255)" text-rendering="geometricPrecision" shape-rendering="geometricPrecision" transform="matrix(1,0,0,1,-547,-249)" stroke="rgb(153,204,255)">
      <rect x="580" width="30" height="30" y="476.5" clip-path="url(#clipPath2)" stroke="none"/>
    </g>
    <g text-rendering="geometricPrecision" stroke-miterlimit="1.45" shape-rendering="geometricPrecision" transform="matrix(1,0,0,1,-547,-249)" stroke-linecap="butt">
      <rect fill="none" x="580" width="30" height="30" y="476.5" clip-path="url(#clipPath2)"/>
    </g>
    <g fill="rgb(153,204,255)" text-rendering="geometricPrecision" shape-rendering="geometricPrecision" transform="matrix(1,0,0,1,-547,-249)" stroke="rgb(153,204,255)">
      <rect x="620" width="30" height="30" y="476.5" clip-path="url(#clipPath2)" stroke="none"/>
    </g>
    <g text-rendering="geometricPrecision" stroke-miterlimit="1.45" shape-rendering="geometricPrecision" transform="matrix(1,0,0,1,-547,-249)" stroke-linecap="butt">
      <rect fill="none" x="620" width="30" height="30" y="476.5" clip-path="url(#clipPath2)"/>
    </g>
    <g fill="rgb(153,204,255)" text-rendering="geometricPrecision" shape-rendering="geometricPrecision" transform="matrix(1,0,0,1,-547,-249)" stroke="rgb(153,204,255)">
      <rect x="660" width="30" height="30" y="476.5" clip-path="url(#clipPath2)" stroke="none"/>
    </g>
    <g text-rendering="geometricPrecision" stroke-miterlimit="1.45" shape-rendering="geometricPrecision" transform="matrix(1,0,0,1,-547,-249)" stroke-linecap="butt">
      <rect fill="none" x="660" width="30" height="30" y="476.5" clip-path="url(#clipPath2)"/>
    </g>
    <g fill="rgb(153,204,255)" text-rendering="geometricPrecision" shape-rendering="geometricPrecision" transform="matrix(1,0,0,1,-547,-249)" stroke="rgb(153,204,255)">
      <rect x="700" width="30" height="30" y="476.5" clip-path="url(#clipPath2)" stroke="none"/>
    </g>
    <g text-rendering="geometricPrecision" stroke-miterlimit="1.45" shape-rendering="geometricPrecision" transform="matrix(1,0,0,1,-547,-249)" stroke-linecap="butt">
      <rect fill="none" x="700" width="30" height="30" y="476.5" clip-path="url(#clipPath2)"/>
    </g>
    <g fill="rgb(153,204,255)" text-rendering="geometricPrecision" shape-rendering="geometricPrecision" transform="matrix(1,0,0,1,-547,-249)" stroke="rgb(153,204,255)">
      <rect x="740" width="30" height="30" y="476.5" clip-path="url(#clipPath2)" stroke="none"/>
    </g>
    <g text-rendering="geometricPrecision" stroke-miterlimit="1.45" shape-rendering="geometricPrecision" transform="matrix(1,0,0,1,-547,-249)" stroke-linecap="butt">
      <rect fill="none" x="740" width="30" height="30" y="476.5" clip-path="url(#clipPath2)"/>
    </g>
    <g fill="rgb(153,204,255)" text-rendering="geometricPrecision" shape-rendering="geometricPrecision" transform="matrix(1,0,0,1,-547,-249)" stroke="rgb(153,204,255)">
      <rect x="780" width="30" height="30" y="476.5" clip-path="url(#clipPath2)" stroke="none"/>
    </g>
    <g text-rendering="geometricPrecision" stroke-miterlimit="1.45" shape-rendering="geometricPrecision" transform="matrix(1,0,0,1,-547,-249)" stroke-linecap="butt">
      <rect fill="none" x="780" width="30" height="30" y="476.5" clip-path="url(#clipPath2)"/>
    </g>
    <g fill="rgb(153,204,255)" text-rendering="geometricPrecision" shape-rendering="geometricPrecision" transform="matrix(1,0,0,1,-547,-249)" stroke="rgb(153,204,255)">
      <rect x="820" width="30" height="30" y="476.5" clip-path="url(#clipPath2)" stroke="none"/>
    </g>
    <g text-rendering="geometricPrecision" stroke-miterlimit="1.45" shape-rendering="geometricPrecision" transform="matrix(1,0,0,1,-547,-249)" stroke-linecap="butt">
      <rect fill="none" x="820" width="30" height="30" y="476.5" clip-path="url(#clipPath2)"/>
    </g>
    <g fill="rgb(153,204,255)" text-rendering="geometricPrecision" shape-rendering="geometricPrecision" transform="matrix(1,0,0,1,-547,-249)" stroke="rgb(153,204,255)">
      <rect x="860" width="30" height="30" y="476.5" clip-path="url(#clipPath2)" stroke="none"/>
    </g>
    <g text-rendering="geometricPrecision" stroke-miterlimit="1.45" shape-rendering="geometricPrecision" transform="matrix(1,0,0,1,-547,-249)" stroke-linecap="butt">
      <rect fill="none" x="860" width="30" height="30" y="476.5" clip-path="url(#clipPath2)"/>
    </g>
    <g fill="rgb(204,153,255)" text-rendering="geometricPrecision" shape-rendering="geometricPrecision" transform="matrix(1,0,0,1,-547,-249)" stroke="rgb(204,153,255)">
      <path d="M932.5 463 L1090.9 463 L1108.5 491.5 L1090.9 520 L932.5 520 L950.1 491.5 Z" fill-rule="evenodd" clip-path="url(#clipPath2)" stroke="none"/>
    </g>
    <g text-rendering="geometricPrecision" stroke-miterlimit="1.45" shape-rendering="geometricPrecision" transform="matrix(1,0,0,1,-547,-249)" stroke-linecap="butt">
      <path fill="none" d="M932.5 463 L1090.9 463 L1108.5 491.5 L1090.9 520 L932.5 520 L950.1 491.5 Z" fill-rule="evenodd" clip-path="url(#clipPath2)"/>
      <text x="988.3877" xml:space="preserve" y="495.6543" clip-path="url(#clipPath2)" font-family="sans-serif" stroke="none">Instruction</text>
    </g>
    <g fill="lime" text-rendering="geometricPrecision" shape-rendering="geometricPrecision" transform="matrix(1,0,0,1,-547,-249)" stroke="lime">
      <rect x="1151" width="30" height="30" y="377" clip-path="url(#clipPath2)" stroke="none"/>
    </g>
    <g text-rendering="geometricPrecision" stroke-miterlimit="1.45" shape-rendering="geometricPrecision" transform="matrix(1,0,0,1,-547,-249)" stroke-linecap="butt">
      <rect fill="none" x="1151" width="30" height="30" y="377" clip-path="url(#clipPath2)"/>
    </g>
    <g fill="lime" text-rendering="geometricPrecision" shape-rendering="geometricPrecision" transform="matrix(1,0,0,1,-547,-249)" stroke="lime">
      <rect x="1191" width="30" height="30" y="377" clip-path="url(#clipPath2)" stroke="none"/>
    </g>
    <g text-rendering="geometricPrecision" stroke-miterlimit="1.45" shape-rendering="geometricPrecision" transform="matrix(1,0,0,1,-547,-249)" stroke-linecap="butt">
      <rect fill="none" x="1191" width="30" height="30" y="377" clip-path="url(#clipPath2)"/>
    </g>
    <g fill="lime" text-rendering="geometricPrecision" shape-rendering="geometricPrecision" transform="matrix(1,0,0,1,-547,-249)" stroke="lime">
      <rect x="1231" width="30" height="30" y="377" clip-path="url(#clipPath2)" stroke="none"/>
    </g>
    <g text-rendering="geometricPrecision" stroke-miterlimit="1.45" shape-rendering="geometricPrecision" transform="matrix(1,0,0,1,-547,-249)" stroke-linecap="butt">
      <rect fill="none" x="1231" width="30" height="30" y="377" clip-path="url(#clipPath2)"/>
    </g>
    <g fill="lime" text-rendering="geometricPrecision" shape-rendering="geometricPrecision" transform="matrix(1,0,0,1,-547,-249)" stroke="lime">
      <rect x="1271" width="30" height="30" y="377" clip-path="url(#clipPath2)" stroke="none"/>
    </g>
    <g text-rendering="geometricPrecision" stroke-miterlimit="1.45" shape-rendering="geometricPrecision" transform="matrix(1,0,0,1,-547,-249)" stroke-linecap="butt">
      <rect fill="none" x="1271" width="30" height="30" y="377" clip-path="url(#clipPath2)"/>
    </g>
    <g fill="lime" text-rendering="geometricPrecision" shape-rendering="geometricPrecision" transform="matrix(1,0,0,1,-547,-249)" stroke="lime">
      <rect x="1311" width="30" height="30" y="377" clip-path="url(#clipPath2)" stroke="none"/>
    </g>
    <g text-rendering="geometricPrecision" stroke-miterlimit="1.45" shape-rendering="geometricPrecision" transform="matrix(1,0,0,1,-547,-249)" stroke-linecap="butt">
      <rect fill="none" x="1311" width="30" height="30" y="377" clip-path="url(#clipPath2)"/>
    </g>
    <g fill="lime" text-rendering="geometricPrecision" shape-rendering="geometricPrecision" transform="matrix(1,0,0,1,-547,-249)" stroke="lime">
      <rect x="1351" width="30" height="30" y="377" clip-path="url(#clipPath2)" stroke="none"/>
    </g>
    <g text-rendering="geometricPrecision" stroke-miterlimit="1.45" shape-rendering="geometricPrecision" transform="matrix(1,0,0,1,-547,-249)" stroke-linecap="butt">
      <rect fill="none" x="1351" width="30" height="30" y="377" clip-path="url(#clipPath2)"/>
    </g>
    <g fill="lime" text-rendering="geometricPrecision" shape-rendering="geometricPrecision" transform="matrix(1,0,0,1,-547,-249)" stroke="lime">
      <rect x="1391" width="30" height="30" y="377" clip-path="url(#clipPath2)" stroke="none"/>
    </g>
    <g text-rendering="geometricPrecision" stroke-miterlimit="1.45" shape-rendering="geometricPrecision" transform="matrix(1,0,0,1,-547,-249)" stroke-linecap="butt">
      <rect fill="none" x="1391" width="30" height="30" y="377" clip-path="url(#clipPath2)"/>
    </g>
    <g fill="lime" text-rendering="geometricPrecision" shape-rendering="geometricPrecision" transform="matrix(1,0,0,1,-547,-249)" stroke="lime">
      <rect x="1431" width="30" height="30" y="377" clip-path="url(#clipPath2)" stroke="none"/>
    </g>
    <g text-rendering="geometricPrecision" stroke-miterlimit="1.45" shape-rendering="geometricPrecision" transform="matrix(1,0,0,1,-547,-249)" stroke-linecap="butt">
      <rect fill="none" x="1431" width="30" height="30" y="377" clip-path="url(#clipPath2)"/>
      <rect x="1138.5" y="363.5" clip-path="url(#clipPath2)" fill="none" width="345" rx="4" ry="4" height="57"/>
    </g>
    <g fill="lime" text-rendering="geometricPrecision" shape-rendering="geometricPrecision" transform="matrix(1,0,0,1,-547,-249)" stroke="lime">
      <rect x="1151" width="30" height="30" y="476.5" clip-path="url(#clipPath2)" stroke="none"/>
    </g>
    <g text-rendering="geometricPrecision" stroke-miterlimit="1.45" shape-rendering="geometricPrecision" transform="matrix(1,0,0,1,-547,-249)" stroke-linecap="butt">
      <rect fill="none" x="1151" width="30" height="30" y="476.5" clip-path="url(#clipPath2)"/>
      <path fill="none" d="M907.478 392 L942.1096 392" clip-path="url(#clipPath2)"/>
      <path d="M950.1096 392 L938.1096 387 L941.1096 392 L938.1096 397 Z" clip-path="url(#clipPath2)" stroke="none"/>
      <path fill="none" d="M954.9731 292.5121 L805.3113 360.2001" clip-path="url(#clipPath2)"/>
      <path d="M798.0221 363.4968 L811.0162 363.1075 L806.2224 359.7881 L806.8954 353.9961 Z" clip-path="url(#clipPath2)" stroke="none"/>
      <path fill="none" d="M954.9805 590.9757 L892.0731 512.7347" clip-path="url(#clipPath2)"/>
      <path d="M887.0603 506.5 L890.6829 518.985 L892.6998 513.514 L898.4763 512.719 Z" clip-path="url(#clipPath2)" stroke="none"/>
      <path fill="none" d="M890 491.5 L942.1205 491.5" clip-path="url(#clipPath2)"/>
      <path d="M950.1205 491.5 L938.1205 486.5 L941.1205 491.5 L938.1205 496.5 Z" clip-path="url(#clipPath2)" stroke="none"/>
      <path fill="none" d="M1086 292.5 L1239.2212 360.2578" clip-path="url(#clipPath2)"/>
      <path d="M1246.5377 363.4933 L1237.5852 354.0672 L1238.3066 359.8534 L1233.5408 363.2129 Z" clip-path="url(#clipPath2)" stroke="none"/>
      <path fill="none" d="M1108.4797 392 L1130.4919 392" clip-path="url(#clipPath2)"/>
      <path d="M1138.4919 392 L1126.4919 387 L1129.4919 392 L1126.4919 397 Z" clip-path="url(#clipPath2)" stroke="none"/>
      <path fill="none" d="M1108.4891 491.5 L1143 491.5" clip-path="url(#clipPath2)"/>
      <path d="M1151 491.5 L1139 486.5 L1142 491.5 L1139 496.5 Z" clip-path="url(#clipPath2)" stroke="none"/>
      <path fill="none" d="M1086 591 L1148.9269 512.7347" clip-path="url(#clipPath2)"/>
      <path d="M1153.9397 506.5 L1142.5238 512.719 L1148.3003 513.514 L1150.3171 518.985 Z" clip-path="url(#clipPath2)" stroke="none"/>
    </g>
  </g>
</svg>
