<?xml version="1.0" encoding="UTF-8"?><svg xmlns="http://www.w3.org/2000/svg" xmlns:xlink="http://www.w3.org/1999/xlink" fill-opacity="1" color-rendering="auto" color-interpolation="auto" text-rendering="auto" stroke="black" stroke-linecap="square" width="1050" stroke-miterlimit="10" shape-rendering="auto" stroke-opacity="1" fill="black" stroke-dasharray="none" font-weight="normal" stroke-width="1" height="404" font-family="'Dialog'" font-style="normal" stroke-linejoin="miter" font-size="12px" stroke-dashoffset="0" image-rendering="auto">
  <!--Generated by ySVG 2.5-->
  <defs id="genericDefs"/>
  <g>
    <defs id="defs1">
      <clipPath clipPathUnits="userSpaceOnUse" id="clipPath1">
        <path d="M0 0 L1050 0 L1050 404 L0 404 L0 0 Z"/>
      </clipPath>
      <clipPath clipPathUnits="userSpaceOnUse" id="clipPath2">
        <path d="M41 235 L1091 235 L1091 639 L41 639 L41 235 Z"/>
      </clipPath>
    </defs>
    <g fill="white" text-rendering="geometricPrecision" shape-rendering="geometricPrecision" transform="translate(-41,-235)" stroke="white">
      <rect x="41" width="1050" height="404" y="235" clip-path="url(#clipPath2)" stroke="none"/>
    </g>
    <g fill="rgb(204,153,255)" text-rendering="geometricPrecision" shape-rendering="geometricPrecision" transform="matrix(1,0,0,1,-41,-235)" stroke="rgb(204,153,255)">
      <path d="M900 363.5 L1058.4001 363.5 L1076 392 L1058.4001 420.5 L900 420.5 L917.5999 392 Z" fill-rule="evenodd" clip-path="url(#clipPath2)" stroke="none"/>
    </g>
    <g text-rendering="geometricPrecision" stroke-miterlimit="1.45" shape-rendering="geometricPrecision" transform="matrix(1,0,0,1,-41,-235)" stroke-linecap="butt">
      <path fill="none" d="M900 363.5 L1058.4001 363.5 L1076 392 L1058.4001 420.5 L900 420.5 L917.5999 392 Z" fill-rule="evenodd" clip-path="url(#clipPath2)"/>
      <text x="952.8643" xml:space="preserve" y="396.1543" clip-path="url(#clipPath2)" font-family="sans-serif" stroke="none">instructions</text>
      <rect fill="none" x="229" width="30" height="30" y="377" clip-path="url(#clipPath2)"/>
      <rect fill="none" x="269" width="30" height="30" y="377" clip-path="url(#clipPath2)"/>
      <rect fill="none" x="309" width="30" height="30" y="377" clip-path="url(#clipPath2)"/>
      <rect fill="none" x="349" width="30" height="30" y="377" clip-path="url(#clipPath2)"/>
      <rect fill="none" x="389" width="30" height="30" y="377" clip-path="url(#clipPath2)"/>
      <rect fill="none" x="429" width="30" height="30" y="377" clip-path="url(#clipPath2)"/>
      <rect fill="none" x="469" width="30" height="30" y="377" clip-path="url(#clipPath2)"/>
      <rect fill="none" x="509" width="30" height="30" y="377" clip-path="url(#clipPath2)"/>
    </g>
    <g fill="red" text-rendering="geometricPrecision" shape-rendering="geometricPrecision" transform="matrix(1,0,0,1,-41,-235)" stroke="red">
      <rect x="429" width="30" height="30" y="460" clip-path="url(#clipPath2)" stroke="none"/>
    </g>
    <g text-rendering="geometricPrecision" stroke-miterlimit="1.45" shape-rendering="geometricPrecision" transform="matrix(1,0,0,1,-41,-235)" stroke-linecap="butt">
      <rect fill="none" x="429" width="30" height="30" y="460" clip-path="url(#clipPath2)"/>
    </g>
    <g fill="red" text-rendering="geometricPrecision" shape-rendering="geometricPrecision" transform="matrix(1,0,0,1,-41,-235)" stroke="red">
      <rect x="469" width="30" height="30" y="460" clip-path="url(#clipPath2)" stroke="none"/>
    </g>
    <g text-rendering="geometricPrecision" stroke-miterlimit="1.45" shape-rendering="geometricPrecision" transform="matrix(1,0,0,1,-41,-235)" stroke-linecap="butt">
      <rect fill="none" x="469" width="30" height="30" y="460" clip-path="url(#clipPath2)"/>
    </g>
    <g fill="red" text-rendering="geometricPrecision" shape-rendering="geometricPrecision" transform="matrix(1,0,0,1,-41,-235)" stroke="red">
      <rect x="509" width="30" height="30" y="460" clip-path="url(#clipPath2)" stroke="none"/>
    </g>
    <g text-rendering="geometricPrecision" stroke-miterlimit="1.45" shape-rendering="geometricPrecision" transform="matrix(1,0,0,1,-41,-235)" stroke-linecap="butt">
      <rect fill="none" x="509" width="30" height="30" y="460" clip-path="url(#clipPath2)"/>
    </g>
    <g fill="rgb(153,204,255)" text-rendering="geometricPrecision" shape-rendering="geometricPrecision" transform="matrix(1,0,0,1,-41,-235)" stroke="rgb(153,204,255)">
      <rect x="229" width="30" height="30" y="460" clip-path="url(#clipPath2)" stroke="none"/>
    </g>
    <g text-rendering="geometricPrecision" stroke-miterlimit="1.45" shape-rendering="geometricPrecision" transform="matrix(1,0,0,1,-41,-235)" stroke-linecap="butt">
      <rect fill="none" x="229" width="30" height="30" y="460" clip-path="url(#clipPath2)"/>
    </g>
    <g fill="rgb(153,204,255)" text-rendering="geometricPrecision" shape-rendering="geometricPrecision" transform="matrix(1,0,0,1,-41,-235)" stroke="rgb(153,204,255)">
      <rect x="269" width="30" height="30" y="460" clip-path="url(#clipPath2)" stroke="none"/>
    </g>
    <g text-rendering="geometricPrecision" stroke-miterlimit="1.45" shape-rendering="geometricPrecision" transform="matrix(1,0,0,1,-41,-235)" stroke-linecap="butt">
      <rect fill="none" x="269" width="30" height="30" y="460" clip-path="url(#clipPath2)"/>
    </g>
    <g fill="rgb(153,204,255)" text-rendering="geometricPrecision" shape-rendering="geometricPrecision" transform="matrix(1,0,0,1,-41,-235)" stroke="rgb(153,204,255)">
      <rect x="309" width="30" height="30" y="460" clip-path="url(#clipPath2)" stroke="none"/>
    </g>
    <g text-rendering="geometricPrecision" stroke-miterlimit="1.45" shape-rendering="geometricPrecision" transform="matrix(1,0,0,1,-41,-235)" stroke-linecap="butt">
      <rect fill="none" x="309" width="30" height="30" y="460" clip-path="url(#clipPath2)"/>
    </g>
    <g fill="rgb(153,204,255)" text-rendering="geometricPrecision" shape-rendering="geometricPrecision" transform="matrix(1,0,0,1,-41,-235)" stroke="rgb(153,204,255)">
      <rect x="349" width="30" height="30" y="460" clip-path="url(#clipPath2)" stroke="none"/>
    </g>
    <g text-rendering="geometricPrecision" stroke-miterlimit="1.45" shape-rendering="geometricPrecision" transform="matrix(1,0,0,1,-41,-235)" stroke-linecap="butt">
      <rect fill="none" x="349" width="30" height="30" y="460" clip-path="url(#clipPath2)"/>
    </g>
    <g fill="rgb(153,204,255)" text-rendering="geometricPrecision" shape-rendering="geometricPrecision" transform="matrix(1,0,0,1,-41,-235)" stroke="rgb(153,204,255)">
      <rect x="389" width="30" height="30" y="460" clip-path="url(#clipPath2)" stroke="none"/>
    </g>
    <g text-rendering="geometricPrecision" stroke-miterlimit="1.45" shape-rendering="geometricPrecision" transform="matrix(1,0,0,1,-41,-235)" stroke-linecap="butt">
      <rect fill="none" x="389" width="30" height="30" y="460" clip-path="url(#clipPath2)"/>
    </g>
    <g fill="red" text-rendering="geometricPrecision" shape-rendering="geometricPrecision" transform="matrix(1,0,0,1,-41,-235)" stroke="red">
      <rect x="229" width="30" height="30" y="507" clip-path="url(#clipPath2)" stroke="none"/>
    </g>
    <g text-rendering="geometricPrecision" stroke-miterlimit="1.45" shape-rendering="geometricPrecision" transform="matrix(1,0,0,1,-41,-235)" stroke-linecap="butt">
      <rect fill="none" x="229" width="30" height="30" y="507" clip-path="url(#clipPath2)"/>
    </g>
    <g fill="red" text-rendering="geometricPrecision" shape-rendering="geometricPrecision" transform="matrix(1,0,0,1,-41,-235)" stroke="red">
      <rect x="269" width="30" height="30" y="507" clip-path="url(#clipPath2)" stroke="none"/>
    </g>
    <g text-rendering="geometricPrecision" stroke-miterlimit="1.45" shape-rendering="geometricPrecision" transform="matrix(1,0,0,1,-41,-235)" stroke-linecap="butt">
      <rect fill="none" x="269" width="30" height="30" y="507" clip-path="url(#clipPath2)"/>
    </g>
    <g fill="red" text-rendering="geometricPrecision" shape-rendering="geometricPrecision" transform="matrix(1,0,0,1,-41,-235)" stroke="red">
      <rect x="309" width="30" height="30" y="507" clip-path="url(#clipPath2)" stroke="none"/>
    </g>
    <g text-rendering="geometricPrecision" stroke-miterlimit="1.45" shape-rendering="geometricPrecision" transform="matrix(1,0,0,1,-41,-235)" stroke-linecap="butt">
      <rect fill="none" x="309" width="30" height="30" y="507" clip-path="url(#clipPath2)"/>
    </g>
    <g fill="red" text-rendering="geometricPrecision" shape-rendering="geometricPrecision" transform="matrix(1,0,0,1,-41,-235)" stroke="red">
      <rect x="349" width="30" height="30" y="507" clip-path="url(#clipPath2)" stroke="none"/>
    </g>
    <g text-rendering="geometricPrecision" stroke-miterlimit="1.45" shape-rendering="geometricPrecision" transform="matrix(1,0,0,1,-41,-235)" stroke-linecap="butt">
      <rect fill="none" x="349" width="30" height="30" y="507" clip-path="url(#clipPath2)"/>
    </g>
    <g fill="red" text-rendering="geometricPrecision" shape-rendering="geometricPrecision" transform="matrix(1,0,0,1,-41,-235)" stroke="red">
      <rect x="389" width="30" height="30" y="507" clip-path="url(#clipPath2)" stroke="none"/>
    </g>
    <g text-rendering="geometricPrecision" stroke-miterlimit="1.45" shape-rendering="geometricPrecision" transform="matrix(1,0,0,1,-41,-235)" stroke-linecap="butt">
      <rect fill="none" x="389" width="30" height="30" y="507" clip-path="url(#clipPath2)"/>
    </g>
    <g fill="rgb(153,204,255)" text-rendering="geometricPrecision" shape-rendering="geometricPrecision" transform="matrix(1,0,0,1,-41,-235)" stroke="rgb(153,204,255)">
      <rect x="429" width="30" height="30" y="507" clip-path="url(#clipPath2)" stroke="none"/>
    </g>
    <g text-rendering="geometricPrecision" stroke-miterlimit="1.45" shape-rendering="geometricPrecision" transform="matrix(1,0,0,1,-41,-235)" stroke-linecap="butt">
      <rect fill="none" x="429" width="30" height="30" y="507" clip-path="url(#clipPath2)"/>
    </g>
    <g fill="rgb(153,204,255)" text-rendering="geometricPrecision" shape-rendering="geometricPrecision" transform="matrix(1,0,0,1,-41,-235)" stroke="rgb(153,204,255)">
      <rect x="469" width="30" height="30" y="507" clip-path="url(#clipPath2)" stroke="none"/>
    </g>
    <g text-rendering="geometricPrecision" stroke-miterlimit="1.45" shape-rendering="geometricPrecision" transform="matrix(1,0,0,1,-41,-235)" stroke-linecap="butt">
      <rect fill="none" x="469" width="30" height="30" y="507" clip-path="url(#clipPath2)"/>
    </g>
    <g fill="rgb(153,204,255)" text-rendering="geometricPrecision" shape-rendering="geometricPrecision" transform="matrix(1,0,0,1,-41,-235)" stroke="rgb(153,204,255)">
      <rect x="509" width="30" height="30" y="507" clip-path="url(#clipPath2)" stroke="none"/>
    </g>
    <g text-rendering="geometricPrecision" stroke-miterlimit="1.45" shape-rendering="geometricPrecision" transform="matrix(1,0,0,1,-41,-235)" stroke-linecap="butt">
      <rect fill="none" x="509" width="30" height="30" y="507" clip-path="url(#clipPath2)"/>
    </g>
    <g fill="rgb(153,204,255)" text-rendering="geometricPrecision" shape-rendering="geometricPrecision" transform="matrix(1,0,0,1,-41,-235)" stroke="rgb(153,204,255)">
      <rect x="580" width="30" height="30" y="377" clip-path="url(#clipPath2)" stroke="none"/>
    </g>
    <g text-rendering="geometricPrecision" stroke-miterlimit="1.45" shape-rendering="geometricPrecision" transform="matrix(1,0,0,1,-41,-235)" stroke-linecap="butt">
      <rect fill="none" x="580" width="30" height="30" y="377" clip-path="url(#clipPath2)"/>
    </g>
    <g fill="rgb(153,204,255)" text-rendering="geometricPrecision" shape-rendering="geometricPrecision" transform="matrix(1,0,0,1,-41,-235)" stroke="rgb(153,204,255)">
      <rect x="620" width="30" height="30" y="377" clip-path="url(#clipPath2)" stroke="none"/>
    </g>
    <g text-rendering="geometricPrecision" stroke-miterlimit="1.45" shape-rendering="geometricPrecision" transform="matrix(1,0,0,1,-41,-235)" stroke-linecap="butt">
      <rect fill="none" x="620" width="30" height="30" y="377" clip-path="url(#clipPath2)"/>
    </g>
    <g fill="rgb(153,204,255)" text-rendering="geometricPrecision" shape-rendering="geometricPrecision" transform="matrix(1,0,0,1,-41,-235)" stroke="rgb(153,204,255)">
      <rect x="660" width="30" height="30" y="377" clip-path="url(#clipPath2)" stroke="none"/>
    </g>
    <g text-rendering="geometricPrecision" stroke-miterlimit="1.45" shape-rendering="geometricPrecision" transform="matrix(1,0,0,1,-41,-235)" stroke-linecap="butt">
      <rect fill="none" x="660" width="30" height="30" y="377" clip-path="url(#clipPath2)"/>
    </g>
    <g fill="rgb(153,204,255)" text-rendering="geometricPrecision" shape-rendering="geometricPrecision" transform="matrix(1,0,0,1,-41,-235)" stroke="rgb(153,204,255)">
      <rect x="700" width="30" height="30" y="377" clip-path="url(#clipPath2)" stroke="none"/>
    </g>
    <g text-rendering="geometricPrecision" stroke-miterlimit="1.45" shape-rendering="geometricPrecision" transform="matrix(1,0,0,1,-41,-235)" stroke-linecap="butt">
      <rect fill="none" x="700" width="30" height="30" y="377" clip-path="url(#clipPath2)"/>
    </g>
    <g fill="rgb(153,204,255)" text-rendering="geometricPrecision" shape-rendering="geometricPrecision" transform="matrix(1,0,0,1,-41,-235)" stroke="rgb(153,204,255)">
      <rect x="740" width="30" height="30" y="377" clip-path="url(#clipPath2)" stroke="none"/>
    </g>
    <g text-rendering="geometricPrecision" stroke-miterlimit="1.45" shape-rendering="geometricPrecision" transform="matrix(1,0,0,1,-41,-235)" stroke-linecap="butt">
      <rect fill="none" x="740" width="30" height="30" y="377" clip-path="url(#clipPath2)"/>
    </g>
    <g fill="rgb(153,204,255)" text-rendering="geometricPrecision" shape-rendering="geometricPrecision" transform="matrix(1,0,0,1,-41,-235)" stroke="rgb(153,204,255)">
      <rect x="780" width="30" height="30" y="377" clip-path="url(#clipPath2)" stroke="none"/>
    </g>
    <g text-rendering="geometricPrecision" stroke-miterlimit="1.45" shape-rendering="geometricPrecision" transform="matrix(1,0,0,1,-41,-235)" stroke-linecap="butt">
      <rect fill="none" x="780" width="30" height="30" y="377" clip-path="url(#clipPath2)"/>
    </g>
    <g fill="rgb(153,204,255)" text-rendering="geometricPrecision" shape-rendering="geometricPrecision" transform="matrix(1,0,0,1,-41,-235)" stroke="rgb(153,204,255)">
      <rect x="820" width="30" height="30" y="377" clip-path="url(#clipPath2)" stroke="none"/>
    </g>
    <g text-rendering="geometricPrecision" stroke-miterlimit="1.45" shape-rendering="geometricPrecision" transform="matrix(1,0,0,1,-41,-235)" stroke-linecap="butt">
      <rect fill="none" x="820" width="30" height="30" y="377" clip-path="url(#clipPath2)"/>
    </g>
    <g fill="rgb(153,204,255)" text-rendering="geometricPrecision" shape-rendering="geometricPrecision" transform="matrix(1,0,0,1,-41,-235)" stroke="rgb(153,204,255)">
      <rect x="860" width="30" height="30" y="377" clip-path="url(#clipPath2)" stroke="none"/>
    </g>
    <g text-rendering="geometricPrecision" stroke-miterlimit="1.45" shape-rendering="geometricPrecision" transform="matrix(1,0,0,1,-41,-235)" stroke-linecap="butt">
      <rect fill="none" x="860" width="30" height="30" y="377" clip-path="url(#clipPath2)"/>
    </g>
    <g fill="rgb(204,255,204)" text-rendering="geometricPrecision" shape-rendering="geometricPrecision" transform="matrix(1,0,0,1,-41,-235)" stroke="rgb(204,255,204)">
      <rect x="609.5" width="131" height="57" y="493.5" clip-path="url(#clipPath2)" stroke="none"/>
    </g>
    <g text-rendering="geometricPrecision" stroke-miterlimit="1.45" shape-rendering="geometricPrecision" transform="matrix(1,0,0,1,-41,-235)" stroke-linecap="butt">
      <rect fill="none" x="609.5" width="131" height="57" y="493.5" clip-path="url(#clipPath2)"/>
      <text x="640.7871" xml:space="preserve" y="526.1543" clip-path="url(#clipPath2)" font-family="sans-serif" stroke="none">Useful data</text>
    </g>
    <g fill="rgb(204,255,204)" text-rendering="geometricPrecision" shape-rendering="geometricPrecision" transform="matrix(1,0,0,1,-41,-235)" stroke="rgb(204,255,204)">
      <rect x="228" width="131" height="57" y="567" clip-path="url(#clipPath2)" stroke="none"/>
    </g>
    <g text-rendering="geometricPrecision" stroke-miterlimit="1.45" shape-rendering="geometricPrecision" transform="matrix(1,0,0,1,-41,-235)" stroke-linecap="butt">
      <rect fill="none" x="228" width="131" height="57" y="567" clip-path="url(#clipPath2)"/>
      <text x="239.4531" xml:space="preserve" y="599.6543" clip-path="url(#clipPath2)" font-family="sans-serif" stroke="none">Unnecessary data</text>
      <rect x="209" y="363.5" clip-path="url(#clipPath2)" fill="none" width="345" rx="4" ry="4" height="57"/>
      <text x="332.6885" xml:space="preserve" y="345.1543" clip-path="url(#clipPath2)" font-family="sans-serif" stroke="none">Processor cache</text>
    </g>
    <g fill="rgb(204,255,204)" text-rendering="geometricPrecision" shape-rendering="geometricPrecision" transform="matrix(1,0,0,1,-41,-235)" stroke="rgb(204,255,204)">
      <rect x="660" width="131" height="57" y="250.5" clip-path="url(#clipPath2)" stroke="none"/>
    </g>
    <g text-rendering="geometricPrecision" stroke-miterlimit="1.45" shape-rendering="geometricPrecision" transform="matrix(1,0,0,1,-41,-235)" stroke-linecap="butt">
      <rect fill="none" x="660" width="131" height="57" y="250.5" clip-path="url(#clipPath2)"/>
      <text x="677.2891" xml:space="preserve" y="283.1543" clip-path="url(#clipPath2)" font-family="sans-serif" stroke="none">Good cache line</text>
    </g>
    <g fill="rgb(204,255,204)" text-rendering="geometricPrecision" shape-rendering="geometricPrecision" transform="matrix(1,0,0,1,-41,-235)" stroke="rgb(204,255,204)">
      <rect x="56" width="131" height="57" y="465.25" clip-path="url(#clipPath2)" stroke="none"/>
    </g>
    <g text-rendering="geometricPrecision" stroke-miterlimit="1.45" shape-rendering="geometricPrecision" transform="matrix(1,0,0,1,-41,-235)" stroke-linecap="butt">
      <rect fill="none" x="56" width="131" height="57" y="465.25" clip-path="url(#clipPath2)"/>
      <text x="74.3613" xml:space="preserve" y="497.9043" clip-path="url(#clipPath2)" font-family="sans-serif" stroke="none">Bad cache lines</text>
      <path fill="none" d="M244 460 L244 415" clip-path="url(#clipPath2)"/>
      <path d="M244 407 L239 419 L244 416 L249 419 Z" clip-path="url(#clipPath2)" stroke="none"/>
      <path fill="none" d="M284 460 L284 415" clip-path="url(#clipPath2)"/>
      <path d="M284 407 L279 419 L284 416 L289 419 Z" clip-path="url(#clipPath2)" stroke="none"/>
      <path fill="none" d="M324 460 L324 427 L324 415" clip-path="url(#clipPath2)"/>
      <path d="M324 407 L319 419 L324 416 L329 419 Z" clip-path="url(#clipPath2)" stroke="none"/>
      <path fill="none" d="M364 460 L364 415" clip-path="url(#clipPath2)"/>
      <path d="M364 407 L359 419 L364 416 L369 419 Z" clip-path="url(#clipPath2)" stroke="none"/>
      <path fill="none" d="M404 460 L404 415" clip-path="url(#clipPath2)"/>
      <path d="M404 407 L399 419 L404 416 L409 419 Z" clip-path="url(#clipPath2)" stroke="none"/>
      <path fill="none" d="M444 507 L444 498" clip-path="url(#clipPath2)"/>
      <path d="M444 490 L439 502 L444 499 L449 502 Z" clip-path="url(#clipPath2)" stroke="none"/>
      <path fill="none" d="M484 507 L484 498" clip-path="url(#clipPath2)"/>
      <path d="M484 490 L479 502 L484 499 L489 502 Z" clip-path="url(#clipPath2)" stroke="none"/>
      <path fill="none" d="M524 507 L524 498" clip-path="url(#clipPath2)"/>
      <path d="M524 490 L519 502 L524 499 L529 502 Z" clip-path="url(#clipPath2)" stroke="none"/>
      <path fill="none" d="M539 392 L572 392" clip-path="url(#clipPath2)"/>
      <path d="M580 392 L568 387 L571 392 L568 397 Z" clip-path="url(#clipPath2)" stroke="none"/>
      <path fill="none" d="M890 392 L909.6104 392" clip-path="url(#clipPath2)"/>
      <path d="M917.6104 392 L905.6104 387 L908.6104 392 L905.6104 397 Z" clip-path="url(#clipPath2)" stroke="none"/>
      <path fill="none" d="M675 493.5 L675 415" clip-path="url(#clipPath2)"/>
      <path d="M675 407 L670 419 L675 416 L680 419 Z" clip-path="url(#clipPath2)" stroke="none"/>
      <path fill="none" d="M609.5 522 L547 522" clip-path="url(#clipPath2)"/>
      <path d="M539 522 L551 527 L548 522 L551 517 Z" clip-path="url(#clipPath2)" stroke="none"/>
      <path fill="none" d="M305.3265 567 L314.7093 544.3891" clip-path="url(#clipPath2)"/>
      <path d="M317.7755 537 L308.558 546.1672 L314.326 545.3127 L317.7944 550 Z" clip-path="url(#clipPath2)" stroke="none"/>
      <path fill="none" d="M692.5863 307.5 L616.0478 373.7747" clip-path="url(#clipPath2)"/>
      <path d="M610 379.0115 L622.3447 374.9362 L616.8038 373.1201 L615.7986 367.3764 Z" clip-path="url(#clipPath2)" stroke="none"/>
      <path fill="none" d="M763.2057 307.5 L853.618 375.8383" clip-path="url(#clipPath2)"/>
      <path d="M860 380.6622 L853.4419 369.4376 L852.8202 375.2354 L847.412 377.4152 Z" clip-path="url(#clipPath2)" stroke="none"/>
      <path fill="none" d="M187 483.7245 L221.0921 478.5063" clip-path="url(#clipPath2)"/>
      <path d="M229 477.2959 L216.3817 474.1691 L220.1036 478.6576 L217.8946 484.054 Z" clip-path="url(#clipPath2)" stroke="none"/>
      <path fill="none" d="M187 508.8551 L221.2046 516.7431" clip-path="url(#clipPath2)"/>
      <path d="M229 518.5408 L218.4305 510.9721 L220.2302 516.5184 L216.1833 520.7164 Z" clip-path="url(#clipPath2)" stroke="none"/>
    </g>
  </g>
</svg>
