<?xml version="1.0" encoding="UTF-8"?><svg xmlns="http://www.w3.org/2000/svg" xmlns:xlink="http://www.w3.org/1999/xlink" fill-opacity="1" color-rendering="auto" color-interpolation="auto" text-rendering="auto" stroke="black" stroke-linecap="square" width="751" stroke-miterlimit="10" shape-rendering="auto" stroke-opacity="1" fill="black" stroke-dasharray="none" font-weight="normal" stroke-width="1" height="308" font-family="'Dialog'" font-style="normal" stroke-linejoin="miter" font-size="12px" stroke-dashoffset="0" image-rendering="auto">
  <!--Generated by ySVG 2.5-->
  <defs id="genericDefs"/>
  <g>
    <defs id="defs1">
      <clipPath clipPathUnits="userSpaceOnUse" id="clipPath1">
        <path d="M0 0 L751 0 L751 308 L0 308 L0 0 Z"/>
      </clipPath>
      <clipPath clipPathUnits="userSpaceOnUse" id="clipPath2">
        <path d="M320 82 L1071 82 L1071 390 L320 390 L320 82 Z"/>
      </clipPath>
    </defs>
    <g fill="white" text-rendering="geometricPrecision" shape-rendering="geometricPrecision" transform="translate(-320,-82)" stroke="white">
      <rect x="320" width="751" height="308" y="82" clip-path="url(#clipPath2)" stroke="none"/>
    </g>
    <g fill="rgb(255,153,204)" text-rendering="geometricPrecision" shape-rendering="geometricPrecision" transform="matrix(1,0,0,1,-320,-82)" stroke="rgb(255,153,204)">
      <path d="M791 333 L866.6 333 L875 354 L866.6 375 L791 375 L799.4 354 Z" fill-rule="evenodd" clip-path="url(#clipPath2)" stroke="none"/>
    </g>
    <g text-rendering="geometricPrecision" stroke-miterlimit="1.45" shape-rendering="geometricPrecision" transform="matrix(1,0,0,1,-320,-82)" stroke-linecap="butt">
      <path fill="none" d="M791 333 L866.6 333 L875 354 L866.6 375 L791 375 L799.4 354 Z" fill-rule="evenodd" clip-path="url(#clipPath2)"/>
      <text x="809.7178" xml:space="preserve" y="358.1543" clip-path="url(#clipPath2)" font-family="sans-serif" stroke="none">P(d,p,v)</text>
    </g>
    <g fill="rgb(255,153,204)" text-rendering="geometricPrecision" shape-rendering="geometricPrecision" transform="matrix(1,0,0,1,-320,-82)" stroke="rgb(255,153,204)">
      <rect x="883" width="42" height="42" y="333" clip-path="url(#clipPath2)" stroke="none"/>
    </g>
    <g text-rendering="geometricPrecision" stroke-miterlimit="1.45" shape-rendering="geometricPrecision" transform="matrix(1,0,0,1,-320,-82)" stroke-linecap="butt">
      <rect fill="none" x="883" width="42" height="42" y="333" clip-path="url(#clipPath2)"/>
      <text x="901.5332" xml:space="preserve" y="358.1543" clip-path="url(#clipPath2)" font-family="sans-serif" stroke="none">r</text>
    </g>
    <g fill="rgb(204,153,255)" text-rendering="geometricPrecision" shape-rendering="geometricPrecision" transform="matrix(1,0,0,1,-320,-82)" stroke="rgb(204,153,255)">
      <path d="M655 333 L728.8 333 L737 354 L728.8 375 L655 375 L663.2 354 Z" fill-rule="evenodd" clip-path="url(#clipPath2)" stroke="none"/>
    </g>
    <g text-rendering="geometricPrecision" stroke-miterlimit="1.45" shape-rendering="geometricPrecision" transform="matrix(1,0,0,1,-320,-82)" stroke-linecap="butt">
      <path fill="none" d="M655 333 L728.8 333 L737 354 L728.8 375 L655 375 L663.2 354 Z" fill-rule="evenodd" clip-path="url(#clipPath2)"/>
      <text x="683.9766" xml:space="preserve" y="358.1543" clip-path="url(#clipPath2)" font-family="sans-serif" stroke="none">E(x)</text>
    </g>
    <g fill="rgb(204,153,255)" text-rendering="geometricPrecision" shape-rendering="geometricPrecision" transform="matrix(1,0,0,1,-320,-82)" stroke="rgb(204,153,255)">
      <rect x="743" width="42" height="42" y="333" clip-path="url(#clipPath2)" stroke="none"/>
    </g>
    <g text-rendering="geometricPrecision" stroke-miterlimit="1.45" shape-rendering="geometricPrecision" transform="matrix(1,0,0,1,-320,-82)" stroke-linecap="butt">
      <rect fill="none" x="743" width="42" height="42" y="333" clip-path="url(#clipPath2)"/>
      <text x="760.4492" xml:space="preserve" y="358.1543" clip-path="url(#clipPath2)" font-family="sans-serif" stroke="none">v</text>
    </g>
    <g fill="rgb(153,204,255)" text-rendering="geometricPrecision" shape-rendering="geometricPrecision" transform="matrix(1,0,0,1,-320,-82)" stroke="rgb(153,204,255)">
      <path d="M519 333 L592.8 333 L601 354 L592.8 375 L519 375 L527.2 354 Z" fill-rule="evenodd" clip-path="url(#clipPath2)" stroke="none"/>
    </g>
    <g text-rendering="geometricPrecision" stroke-miterlimit="1.45" shape-rendering="geometricPrecision" transform="matrix(1,0,0,1,-320,-82)" stroke-linecap="butt">
      <path fill="none" d="M519 333 L592.8 333 L601 354 L592.8 375 L519 375 L527.2 354 Z" fill-rule="evenodd" clip-path="url(#clipPath2)"/>
      <text x="546.333" xml:space="preserve" y="358.1543" clip-path="url(#clipPath2)" font-family="sans-serif" stroke="none">M(d)</text>
    </g>
    <g fill="rgb(153,204,255)" text-rendering="geometricPrecision" shape-rendering="geometricPrecision" transform="matrix(1,0,0,1,-320,-82)" stroke="rgb(153,204,255)">
      <rect x="607" width="42" height="42" y="333" clip-path="url(#clipPath2)" stroke="none"/>
    </g>
    <g text-rendering="geometricPrecision" stroke-miterlimit="1.45" shape-rendering="geometricPrecision" transform="matrix(1,0,0,1,-320,-82)" stroke-linecap="butt">
      <rect fill="none" x="607" width="42" height="42" y="333" clip-path="url(#clipPath2)"/>
      <text x="624.1914" xml:space="preserve" y="358.1543" clip-path="url(#clipPath2)" font-family="sans-serif" stroke="none">p</text>
    </g>
    <g fill="silver" text-rendering="geometricPrecision" shape-rendering="geometricPrecision" transform="matrix(1,0,0,1,-320,-82)" stroke="silver">
      <rect x="335" width="42" height="42" y="333" clip-path="url(#clipPath2)" stroke="none"/>
    </g>
    <g text-rendering="geometricPrecision" stroke-miterlimit="1.45" shape-rendering="geometricPrecision" transform="matrix(1,0,0,1,-320,-82)" stroke-linecap="butt">
      <rect fill="none" x="335" width="42" height="42" y="333" clip-path="url(#clipPath2)"/>
      <text x="338.1406" xml:space="preserve" y="358.1543" clip-path="url(#clipPath2)" font-family="sans-serif" stroke="none">d_raw</text>
    </g>
    <g fill="rgb(204,255,204)" text-rendering="geometricPrecision" shape-rendering="geometricPrecision" transform="matrix(1,0,0,1,-320,-82)" stroke="rgb(204,255,204)">
      <rect x="471" width="42" height="42" y="333" clip-path="url(#clipPath2)" stroke="none"/>
    </g>
    <g text-rendering="geometricPrecision" stroke-miterlimit="1.45" shape-rendering="geometricPrecision" transform="matrix(1,0,0,1,-320,-82)" stroke-linecap="butt">
      <rect fill="none" x="471" width="42" height="42" y="333" clip-path="url(#clipPath2)"/>
      <text x="488.1914" xml:space="preserve" y="358.1543" clip-path="url(#clipPath2)" font-family="sans-serif" stroke="none">d</text>
    </g>
    <g fill="rgb(204,255,204)" text-rendering="geometricPrecision" shape-rendering="geometricPrecision" transform="matrix(1,0,0,1,-320,-82)" stroke="rgb(204,255,204)">
      <path d="M383 333 L456.8 333 L465 354 L456.8 375 L383 375 L391.2 354 Z" fill-rule="evenodd" clip-path="url(#clipPath2)" stroke="none"/>
    </g>
    <g text-rendering="geometricPrecision" stroke-miterlimit="1.45" shape-rendering="geometricPrecision" transform="matrix(1,0,0,1,-320,-82)" stroke-linecap="butt">
      <path fill="none" d="M383 333 L456.8 333 L465 354 L456.8 375 L383 375 L391.2 354 Z" fill-rule="evenodd" clip-path="url(#clipPath2)"/>
      <text x="399.6895" xml:space="preserve" y="358.1543" clip-path="url(#clipPath2)" font-family="sans-serif" stroke="none">I(d_raw)</text>
    </g>
    <g fill="rgb(255,204,0)" text-rendering="geometricPrecision" shape-rendering="geometricPrecision" transform="matrix(1,0,0,1,-320,-82)" stroke="rgb(255,204,0)">
      <rect x="335" width="178" height="60" y="251" clip-path="url(#clipPath2)" stroke="none"/>
    </g>
    <g text-rendering="geometricPrecision" stroke-miterlimit="1.45" shape-rendering="geometricPrecision" transform="matrix(1,0,0,1,-320,-82)" stroke-linecap="butt">
      <rect fill="none" x="335" width="178" height="60" y="251" clip-path="url(#clipPath2)"/>
      <text x="370.2666" xml:space="preserve" y="278.1699" clip-path="url(#clipPath2)" font-family="sans-serif" stroke="none">Memory required:</text>
      <text x="386.4766" xml:space="preserve" y="292.1387" clip-path="url(#clipPath2)" font-family="sans-serif" stroke="none">data loading</text>
    </g>
    <g fill="rgb(255,204,0)" text-rendering="geometricPrecision" shape-rendering="geometricPrecision" transform="matrix(1,0,0,1,-320,-82)" stroke="rgb(255,204,0)">
      <rect x="520" width="129" height="42" y="204" clip-path="url(#clipPath2)" stroke="none"/>
    </g>
    <g text-rendering="geometricPrecision" stroke-miterlimit="1.45" shape-rendering="geometricPrecision" transform="matrix(1,0,0,1,-320,-82)" stroke-linecap="butt">
      <rect fill="none" x="520" width="129" height="42" y="204" clip-path="url(#clipPath2)"/>
      <text x="530.7666" xml:space="preserve" y="222.1699" clip-path="url(#clipPath2)" font-family="sans-serif" stroke="none">Memory required:</text>
      <text x="556.5391" xml:space="preserve" y="236.1387" clip-path="url(#clipPath2)" font-family="sans-serif" stroke="none">modeling</text>
    </g>
    <g fill="rgb(255,204,0)" text-rendering="geometricPrecision" shape-rendering="geometricPrecision" transform="matrix(1,0,0,1,-320,-82)" stroke="rgb(255,204,0)">
      <rect x="655.875" width="128.25" height="28" y="168" clip-path="url(#clipPath2)" stroke="none"/>
    </g>
    <g text-rendering="geometricPrecision" stroke-miterlimit="1.45" shape-rendering="geometricPrecision" transform="matrix(1,0,0,1,-320,-82)" stroke-linecap="butt">
      <rect fill="none" x="655.875" width="128.25" height="28" y="168" clip-path="url(#clipPath2)"/>
      <text x="666.2666" xml:space="preserve" y="179.1699" clip-path="url(#clipPath2)" font-family="sans-serif" stroke="none">Memory required:</text>
      <text x="688.4414" xml:space="preserve" y="193.1387" clip-path="url(#clipPath2)" font-family="sans-serif" stroke="none">evaluation</text>
    </g>
    <g fill="rgb(204,255,204)" text-rendering="geometricPrecision" shape-rendering="geometricPrecision" transform="matrix(1,0,0,1,-320,-82)" stroke="rgb(204,255,204)">
      <rect x="955" width="101" height="211" y="100" clip-path="url(#clipPath2)" stroke="none"/>
    </g>
    <g text-rendering="geometricPrecision" stroke-miterlimit="1.45" shape-rendering="geometricPrecision" transform="matrix(1,0,0,1,-320,-82)" stroke-linecap="butt">
      <rect fill="none" x="955" width="101" height="211" y="100" clip-path="url(#clipPath2)"/>
      <text x="959.5889" xml:space="preserve" y="209.6543" clip-path="url(#clipPath2)" font-family="sans-serif" stroke="none">Memory ceiling</text>
    </g>
    <g fill="rgb(255,102,0)" text-rendering="geometricPrecision" shape-rendering="geometricPrecision" transform="matrix(1,0,0,1,-320,-82)" stroke="rgb(255,102,0)">
      <rect x="335" width="178" height="102" y="144" clip-path="url(#clipPath2)" stroke="none"/>
    </g>
    <g text-rendering="geometricPrecision" stroke-miterlimit="1.45" shape-rendering="geometricPrecision" transform="matrix(1,0,0,1,-320,-82)" stroke-linecap="butt">
      <rect fill="none" x="335" width="178" height="102" y="144" clip-path="url(#clipPath2)"/>
      <text x="362.1602" xml:space="preserve" y="192.1699" clip-path="url(#clipPath2)" font-family="sans-serif" stroke="none">Temporary memory:</text>
      <text x="386.4766" xml:space="preserve" y="206.1387" clip-path="url(#clipPath2)" font-family="sans-serif" stroke="none">data loading</text>
    </g>
    <g fill="rgb(255,102,0)" text-rendering="geometricPrecision" shape-rendering="geometricPrecision" transform="matrix(1,0,0,1,-320,-82)" stroke="rgb(255,102,0)">
      <rect x="520" width="129" height="35" y="163" clip-path="url(#clipPath2)" stroke="none"/>
    </g>
    <g text-rendering="geometricPrecision" stroke-miterlimit="1.45" shape-rendering="geometricPrecision" transform="matrix(1,0,0,1,-320,-82)" stroke-linecap="butt">
      <rect fill="none" x="520" width="129" height="35" y="163" clip-path="url(#clipPath2)"/>
      <text x="522.6602" xml:space="preserve" y="177.6699" clip-path="url(#clipPath2)" font-family="sans-serif" stroke="none">Temporary memory:</text>
      <text x="556.5391" xml:space="preserve" y="191.6387" clip-path="url(#clipPath2)" font-family="sans-serif" stroke="none">modeling</text>
    </g>
    <g fill="rgb(255,102,0)" text-rendering="geometricPrecision" shape-rendering="geometricPrecision" transform="matrix(1,0,0,1,-320,-82)" stroke="rgb(255,102,0)">
      <rect x="656.25" width="128.75" height="26" y="137" clip-path="url(#clipPath2)" stroke="none"/>
    </g>
    <g text-rendering="geometricPrecision" stroke-miterlimit="1.45" shape-rendering="geometricPrecision" transform="matrix(1,0,0,1,-320,-82)" stroke-linecap="butt">
      <rect fill="none" x="656.25" width="128.75" height="26" y="137" clip-path="url(#clipPath2)"/>
      <text x="658.7852" xml:space="preserve" y="147.1699" clip-path="url(#clipPath2)" font-family="sans-serif" stroke="none">Temporary memory:</text>
      <text x="689.0664" xml:space="preserve" y="161.1387" clip-path="url(#clipPath2)" font-family="sans-serif" stroke="none">evaluation</text>
    </g>
    <g fill="rgb(255,204,0)" text-rendering="geometricPrecision" shape-rendering="geometricPrecision" transform="matrix(1,0,0,1,-320,-82)" stroke="rgb(255,204,0)">
      <rect x="792.75" width="132.25" height="28" y="132" clip-path="url(#clipPath2)" stroke="none"/>
    </g>
    <g text-rendering="geometricPrecision" stroke-miterlimit="1.45" shape-rendering="geometricPrecision" transform="matrix(1,0,0,1,-320,-82)" stroke-linecap="butt">
      <rect fill="none" x="792.75" width="132.25" height="28" y="132" clip-path="url(#clipPath2)"/>
      <text x="805.1416" xml:space="preserve" y="143.1699" clip-path="url(#clipPath2)" font-family="sans-serif" stroke="none">Memory required:</text>
      <text x="835.7451" xml:space="preserve" y="157.1387" clip-path="url(#clipPath2)" font-family="sans-serif" stroke="none">plotting</text>
    </g>
    <g fill="rgb(255,102,0)" text-rendering="geometricPrecision" shape-rendering="geometricPrecision" transform="matrix(1,0,0,1,-320,-82)" stroke="rgb(255,102,0)">
      <rect x="792.75" width="132.25" height="26" y="100" clip-path="url(#clipPath2)" stroke="none"/>
    </g>
    <g text-rendering="geometricPrecision" stroke-miterlimit="1.45" shape-rendering="geometricPrecision" transform="matrix(1,0,0,1,-320,-82)" stroke-linecap="butt">
      <rect fill="none" x="792.75" width="132.25" height="26" y="100" clip-path="url(#clipPath2)"/>
      <text x="797.0352" xml:space="preserve" y="110.1699" clip-path="url(#clipPath2)" font-family="sans-serif" stroke="none">Temporary memory:</text>
      <text x="835.7451" xml:space="preserve" y="124.1387" clip-path="url(#clipPath2)" font-family="sans-serif" stroke="none">plotting</text>
    </g>
    <g fill="rgb(255,204,0)" text-rendering="geometricPrecision" shape-rendering="geometricPrecision" transform="matrix(1,0,0,1,-320,-82)" stroke="rgb(255,204,0)">
      <rect x="519" width="130" height="60" y="251" clip-path="url(#clipPath2)" stroke="none"/>
    </g>
    <g text-rendering="geometricPrecision" stroke-miterlimit="1.45" shape-rendering="geometricPrecision" transform="matrix(1,0,0,1,-320,-82)" stroke-linecap="butt">
      <rect fill="none" x="519" width="130" height="60" y="251" clip-path="url(#clipPath2)"/>
      <text x="530.2666" xml:space="preserve" y="278.1699" clip-path="url(#clipPath2)" font-family="sans-serif" stroke="none">Memory required:</text>
      <text x="546.4766" xml:space="preserve" y="292.1387" clip-path="url(#clipPath2)" font-family="sans-serif" stroke="none">data loading</text>
    </g>
    <g fill="rgb(255,204,0)" text-rendering="geometricPrecision" shape-rendering="geometricPrecision" transform="matrix(1,0,0,1,-320,-82)" stroke="rgb(255,204,0)">
      <rect x="656.25" width="127.5" height="42" y="204" clip-path="url(#clipPath2)" stroke="none"/>
    </g>
    <g text-rendering="geometricPrecision" stroke-miterlimit="1.45" shape-rendering="geometricPrecision" transform="matrix(1,0,0,1,-320,-82)" stroke-linecap="butt">
      <rect fill="none" x="656.25" width="127.5" height="42" y="204" clip-path="url(#clipPath2)"/>
      <text x="666.2666" xml:space="preserve" y="222.1699" clip-path="url(#clipPath2)" font-family="sans-serif" stroke="none">Memory required:</text>
      <text x="692.0391" xml:space="preserve" y="236.1387" clip-path="url(#clipPath2)" font-family="sans-serif" stroke="none">modeling</text>
    </g>
    <g fill="rgb(255,204,0)" text-rendering="geometricPrecision" shape-rendering="geometricPrecision" transform="matrix(1,0,0,1,-320,-82)" stroke="rgb(255,204,0)">
      <rect x="655.75" width="128.5" height="60" y="251" clip-path="url(#clipPath2)" stroke="none"/>
    </g>
    <g text-rendering="geometricPrecision" stroke-miterlimit="1.45" shape-rendering="geometricPrecision" transform="matrix(1,0,0,1,-320,-82)" stroke-linecap="butt">
      <rect fill="none" x="655.75" width="128.5" height="60" y="251" clip-path="url(#clipPath2)"/>
      <text x="666.2666" xml:space="preserve" y="278.1699" clip-path="url(#clipPath2)" font-family="sans-serif" stroke="none">Memory required:</text>
      <text x="682.4766" xml:space="preserve" y="292.1387" clip-path="url(#clipPath2)" font-family="sans-serif" stroke="none">data loading</text>
    </g>
    <g fill="rgb(255,204,0)" text-rendering="geometricPrecision" shape-rendering="geometricPrecision" transform="matrix(1,0,0,1,-320,-82)" stroke="rgb(255,204,0)">
      <rect x="790.625" width="134.25" height="28" y="168" clip-path="url(#clipPath2)" stroke="none"/>
    </g>
    <g text-rendering="geometricPrecision" stroke-miterlimit="1.45" shape-rendering="geometricPrecision" transform="matrix(1,0,0,1,-320,-82)" stroke-linecap="butt">
      <rect fill="none" x="790.625" width="134.25" height="28" y="168" clip-path="url(#clipPath2)"/>
      <text x="804.0166" xml:space="preserve" y="179.1699" clip-path="url(#clipPath2)" font-family="sans-serif" stroke="none">Memory required:</text>
      <text x="826.1914" xml:space="preserve" y="193.1387" clip-path="url(#clipPath2)" font-family="sans-serif" stroke="none">evaluation</text>
    </g>
    <g fill="rgb(255,204,0)" text-rendering="geometricPrecision" shape-rendering="geometricPrecision" transform="matrix(1,0,0,1,-320,-82)" stroke="rgb(255,204,0)">
      <rect x="791" width="133.5" height="42" y="204" clip-path="url(#clipPath2)" stroke="none"/>
    </g>
    <g text-rendering="geometricPrecision" stroke-miterlimit="1.45" shape-rendering="geometricPrecision" transform="matrix(1,0,0,1,-320,-82)" stroke-linecap="butt">
      <rect fill="none" x="791" width="133.5" height="42" y="204" clip-path="url(#clipPath2)"/>
      <text x="804.0166" xml:space="preserve" y="222.1699" clip-path="url(#clipPath2)" font-family="sans-serif" stroke="none">Memory required:</text>
      <text x="829.7891" xml:space="preserve" y="236.1387" clip-path="url(#clipPath2)" font-family="sans-serif" stroke="none">modeling</text>
    </g>
    <g fill="rgb(255,204,0)" text-rendering="geometricPrecision" shape-rendering="geometricPrecision" transform="matrix(1,0,0,1,-320,-82)" stroke="rgb(255,204,0)">
      <rect x="790.5" width="134.5" height="60" y="251" clip-path="url(#clipPath2)" stroke="none"/>
    </g>
    <g text-rendering="geometricPrecision" stroke-miterlimit="1.45" shape-rendering="geometricPrecision" transform="matrix(1,0,0,1,-320,-82)" stroke-linecap="butt">
      <rect fill="none" x="790.5" width="134.5" height="60" y="251" clip-path="url(#clipPath2)"/>
      <text x="804.0166" xml:space="preserve" y="278.1699" clip-path="url(#clipPath2)" font-family="sans-serif" stroke="none">Memory required:</text>
      <text x="820.2266" xml:space="preserve" y="292.1387" clip-path="url(#clipPath2)" font-family="sans-serif" stroke="none">data loading</text>
    </g>
  </g>
</svg>
