<?xml version="1.0" encoding="UTF-8"?><svg xmlns="http://www.w3.org/2000/svg" xmlns:xlink="http://www.w3.org/1999/xlink" fill-opacity="1" color-rendering="auto" color-interpolation="auto" text-rendering="auto" stroke="black" stroke-linecap="square" width="729" stroke-miterlimit="10" shape-rendering="auto" stroke-opacity="1" fill="black" stroke-dasharray="none" font-weight="normal" stroke-width="1" height="586" font-family="'Dialog'" font-style="normal" stroke-linejoin="miter" font-size="12px" stroke-dashoffset="0" image-rendering="auto">
  <!--Generated by ySVG 2.5-->
  <defs id="genericDefs"/>
  <g>
    <defs id="defs1">
      <clipPath clipPathUnits="userSpaceOnUse" id="clipPath1">
        <path d="M0 0 L729 0 L729 586 L0 586 L0 0 Z"/>
      </clipPath>
      <clipPath clipPathUnits="userSpaceOnUse" id="clipPath2">
        <path d="M320 -16 L1049 -16 L1049 570 L320 570 L320 -16 Z"/>
      </clipPath>
    </defs>
    <g fill="white" text-rendering="geometricPrecision" shape-rendering="geometricPrecision" transform="translate(-320,16)" stroke="white">
      <rect x="320" width="729" height="586" y="-16" clip-path="url(#clipPath2)" stroke="none"/>
    </g>
    <g fill="rgb(255,153,204)" text-rendering="geometricPrecision" shape-rendering="geometricPrecision" transform="matrix(1,0,0,1,-320,16)" stroke="rgb(255,153,204)">
      <path d="M791 333 L866.6 333 L875 354 L866.6 375 L791 375 L799.4 354 Z" fill-rule="evenodd" clip-path="url(#clipPath2)" stroke="none"/>
    </g>
    <g text-rendering="geometricPrecision" stroke-miterlimit="1.45" shape-rendering="geometricPrecision" transform="matrix(1,0,0,1,-320,16)" stroke-linecap="butt">
      <path fill="none" d="M791 333 L866.6 333 L875 354 L866.6 375 L791 375 L799.4 354 Z" fill-rule="evenodd" clip-path="url(#clipPath2)"/>
      <text x="809.7178" xml:space="preserve" y="358.1543" clip-path="url(#clipPath2)" font-family="sans-serif" stroke="none">P(d,p,v)</text>
    </g>
    <g fill="rgb(255,153,204)" text-rendering="geometricPrecision" shape-rendering="geometricPrecision" transform="matrix(1,0,0,1,-320,16)" stroke="rgb(255,153,204)">
      <rect x="883" width="42" height="42" y="333" clip-path="url(#clipPath2)" stroke="none"/>
    </g>
    <g text-rendering="geometricPrecision" stroke-miterlimit="1.45" shape-rendering="geometricPrecision" transform="matrix(1,0,0,1,-320,16)" stroke-linecap="butt">
      <rect fill="none" x="883" width="42" height="42" y="333" clip-path="url(#clipPath2)"/>
      <text x="901.5332" xml:space="preserve" y="358.1543" clip-path="url(#clipPath2)" font-family="sans-serif" stroke="none">r</text>
    </g>
    <g fill="rgb(204,153,255)" text-rendering="geometricPrecision" shape-rendering="geometricPrecision" transform="matrix(1,0,0,1,-320,16)" stroke="rgb(204,153,255)">
      <path d="M655 333 L728.8 333 L737 354 L728.8 375 L655 375 L663.2 354 Z" fill-rule="evenodd" clip-path="url(#clipPath2)" stroke="none"/>
    </g>
    <g text-rendering="geometricPrecision" stroke-miterlimit="1.45" shape-rendering="geometricPrecision" transform="matrix(1,0,0,1,-320,16)" stroke-linecap="butt">
      <path fill="none" d="M655 333 L728.8 333 L737 354 L728.8 375 L655 375 L663.2 354 Z" fill-rule="evenodd" clip-path="url(#clipPath2)"/>
      <text x="683.9766" xml:space="preserve" y="358.1543" clip-path="url(#clipPath2)" font-family="sans-serif" stroke="none">E(x)</text>
    </g>
    <g fill="rgb(204,153,255)" text-rendering="geometricPrecision" shape-rendering="geometricPrecision" transform="matrix(1,0,0,1,-320,16)" stroke="rgb(204,153,255)">
      <rect x="743" width="42" height="42" y="333" clip-path="url(#clipPath2)" stroke="none"/>
    </g>
    <g text-rendering="geometricPrecision" stroke-miterlimit="1.45" shape-rendering="geometricPrecision" transform="matrix(1,0,0,1,-320,16)" stroke-linecap="butt">
      <rect fill="none" x="743" width="42" height="42" y="333" clip-path="url(#clipPath2)"/>
      <text x="760.4492" xml:space="preserve" y="358.1543" clip-path="url(#clipPath2)" font-family="sans-serif" stroke="none">v</text>
    </g>
    <g fill="rgb(153,204,255)" text-rendering="geometricPrecision" shape-rendering="geometricPrecision" transform="matrix(1,0,0,1,-320,16)" stroke="rgb(153,204,255)">
      <path d="M519 333 L592.8 333 L601 354 L592.8 375 L519 375 L527.2 354 Z" fill-rule="evenodd" clip-path="url(#clipPath2)" stroke="none"/>
    </g>
    <g text-rendering="geometricPrecision" stroke-miterlimit="1.45" shape-rendering="geometricPrecision" transform="matrix(1,0,0,1,-320,16)" stroke-linecap="butt">
      <path fill="none" d="M519 333 L592.8 333 L601 354 L592.8 375 L519 375 L527.2 354 Z" fill-rule="evenodd" clip-path="url(#clipPath2)"/>
      <text x="546.333" xml:space="preserve" y="358.1543" clip-path="url(#clipPath2)" font-family="sans-serif" stroke="none">M(d)</text>
    </g>
    <g fill="rgb(153,204,255)" text-rendering="geometricPrecision" shape-rendering="geometricPrecision" transform="matrix(1,0,0,1,-320,16)" stroke="rgb(153,204,255)">
      <rect x="607" width="42" height="42" y="333" clip-path="url(#clipPath2)" stroke="none"/>
    </g>
    <g text-rendering="geometricPrecision" stroke-miterlimit="1.45" shape-rendering="geometricPrecision" transform="matrix(1,0,0,1,-320,16)" stroke-linecap="butt">
      <rect fill="none" x="607" width="42" height="42" y="333" clip-path="url(#clipPath2)"/>
      <text x="624.1914" xml:space="preserve" y="358.1543" clip-path="url(#clipPath2)" font-family="sans-serif" stroke="none">p</text>
    </g>
    <g fill="silver" text-rendering="geometricPrecision" shape-rendering="geometricPrecision" transform="matrix(1,0,0,1,-320,16)" stroke="silver">
      <rect x="335" width="42" height="42" y="333" clip-path="url(#clipPath2)" stroke="none"/>
    </g>
    <g text-rendering="geometricPrecision" stroke-miterlimit="1.45" shape-rendering="geometricPrecision" transform="matrix(1,0,0,1,-320,16)" stroke-linecap="butt">
      <rect fill="none" x="335" width="42" height="42" y="333" clip-path="url(#clipPath2)"/>
      <text x="338.1406" xml:space="preserve" y="358.1543" clip-path="url(#clipPath2)" font-family="sans-serif" stroke="none">d_raw</text>
    </g>
    <g fill="rgb(204,255,204)" text-rendering="geometricPrecision" shape-rendering="geometricPrecision" transform="matrix(1,0,0,1,-320,16)" stroke="rgb(204,255,204)">
      <rect x="471" width="42" height="42" y="333" clip-path="url(#clipPath2)" stroke="none"/>
    </g>
    <g text-rendering="geometricPrecision" stroke-miterlimit="1.45" shape-rendering="geometricPrecision" transform="matrix(1,0,0,1,-320,16)" stroke-linecap="butt">
      <rect fill="none" x="471" width="42" height="42" y="333" clip-path="url(#clipPath2)"/>
      <text x="488.1914" xml:space="preserve" y="358.1543" clip-path="url(#clipPath2)" font-family="sans-serif" stroke="none">d</text>
    </g>
    <g fill="rgb(204,255,204)" text-rendering="geometricPrecision" shape-rendering="geometricPrecision" transform="matrix(1,0,0,1,-320,16)" stroke="rgb(204,255,204)">
      <path d="M383 333 L456.8 333 L465 354 L456.8 375 L383 375 L391.2 354 Z" fill-rule="evenodd" clip-path="url(#clipPath2)" stroke="none"/>
    </g>
    <g text-rendering="geometricPrecision" stroke-miterlimit="1.45" shape-rendering="geometricPrecision" transform="matrix(1,0,0,1,-320,16)" stroke-linecap="butt">
      <path fill="none" d="M383 333 L456.8 333 L465 354 L456.8 375 L383 375 L391.2 354 Z" fill-rule="evenodd" clip-path="url(#clipPath2)"/>
      <text x="399.6895" xml:space="preserve" y="358.1543" clip-path="url(#clipPath2)" font-family="sans-serif" stroke="none">I(d_raw)</text>
    </g>
    <g fill="rgb(255,204,0)" text-rendering="geometricPrecision" shape-rendering="geometricPrecision" transform="matrix(1,0,0,1,-320,16)" stroke="rgb(255,204,0)">
      <rect x="335" width="42" height="102" y="393" clip-path="url(#clipPath2)" stroke="none"/>
    </g>
    <g text-rendering="geometricPrecision" stroke-miterlimit="1.45" shape-rendering="geometricPrecision" transform="matrix(1,0,0,1,-320,16)" stroke-linecap="butt">
      <rect fill="none" x="335" width="42" height="102" y="393" clip-path="url(#clipPath2)"/>
    </g>
    <g fill="rgb(204,255,204)" text-rendering="geometricPrecision" shape-rendering="geometricPrecision" transform="matrix(1,0,0,1,-320,16)" stroke="rgb(204,255,204)">
      <rect x="933" width="101" height="161.6667" y="393" clip-path="url(#clipPath2)" stroke="none"/>
    </g>
    <g text-rendering="geometricPrecision" stroke-miterlimit="1.45" shape-rendering="geometricPrecision" transform="matrix(1,0,0,1,-320,16)" stroke-linecap="butt">
      <rect fill="none" x="933" width="101" height="161.6667" y="393" clip-path="url(#clipPath2)"/>
      <text x="938.5146" xml:space="preserve" y="477.9876" clip-path="url(#clipPath2)" font-family="sans-serif" stroke="none">Storage ceiling</text>
    </g>
    <g fill="rgb(255,204,0)" text-rendering="geometricPrecision" shape-rendering="geometricPrecision" transform="matrix(1,0,0,1,-320,16)" stroke="rgb(255,204,0)">
      <rect x="881" width="42" height="102" y="393" clip-path="url(#clipPath2)" stroke="none"/>
    </g>
    <g text-rendering="geometricPrecision" stroke-miterlimit="1.45" shape-rendering="geometricPrecision" transform="matrix(1,0,0,1,-320,16)" stroke-linecap="butt">
      <rect fill="none" x="881" width="42" height="102" y="393" clip-path="url(#clipPath2)"/>
    </g>
    <g fill="rgb(255,204,0)" text-rendering="geometricPrecision" shape-rendering="geometricPrecision" transform="matrix(1,0,0,1,-320,16)" stroke="rgb(255,204,0)">
      <rect x="881" width="42" height="47" y="507.6667" clip-path="url(#clipPath2)" stroke="none"/>
    </g>
    <g text-rendering="geometricPrecision" stroke-miterlimit="1.45" shape-rendering="geometricPrecision" transform="matrix(1,0,0,1,-320,16)" stroke-linecap="butt">
      <rect fill="none" x="881" width="42" height="47" y="507.6667" clip-path="url(#clipPath2)"/>
    </g>
    <g fill="rgb(204,255,204)" text-rendering="geometricPrecision" shape-rendering="geometricPrecision" transform="matrix(1,0,0,1,-320,16)" stroke="rgb(204,255,204)">
      <rect x="537" width="194" height="47" y="507.6667" clip-path="url(#clipPath2)" stroke="none"/>
    </g>
    <g text-rendering="geometricPrecision" stroke-miterlimit="1.45" shape-rendering="geometricPrecision" transform="matrix(1,0,0,1,-320,16)" stroke-linecap="butt">
      <rect fill="none" x="537" width="194" height="47" y="507.6667" clip-path="url(#clipPath2)"/>
      <text x="581.1924" xml:space="preserve" y="528.3366" clip-path="url(#clipPath2)" font-family="sans-serif" stroke="none">Storage required:</text>
      <text x="613.7676" xml:space="preserve" y="542.3054" clip-path="url(#clipPath2)" font-family="sans-serif" stroke="none">results</text>
    </g>
    <g fill="rgb(204,255,204)" text-rendering="geometricPrecision" shape-rendering="geometricPrecision" transform="matrix(1,0,0,1,-320,16)" stroke="rgb(204,255,204)">
      <rect x="537" width="194" height="47" y="417.8333" clip-path="url(#clipPath2)" stroke="none"/>
    </g>
    <g text-rendering="geometricPrecision" stroke-miterlimit="1.45" shape-rendering="geometricPrecision" transform="matrix(1,0,0,1,-320,16)" stroke-linecap="butt">
      <rect fill="none" x="537" width="194" height="47" y="417.8333" clip-path="url(#clipPath2)"/>
      <text x="581.1924" xml:space="preserve" y="438.5033" clip-path="url(#clipPath2)" font-family="sans-serif" stroke="none">Storage required:</text>
      <text x="602.0781" xml:space="preserve" y="452.472" clip-path="url(#clipPath2)" font-family="sans-serif" stroke="none">initial data</text>
    </g>
    <g fill="rgb(255,204,0)" text-rendering="geometricPrecision" shape-rendering="geometricPrecision" transform="matrix(1,0,0,1,-320,16)" stroke="rgb(255,204,0)">
      <rect x="335" width="178" height="54" y="268.1667" clip-path="url(#clipPath2)" stroke="none"/>
    </g>
    <g text-rendering="geometricPrecision" stroke-miterlimit="1.45" shape-rendering="geometricPrecision" transform="matrix(1,0,0,1,-320,16)" stroke-linecap="butt">
      <rect fill="none" x="335" width="178" height="54" y="268.1667" clip-path="url(#clipPath2)"/>
      <text x="358.3838" xml:space="preserve" y="292.3366" clip-path="url(#clipPath2)" font-family="sans-serif" stroke="none">Memory requirement:</text>
      <text x="386.4766" xml:space="preserve" y="306.3053" clip-path="url(#clipPath2)" font-family="sans-serif" stroke="none">data loading</text>
    </g>
    <g fill="rgb(255,102,0)" text-rendering="geometricPrecision" shape-rendering="geometricPrecision" transform="matrix(1,0,0,1,-320,16)" stroke="rgb(255,102,0)">
      <rect x="335" width="178" height="258" y="-0.6667" clip-path="url(#clipPath2)" stroke="none"/>
    </g>
    <g text-rendering="geometricPrecision" stroke-miterlimit="1.45" shape-rendering="geometricPrecision" transform="matrix(1,0,0,1,-320,16)" stroke-linecap="butt">
      <rect fill="none" x="335" width="178" height="258" y="-0.6667" clip-path="url(#clipPath2)"/>
      <text x="362.1602" xml:space="preserve" y="125.5033" clip-path="url(#clipPath2)" font-family="sans-serif" stroke="none">Temporary memory:</text>
      <text x="386.4766" xml:space="preserve" y="139.472" clip-path="url(#clipPath2)" font-family="sans-serif" stroke="none">data loading</text>
    </g>
    <g fill="rgb(255,204,0)" text-rendering="geometricPrecision" shape-rendering="geometricPrecision" transform="matrix(1,0,0,1,-320,16)" stroke="rgb(255,204,0)">
      <rect x="519" width="130" height="54" y="268.1667" clip-path="url(#clipPath2)" stroke="none"/>
    </g>
    <g text-rendering="geometricPrecision" stroke-miterlimit="1.45" shape-rendering="geometricPrecision" transform="matrix(1,0,0,1,-320,16)" stroke-linecap="butt">
      <rect fill="none" x="519" width="130" height="54" y="268.1667" clip-path="url(#clipPath2)"/>
      <text x="518.3838" xml:space="preserve" y="292.3366" clip-path="url(#clipPath2)" font-family="sans-serif" stroke="none">Memory requirement:</text>
      <text x="546.4766" xml:space="preserve" y="306.3053" clip-path="url(#clipPath2)" font-family="sans-serif" stroke="none">data loading</text>
    </g>
    <g fill="rgb(255,204,0)" text-rendering="geometricPrecision" shape-rendering="geometricPrecision" transform="matrix(1,0,0,1,-320,16)" stroke="rgb(255,204,0)">
      <rect x="519" width="130" height="42" y="215.3333" clip-path="url(#clipPath2)" stroke="none"/>
    </g>
    <g text-rendering="geometricPrecision" stroke-miterlimit="1.45" shape-rendering="geometricPrecision" transform="matrix(1,0,0,1,-320,16)" stroke-linecap="butt">
      <rect fill="none" x="519" width="130" height="42" y="215.3333" clip-path="url(#clipPath2)"/>
      <text x="518.3838" xml:space="preserve" y="233.5033" clip-path="url(#clipPath2)" font-family="sans-serif" stroke="none">Memory requirement:</text>
      <text x="556.0391" xml:space="preserve" y="247.472" clip-path="url(#clipPath2)" font-family="sans-serif" stroke="none">modeling</text>
    </g>
    <g fill="rgb(255,204,0)" text-rendering="geometricPrecision" shape-rendering="geometricPrecision" transform="matrix(1,0,0,1,-320,16)" stroke="rgb(255,204,0)">
      <rect x="655" width="130" height="42" y="215.3333" clip-path="url(#clipPath2)" stroke="none"/>
    </g>
    <g text-rendering="geometricPrecision" stroke-miterlimit="1.45" shape-rendering="geometricPrecision" transform="matrix(1,0,0,1,-320,16)" stroke-linecap="butt">
      <rect fill="none" x="655" width="130" height="42" y="215.3333" clip-path="url(#clipPath2)"/>
      <text x="654.3838" xml:space="preserve" y="233.5033" clip-path="url(#clipPath2)" font-family="sans-serif" stroke="none">Memory requirement:</text>
      <text x="692.0391" xml:space="preserve" y="247.472" clip-path="url(#clipPath2)" font-family="sans-serif" stroke="none">modeling</text>
    </g>
    <g fill="rgb(255,102,0)" text-rendering="geometricPrecision" shape-rendering="geometricPrecision" transform="matrix(1,0,0,1,-320,16)" stroke="rgb(255,102,0)">
      <rect x="519" width="130" height="42" y="167.5" clip-path="url(#clipPath2)" stroke="none"/>
    </g>
    <g text-rendering="geometricPrecision" stroke-miterlimit="1.45" shape-rendering="geometricPrecision" transform="matrix(1,0,0,1,-320,16)" stroke-linecap="butt">
      <rect fill="none" x="519" width="130" height="42" y="167.5" clip-path="url(#clipPath2)"/>
      <text x="522.1602" xml:space="preserve" y="185.6699" clip-path="url(#clipPath2)" font-family="sans-serif" stroke="none">Temporary memory:</text>
      <text x="556.0391" xml:space="preserve" y="199.6387" clip-path="url(#clipPath2)" font-family="sans-serif" stroke="none">modeling</text>
    </g>
    <g fill="rgb(255,204,0)" text-rendering="geometricPrecision" shape-rendering="geometricPrecision" transform="matrix(1,0,0,1,-320,16)" stroke="rgb(255,204,0)">
      <rect x="655" width="130" height="35" y="174.5" clip-path="url(#clipPath2)" stroke="none"/>
    </g>
    <g text-rendering="geometricPrecision" stroke-miterlimit="1.45" shape-rendering="geometricPrecision" transform="matrix(1,0,0,1,-320,16)" stroke-linecap="butt">
      <rect fill="none" x="655" width="130" height="35" y="174.5" clip-path="url(#clipPath2)"/>
      <text x="663.8965" xml:space="preserve" y="189.1699" clip-path="url(#clipPath2)" font-family="sans-serif" stroke="none">Required memory:</text>
      <text x="688.4414" xml:space="preserve" y="203.1387" clip-path="url(#clipPath2)" font-family="sans-serif" stroke="none">evaluation</text>
    </g>
    <g fill="rgb(255,102,0)" text-rendering="geometricPrecision" shape-rendering="geometricPrecision" transform="matrix(1,0,0,1,-320,16)" stroke="rgb(255,102,0)">
      <rect x="655" width="130" height="29" y="138.5" clip-path="url(#clipPath2)" stroke="none"/>
    </g>
    <g text-rendering="geometricPrecision" stroke-miterlimit="1.45" shape-rendering="geometricPrecision" transform="matrix(1,0,0,1,-320,16)" stroke-linecap="butt">
      <rect fill="none" x="655" width="130" height="29" y="138.5" clip-path="url(#clipPath2)"/>
      <text x="658.1602" xml:space="preserve" y="150.1699" clip-path="url(#clipPath2)" font-family="sans-serif" stroke="none">Temporary memory:</text>
      <text x="688.4414" xml:space="preserve" y="164.1387" clip-path="url(#clipPath2)" font-family="sans-serif" stroke="none">evaluation</text>
    </g>
    <g fill="rgb(255,204,0)" text-rendering="geometricPrecision" shape-rendering="geometricPrecision" transform="matrix(1,0,0,1,-320,16)" stroke="rgb(255,204,0)">
      <rect x="655" width="130" height="54" y="268.1667" clip-path="url(#clipPath2)" stroke="none"/>
    </g>
    <g text-rendering="geometricPrecision" stroke-miterlimit="1.45" shape-rendering="geometricPrecision" transform="matrix(1,0,0,1,-320,16)" stroke-linecap="butt">
      <rect fill="none" x="655" width="130" height="54" y="268.1667" clip-path="url(#clipPath2)"/>
      <text x="654.3838" xml:space="preserve" y="292.3366" clip-path="url(#clipPath2)" font-family="sans-serif" stroke="none">Memory requirement:</text>
      <text x="682.4766" xml:space="preserve" y="306.3053" clip-path="url(#clipPath2)" font-family="sans-serif" stroke="none">data loading</text>
    </g>
    <g fill="rgb(255,204,0)" text-rendering="geometricPrecision" shape-rendering="geometricPrecision" transform="matrix(1,0,0,1,-320,16)" stroke="rgb(255,204,0)">
      <rect x="791" width="134" height="54" y="268.1667" clip-path="url(#clipPath2)" stroke="none"/>
    </g>
    <g text-rendering="geometricPrecision" stroke-miterlimit="1.45" shape-rendering="geometricPrecision" transform="matrix(1,0,0,1,-320,16)" stroke-linecap="butt">
      <rect fill="none" x="791" width="134" height="54" y="268.1667" clip-path="url(#clipPath2)"/>
      <text x="792.3838" xml:space="preserve" y="292.3366" clip-path="url(#clipPath2)" font-family="sans-serif" stroke="none">Memory requirement:</text>
      <text x="820.4766" xml:space="preserve" y="306.3053" clip-path="url(#clipPath2)" font-family="sans-serif" stroke="none">data loading</text>
    </g>
    <g fill="rgb(255,204,0)" text-rendering="geometricPrecision" shape-rendering="geometricPrecision" transform="matrix(1,0,0,1,-320,16)" stroke="rgb(255,204,0)">
      <rect x="791" width="132" height="42" y="215.3333" clip-path="url(#clipPath2)" stroke="none"/>
    </g>
    <g text-rendering="geometricPrecision" stroke-miterlimit="1.45" shape-rendering="geometricPrecision" transform="matrix(1,0,0,1,-320,16)" stroke-linecap="butt">
      <rect fill="none" x="791" width="132" height="42" y="215.3333" clip-path="url(#clipPath2)"/>
      <text x="791.3838" xml:space="preserve" y="233.5033" clip-path="url(#clipPath2)" font-family="sans-serif" stroke="none">Memory requirement:</text>
      <text x="829.0391" xml:space="preserve" y="247.472" clip-path="url(#clipPath2)" font-family="sans-serif" stroke="none">modeling</text>
    </g>
    <g fill="rgb(255,204,0)" text-rendering="geometricPrecision" shape-rendering="geometricPrecision" transform="matrix(1,0,0,1,-320,16)" stroke="rgb(255,204,0)">
      <rect x="792" width="131" height="35" y="174.5" clip-path="url(#clipPath2)" stroke="none"/>
    </g>
    <g text-rendering="geometricPrecision" stroke-miterlimit="1.45" shape-rendering="geometricPrecision" transform="matrix(1,0,0,1,-320,16)" stroke-linecap="butt">
      <rect fill="none" x="792" width="131" height="35" y="174.5" clip-path="url(#clipPath2)"/>
      <text x="801.3965" xml:space="preserve" y="189.1699" clip-path="url(#clipPath2)" font-family="sans-serif" stroke="none">Required memory:</text>
      <text x="825.9414" xml:space="preserve" y="203.1387" clip-path="url(#clipPath2)" font-family="sans-serif" stroke="none">evaluation</text>
    </g>
    <g fill="rgb(255,204,0)" text-rendering="geometricPrecision" shape-rendering="geometricPrecision" transform="matrix(1,0,0,1,-320,16)" stroke="rgb(255,204,0)">
      <rect x="792" width="131" height="35" y="132.5" clip-path="url(#clipPath2)" stroke="none"/>
    </g>
    <g text-rendering="geometricPrecision" stroke-miterlimit="1.45" shape-rendering="geometricPrecision" transform="matrix(1,0,0,1,-320,16)" stroke-linecap="butt">
      <rect fill="none" x="792" width="131" height="35" y="132.5" clip-path="url(#clipPath2)"/>
      <text x="801.3965" xml:space="preserve" y="147.1699" clip-path="url(#clipPath2)" font-family="sans-serif" stroke="none">Required memory:</text>
      <text x="834.3701" xml:space="preserve" y="161.1387" clip-path="url(#clipPath2)" font-family="sans-serif" stroke="none">plotting</text>
    </g>
    <g fill="rgb(204,255,204)" text-rendering="geometricPrecision" shape-rendering="geometricPrecision" transform="matrix(1,0,0,1,-320,16)" stroke="rgb(204,255,204)">
      <rect x="933" width="101" height="322.8333" y="-0.6667" clip-path="url(#clipPath2)" stroke="none"/>
    </g>
    <g text-rendering="geometricPrecision" stroke-miterlimit="1.45" shape-rendering="geometricPrecision" transform="matrix(1,0,0,1,-320,16)" stroke-linecap="butt">
      <rect fill="none" x="933" width="101" height="322.8333" y="-0.6667" clip-path="url(#clipPath2)"/>
      <text x="937.5889" xml:space="preserve" y="164.9043" clip-path="url(#clipPath2)" font-family="sans-serif" stroke="none">Memory ceiling</text>
      <path fill="none" d="M731 531.1667 L873 531.1667" clip-path="url(#clipPath2)"/>
      <path d="M881 531.1667 L869 526.1667 L872 531.1667 L869 536.1667 Z" clip-path="url(#clipPath2)" stroke="none"/>
      <path fill="none" d="M537 441.3333 L385.0273 441.3333" clip-path="url(#clipPath2)"/>
      <path d="M377.0273 441.3333 L389.0273 446.3333 L386.0273 441.3333 L389.0273 436.3333 Z" clip-path="url(#clipPath2)" stroke="none"/>
      <path fill="none" d="M731 442.2985 L873.0004 443.7115" clip-path="url(#clipPath2)"/>
      <path d="M881 443.791 L869.0504 438.6719 L872.0004 443.7015 L868.9509 448.6714 Z" clip-path="url(#clipPath2)" stroke="none"/>
    </g>
  </g>
</svg>
