<?xml version="1.0" encoding="utf-8" standalone="no"?>
<!DOCTYPE svg PUBLIC "-//W3C//DTD SVG 1.1//EN"
  "http://www.w3.org/Graphics/SVG/1.1/DTD/svg11.dtd">
<!-- Created with matplotlib (https://matplotlib.org/) -->
<svg height="432pt" version="1.1" viewBox="0 0 864 432" width="864pt" xmlns="http://www.w3.org/2000/svg" xmlns:xlink="http://www.w3.org/1999/xlink">
 <metadata>
  <rdf:RDF xmlns:cc="http://creativecommons.org/ns#" xmlns:dc="http://purl.org/dc/elements/1.1/" xmlns:rdf="http://www.w3.org/1999/02/22-rdf-syntax-ns#">
   <cc:Work>
    <dc:type rdf:resource="http://purl.org/dc/dcmitype/StillImage"/>
    <dc:date>2020-10-12T23:08:38.175640</dc:date>
    <dc:format>image/svg+xml</dc:format>
    <dc:creator>
     <cc:Agent>
      <dc:title>Matplotlib v3.3.1, https://matplotlib.org/</dc:title>
     </cc:Agent>
    </dc:creator>
   </cc:Work>
  </rdf:RDF>
 </metadata>
 <defs>
  <style type="text/css">*{stroke-linecap:butt;stroke-linejoin:round;}</style>
 </defs>
 <g id="figure_1">
  <g id="patch_1">
   <path d="M 0 432 
L 864 432 
L 864 0 
L 0 0 
z
" style="fill:none;"/>
  </g>
  <g id="axes_1">
   <g id="patch_2">
    <path d="M 38.175 390.2 
L 853.2 390.2 
L 853.2 26.8 
L 38.175 26.8 
z
" style="fill:#ffffff;"/>
   </g>
   <g id="patch_3">
    <path clip-path="url(#p82af7c9309)" d="M 40.070407 390.2 
L 55.233663 390.2 
L 55.233663 389.161588 
L 40.070407 389.161588 
z
" style="fill:#ea96a3;"/>
   </g>
   <g id="patch_4">
    <path clip-path="url(#p82af7c9309)" d="M 59.024477 390.2 
L 74.187733 390.2 
L 74.187733 384.040514 
L 59.024477 384.040514 
z
" style="fill:#ea9798;"/>
   </g>
   <g id="patch_5">
    <path clip-path="url(#p82af7c9309)" d="M 77.978547 390.2 
L 93.141802 390.2 
L 93.141802 385.532079 
L 77.978547 385.532079 
z
" style="fill:#e89686;"/>
   </g>
   <g id="patch_6">
    <path clip-path="url(#p82af7c9309)" d="M 96.932616 390.2 
L 112.095872 390.2 
L 112.095872 366.692607 
L 96.932616 366.692607 
z
" style="fill:#e4946c;"/>
   </g>
   <g id="patch_7">
    <path clip-path="url(#p82af7c9309)" d="M 115.886686 390.2 
L 131.049942 390.2 
L 131.049942 343.951012 
L 115.886686 343.951012 
z
" style="fill:#db934e;"/>
   </g>
   <g id="patch_8">
    <path clip-path="url(#p82af7c9309)" d="M 134.840756 390.2 
L 150.004012 390.2 
L 150.004012 340.59798 
L 134.840756 340.59798 
z
" style="fill:#ce974c;"/>
   </g>
   <g id="patch_9">
    <path clip-path="url(#p82af7c9309)" d="M 153.794826 390.2 
L 168.958081 390.2 
L 168.958081 331.593112 
L 153.794826 331.593112 
z
" style="fill:#c4994b;"/>
   </g>
   <g id="patch_10">
    <path clip-path="url(#p82af7c9309)" d="M 172.748895 390.2 
L 187.912151 390.2 
L 187.912151 275.908909 
L 172.748895 275.908909 
z
" style="fill:#ba9b49;"/>
   </g>
   <g id="patch_11">
    <path clip-path="url(#p82af7c9309)" d="M 191.702965 390.2 
L 206.866221 390.2 
L 206.866221 270.946979 
L 191.702965 270.946979 
z
" style="fill:#b19d48;"/>
   </g>
   <g id="patch_12">
    <path clip-path="url(#p82af7c9309)" d="M 210.657035 390.2 
L 225.820291 390.2 
L 225.820291 209.884474 
L 210.657035 209.884474 
z
" style="fill:#a89e47;"/>
   </g>
   <g id="patch_13">
    <path clip-path="url(#p82af7c9309)" d="M 229.611105 390.2 
L 244.77436 390.2 
L 244.77436 145.858396 
L 229.611105 145.858396 
z
" style="fill:#9ea045;"/>
   </g>
   <g id="patch_14">
    <path clip-path="url(#p82af7c9309)" d="M 248.565174 390.2 
L 263.72843 390.2 
L 263.72843 86.536531 
L 248.565174 86.536531 
z
" style="fill:#95a346;"/>
   </g>
   <g id="patch_15">
    <path clip-path="url(#p82af7c9309)" d="M 267.519244 390.2 
L 282.6825 390.2 
L 282.6825 44.104762 
L 267.519244 44.104762 
z
" style="fill:#8ba646;"/>
   </g>
   <g id="patch_16">
    <path clip-path="url(#p82af7c9309)" d="M 286.473314 390.2 
L 301.63657 390.2 
L 301.63657 125.137166 
L 286.473314 125.137166 
z
" style="fill:#7ea947;"/>
   </g>
   <g id="patch_17">
    <path clip-path="url(#p82af7c9309)" d="M 305.427384 390.2 
L 320.59064 390.2 
L 320.59064 174.088454 
L 305.427384 174.088454 
z
" style="fill:#6aad47;"/>
   </g>
   <g id="patch_18">
    <path clip-path="url(#p82af7c9309)" d="M 324.381453 390.2 
L 339.544709 390.2 
L 339.544709 195.011188 
L 324.381453 195.011188 
z
" style="fill:#48b14f;"/>
   </g>
   <g id="patch_19">
    <path clip-path="url(#p82af7c9309)" d="M 343.335523 390.2 
L 358.498779 390.2 
L 358.498779 161.332453 
L 343.335523 161.332453 
z
" style="fill:#48af70;"/>
   </g>
   <g id="patch_20">
    <path clip-path="url(#p82af7c9309)" d="M 362.289593 390.2 
L 377.452849 390.2 
L 377.452849 204.300195 
L 362.289593 204.300195 
z
" style="fill:#49ae80;"/>
   </g>
   <g id="patch_21">
    <path clip-path="url(#p82af7c9309)" d="M 381.243663 390.2 
L 396.406919 390.2 
L 396.406919 179.041741 
L 381.243663 179.041741 
z
" style="fill:#4aad8b;"/>
   </g>
   <g id="patch_22">
    <path clip-path="url(#p82af7c9309)" d="M 400.197733 390.2 
L 415.360988 390.2 
L 415.360988 242.881765 
L 400.197733 242.881765 
z
" style="fill:#4aad94;"/>
   </g>
   <g id="patch_23">
    <path clip-path="url(#p82af7c9309)" d="M 419.151802 390.2 
L 434.315058 390.2 
L 434.315058 330.564141 
L 419.151802 330.564141 
z
" style="fill:#4aac9b;"/>
   </g>
   <g id="patch_24">
    <path clip-path="url(#p82af7c9309)" d="M 438.105872 390.2 
L 453.269128 390.2 
L 453.269128 318.963579 
L 438.105872 318.963579 
z
" style="fill:#4baba1;"/>
   </g>
   <g id="patch_25">
    <path clip-path="url(#p82af7c9309)" d="M 457.059942 390.2 
L 472.223198 390.2 
L 472.223198 357.285285 
L 457.059942 357.285285 
z
" style="fill:#4baba7;"/>
   </g>
   <g id="patch_26">
    <path clip-path="url(#p82af7c9309)" d="M 476.014012 390.2 
L 491.177267 390.2 
L 491.177267 371.359118 
L 476.014012 371.359118 
z
" style="fill:#4cabad;"/>
   </g>
   <g id="patch_27">
    <path clip-path="url(#p82af7c9309)" d="M 494.968081 390.2 
L 510.131337 390.2 
L 510.131337 377.442527 
L 494.968081 377.442527 
z
" style="fill:#4dabb4;"/>
   </g>
   <g id="patch_28">
    <path clip-path="url(#p82af7c9309)" d="M 513.922151 390.2 
L 529.085407 390.2 
L 529.085407 380.767115 
L 513.922151 380.767115 
z
" style="fill:#4fabbc;"/>
   </g>
   <g id="patch_29">
    <path clip-path="url(#p82af7c9309)" d="M 532.876221 390.2 
L 548.039477 390.2 
L 548.039477 381.619963 
L 532.876221 381.619963 
z
" style="fill:#51acc4;"/>
   </g>
   <g id="patch_30">
    <path clip-path="url(#p82af7c9309)" d="M 551.830291 390.2 
L 566.993547 390.2 
L 566.993547 382.301408 
L 551.830291 382.301408 
z
" style="fill:#53accf;"/>
   </g>
   <g id="patch_31">
    <path clip-path="url(#p82af7c9309)" d="M 570.78436 390.2 
L 585.947616 390.2 
L 585.947616 386.970126 
L 570.78436 386.970126 
z
" style="fill:#56addc;"/>
   </g>
   <g id="patch_32">
    <path clip-path="url(#p82af7c9309)" d="M 589.73843 390.2 
L 604.901686 390.2 
L 604.901686 389.46185 
L 589.73843 389.46185 
z
" style="fill:#78aee4;"/>
   </g>
   <g id="patch_33">
    <path clip-path="url(#p82af7c9309)" d="M 608.6925 390.2 
L 623.855756 390.2 
L 623.855756 389.389328 
L 608.6925 389.389328 
z
" style="fill:#92aee8;"/>
   </g>
   <g id="patch_34">
    <path clip-path="url(#p82af7c9309)" d="M 627.64657 390.2 
L 642.809826 390.2 
L 642.809826 389.696947 
L 627.64657 389.696947 
z
" style="fill:#a5acea;"/>
   </g>
   <g id="patch_35">
    <path clip-path="url(#p82af7c9309)" d="M 646.60064 390.2 
L 661.763895 390.2 
L 661.763895 389.969255 
L 646.60064 389.969255 
z
" style="fill:#b3a9eb;"/>
   </g>
   <g id="patch_36">
    <path clip-path="url(#p82af7c9309)" d="M 665.554709 390.2 
L 680.717965 390.2 
L 680.717965 390.178421 
L 665.554709 390.178421 
z
" style="fill:#bfa4ea;"/>
   </g>
   <g id="patch_37">
    <path clip-path="url(#p82af7c9309)" d="M 684.508779 390.2 
L 699.672035 390.2 
L 699.672035 390.191969 
L 684.508779 390.191969 
z
" style="fill:#ca9ee9;"/>
   </g>
   <g id="patch_38">
    <path clip-path="url(#p82af7c9309)" d="M 703.462849 390.2 
L 718.626105 390.2 
L 718.626105 390.195647 
L 703.462849 390.195647 
z
" style="fill:#d597e8;"/>
   </g>
   <g id="patch_39">
    <path clip-path="url(#p82af7c9309)" d="M 722.416919 390.2 
L 737.580174 390.2 
L 737.580174 390.196874 
L 722.416919 390.196874 
z
" style="fill:#e18de7;"/>
   </g>
   <g id="patch_40">
    <path clip-path="url(#p82af7c9309)" d="M 741.370988 390.2 
L 756.534244 390.2 
L 756.534244 390.19859 
L 741.370988 390.19859 
z
" style="fill:#e78adf;"/>
   </g>
   <g id="patch_41">
    <path clip-path="url(#p82af7c9309)" d="M 760.325058 390.2 
L 775.488314 390.2 
L 775.488314 390.199571 
L 760.325058 390.199571 
z
" style="fill:#e78dd3;"/>
   </g>
   <g id="patch_42">
    <path clip-path="url(#p82af7c9309)" d="M 779.279128 390.2 
L 794.442384 390.2 
L 794.442384 390.199693 
L 779.279128 390.199693 
z
" style="fill:#e88fca;"/>
   </g>
   <g id="patch_43">
    <path clip-path="url(#p82af7c9309)" d="M 798.233198 390.2 
L 813.396453 390.2 
L 813.396453 390.199939 
L 798.233198 390.199939 
z
" style="fill:#e891c0;"/>
   </g>
   <g id="patch_44">
    <path clip-path="url(#p82af7c9309)" d="M 817.187267 390.2 
L 832.350523 390.2 
L 832.350523 390.199939 
L 817.187267 390.199939 
z
" style="fill:#e993b8;"/>
   </g>
   <g id="patch_45">
    <path clip-path="url(#p82af7c9309)" d="M 0 0 
z
" style="fill:#e994ae;"/>
   </g>
   <g id="matplotlib.axis_1">
    <g id="xtick_1">
     <g id="line2d_1">
      <defs>
       <path d="M 0 0 
L 0 3.5 
" id="mde05641403" style="stroke:#000000;stroke-width:0.8;"/>
      </defs>
      <g>
       <use style="stroke:#000000;stroke-width:0.8;" x="47.652035" xlink:href="#mde05641403" y="390.2"/>
      </g>
     </g>
     <g id="text_1">
      <!-- 0 -->
      <g transform="translate(44.470785 404.798438)scale(0.1 -0.1)">
       <defs>
        <path d="M 31.78125 66.40625 
Q 24.171875 66.40625 20.328125 58.90625 
Q 16.5 51.421875 16.5 36.375 
Q 16.5 21.390625 20.328125 13.890625 
Q 24.171875 6.390625 31.78125 6.390625 
Q 39.453125 6.390625 43.28125 13.890625 
Q 47.125 21.390625 47.125 36.375 
Q 47.125 51.421875 43.28125 58.90625 
Q 39.453125 66.40625 31.78125 66.40625 
z
M 31.78125 74.21875 
Q 44.046875 74.21875 50.515625 64.515625 
Q 56.984375 54.828125 56.984375 36.375 
Q 56.984375 17.96875 50.515625 8.265625 
Q 44.046875 -1.421875 31.78125 -1.421875 
Q 19.53125 -1.421875 13.0625 8.265625 
Q 6.59375 17.96875 6.59375 36.375 
Q 6.59375 54.828125 13.0625 64.515625 
Q 19.53125 74.21875 31.78125 74.21875 
z
" id="DejaVuSans-48"/>
       </defs>
       <use xlink:href="#DejaVuSans-48"/>
      </g>
     </g>
    </g>
    <g id="xtick_2">
     <g id="line2d_2">
      <g>
       <use style="stroke:#000000;stroke-width:0.8;" x="66.606105" xlink:href="#mde05641403" y="390.2"/>
      </g>
     </g>
     <g id="text_2">
      <!-- 1 -->
      <g transform="translate(63.424855 404.798438)scale(0.1 -0.1)">
       <defs>
        <path d="M 12.40625 8.296875 
L 28.515625 8.296875 
L 28.515625 63.921875 
L 10.984375 60.40625 
L 10.984375 69.390625 
L 28.421875 72.90625 
L 38.28125 72.90625 
L 38.28125 8.296875 
L 54.390625 8.296875 
L 54.390625 0 
L 12.40625 0 
z
" id="DejaVuSans-49"/>
       </defs>
       <use xlink:href="#DejaVuSans-49"/>
      </g>
     </g>
    </g>
    <g id="xtick_3">
     <g id="line2d_3">
      <g>
       <use style="stroke:#000000;stroke-width:0.8;" x="85.560174" xlink:href="#mde05641403" y="390.2"/>
      </g>
     </g>
     <g id="text_3">
      <!-- 2 -->
      <g transform="translate(82.378924 404.798438)scale(0.1 -0.1)">
       <defs>
        <path d="M 19.1875 8.296875 
L 53.609375 8.296875 
L 53.609375 0 
L 7.328125 0 
L 7.328125 8.296875 
Q 12.9375 14.109375 22.625 23.890625 
Q 32.328125 33.6875 34.8125 36.53125 
Q 39.546875 41.84375 41.421875 45.53125 
Q 43.3125 49.21875 43.3125 52.78125 
Q 43.3125 58.59375 39.234375 62.25 
Q 35.15625 65.921875 28.609375 65.921875 
Q 23.96875 65.921875 18.8125 64.3125 
Q 13.671875 62.703125 7.8125 59.421875 
L 7.8125 69.390625 
Q 13.765625 71.78125 18.9375 73 
Q 24.125 74.21875 28.421875 74.21875 
Q 39.75 74.21875 46.484375 68.546875 
Q 53.21875 62.890625 53.21875 53.421875 
Q 53.21875 48.921875 51.53125 44.890625 
Q 49.859375 40.875 45.40625 35.40625 
Q 44.1875 33.984375 37.640625 27.21875 
Q 31.109375 20.453125 19.1875 8.296875 
z
" id="DejaVuSans-50"/>
       </defs>
       <use xlink:href="#DejaVuSans-50"/>
      </g>
     </g>
    </g>
    <g id="xtick_4">
     <g id="line2d_4">
      <g>
       <use style="stroke:#000000;stroke-width:0.8;" x="104.514244" xlink:href="#mde05641403" y="390.2"/>
      </g>
     </g>
     <g id="text_4">
      <!-- 3 -->
      <g transform="translate(101.332994 404.798438)scale(0.1 -0.1)">
       <defs>
        <path d="M 40.578125 39.3125 
Q 47.65625 37.796875 51.625 33 
Q 55.609375 28.21875 55.609375 21.1875 
Q 55.609375 10.40625 48.1875 4.484375 
Q 40.765625 -1.421875 27.09375 -1.421875 
Q 22.515625 -1.421875 17.65625 -0.515625 
Q 12.796875 0.390625 7.625 2.203125 
L 7.625 11.71875 
Q 11.71875 9.328125 16.59375 8.109375 
Q 21.484375 6.890625 26.8125 6.890625 
Q 36.078125 6.890625 40.9375 10.546875 
Q 45.796875 14.203125 45.796875 21.1875 
Q 45.796875 27.640625 41.28125 31.265625 
Q 36.765625 34.90625 28.71875 34.90625 
L 20.21875 34.90625 
L 20.21875 43.015625 
L 29.109375 43.015625 
Q 36.375 43.015625 40.234375 45.921875 
Q 44.09375 48.828125 44.09375 54.296875 
Q 44.09375 59.90625 40.109375 62.90625 
Q 36.140625 65.921875 28.71875 65.921875 
Q 24.65625 65.921875 20.015625 65.03125 
Q 15.375 64.15625 9.8125 62.3125 
L 9.8125 71.09375 
Q 15.4375 72.65625 20.34375 73.4375 
Q 25.25 74.21875 29.59375 74.21875 
Q 40.828125 74.21875 47.359375 69.109375 
Q 53.90625 64.015625 53.90625 55.328125 
Q 53.90625 49.265625 50.4375 45.09375 
Q 46.96875 40.921875 40.578125 39.3125 
z
" id="DejaVuSans-51"/>
       </defs>
       <use xlink:href="#DejaVuSans-51"/>
      </g>
     </g>
    </g>
    <g id="xtick_5">
     <g id="line2d_5">
      <g>
       <use style="stroke:#000000;stroke-width:0.8;" x="123.468314" xlink:href="#mde05641403" y="390.2"/>
      </g>
     </g>
     <g id="text_5">
      <!-- 4 -->
      <g transform="translate(120.287064 404.798438)scale(0.1 -0.1)">
       <defs>
        <path d="M 37.796875 64.3125 
L 12.890625 25.390625 
L 37.796875 25.390625 
z
M 35.203125 72.90625 
L 47.609375 72.90625 
L 47.609375 25.390625 
L 58.015625 25.390625 
L 58.015625 17.1875 
L 47.609375 17.1875 
L 47.609375 0 
L 37.796875 0 
L 37.796875 17.1875 
L 4.890625 17.1875 
L 4.890625 26.703125 
z
" id="DejaVuSans-52"/>
       </defs>
       <use xlink:href="#DejaVuSans-52"/>
      </g>
     </g>
    </g>
    <g id="xtick_6">
     <g id="line2d_6">
      <g>
       <use style="stroke:#000000;stroke-width:0.8;" x="142.422384" xlink:href="#mde05641403" y="390.2"/>
      </g>
     </g>
     <g id="text_6">
      <!-- 5 -->
      <g transform="translate(139.241134 404.798438)scale(0.1 -0.1)">
       <defs>
        <path d="M 10.796875 72.90625 
L 49.515625 72.90625 
L 49.515625 64.59375 
L 19.828125 64.59375 
L 19.828125 46.734375 
Q 21.96875 47.46875 24.109375 47.828125 
Q 26.265625 48.1875 28.421875 48.1875 
Q 40.625 48.1875 47.75 41.5 
Q 54.890625 34.8125 54.890625 23.390625 
Q 54.890625 11.625 47.5625 5.09375 
Q 40.234375 -1.421875 26.90625 -1.421875 
Q 22.3125 -1.421875 17.546875 -0.640625 
Q 12.796875 0.140625 7.71875 1.703125 
L 7.71875 11.625 
Q 12.109375 9.234375 16.796875 8.0625 
Q 21.484375 6.890625 26.703125 6.890625 
Q 35.15625 6.890625 40.078125 11.328125 
Q 45.015625 15.765625 45.015625 23.390625 
Q 45.015625 31 40.078125 35.4375 
Q 35.15625 39.890625 26.703125 39.890625 
Q 22.75 39.890625 18.8125 39.015625 
Q 14.890625 38.140625 10.796875 36.28125 
z
" id="DejaVuSans-53"/>
       </defs>
       <use xlink:href="#DejaVuSans-53"/>
      </g>
     </g>
    </g>
    <g id="xtick_7">
     <g id="line2d_7">
      <g>
       <use style="stroke:#000000;stroke-width:0.8;" x="161.376453" xlink:href="#mde05641403" y="390.2"/>
      </g>
     </g>
     <g id="text_7">
      <!-- 6 -->
      <g transform="translate(158.195203 404.798438)scale(0.1 -0.1)">
       <defs>
        <path d="M 33.015625 40.375 
Q 26.375 40.375 22.484375 35.828125 
Q 18.609375 31.296875 18.609375 23.390625 
Q 18.609375 15.53125 22.484375 10.953125 
Q 26.375 6.390625 33.015625 6.390625 
Q 39.65625 6.390625 43.53125 10.953125 
Q 47.40625 15.53125 47.40625 23.390625 
Q 47.40625 31.296875 43.53125 35.828125 
Q 39.65625 40.375 33.015625 40.375 
z
M 52.59375 71.296875 
L 52.59375 62.3125 
Q 48.875 64.0625 45.09375 64.984375 
Q 41.3125 65.921875 37.59375 65.921875 
Q 27.828125 65.921875 22.671875 59.328125 
Q 17.53125 52.734375 16.796875 39.40625 
Q 19.671875 43.65625 24.015625 45.921875 
Q 28.375 48.1875 33.59375 48.1875 
Q 44.578125 48.1875 50.953125 41.515625 
Q 57.328125 34.859375 57.328125 23.390625 
Q 57.328125 12.15625 50.6875 5.359375 
Q 44.046875 -1.421875 33.015625 -1.421875 
Q 20.359375 -1.421875 13.671875 8.265625 
Q 6.984375 17.96875 6.984375 36.375 
Q 6.984375 53.65625 15.1875 63.9375 
Q 23.390625 74.21875 37.203125 74.21875 
Q 40.921875 74.21875 44.703125 73.484375 
Q 48.484375 72.75 52.59375 71.296875 
z
" id="DejaVuSans-54"/>
       </defs>
       <use xlink:href="#DejaVuSans-54"/>
      </g>
     </g>
    </g>
    <g id="xtick_8">
     <g id="line2d_8">
      <g>
       <use style="stroke:#000000;stroke-width:0.8;" x="180.330523" xlink:href="#mde05641403" y="390.2"/>
      </g>
     </g>
     <g id="text_8">
      <!-- 7 -->
      <g transform="translate(177.149273 404.798438)scale(0.1 -0.1)">
       <defs>
        <path d="M 8.203125 72.90625 
L 55.078125 72.90625 
L 55.078125 68.703125 
L 28.609375 0 
L 18.3125 0 
L 43.21875 64.59375 
L 8.203125 64.59375 
z
" id="DejaVuSans-55"/>
       </defs>
       <use xlink:href="#DejaVuSans-55"/>
      </g>
     </g>
    </g>
    <g id="xtick_9">
     <g id="line2d_9">
      <g>
       <use style="stroke:#000000;stroke-width:0.8;" x="199.284593" xlink:href="#mde05641403" y="390.2"/>
      </g>
     </g>
     <g id="text_9">
      <!-- 8 -->
      <g transform="translate(196.103343 404.798438)scale(0.1 -0.1)">
       <defs>
        <path d="M 31.78125 34.625 
Q 24.75 34.625 20.71875 30.859375 
Q 16.703125 27.09375 16.703125 20.515625 
Q 16.703125 13.921875 20.71875 10.15625 
Q 24.75 6.390625 31.78125 6.390625 
Q 38.8125 6.390625 42.859375 10.171875 
Q 46.921875 13.96875 46.921875 20.515625 
Q 46.921875 27.09375 42.890625 30.859375 
Q 38.875 34.625 31.78125 34.625 
z
M 21.921875 38.8125 
Q 15.578125 40.375 12.03125 44.71875 
Q 8.5 49.078125 8.5 55.328125 
Q 8.5 64.0625 14.71875 69.140625 
Q 20.953125 74.21875 31.78125 74.21875 
Q 42.671875 74.21875 48.875 69.140625 
Q 55.078125 64.0625 55.078125 55.328125 
Q 55.078125 49.078125 51.53125 44.71875 
Q 48 40.375 41.703125 38.8125 
Q 48.828125 37.15625 52.796875 32.3125 
Q 56.78125 27.484375 56.78125 20.515625 
Q 56.78125 9.90625 50.3125 4.234375 
Q 43.84375 -1.421875 31.78125 -1.421875 
Q 19.734375 -1.421875 13.25 4.234375 
Q 6.78125 9.90625 6.78125 20.515625 
Q 6.78125 27.484375 10.78125 32.3125 
Q 14.796875 37.15625 21.921875 38.8125 
z
M 18.3125 54.390625 
Q 18.3125 48.734375 21.84375 45.5625 
Q 25.390625 42.390625 31.78125 42.390625 
Q 38.140625 42.390625 41.71875 45.5625 
Q 45.3125 48.734375 45.3125 54.390625 
Q 45.3125 60.0625 41.71875 63.234375 
Q 38.140625 66.40625 31.78125 66.40625 
Q 25.390625 66.40625 21.84375 63.234375 
Q 18.3125 60.0625 18.3125 54.390625 
z
" id="DejaVuSans-56"/>
       </defs>
       <use xlink:href="#DejaVuSans-56"/>
      </g>
     </g>
    </g>
    <g id="xtick_10">
     <g id="line2d_10">
      <g>
       <use style="stroke:#000000;stroke-width:0.8;" x="218.238663" xlink:href="#mde05641403" y="390.2"/>
      </g>
     </g>
     <g id="text_10">
      <!-- 9 -->
      <g transform="translate(215.057413 404.798438)scale(0.1 -0.1)">
       <defs>
        <path d="M 10.984375 1.515625 
L 10.984375 10.5 
Q 14.703125 8.734375 18.5 7.8125 
Q 22.3125 6.890625 25.984375 6.890625 
Q 35.75 6.890625 40.890625 13.453125 
Q 46.046875 20.015625 46.78125 33.40625 
Q 43.953125 29.203125 39.59375 26.953125 
Q 35.25 24.703125 29.984375 24.703125 
Q 19.046875 24.703125 12.671875 31.3125 
Q 6.296875 37.9375 6.296875 49.421875 
Q 6.296875 60.640625 12.9375 67.421875 
Q 19.578125 74.21875 30.609375 74.21875 
Q 43.265625 74.21875 49.921875 64.515625 
Q 56.59375 54.828125 56.59375 36.375 
Q 56.59375 19.140625 48.40625 8.859375 
Q 40.234375 -1.421875 26.421875 -1.421875 
Q 22.703125 -1.421875 18.890625 -0.6875 
Q 15.09375 0.046875 10.984375 1.515625 
z
M 30.609375 32.421875 
Q 37.25 32.421875 41.125 36.953125 
Q 45.015625 41.5 45.015625 49.421875 
Q 45.015625 57.28125 41.125 61.84375 
Q 37.25 66.40625 30.609375 66.40625 
Q 23.96875 66.40625 20.09375 61.84375 
Q 16.21875 57.28125 16.21875 49.421875 
Q 16.21875 41.5 20.09375 36.953125 
Q 23.96875 32.421875 30.609375 32.421875 
z
" id="DejaVuSans-57"/>
       </defs>
       <use xlink:href="#DejaVuSans-57"/>
      </g>
     </g>
    </g>
    <g id="xtick_11">
     <g id="line2d_11">
      <g>
       <use style="stroke:#000000;stroke-width:0.8;" x="237.192733" xlink:href="#mde05641403" y="390.2"/>
      </g>
     </g>
     <g id="text_11">
      <!-- 10 -->
      <g transform="translate(230.830233 404.798438)scale(0.1 -0.1)">
       <use xlink:href="#DejaVuSans-49"/>
       <use x="63.623047" xlink:href="#DejaVuSans-48"/>
      </g>
     </g>
    </g>
    <g id="xtick_12">
     <g id="line2d_12">
      <g>
       <use style="stroke:#000000;stroke-width:0.8;" x="256.146802" xlink:href="#mde05641403" y="390.2"/>
      </g>
     </g>
     <g id="text_12">
      <!-- 11 -->
      <g transform="translate(249.784302 404.798438)scale(0.1 -0.1)">
       <use xlink:href="#DejaVuSans-49"/>
       <use x="63.623047" xlink:href="#DejaVuSans-49"/>
      </g>
     </g>
    </g>
    <g id="xtick_13">
     <g id="line2d_13">
      <g>
       <use style="stroke:#000000;stroke-width:0.8;" x="275.100872" xlink:href="#mde05641403" y="390.2"/>
      </g>
     </g>
     <g id="text_13">
      <!-- 12 -->
      <g transform="translate(268.738372 404.798438)scale(0.1 -0.1)">
       <use xlink:href="#DejaVuSans-49"/>
       <use x="63.623047" xlink:href="#DejaVuSans-50"/>
      </g>
     </g>
    </g>
    <g id="xtick_14">
     <g id="line2d_14">
      <g>
       <use style="stroke:#000000;stroke-width:0.8;" x="294.054942" xlink:href="#mde05641403" y="390.2"/>
      </g>
     </g>
     <g id="text_14">
      <!-- 13 -->
      <g transform="translate(287.692442 404.798438)scale(0.1 -0.1)">
       <use xlink:href="#DejaVuSans-49"/>
       <use x="63.623047" xlink:href="#DejaVuSans-51"/>
      </g>
     </g>
    </g>
    <g id="xtick_15">
     <g id="line2d_15">
      <g>
       <use style="stroke:#000000;stroke-width:0.8;" x="313.009012" xlink:href="#mde05641403" y="390.2"/>
      </g>
     </g>
     <g id="text_15">
      <!-- 14 -->
      <g transform="translate(306.646512 404.798438)scale(0.1 -0.1)">
       <use xlink:href="#DejaVuSans-49"/>
       <use x="63.623047" xlink:href="#DejaVuSans-52"/>
      </g>
     </g>
    </g>
    <g id="xtick_16">
     <g id="line2d_16">
      <g>
       <use style="stroke:#000000;stroke-width:0.8;" x="331.963081" xlink:href="#mde05641403" y="390.2"/>
      </g>
     </g>
     <g id="text_16">
      <!-- 15 -->
      <g transform="translate(325.600581 404.798438)scale(0.1 -0.1)">
       <use xlink:href="#DejaVuSans-49"/>
       <use x="63.623047" xlink:href="#DejaVuSans-53"/>
      </g>
     </g>
    </g>
    <g id="xtick_17">
     <g id="line2d_17">
      <g>
       <use style="stroke:#000000;stroke-width:0.8;" x="350.917151" xlink:href="#mde05641403" y="390.2"/>
      </g>
     </g>
     <g id="text_17">
      <!-- 16 -->
      <g transform="translate(344.554651 404.798438)scale(0.1 -0.1)">
       <use xlink:href="#DejaVuSans-49"/>
       <use x="63.623047" xlink:href="#DejaVuSans-54"/>
      </g>
     </g>
    </g>
    <g id="xtick_18">
     <g id="line2d_18">
      <g>
       <use style="stroke:#000000;stroke-width:0.8;" x="369.871221" xlink:href="#mde05641403" y="390.2"/>
      </g>
     </g>
     <g id="text_18">
      <!-- 17 -->
      <g transform="translate(363.508721 404.798438)scale(0.1 -0.1)">
       <use xlink:href="#DejaVuSans-49"/>
       <use x="63.623047" xlink:href="#DejaVuSans-55"/>
      </g>
     </g>
    </g>
    <g id="xtick_19">
     <g id="line2d_19">
      <g>
       <use style="stroke:#000000;stroke-width:0.8;" x="388.825291" xlink:href="#mde05641403" y="390.2"/>
      </g>
     </g>
     <g id="text_19">
      <!-- 18 -->
      <g transform="translate(382.462791 404.798438)scale(0.1 -0.1)">
       <use xlink:href="#DejaVuSans-49"/>
       <use x="63.623047" xlink:href="#DejaVuSans-56"/>
      </g>
     </g>
    </g>
    <g id="xtick_20">
     <g id="line2d_20">
      <g>
       <use style="stroke:#000000;stroke-width:0.8;" x="407.77936" xlink:href="#mde05641403" y="390.2"/>
      </g>
     </g>
     <g id="text_20">
      <!-- 19 -->
      <g transform="translate(401.41686 404.798438)scale(0.1 -0.1)">
       <use xlink:href="#DejaVuSans-49"/>
       <use x="63.623047" xlink:href="#DejaVuSans-57"/>
      </g>
     </g>
    </g>
    <g id="xtick_21">
     <g id="line2d_21">
      <g>
       <use style="stroke:#000000;stroke-width:0.8;" x="426.73343" xlink:href="#mde05641403" y="390.2"/>
      </g>
     </g>
     <g id="text_21">
      <!-- 20 -->
      <g transform="translate(420.37093 404.798438)scale(0.1 -0.1)">
       <use xlink:href="#DejaVuSans-50"/>
       <use x="63.623047" xlink:href="#DejaVuSans-48"/>
      </g>
     </g>
    </g>
    <g id="xtick_22">
     <g id="line2d_22">
      <g>
       <use style="stroke:#000000;stroke-width:0.8;" x="445.6875" xlink:href="#mde05641403" y="390.2"/>
      </g>
     </g>
     <g id="text_22">
      <!-- 21 -->
      <g transform="translate(439.325 404.798438)scale(0.1 -0.1)">
       <use xlink:href="#DejaVuSans-50"/>
       <use x="63.623047" xlink:href="#DejaVuSans-49"/>
      </g>
     </g>
    </g>
    <g id="xtick_23">
     <g id="line2d_23">
      <g>
       <use style="stroke:#000000;stroke-width:0.8;" x="464.64157" xlink:href="#mde05641403" y="390.2"/>
      </g>
     </g>
     <g id="text_23">
      <!-- 22 -->
      <g transform="translate(458.27907 404.798438)scale(0.1 -0.1)">
       <use xlink:href="#DejaVuSans-50"/>
       <use x="63.623047" xlink:href="#DejaVuSans-50"/>
      </g>
     </g>
    </g>
    <g id="xtick_24">
     <g id="line2d_24">
      <g>
       <use style="stroke:#000000;stroke-width:0.8;" x="483.59564" xlink:href="#mde05641403" y="390.2"/>
      </g>
     </g>
     <g id="text_24">
      <!-- 23 -->
      <g transform="translate(477.23314 404.798438)scale(0.1 -0.1)">
       <use xlink:href="#DejaVuSans-50"/>
       <use x="63.623047" xlink:href="#DejaVuSans-51"/>
      </g>
     </g>
    </g>
    <g id="xtick_25">
     <g id="line2d_25">
      <g>
       <use style="stroke:#000000;stroke-width:0.8;" x="502.549709" xlink:href="#mde05641403" y="390.2"/>
      </g>
     </g>
     <g id="text_25">
      <!-- 24 -->
      <g transform="translate(496.187209 404.798438)scale(0.1 -0.1)">
       <use xlink:href="#DejaVuSans-50"/>
       <use x="63.623047" xlink:href="#DejaVuSans-52"/>
      </g>
     </g>
    </g>
    <g id="xtick_26">
     <g id="line2d_26">
      <g>
       <use style="stroke:#000000;stroke-width:0.8;" x="521.503779" xlink:href="#mde05641403" y="390.2"/>
      </g>
     </g>
     <g id="text_26">
      <!-- 25 -->
      <g transform="translate(515.141279 404.798438)scale(0.1 -0.1)">
       <use xlink:href="#DejaVuSans-50"/>
       <use x="63.623047" xlink:href="#DejaVuSans-53"/>
      </g>
     </g>
    </g>
    <g id="xtick_27">
     <g id="line2d_27">
      <g>
       <use style="stroke:#000000;stroke-width:0.8;" x="540.457849" xlink:href="#mde05641403" y="390.2"/>
      </g>
     </g>
     <g id="text_27">
      <!-- 26 -->
      <g transform="translate(534.095349 404.798438)scale(0.1 -0.1)">
       <use xlink:href="#DejaVuSans-50"/>
       <use x="63.623047" xlink:href="#DejaVuSans-54"/>
      </g>
     </g>
    </g>
    <g id="xtick_28">
     <g id="line2d_28">
      <g>
       <use style="stroke:#000000;stroke-width:0.8;" x="559.411919" xlink:href="#mde05641403" y="390.2"/>
      </g>
     </g>
     <g id="text_28">
      <!-- 27 -->
      <g transform="translate(553.049419 404.798438)scale(0.1 -0.1)">
       <use xlink:href="#DejaVuSans-50"/>
       <use x="63.623047" xlink:href="#DejaVuSans-55"/>
      </g>
     </g>
    </g>
    <g id="xtick_29">
     <g id="line2d_29">
      <g>
       <use style="stroke:#000000;stroke-width:0.8;" x="578.365988" xlink:href="#mde05641403" y="390.2"/>
      </g>
     </g>
     <g id="text_29">
      <!-- 28 -->
      <g transform="translate(572.003488 404.798438)scale(0.1 -0.1)">
       <use xlink:href="#DejaVuSans-50"/>
       <use x="63.623047" xlink:href="#DejaVuSans-56"/>
      </g>
     </g>
    </g>
    <g id="xtick_30">
     <g id="line2d_30">
      <g>
       <use style="stroke:#000000;stroke-width:0.8;" x="597.320058" xlink:href="#mde05641403" y="390.2"/>
      </g>
     </g>
     <g id="text_30">
      <!-- 29 -->
      <g transform="translate(590.957558 404.798438)scale(0.1 -0.1)">
       <use xlink:href="#DejaVuSans-50"/>
       <use x="63.623047" xlink:href="#DejaVuSans-57"/>
      </g>
     </g>
    </g>
    <g id="xtick_31">
     <g id="line2d_31">
      <g>
       <use style="stroke:#000000;stroke-width:0.8;" x="616.274128" xlink:href="#mde05641403" y="390.2"/>
      </g>
     </g>
     <g id="text_31">
      <!-- 30 -->
      <g transform="translate(609.911628 404.798438)scale(0.1 -0.1)">
       <use xlink:href="#DejaVuSans-51"/>
       <use x="63.623047" xlink:href="#DejaVuSans-48"/>
      </g>
     </g>
    </g>
    <g id="xtick_32">
     <g id="line2d_32">
      <g>
       <use style="stroke:#000000;stroke-width:0.8;" x="635.228198" xlink:href="#mde05641403" y="390.2"/>
      </g>
     </g>
     <g id="text_32">
      <!-- 31 -->
      <g transform="translate(628.865698 404.798438)scale(0.1 -0.1)">
       <use xlink:href="#DejaVuSans-51"/>
       <use x="63.623047" xlink:href="#DejaVuSans-49"/>
      </g>
     </g>
    </g>
    <g id="xtick_33">
     <g id="line2d_33">
      <g>
       <use style="stroke:#000000;stroke-width:0.8;" x="654.182267" xlink:href="#mde05641403" y="390.2"/>
      </g>
     </g>
     <g id="text_33">
      <!-- 32 -->
      <g transform="translate(647.819767 404.798438)scale(0.1 -0.1)">
       <use xlink:href="#DejaVuSans-51"/>
       <use x="63.623047" xlink:href="#DejaVuSans-50"/>
      </g>
     </g>
    </g>
    <g id="xtick_34">
     <g id="line2d_34">
      <g>
       <use style="stroke:#000000;stroke-width:0.8;" x="673.136337" xlink:href="#mde05641403" y="390.2"/>
      </g>
     </g>
     <g id="text_34">
      <!-- 33 -->
      <g transform="translate(666.773837 404.798438)scale(0.1 -0.1)">
       <use xlink:href="#DejaVuSans-51"/>
       <use x="63.623047" xlink:href="#DejaVuSans-51"/>
      </g>
     </g>
    </g>
    <g id="xtick_35">
     <g id="line2d_35">
      <g>
       <use style="stroke:#000000;stroke-width:0.8;" x="692.090407" xlink:href="#mde05641403" y="390.2"/>
      </g>
     </g>
     <g id="text_35">
      <!-- 34 -->
      <g transform="translate(685.727907 404.798438)scale(0.1 -0.1)">
       <use xlink:href="#DejaVuSans-51"/>
       <use x="63.623047" xlink:href="#DejaVuSans-52"/>
      </g>
     </g>
    </g>
    <g id="xtick_36">
     <g id="line2d_36">
      <g>
       <use style="stroke:#000000;stroke-width:0.8;" x="711.044477" xlink:href="#mde05641403" y="390.2"/>
      </g>
     </g>
     <g id="text_36">
      <!-- 35 -->
      <g transform="translate(704.681977 404.798438)scale(0.1 -0.1)">
       <use xlink:href="#DejaVuSans-51"/>
       <use x="63.623047" xlink:href="#DejaVuSans-53"/>
      </g>
     </g>
    </g>
    <g id="xtick_37">
     <g id="line2d_37">
      <g>
       <use style="stroke:#000000;stroke-width:0.8;" x="729.998547" xlink:href="#mde05641403" y="390.2"/>
      </g>
     </g>
     <g id="text_37">
      <!-- 36 -->
      <g transform="translate(723.636047 404.798438)scale(0.1 -0.1)">
       <use xlink:href="#DejaVuSans-51"/>
       <use x="63.623047" xlink:href="#DejaVuSans-54"/>
      </g>
     </g>
    </g>
    <g id="xtick_38">
     <g id="line2d_38">
      <g>
       <use style="stroke:#000000;stroke-width:0.8;" x="748.952616" xlink:href="#mde05641403" y="390.2"/>
      </g>
     </g>
     <g id="text_38">
      <!-- 37 -->
      <g transform="translate(742.590116 404.798438)scale(0.1 -0.1)">
       <use xlink:href="#DejaVuSans-51"/>
       <use x="63.623047" xlink:href="#DejaVuSans-55"/>
      </g>
     </g>
    </g>
    <g id="xtick_39">
     <g id="line2d_39">
      <g>
       <use style="stroke:#000000;stroke-width:0.8;" x="767.906686" xlink:href="#mde05641403" y="390.2"/>
      </g>
     </g>
     <g id="text_39">
      <!-- 38 -->
      <g transform="translate(761.544186 404.798438)scale(0.1 -0.1)">
       <use xlink:href="#DejaVuSans-51"/>
       <use x="63.623047" xlink:href="#DejaVuSans-56"/>
      </g>
     </g>
    </g>
    <g id="xtick_40">
     <g id="line2d_40">
      <g>
       <use style="stroke:#000000;stroke-width:0.8;" x="786.860756" xlink:href="#mde05641403" y="390.2"/>
      </g>
     </g>
     <g id="text_40">
      <!-- 39 -->
      <g transform="translate(780.498256 404.798438)scale(0.1 -0.1)">
       <use xlink:href="#DejaVuSans-51"/>
       <use x="63.623047" xlink:href="#DejaVuSans-57"/>
      </g>
     </g>
    </g>
    <g id="xtick_41">
     <g id="line2d_41">
      <g>
       <use style="stroke:#000000;stroke-width:0.8;" x="805.814826" xlink:href="#mde05641403" y="390.2"/>
      </g>
     </g>
     <g id="text_41">
      <!-- 40 -->
      <g transform="translate(799.452326 404.798438)scale(0.1 -0.1)">
       <use xlink:href="#DejaVuSans-52"/>
       <use x="63.623047" xlink:href="#DejaVuSans-48"/>
      </g>
     </g>
    </g>
    <g id="xtick_42">
     <g id="line2d_42">
      <g>
       <use style="stroke:#000000;stroke-width:0.8;" x="824.768895" xlink:href="#mde05641403" y="390.2"/>
      </g>
     </g>
     <g id="text_42">
      <!-- 41 -->
      <g transform="translate(818.406395 404.798438)scale(0.1 -0.1)">
       <use xlink:href="#DejaVuSans-52"/>
       <use x="63.623047" xlink:href="#DejaVuSans-49"/>
      </g>
     </g>
    </g>
    <g id="xtick_43">
     <g id="line2d_43">
      <g>
       <use style="stroke:#000000;stroke-width:0.8;" x="843.722965" xlink:href="#mde05641403" y="390.2"/>
      </g>
     </g>
     <g id="text_43">
      <!-- 42 -->
      <g transform="translate(837.360465 404.798438)scale(0.1 -0.1)">
       <use xlink:href="#DejaVuSans-52"/>
       <use x="63.623047" xlink:href="#DejaVuSans-50"/>
      </g>
     </g>
    </g>
    <g id="text_44">
     <!-- BytesLog2 -->
     <g transform="translate(419.542969 418.476562)scale(0.1 -0.1)">
      <defs>
       <path d="M 19.671875 34.8125 
L 19.671875 8.109375 
L 35.5 8.109375 
Q 43.453125 8.109375 47.28125 11.40625 
Q 51.125 14.703125 51.125 21.484375 
Q 51.125 28.328125 47.28125 31.5625 
Q 43.453125 34.8125 35.5 34.8125 
z
M 19.671875 64.796875 
L 19.671875 42.828125 
L 34.28125 42.828125 
Q 41.5 42.828125 45.03125 45.53125 
Q 48.578125 48.25 48.578125 53.8125 
Q 48.578125 59.328125 45.03125 62.0625 
Q 41.5 64.796875 34.28125 64.796875 
z
M 9.8125 72.90625 
L 35.015625 72.90625 
Q 46.296875 72.90625 52.390625 68.21875 
Q 58.5 63.53125 58.5 54.890625 
Q 58.5 48.1875 55.375 44.234375 
Q 52.25 40.28125 46.1875 39.3125 
Q 53.46875 37.75 57.5 32.78125 
Q 61.53125 27.828125 61.53125 20.40625 
Q 61.53125 10.640625 54.890625 5.3125 
Q 48.25 0 35.984375 0 
L 9.8125 0 
z
" id="DejaVuSans-66"/>
       <path d="M 32.171875 -5.078125 
Q 28.375 -14.84375 24.75 -17.8125 
Q 21.140625 -20.796875 15.09375 -20.796875 
L 7.90625 -20.796875 
L 7.90625 -13.28125 
L 13.1875 -13.28125 
Q 16.890625 -13.28125 18.9375 -11.515625 
Q 21 -9.765625 23.484375 -3.21875 
L 25.09375 0.875 
L 2.984375 54.6875 
L 12.5 54.6875 
L 29.59375 11.921875 
L 46.6875 54.6875 
L 56.203125 54.6875 
z
" id="DejaVuSans-121"/>
       <path d="M 18.3125 70.21875 
L 18.3125 54.6875 
L 36.8125 54.6875 
L 36.8125 47.703125 
L 18.3125 47.703125 
L 18.3125 18.015625 
Q 18.3125 11.328125 20.140625 9.421875 
Q 21.96875 7.515625 27.59375 7.515625 
L 36.8125 7.515625 
L 36.8125 0 
L 27.59375 0 
Q 17.1875 0 13.234375 3.875 
Q 9.28125 7.765625 9.28125 18.015625 
L 9.28125 47.703125 
L 2.6875 47.703125 
L 2.6875 54.6875 
L 9.28125 54.6875 
L 9.28125 70.21875 
z
" id="DejaVuSans-116"/>
       <path d="M 56.203125 29.59375 
L 56.203125 25.203125 
L 14.890625 25.203125 
Q 15.484375 15.921875 20.484375 11.0625 
Q 25.484375 6.203125 34.421875 6.203125 
Q 39.59375 6.203125 44.453125 7.46875 
Q 49.3125 8.734375 54.109375 11.28125 
L 54.109375 2.78125 
Q 49.265625 0.734375 44.1875 -0.34375 
Q 39.109375 -1.421875 33.890625 -1.421875 
Q 20.796875 -1.421875 13.15625 6.1875 
Q 5.515625 13.8125 5.515625 26.8125 
Q 5.515625 40.234375 12.765625 48.109375 
Q 20.015625 56 32.328125 56 
Q 43.359375 56 49.78125 48.890625 
Q 56.203125 41.796875 56.203125 29.59375 
z
M 47.21875 32.234375 
Q 47.125 39.59375 43.09375 43.984375 
Q 39.0625 48.390625 32.421875 48.390625 
Q 24.90625 48.390625 20.390625 44.140625 
Q 15.875 39.890625 15.1875 32.171875 
z
" id="DejaVuSans-101"/>
       <path d="M 44.28125 53.078125 
L 44.28125 44.578125 
Q 40.484375 46.53125 36.375 47.5 
Q 32.28125 48.484375 27.875 48.484375 
Q 21.1875 48.484375 17.84375 46.4375 
Q 14.5 44.390625 14.5 40.28125 
Q 14.5 37.15625 16.890625 35.375 
Q 19.28125 33.59375 26.515625 31.984375 
L 29.59375 31.296875 
Q 39.15625 29.25 43.1875 25.515625 
Q 47.21875 21.78125 47.21875 15.09375 
Q 47.21875 7.46875 41.1875 3.015625 
Q 35.15625 -1.421875 24.609375 -1.421875 
Q 20.21875 -1.421875 15.453125 -0.5625 
Q 10.6875 0.296875 5.421875 2 
L 5.421875 11.28125 
Q 10.40625 8.6875 15.234375 7.390625 
Q 20.0625 6.109375 24.8125 6.109375 
Q 31.15625 6.109375 34.5625 8.28125 
Q 37.984375 10.453125 37.984375 14.40625 
Q 37.984375 18.0625 35.515625 20.015625 
Q 33.0625 21.96875 24.703125 23.78125 
L 21.578125 24.515625 
Q 13.234375 26.265625 9.515625 29.90625 
Q 5.8125 33.546875 5.8125 39.890625 
Q 5.8125 47.609375 11.28125 51.796875 
Q 16.75 56 26.8125 56 
Q 31.78125 56 36.171875 55.265625 
Q 40.578125 54.546875 44.28125 53.078125 
z
" id="DejaVuSans-115"/>
       <path d="M 9.8125 72.90625 
L 19.671875 72.90625 
L 19.671875 8.296875 
L 55.171875 8.296875 
L 55.171875 0 
L 9.8125 0 
z
" id="DejaVuSans-76"/>
       <path d="M 30.609375 48.390625 
Q 23.390625 48.390625 19.1875 42.75 
Q 14.984375 37.109375 14.984375 27.296875 
Q 14.984375 17.484375 19.15625 11.84375 
Q 23.34375 6.203125 30.609375 6.203125 
Q 37.796875 6.203125 41.984375 11.859375 
Q 46.1875 17.53125 46.1875 27.296875 
Q 46.1875 37.015625 41.984375 42.703125 
Q 37.796875 48.390625 30.609375 48.390625 
z
M 30.609375 56 
Q 42.328125 56 49.015625 48.375 
Q 55.71875 40.765625 55.71875 27.296875 
Q 55.71875 13.875 49.015625 6.21875 
Q 42.328125 -1.421875 30.609375 -1.421875 
Q 18.84375 -1.421875 12.171875 6.21875 
Q 5.515625 13.875 5.515625 27.296875 
Q 5.515625 40.765625 12.171875 48.375 
Q 18.84375 56 30.609375 56 
z
" id="DejaVuSans-111"/>
       <path d="M 45.40625 27.984375 
Q 45.40625 37.75 41.375 43.109375 
Q 37.359375 48.484375 30.078125 48.484375 
Q 22.859375 48.484375 18.828125 43.109375 
Q 14.796875 37.75 14.796875 27.984375 
Q 14.796875 18.265625 18.828125 12.890625 
Q 22.859375 7.515625 30.078125 7.515625 
Q 37.359375 7.515625 41.375 12.890625 
Q 45.40625 18.265625 45.40625 27.984375 
z
M 54.390625 6.78125 
Q 54.390625 -7.171875 48.1875 -13.984375 
Q 42 -20.796875 29.203125 -20.796875 
Q 24.46875 -20.796875 20.265625 -20.09375 
Q 16.0625 -19.390625 12.109375 -17.921875 
L 12.109375 -9.1875 
Q 16.0625 -11.328125 19.921875 -12.34375 
Q 23.78125 -13.375 27.78125 -13.375 
Q 36.625 -13.375 41.015625 -8.765625 
Q 45.40625 -4.15625 45.40625 5.171875 
L 45.40625 9.625 
Q 42.625 4.78125 38.28125 2.390625 
Q 33.9375 0 27.875 0 
Q 17.828125 0 11.671875 7.65625 
Q 5.515625 15.328125 5.515625 27.984375 
Q 5.515625 40.671875 11.671875 48.328125 
Q 17.828125 56 27.875 56 
Q 33.9375 56 38.28125 53.609375 
Q 42.625 51.21875 45.40625 46.390625 
L 45.40625 54.6875 
L 54.390625 54.6875 
z
" id="DejaVuSans-103"/>
      </defs>
      <use xlink:href="#DejaVuSans-66"/>
      <use x="68.603516" xlink:href="#DejaVuSans-121"/>
      <use x="127.783203" xlink:href="#DejaVuSans-116"/>
      <use x="166.992188" xlink:href="#DejaVuSans-101"/>
      <use x="228.515625" xlink:href="#DejaVuSans-115"/>
      <use x="280.615234" xlink:href="#DejaVuSans-76"/>
      <use x="334.578125" xlink:href="#DejaVuSans-111"/>
      <use x="395.759766" xlink:href="#DejaVuSans-103"/>
      <use x="459.236328" xlink:href="#DejaVuSans-50"/>
     </g>
    </g>
   </g>
   <g id="matplotlib.axis_2">
    <g id="ytick_1">
     <g id="line2d_44">
      <defs>
       <path d="M 0 0 
L -3.5 0 
" id="md49dd80174" style="stroke:#000000;stroke-width:0.8;"/>
      </defs>
      <g>
       <use style="stroke:#000000;stroke-width:0.8;" x="38.175" xlink:href="#md49dd80174" y="390.2"/>
      </g>
     </g>
     <g id="text_45">
      <!-- 0 -->
      <g transform="translate(24.8125 393.999219)scale(0.1 -0.1)">
       <use xlink:href="#DejaVuSans-48"/>
      </g>
     </g>
    </g>
    <g id="ytick_2">
     <g id="line2d_45">
      <g>
       <use style="stroke:#000000;stroke-width:0.8;" x="38.175" xlink:href="#md49dd80174" y="328.896943"/>
      </g>
     </g>
     <g id="text_46">
      <!-- 1 -->
      <g transform="translate(24.8125 332.696161)scale(0.1 -0.1)">
       <use xlink:href="#DejaVuSans-49"/>
      </g>
     </g>
    </g>
    <g id="ytick_3">
     <g id="line2d_46">
      <g>
       <use style="stroke:#000000;stroke-width:0.8;" x="38.175" xlink:href="#md49dd80174" y="267.593885"/>
      </g>
     </g>
     <g id="text_47">
      <!-- 2 -->
      <g transform="translate(24.8125 271.393104)scale(0.1 -0.1)">
       <use xlink:href="#DejaVuSans-50"/>
      </g>
     </g>
    </g>
    <g id="ytick_4">
     <g id="line2d_47">
      <g>
       <use style="stroke:#000000;stroke-width:0.8;" x="38.175" xlink:href="#md49dd80174" y="206.290828"/>
      </g>
     </g>
     <g id="text_48">
      <!-- 3 -->
      <g transform="translate(24.8125 210.090047)scale(0.1 -0.1)">
       <use xlink:href="#DejaVuSans-51"/>
      </g>
     </g>
    </g>
    <g id="ytick_5">
     <g id="line2d_48">
      <g>
       <use style="stroke:#000000;stroke-width:0.8;" x="38.175" xlink:href="#md49dd80174" y="144.98777"/>
      </g>
     </g>
     <g id="text_49">
      <!-- 4 -->
      <g transform="translate(24.8125 148.786989)scale(0.1 -0.1)">
       <use xlink:href="#DejaVuSans-52"/>
      </g>
     </g>
    </g>
    <g id="ytick_6">
     <g id="line2d_49">
      <g>
       <use style="stroke:#000000;stroke-width:0.8;" x="38.175" xlink:href="#md49dd80174" y="83.684713"/>
      </g>
     </g>
     <g id="text_50">
      <!-- 5 -->
      <g transform="translate(24.8125 87.483932)scale(0.1 -0.1)">
       <use xlink:href="#DejaVuSans-53"/>
      </g>
     </g>
    </g>
    <g id="text_51">
     <!-- Files -->
     <g transform="translate(18.732813 219.472656)rotate(-90)scale(0.1 -0.1)">
      <defs>
       <path d="M 9.8125 72.90625 
L 51.703125 72.90625 
L 51.703125 64.59375 
L 19.671875 64.59375 
L 19.671875 43.109375 
L 48.578125 43.109375 
L 48.578125 34.8125 
L 19.671875 34.8125 
L 19.671875 0 
L 9.8125 0 
z
" id="DejaVuSans-70"/>
       <path d="M 9.421875 54.6875 
L 18.40625 54.6875 
L 18.40625 0 
L 9.421875 0 
z
M 9.421875 75.984375 
L 18.40625 75.984375 
L 18.40625 64.59375 
L 9.421875 64.59375 
z
" id="DejaVuSans-105"/>
       <path d="M 9.421875 75.984375 
L 18.40625 75.984375 
L 18.40625 0 
L 9.421875 0 
z
" id="DejaVuSans-108"/>
      </defs>
      <use xlink:href="#DejaVuSans-70"/>
      <use x="50.269531" xlink:href="#DejaVuSans-105"/>
      <use x="78.052734" xlink:href="#DejaVuSans-108"/>
      <use x="105.835938" xlink:href="#DejaVuSans-101"/>
      <use x="167.359375" xlink:href="#DejaVuSans-115"/>
     </g>
    </g>
    <g id="text_52">
     <!-- 1e6 -->
     <g transform="translate(38.175 23.8)scale(0.1 -0.1)">
      <use xlink:href="#DejaVuSans-49"/>
      <use x="63.623047" xlink:href="#DejaVuSans-101"/>
      <use x="125.146484" xlink:href="#DejaVuSans-54"/>
     </g>
    </g>
   </g>
   <g id="patch_46">
    <path d="M 38.175 390.2 
L 38.175 26.8 
" style="fill:none;stroke:#000000;stroke-linecap:square;stroke-linejoin:miter;stroke-width:0.8;"/>
   </g>
   <g id="patch_47">
    <path d="M 853.2 390.2 
L 853.2 26.8 
" style="fill:none;stroke:#000000;stroke-linecap:square;stroke-linejoin:miter;stroke-width:0.8;"/>
   </g>
   <g id="patch_48">
    <path d="M 38.175 390.2 
L 853.2 390.2 
" style="fill:none;stroke:#000000;stroke-linecap:square;stroke-linejoin:miter;stroke-width:0.8;"/>
   </g>
   <g id="patch_49">
    <path d="M 38.175 26.8 
L 853.2 26.8 
" style="fill:none;stroke:#000000;stroke-linecap:square;stroke-linejoin:miter;stroke-width:0.8;"/>
   </g>
   <g id="text_53">
    <!-- 2020 -->
    <g transform="translate(430.4175 20.8)scale(0.12 -0.12)">
     <use xlink:href="#DejaVuSans-50"/>
     <use x="63.623047" xlink:href="#DejaVuSans-48"/>
     <use x="127.246094" xlink:href="#DejaVuSans-50"/>
     <use x="190.869141" xlink:href="#DejaVuSans-48"/>
    </g>
   </g>
  </g>
 </g>
 <defs>
  <clipPath id="p82af7c9309">
   <rect height="363.4" width="815.025" x="38.175" y="26.8"/>
  </clipPath>
 </defs>
</svg>
