<?xml version="1.0" encoding="UTF-8"?><svg xmlns="http://www.w3.org/2000/svg" xmlns:xlink="http://www.w3.org/1999/xlink" fill-opacity="1" color-rendering="auto" color-interpolation="auto" text-rendering="auto" stroke="black" stroke-linecap="square" width="772" stroke-miterlimit="10" shape-rendering="auto" stroke-opacity="1" fill="black" stroke-dasharray="none" font-weight="normal" stroke-width="1" height="151" font-family="'Dialog'" font-style="normal" stroke-linejoin="miter" font-size="12px" stroke-dashoffset="0" image-rendering="auto">
  <!--Generated by ySVG 2.5-->
  <defs id="genericDefs"/>
  <g>
    <defs id="defs1">
      <clipPath clipPathUnits="userSpaceOnUse" id="clipPath1">
        <path d="M0 0 L772 0 L772 151 L0 151 L0 0 Z"/>
      </clipPath>
      <clipPath clipPathUnits="userSpaceOnUse" id="clipPath2">
        <path d="M587 276 L1359 276 L1359 427 L587 427 L587 276 Z"/>
      </clipPath>
    </defs>
    <g fill="white" text-rendering="geometricPrecision" shape-rendering="geometricPrecision" transform="translate(-587,-276)" stroke="white">
      <rect x="587" width="772" height="151" y="276" clip-path="url(#clipPath2)" stroke="none"/>
    </g>
    <g fill="rgb(255,153,204)" text-rendering="geometricPrecision" shape-rendering="geometricPrecision" transform="matrix(1,0,0,1,-587,-276)" stroke="rgb(255,153,204)">
      <path d="M1058 291.75 L1133.6 291.75 L1142 312.75 L1133.6 333.75 L1058 333.75 L1066.4 312.75 Z" fill-rule="evenodd" clip-path="url(#clipPath2)" stroke="none"/>
    </g>
    <g text-rendering="geometricPrecision" stroke-miterlimit="1.45" shape-rendering="geometricPrecision" transform="matrix(1,0,0,1,-587,-276)" stroke-linecap="butt">
      <path fill="none" d="M1058 291.75 L1133.6 291.75 L1142 312.75 L1133.6 333.75 L1058 333.75 L1066.4 312.75 Z" fill-rule="evenodd" clip-path="url(#clipPath2)"/>
      <text x="1076.7178" xml:space="preserve" y="316.9043" clip-path="url(#clipPath2)" font-family="sans-serif" stroke="none">P(d,p,v)</text>
    </g>
    <g fill="rgb(255,153,204)" text-rendering="geometricPrecision" shape-rendering="geometricPrecision" transform="matrix(1,0,0,1,-587,-276)" stroke="rgb(255,153,204)">
      <rect x="1150" width="42" height="42" y="291.75" clip-path="url(#clipPath2)" stroke="none"/>
    </g>
    <g text-rendering="geometricPrecision" stroke-miterlimit="1.45" shape-rendering="geometricPrecision" transform="matrix(1,0,0,1,-587,-276)" stroke-linecap="butt">
      <rect fill="none" x="1150" width="42" height="42" y="291.75" clip-path="url(#clipPath2)"/>
      <text x="1168.5332" xml:space="preserve" y="316.9043" clip-path="url(#clipPath2)" font-family="sans-serif" stroke="none">r</text>
    </g>
    <g fill="rgb(204,153,255)" text-rendering="geometricPrecision" shape-rendering="geometricPrecision" transform="matrix(1,0,0,1,-587,-276)" stroke="rgb(204,153,255)">
      <path d="M922 291.75 L995.8 291.75 L1004 312.75 L995.8 333.75 L922 333.75 L930.2 312.75 Z" fill-rule="evenodd" clip-path="url(#clipPath2)" stroke="none"/>
    </g>
    <g text-rendering="geometricPrecision" stroke-miterlimit="1.45" shape-rendering="geometricPrecision" transform="matrix(1,0,0,1,-587,-276)" stroke-linecap="butt">
      <path fill="none" d="M922 291.75 L995.8 291.75 L1004 312.75 L995.8 333.75 L922 333.75 L930.2 312.75 Z" fill-rule="evenodd" clip-path="url(#clipPath2)"/>
      <text x="950.9766" xml:space="preserve" y="316.9043" clip-path="url(#clipPath2)" font-family="sans-serif" stroke="none">E(x)</text>
    </g>
    <g fill="rgb(204,153,255)" text-rendering="geometricPrecision" shape-rendering="geometricPrecision" transform="matrix(1,0,0,1,-587,-276)" stroke="rgb(204,153,255)">
      <rect x="1010" width="42" height="42" y="291.75" clip-path="url(#clipPath2)" stroke="none"/>
    </g>
    <g text-rendering="geometricPrecision" stroke-miterlimit="1.45" shape-rendering="geometricPrecision" transform="matrix(1,0,0,1,-587,-276)" stroke-linecap="butt">
      <rect fill="none" x="1010" width="42" height="42" y="291.75" clip-path="url(#clipPath2)"/>
      <text x="1027.4492" xml:space="preserve" y="316.9043" clip-path="url(#clipPath2)" font-family="sans-serif" stroke="none">v</text>
    </g>
    <g fill="rgb(153,204,255)" text-rendering="geometricPrecision" shape-rendering="geometricPrecision" transform="matrix(1,0,0,1,-587,-276)" stroke="rgb(153,204,255)">
      <path d="M786 291.75 L859.8 291.75 L868 312.75 L859.8 333.75 L786 333.75 L794.2 312.75 Z" fill-rule="evenodd" clip-path="url(#clipPath2)" stroke="none"/>
    </g>
    <g text-rendering="geometricPrecision" stroke-miterlimit="1.45" shape-rendering="geometricPrecision" transform="matrix(1,0,0,1,-587,-276)" stroke-linecap="butt">
      <path fill="none" d="M786 291.75 L859.8 291.75 L868 312.75 L859.8 333.75 L786 333.75 L794.2 312.75 Z" fill-rule="evenodd" clip-path="url(#clipPath2)"/>
      <text x="813.333" xml:space="preserve" y="316.9043" clip-path="url(#clipPath2)" font-family="sans-serif" stroke="none">M(d)</text>
    </g>
    <g fill="rgb(153,204,255)" text-rendering="geometricPrecision" shape-rendering="geometricPrecision" transform="matrix(1,0,0,1,-587,-276)" stroke="rgb(153,204,255)">
      <rect x="874" width="42" height="42" y="291.75" clip-path="url(#clipPath2)" stroke="none"/>
    </g>
    <g text-rendering="geometricPrecision" stroke-miterlimit="1.45" shape-rendering="geometricPrecision" transform="matrix(1,0,0,1,-587,-276)" stroke-linecap="butt">
      <rect fill="none" x="874" width="42" height="42" y="291.75" clip-path="url(#clipPath2)"/>
      <text x="891.1914" xml:space="preserve" y="316.9043" clip-path="url(#clipPath2)" font-family="sans-serif" stroke="none">p</text>
    </g>
    <g fill="silver" text-rendering="geometricPrecision" shape-rendering="geometricPrecision" transform="matrix(1,0,0,1,-587,-276)" stroke="silver">
      <rect x="602" width="42" height="42" y="291.75" clip-path="url(#clipPath2)" stroke="none"/>
    </g>
    <g text-rendering="geometricPrecision" stroke-miterlimit="1.45" shape-rendering="geometricPrecision" transform="matrix(1,0,0,1,-587,-276)" stroke-linecap="butt">
      <rect fill="none" x="602" width="42" height="42" y="291.75" clip-path="url(#clipPath2)"/>
      <text x="605.1406" xml:space="preserve" y="316.9043" clip-path="url(#clipPath2)" font-family="sans-serif" stroke="none">d_raw</text>
    </g>
    <g fill="rgb(204,255,204)" text-rendering="geometricPrecision" shape-rendering="geometricPrecision" transform="matrix(1,0,0,1,-587,-276)" stroke="rgb(204,255,204)">
      <rect x="738" width="42" height="42" y="291.75" clip-path="url(#clipPath2)" stroke="none"/>
    </g>
    <g text-rendering="geometricPrecision" stroke-miterlimit="1.45" shape-rendering="geometricPrecision" transform="matrix(1,0,0,1,-587,-276)" stroke-linecap="butt">
      <rect fill="none" x="738" width="42" height="42" y="291.75" clip-path="url(#clipPath2)"/>
      <text x="755.1914" xml:space="preserve" y="316.9043" clip-path="url(#clipPath2)" font-family="sans-serif" stroke="none">d</text>
    </g>
    <g fill="rgb(204,255,204)" text-rendering="geometricPrecision" shape-rendering="geometricPrecision" transform="matrix(1,0,0,1,-587,-276)" stroke="rgb(204,255,204)">
      <path d="M650 291.75 L723.8 291.75 L732 312.75 L723.8 333.75 L650 333.75 L658.2 312.75 Z" fill-rule="evenodd" clip-path="url(#clipPath2)" stroke="none"/>
    </g>
    <g text-rendering="geometricPrecision" stroke-miterlimit="1.45" shape-rendering="geometricPrecision" transform="matrix(1,0,0,1,-587,-276)" stroke-linecap="butt">
      <path fill="none" d="M650 291.75 L723.8 291.75 L732 312.75 L723.8 333.75 L650 333.75 L658.2 312.75 Z" fill-rule="evenodd" clip-path="url(#clipPath2)"/>
      <text x="666.6895" xml:space="preserve" y="316.9043" clip-path="url(#clipPath2)" font-family="sans-serif" stroke="none">I(d_raw)</text>
    </g>
    <g fill="rgb(255,153,204)" text-rendering="geometricPrecision" shape-rendering="geometricPrecision" transform="matrix(1,0,0,1,-587,-276)" stroke="rgb(255,153,204)">
      <path d="M1163.5 369.75 L1325.5 369.75 L1343.5 390.75 L1325.5 411.75 L1163.5 411.75 L1181.5 390.75 Z" fill-rule="evenodd" clip-path="url(#clipPath2)" stroke="none"/>
    </g>
    <g text-rendering="geometricPrecision" stroke-miterlimit="1.45" shape-rendering="geometricPrecision" transform="matrix(1,0,0,1,-587,-276)" stroke-linecap="butt">
      <path fill="none" d="M1163.5 369.75 L1325.5 369.75 L1343.5 390.75 L1325.5 411.75 L1163.5 411.75 L1181.5 390.75 Z" fill-rule="evenodd" clip-path="url(#clipPath2)"/>
      <text x="1206.8594" xml:space="preserve" y="394.9043" clip-path="url(#clipPath2)" font-family="sans-serif" stroke="none">Writing a paper</text>
    </g>
    <g fill="rgb(204,153,255)" text-rendering="geometricPrecision" shape-rendering="geometricPrecision" transform="matrix(1,0,0,1,-587,-276)" stroke="rgb(204,153,255)">
      <path d="M983.5 369.75 L1145.5 369.75 L1163.5 390.75 L1145.5 411.75 L983.5 411.75 L1001.5 390.75 Z" fill-rule="evenodd" clip-path="url(#clipPath2)" stroke="none"/>
    </g>
    <g text-rendering="geometricPrecision" stroke-miterlimit="1.45" shape-rendering="geometricPrecision" transform="matrix(1,0,0,1,-587,-276)" stroke-linecap="butt">
      <path fill="none" d="M983.5 369.75 L1145.5 369.75 L1163.5 390.75 L1145.5 411.75 L983.5 411.75 L1001.5 390.75 Z" fill-rule="evenodd" clip-path="url(#clipPath2)"/>
      <text x="1016.4209" xml:space="preserve" y="394.9043" clip-path="url(#clipPath2)" font-family="sans-serif" stroke="none">Pipeline evaluation</text>
    </g>
    <g fill="rgb(153,204,255)" text-rendering="geometricPrecision" shape-rendering="geometricPrecision" transform="matrix(1,0,0,1,-587,-276)" stroke="rgb(153,204,255)">
      <path d="M803.5 369.75 L965.5 369.75 L983.5 390.75 L965.5 411.75 L803.5 411.75 L821.5 390.75 Z" fill-rule="evenodd" clip-path="url(#clipPath2)" stroke="none"/>
    </g>
    <g text-rendering="geometricPrecision" stroke-miterlimit="1.45" shape-rendering="geometricPrecision" transform="matrix(1,0,0,1,-587,-276)" stroke-linecap="butt">
      <path fill="none" d="M803.5 369.75 L965.5 369.75 L983.5 390.75 L965.5 411.75 L803.5 411.75 L821.5 390.75 Z" fill-rule="evenodd" clip-path="url(#clipPath2)"/>
      <text x="830.667" xml:space="preserve" y="394.9043" clip-path="url(#clipPath2)" font-family="sans-serif" stroke="none">Pipeline construction</text>
    </g>
    <g fill="rgb(204,255,204)" text-rendering="geometricPrecision" shape-rendering="geometricPrecision" transform="matrix(1,0,0,1,-587,-276)" stroke="rgb(204,255,204)">
      <path d="M623.5 369.75 L785.5 369.75 L803.5 390.75 L785.5 411.75 L623.5 411.75 L641.5 390.75 Z" fill-rule="evenodd" clip-path="url(#clipPath2)" stroke="none"/>
    </g>
    <g text-rendering="geometricPrecision" stroke-miterlimit="1.45" shape-rendering="geometricPrecision" transform="matrix(1,0,0,1,-587,-276)" stroke-linecap="butt">
      <path fill="none" d="M623.5 369.75 L785.5 369.75 L803.5 390.75 L785.5 411.75 L623.5 411.75 L641.5 390.75 Z" fill-rule="evenodd" clip-path="url(#clipPath2)"/>
      <text x="668.4795" xml:space="preserve" y="394.9043" clip-path="url(#clipPath2)" font-family="sans-serif" stroke="none">Data collection</text>
      <path fill="none" d="M623 333.75 L893.3349 369.7485" clip-path="url(#clipPath2)"/>
      <path fill="none" d="M1171 333.75 L893.6694 369.7485" clip-path="url(#clipPath2)"/>
    </g>
  </g>
</svg>
