<?xml version="1.0" encoding="UTF-8"?><svg xmlns="http://www.w3.org/2000/svg" xmlns:xlink="http://www.w3.org/1999/xlink" fill-opacity="1" color-rendering="auto" color-interpolation="auto" text-rendering="auto" stroke="black" stroke-linecap="square" width="361" stroke-miterlimit="10" shape-rendering="auto" stroke-opacity="1" fill="black" stroke-dasharray="none" font-weight="normal" stroke-width="1" height="427" font-family="'Dialog'" font-style="normal" stroke-linejoin="miter" font-size="12px" stroke-dashoffset="0" image-rendering="auto">
  <!--Generated by ySVG 2.5-->
  <defs id="genericDefs"/>
  <g>
    <defs id="defs1">
      <clipPath clipPathUnits="userSpaceOnUse" id="clipPath1">
        <path d="M0 0 L361 0 L361 427 L0 427 L0 0 Z"/>
      </clipPath>
      <clipPath clipPathUnits="userSpaceOnUse" id="clipPath2">
        <path d="M92 59 L453 59 L453 486 L92 486 L92 59 Z"/>
      </clipPath>
    </defs>
    <g fill="white" text-rendering="geometricPrecision" shape-rendering="geometricPrecision" transform="translate(-92,-59)" stroke="white">
      <rect x="92" width="361" height="427" y="59" clip-path="url(#clipPath2)" stroke="none"/>
    </g>
    <g fill="rgb(153,204,255)" text-rendering="geometricPrecision" shape-rendering="geometricPrecision" transform="matrix(1,0,0,1,-92,-59)" stroke="rgb(153,204,255)">
      <rect x="107.5" width="150" height="150" y="104.5" clip-path="url(#clipPath2)" stroke="none"/>
    </g>
    <g text-rendering="geometricPrecision" stroke-miterlimit="1.45" shape-rendering="geometricPrecision" transform="matrix(1,0,0,1,-92,-59)" stroke-linecap="butt">
      <rect fill="none" x="107.5" width="150" height="150" y="104.5" clip-path="url(#clipPath2)"/>
      <text x="157.7295" xml:space="preserve" y="89.1543" clip-path="url(#clipPath2)" font-family="sans-serif" stroke="none">Core #1</text>
    </g>
    <g fill="rgb(153,204,255)" text-rendering="geometricPrecision" shape-rendering="geometricPrecision" transform="matrix(1,0,0,1,-92,-59)" stroke="rgb(153,204,255)">
      <rect x="287.5" width="150" height="150" y="104.5" clip-path="url(#clipPath2)" stroke="none"/>
    </g>
    <g text-rendering="geometricPrecision" stroke-miterlimit="1.45" shape-rendering="geometricPrecision" transform="matrix(1,0,0,1,-92,-59)" stroke-linecap="butt">
      <rect fill="none" x="287.5" width="150" height="150" y="104.5" clip-path="url(#clipPath2)"/>
      <text x="337.7295" xml:space="preserve" y="87.1543" clip-path="url(#clipPath2)" font-family="sans-serif" stroke="none">Core #2</text>
    </g>
    <g fill="rgb(153,204,255)" text-rendering="geometricPrecision" shape-rendering="geometricPrecision" transform="matrix(1,0,0,1,-92,-59)" stroke="rgb(153,204,255)">
      <rect x="107.5" width="150" height="150" y="284.5" clip-path="url(#clipPath2)" stroke="none"/>
    </g>
    <g text-rendering="geometricPrecision" stroke-miterlimit="1.45" shape-rendering="geometricPrecision" transform="matrix(1,0,0,1,-92,-59)" stroke-linecap="butt">
      <rect fill="none" x="107.5" width="150" height="150" y="284.5" clip-path="url(#clipPath2)"/>
      <text x="157.7295" xml:space="preserve" y="466.1543" clip-path="url(#clipPath2)" font-family="sans-serif" stroke="none">Core #3</text>
    </g>
    <g fill="rgb(153,204,255)" text-rendering="geometricPrecision" shape-rendering="geometricPrecision" transform="matrix(1,0,0,1,-92,-59)" stroke="rgb(153,204,255)">
      <rect x="287.5" width="150" height="150" y="284.5" clip-path="url(#clipPath2)" stroke="none"/>
    </g>
    <g text-rendering="geometricPrecision" stroke-miterlimit="1.45" shape-rendering="geometricPrecision" transform="matrix(1,0,0,1,-92,-59)" stroke-linecap="butt">
      <rect fill="none" x="287.5" width="150" height="150" y="284.5" clip-path="url(#clipPath2)"/>
      <text x="337.7295" xml:space="preserve" y="466.1543" clip-path="url(#clipPath2)" font-family="sans-serif" stroke="none">Core #4</text>
    </g>
    <g fill="rgb(204,255,204)" text-rendering="geometricPrecision" shape-rendering="geometricPrecision" transform="matrix(1,0,0,1,-92,-59)" stroke="rgb(204,255,204)">
      <rect x="118" width="125" height="52" y="119" clip-path="url(#clipPath2)" stroke="none"/>
    </g>
    <g text-rendering="geometricPrecision" stroke-miterlimit="1.45" shape-rendering="geometricPrecision" transform="matrix(1,0,0,1,-92,-59)" stroke-linecap="butt">
      <rect fill="none" x="118" width="125" height="52" y="119" clip-path="url(#clipPath2)"/>
      <text x="148.6367" xml:space="preserve" y="149.1543" clip-path="url(#clipPath2)" font-family="sans-serif" stroke="none">Thread #1</text>
    </g>
    <g fill="rgb(204,255,204)" text-rendering="geometricPrecision" shape-rendering="geometricPrecision" transform="matrix(1,0,0,1,-92,-59)" stroke="rgb(204,255,204)">
      <rect x="118" width="125" height="52" y="189" clip-path="url(#clipPath2)" stroke="none"/>
    </g>
    <g text-rendering="geometricPrecision" stroke-miterlimit="1.45" shape-rendering="geometricPrecision" transform="matrix(1,0,0,1,-92,-59)" stroke-linecap="butt">
      <rect fill="none" x="118" width="125" height="52" y="189" clip-path="url(#clipPath2)"/>
      <text x="148.6367" xml:space="preserve" y="219.1543" clip-path="url(#clipPath2)" font-family="sans-serif" stroke="none">Thread #2</text>
    </g>
    <g fill="rgb(204,255,204)" text-rendering="geometricPrecision" shape-rendering="geometricPrecision" transform="matrix(1,0,0,1,-92,-59)" stroke="rgb(204,255,204)">
      <rect x="300" width="125" height="52" y="120" clip-path="url(#clipPath2)" stroke="none"/>
    </g>
    <g text-rendering="geometricPrecision" stroke-miterlimit="1.45" shape-rendering="geometricPrecision" transform="matrix(1,0,0,1,-92,-59)" stroke-linecap="butt">
      <rect fill="none" x="300" width="125" height="52" y="120" clip-path="url(#clipPath2)"/>
      <text x="330.6367" xml:space="preserve" y="150.1543" clip-path="url(#clipPath2)" font-family="sans-serif" stroke="none">Thread #3</text>
    </g>
    <g fill="rgb(204,255,204)" text-rendering="geometricPrecision" shape-rendering="geometricPrecision" transform="matrix(1,0,0,1,-92,-59)" stroke="rgb(204,255,204)">
      <rect x="300" width="125" height="52" y="189" clip-path="url(#clipPath2)" stroke="none"/>
    </g>
    <g text-rendering="geometricPrecision" stroke-miterlimit="1.45" shape-rendering="geometricPrecision" transform="matrix(1,0,0,1,-92,-59)" stroke-linecap="butt">
      <rect fill="none" x="300" width="125" height="52" y="189" clip-path="url(#clipPath2)"/>
      <text x="330.6367" xml:space="preserve" y="219.1543" clip-path="url(#clipPath2)" font-family="sans-serif" stroke="none">Thread #4</text>
    </g>
    <g fill="rgb(204,255,204)" text-rendering="geometricPrecision" shape-rendering="geometricPrecision" transform="matrix(1,0,0,1,-92,-59)" stroke="rgb(204,255,204)">
      <rect x="120" width="125" height="52" y="296" clip-path="url(#clipPath2)" stroke="none"/>
    </g>
    <g text-rendering="geometricPrecision" stroke-miterlimit="1.45" shape-rendering="geometricPrecision" transform="matrix(1,0,0,1,-92,-59)" stroke-linecap="butt">
      <rect fill="none" x="120" width="125" height="52" y="296" clip-path="url(#clipPath2)"/>
      <text x="150.6367" xml:space="preserve" y="326.1543" clip-path="url(#clipPath2)" font-family="sans-serif" stroke="none">Thread #5</text>
    </g>
    <g fill="rgb(204,255,204)" text-rendering="geometricPrecision" shape-rendering="geometricPrecision" transform="matrix(1,0,0,1,-92,-59)" stroke="rgb(204,255,204)">
      <rect x="120" width="125" height="52" y="369" clip-path="url(#clipPath2)" stroke="none"/>
    </g>
    <g text-rendering="geometricPrecision" stroke-miterlimit="1.45" shape-rendering="geometricPrecision" transform="matrix(1,0,0,1,-92,-59)" stroke-linecap="butt">
      <rect fill="none" x="120" width="125" height="52" y="369" clip-path="url(#clipPath2)"/>
      <text x="150.6367" xml:space="preserve" y="399.1543" clip-path="url(#clipPath2)" font-family="sans-serif" stroke="none">Thread #6</text>
    </g>
    <g fill="rgb(204,255,204)" text-rendering="geometricPrecision" shape-rendering="geometricPrecision" transform="matrix(1,0,0,1,-92,-59)" stroke="rgb(204,255,204)">
      <rect x="300" width="125" height="52" y="296" clip-path="url(#clipPath2)" stroke="none"/>
    </g>
    <g text-rendering="geometricPrecision" stroke-miterlimit="1.45" shape-rendering="geometricPrecision" transform="matrix(1,0,0,1,-92,-59)" stroke-linecap="butt">
      <rect fill="none" x="300" width="125" height="52" y="296" clip-path="url(#clipPath2)"/>
      <text x="330.6367" xml:space="preserve" y="326.1543" clip-path="url(#clipPath2)" font-family="sans-serif" stroke="none">Thread #7</text>
    </g>
    <g fill="rgb(204,255,204)" text-rendering="geometricPrecision" shape-rendering="geometricPrecision" transform="matrix(1,0,0,1,-92,-59)" stroke="rgb(204,255,204)">
      <rect x="300" width="125" height="52" y="370" clip-path="url(#clipPath2)" stroke="none"/>
    </g>
    <g text-rendering="geometricPrecision" stroke-miterlimit="1.45" shape-rendering="geometricPrecision" transform="matrix(1,0,0,1,-92,-59)" stroke-linecap="butt">
      <rect fill="none" x="300" width="125" height="52" y="370" clip-path="url(#clipPath2)"/>
      <text x="330.6367" xml:space="preserve" y="400.1543" clip-path="url(#clipPath2)" font-family="sans-serif" stroke="none">Thread #8</text>
    </g>
  </g>
</svg>
