<?xml version="1.0" encoding="UTF-8"?><svg xmlns="http://www.w3.org/2000/svg" xmlns:xlink="http://www.w3.org/1999/xlink" fill-opacity="1" color-rendering="auto" color-interpolation="auto" text-rendering="auto" stroke="black" stroke-linecap="square" width="1202" stroke-miterlimit="10" shape-rendering="auto" stroke-opacity="1" fill="black" stroke-dasharray="none" font-weight="normal" stroke-width="1" height="657" font-family="'Dialog'" font-style="normal" stroke-linejoin="miter" font-size="12px" stroke-dashoffset="0" image-rendering="auto">
  <!--Generated by ySVG 2.5-->
  <defs id="genericDefs"/>
  <g>
    <defs id="defs1">
      <clipPath clipPathUnits="userSpaceOnUse" id="clipPath1">
        <path d="M0 0 L1202 0 L1202 657 L0 657 L0 0 Z"/>
      </clipPath>
      <clipPath clipPathUnits="userSpaceOnUse" id="clipPath2">
        <path d="M213 -16 L1415 -16 L1415 641 L213 641 L213 -16 Z"/>
      </clipPath>
    </defs>
    <g fill="white" text-rendering="geometricPrecision" shape-rendering="geometricPrecision" transform="translate(-213,16)" stroke="white">
      <rect x="213" width="1202" height="657" y="-16" clip-path="url(#clipPath2)" stroke="none"/>
    </g>
    <g fill="rgb(255,153,204)" text-rendering="geometricPrecision" shape-rendering="geometricPrecision" transform="matrix(1,0,0,1,-213,16)" stroke="rgb(255,153,204)">
      <path d="M1157 333 L1232.6 333 L1241 354 L1232.6 375 L1157 375 L1165.4 354 Z" fill-rule="evenodd" clip-path="url(#clipPath2)" stroke="none"/>
    </g>
    <g text-rendering="geometricPrecision" stroke-miterlimit="1.45" shape-rendering="geometricPrecision" transform="matrix(1,0,0,1,-213,16)" stroke-linecap="butt">
      <path fill="none" d="M1157 333 L1232.6 333 L1241 354 L1232.6 375 L1157 375 L1165.4 354 Z" fill-rule="evenodd" clip-path="url(#clipPath2)"/>
      <text x="1175.7178" xml:space="preserve" y="358.1543" clip-path="url(#clipPath2)" font-family="sans-serif" stroke="none">P(d,p,v)</text>
    </g>
    <g fill="rgb(255,153,204)" text-rendering="geometricPrecision" shape-rendering="geometricPrecision" transform="matrix(1,0,0,1,-213,16)" stroke="rgb(255,153,204)">
      <rect x="1249" width="42" height="42" y="333" clip-path="url(#clipPath2)" stroke="none"/>
    </g>
    <g text-rendering="geometricPrecision" stroke-miterlimit="1.45" shape-rendering="geometricPrecision" transform="matrix(1,0,0,1,-213,16)" stroke-linecap="butt">
      <rect fill="none" x="1249" width="42" height="42" y="333" clip-path="url(#clipPath2)"/>
      <text x="1267.5332" xml:space="preserve" y="358.1543" clip-path="url(#clipPath2)" font-family="sans-serif" stroke="none">r</text>
    </g>
    <g fill="rgb(204,153,255)" text-rendering="geometricPrecision" shape-rendering="geometricPrecision" transform="matrix(1,0,0,1,-213,16)" stroke="rgb(204,153,255)">
      <path d="M1021 333 L1094.8 333 L1103 354 L1094.8 375 L1021 375 L1029.2 354 Z" fill-rule="evenodd" clip-path="url(#clipPath2)" stroke="none"/>
    </g>
    <g text-rendering="geometricPrecision" stroke-miterlimit="1.45" shape-rendering="geometricPrecision" transform="matrix(1,0,0,1,-213,16)" stroke-linecap="butt">
      <path fill="none" d="M1021 333 L1094.8 333 L1103 354 L1094.8 375 L1021 375 L1029.2 354 Z" fill-rule="evenodd" clip-path="url(#clipPath2)"/>
      <text x="1049.9766" xml:space="preserve" y="358.1543" clip-path="url(#clipPath2)" font-family="sans-serif" stroke="none">E(x)</text>
    </g>
    <g fill="rgb(204,153,255)" text-rendering="geometricPrecision" shape-rendering="geometricPrecision" transform="matrix(1,0,0,1,-213,16)" stroke="rgb(204,153,255)">
      <rect x="1109" width="42" height="42" y="333" clip-path="url(#clipPath2)" stroke="none"/>
    </g>
    <g text-rendering="geometricPrecision" stroke-miterlimit="1.45" shape-rendering="geometricPrecision" transform="matrix(1,0,0,1,-213,16)" stroke-linecap="butt">
      <rect fill="none" x="1109" width="42" height="42" y="333" clip-path="url(#clipPath2)"/>
      <text x="1126.4492" xml:space="preserve" y="358.1543" clip-path="url(#clipPath2)" font-family="sans-serif" stroke="none">v</text>
    </g>
    <g fill="rgb(153,204,255)" text-rendering="geometricPrecision" shape-rendering="geometricPrecision" transform="matrix(1,0,0,1,-213,16)" stroke="rgb(153,204,255)">
      <path d="M885 333 L958.8 333 L967 354 L958.8 375 L885 375 L893.2 354 Z" fill-rule="evenodd" clip-path="url(#clipPath2)" stroke="none"/>
    </g>
    <g text-rendering="geometricPrecision" stroke-miterlimit="1.45" shape-rendering="geometricPrecision" transform="matrix(1,0,0,1,-213,16)" stroke-linecap="butt">
      <path fill="none" d="M885 333 L958.8 333 L967 354 L958.8 375 L885 375 L893.2 354 Z" fill-rule="evenodd" clip-path="url(#clipPath2)"/>
      <text x="912.333" xml:space="preserve" y="358.1543" clip-path="url(#clipPath2)" font-family="sans-serif" stroke="none">M(d)</text>
    </g>
    <g fill="rgb(153,204,255)" text-rendering="geometricPrecision" shape-rendering="geometricPrecision" transform="matrix(1,0,0,1,-213,16)" stroke="rgb(153,204,255)">
      <rect x="973" width="42" height="42" y="333" clip-path="url(#clipPath2)" stroke="none"/>
    </g>
    <g text-rendering="geometricPrecision" stroke-miterlimit="1.45" shape-rendering="geometricPrecision" transform="matrix(1,0,0,1,-213,16)" stroke-linecap="butt">
      <rect fill="none" x="973" width="42" height="42" y="333" clip-path="url(#clipPath2)"/>
      <text x="990.1914" xml:space="preserve" y="358.1543" clip-path="url(#clipPath2)" font-family="sans-serif" stroke="none">p</text>
    </g>
    <g fill="silver" text-rendering="geometricPrecision" shape-rendering="geometricPrecision" transform="matrix(1,0,0,1,-213,16)" stroke="silver">
      <rect x="335" width="42" height="42" y="333" clip-path="url(#clipPath2)" stroke="none"/>
    </g>
    <g text-rendering="geometricPrecision" stroke-miterlimit="1.45" shape-rendering="geometricPrecision" transform="matrix(1,0,0,1,-213,16)" stroke-linecap="butt">
      <rect fill="none" x="335" width="42" height="42" y="333" clip-path="url(#clipPath2)"/>
      <text x="338.1406" xml:space="preserve" y="358.1543" clip-path="url(#clipPath2)" font-family="sans-serif" stroke="none">d_raw</text>
    </g>
    <g fill="rgb(204,255,204)" text-rendering="geometricPrecision" shape-rendering="geometricPrecision" transform="matrix(1,0,0,1,-213,16)" stroke="rgb(204,255,204)">
      <rect x="471" width="42" height="42" y="333" clip-path="url(#clipPath2)" stroke="none"/>
    </g>
    <g text-rendering="geometricPrecision" stroke-miterlimit="1.45" shape-rendering="geometricPrecision" transform="matrix(1,0,0,1,-213,16)" stroke-linecap="butt">
      <rect fill="none" x="471" width="42" height="42" y="333" clip-path="url(#clipPath2)"/>
      <text x="488.1914" xml:space="preserve" y="358.1543" clip-path="url(#clipPath2)" font-family="sans-serif" stroke="none">d</text>
    </g>
    <g fill="rgb(204,255,204)" text-rendering="geometricPrecision" shape-rendering="geometricPrecision" transform="matrix(1,0,0,1,-213,16)" stroke="rgb(204,255,204)">
      <path d="M383 333 L456.8 333 L465 354 L456.8 375 L383 375 L391.2 354 Z" fill-rule="evenodd" clip-path="url(#clipPath2)" stroke="none"/>
    </g>
    <g text-rendering="geometricPrecision" stroke-miterlimit="1.45" shape-rendering="geometricPrecision" transform="matrix(1,0,0,1,-213,16)" stroke-linecap="butt">
      <path fill="none" d="M383 333 L456.8 333 L465 354 L456.8 375 L383 375 L391.2 354 Z" fill-rule="evenodd" clip-path="url(#clipPath2)"/>
      <text x="399.6895" xml:space="preserve" y="358.1543" clip-path="url(#clipPath2)" font-family="sans-serif" stroke="none">I(d_raw)</text>
    </g>
    <g fill="rgb(255,204,0)" text-rendering="geometricPrecision" shape-rendering="geometricPrecision" transform="matrix(1,0,0,1,-213,16)" stroke="rgb(255,204,0)">
      <rect x="335" width="42" height="102" y="390.3333" clip-path="url(#clipPath2)" stroke="none"/>
    </g>
    <g text-rendering="geometricPrecision" stroke-miterlimit="1.45" shape-rendering="geometricPrecision" transform="matrix(1,0,0,1,-213,16)" stroke-linecap="butt">
      <rect fill="none" x="335" width="42" height="102" y="390.3333" clip-path="url(#clipPath2)"/>
    </g>
    <g fill="rgb(204,255,204)" text-rendering="geometricPrecision" shape-rendering="geometricPrecision" transform="matrix(1,0,0,1,-213,16)" stroke="rgb(204,255,204)">
      <rect x="1299" width="101" height="232.6667" y="393" clip-path="url(#clipPath2)" stroke="none"/>
    </g>
    <g text-rendering="geometricPrecision" stroke-miterlimit="1.45" shape-rendering="geometricPrecision" transform="matrix(1,0,0,1,-213,16)" stroke-linecap="butt">
      <rect fill="none" x="1299" width="101" height="232.6667" y="393" clip-path="url(#clipPath2)"/>
      <text x="1304.5146" xml:space="preserve" y="513.4876" clip-path="url(#clipPath2)" font-family="sans-serif" stroke="none">Storage ceiling</text>
    </g>
    <g fill="rgb(255,204,0)" text-rendering="geometricPrecision" shape-rendering="geometricPrecision" transform="matrix(1,0,0,1,-213,16)" stroke="rgb(255,204,0)">
      <rect x="1247" width="42" height="102" y="393" clip-path="url(#clipPath2)" stroke="none"/>
    </g>
    <g text-rendering="geometricPrecision" stroke-miterlimit="1.45" shape-rendering="geometricPrecision" transform="matrix(1,0,0,1,-213,16)" stroke-linecap="butt">
      <rect fill="none" x="1247" width="42" height="102" y="393" clip-path="url(#clipPath2)"/>
    </g>
    <g fill="rgb(255,204,0)" text-rendering="geometricPrecision" shape-rendering="geometricPrecision" transform="matrix(1,0,0,1,-213,16)" stroke="rgb(255,204,0)">
      <rect x="1247" width="42" height="47" y="578.6667" clip-path="url(#clipPath2)" stroke="none"/>
    </g>
    <g text-rendering="geometricPrecision" stroke-miterlimit="1.45" shape-rendering="geometricPrecision" transform="matrix(1,0,0,1,-213,16)" stroke-linecap="butt">
      <rect fill="none" x="1247" width="42" height="47" y="578.6667" clip-path="url(#clipPath2)"/>
    </g>
    <g fill="rgb(204,255,204)" text-rendering="geometricPrecision" shape-rendering="geometricPrecision" transform="matrix(1,0,0,1,-213,16)" stroke="rgb(204,255,204)">
      <rect x="903" width="194" height="47" y="578.6667" clip-path="url(#clipPath2)" stroke="none"/>
    </g>
    <g text-rendering="geometricPrecision" stroke-miterlimit="1.45" shape-rendering="geometricPrecision" transform="matrix(1,0,0,1,-213,16)" stroke-linecap="butt">
      <rect fill="none" x="903" width="194" height="47" y="578.6667" clip-path="url(#clipPath2)"/>
      <text x="947.1924" xml:space="preserve" y="599.3366" clip-path="url(#clipPath2)" font-family="sans-serif" stroke="none">Storage required:</text>
      <text x="979.7676" xml:space="preserve" y="613.3054" clip-path="url(#clipPath2)" font-family="sans-serif" stroke="none">results</text>
    </g>
    <g fill="rgb(204,255,204)" text-rendering="geometricPrecision" shape-rendering="geometricPrecision" transform="matrix(1,0,0,1,-213,16)" stroke="rgb(204,255,204)">
      <rect x="903" width="194" height="47" y="417.8333" clip-path="url(#clipPath2)" stroke="none"/>
    </g>
    <g text-rendering="geometricPrecision" stroke-miterlimit="1.45" shape-rendering="geometricPrecision" transform="matrix(1,0,0,1,-213,16)" stroke-linecap="butt">
      <rect fill="none" x="903" width="194" height="47" y="417.8333" clip-path="url(#clipPath2)"/>
      <text x="947.1924" xml:space="preserve" y="438.5033" clip-path="url(#clipPath2)" font-family="sans-serif" stroke="none">Storage required:</text>
      <text x="968.0781" xml:space="preserve" y="452.472" clip-path="url(#clipPath2)" font-family="sans-serif" stroke="none">initial data</text>
    </g>
    <g fill="rgb(255,204,0)" text-rendering="geometricPrecision" shape-rendering="geometricPrecision" transform="matrix(1,0,0,1,-213,16)" stroke="rgb(255,204,0)">
      <rect x="335" width="178" height="54" y="268.1667" clip-path="url(#clipPath2)" stroke="none"/>
    </g>
    <g text-rendering="geometricPrecision" stroke-miterlimit="1.45" shape-rendering="geometricPrecision" transform="matrix(1,0,0,1,-213,16)" stroke-linecap="butt">
      <rect fill="none" x="335" width="178" height="54" y="268.1667" clip-path="url(#clipPath2)"/>
      <text x="358.3838" xml:space="preserve" y="292.3366" clip-path="url(#clipPath2)" font-family="sans-serif" stroke="none">Memory requirement:</text>
      <text x="386.4766" xml:space="preserve" y="306.3053" clip-path="url(#clipPath2)" font-family="sans-serif" stroke="none">data loading</text>
    </g>
    <g fill="rgb(255,102,0)" text-rendering="geometricPrecision" shape-rendering="geometricPrecision" transform="matrix(1,0,0,1,-213,16)" stroke="rgb(255,102,0)">
      <rect x="335" width="178" height="258" y="-0.6667" clip-path="url(#clipPath2)" stroke="none"/>
    </g>
    <g text-rendering="geometricPrecision" stroke-miterlimit="1.45" shape-rendering="geometricPrecision" transform="matrix(1,0,0,1,-213,16)" stroke-linecap="butt">
      <rect fill="none" x="335" width="178" height="258" y="-0.6667" clip-path="url(#clipPath2)"/>
      <text x="362.1602" xml:space="preserve" y="125.5033" clip-path="url(#clipPath2)" font-family="sans-serif" stroke="none">Temporary memory:</text>
      <text x="386.4766" xml:space="preserve" y="139.472" clip-path="url(#clipPath2)" font-family="sans-serif" stroke="none">data loading</text>
    </g>
    <g fill="rgb(255,204,0)" text-rendering="geometricPrecision" shape-rendering="geometricPrecision" transform="matrix(1,0,0,1,-213,16)" stroke="rgb(255,204,0)">
      <rect x="885" width="130" height="54" y="268.1667" clip-path="url(#clipPath2)" stroke="none"/>
    </g>
    <g text-rendering="geometricPrecision" stroke-miterlimit="1.45" shape-rendering="geometricPrecision" transform="matrix(1,0,0,1,-213,16)" stroke-linecap="butt">
      <rect fill="none" x="885" width="130" height="54" y="268.1667" clip-path="url(#clipPath2)"/>
      <text x="884.3838" xml:space="preserve" y="292.3366" clip-path="url(#clipPath2)" font-family="sans-serif" stroke="none">Memory requirement:</text>
      <text x="912.4766" xml:space="preserve" y="306.3053" clip-path="url(#clipPath2)" font-family="sans-serif" stroke="none">data loading</text>
    </g>
    <g fill="rgb(255,204,0)" text-rendering="geometricPrecision" shape-rendering="geometricPrecision" transform="matrix(1,0,0,1,-213,16)" stroke="rgb(255,204,0)">
      <rect x="885" width="130" height="42" y="215.3333" clip-path="url(#clipPath2)" stroke="none"/>
    </g>
    <g text-rendering="geometricPrecision" stroke-miterlimit="1.45" shape-rendering="geometricPrecision" transform="matrix(1,0,0,1,-213,16)" stroke-linecap="butt">
      <rect fill="none" x="885" width="130" height="42" y="215.3333" clip-path="url(#clipPath2)"/>
      <text x="884.3838" xml:space="preserve" y="233.5033" clip-path="url(#clipPath2)" font-family="sans-serif" stroke="none">Memory requirement:</text>
      <text x="922.0391" xml:space="preserve" y="247.472" clip-path="url(#clipPath2)" font-family="sans-serif" stroke="none">modeling</text>
    </g>
    <g fill="rgb(255,204,0)" text-rendering="geometricPrecision" shape-rendering="geometricPrecision" transform="matrix(1,0,0,1,-213,16)" stroke="rgb(255,204,0)">
      <rect x="1021" width="130" height="42" y="215.3333" clip-path="url(#clipPath2)" stroke="none"/>
    </g>
    <g text-rendering="geometricPrecision" stroke-miterlimit="1.45" shape-rendering="geometricPrecision" transform="matrix(1,0,0,1,-213,16)" stroke-linecap="butt">
      <rect fill="none" x="1021" width="130" height="42" y="215.3333" clip-path="url(#clipPath2)"/>
      <text x="1020.3838" xml:space="preserve" y="233.5033" clip-path="url(#clipPath2)" font-family="sans-serif" stroke="none">Memory requirement:</text>
      <text x="1058.0391" xml:space="preserve" y="247.472" clip-path="url(#clipPath2)" font-family="sans-serif" stroke="none">modeling</text>
    </g>
    <g fill="rgb(255,102,0)" text-rendering="geometricPrecision" shape-rendering="geometricPrecision" transform="matrix(1,0,0,1,-213,16)" stroke="rgb(255,102,0)">
      <rect x="885" width="130" height="42" y="167.5" clip-path="url(#clipPath2)" stroke="none"/>
    </g>
    <g text-rendering="geometricPrecision" stroke-miterlimit="1.45" shape-rendering="geometricPrecision" transform="matrix(1,0,0,1,-213,16)" stroke-linecap="butt">
      <rect fill="none" x="885" width="130" height="42" y="167.5" clip-path="url(#clipPath2)"/>
      <text x="888.1602" xml:space="preserve" y="185.6699" clip-path="url(#clipPath2)" font-family="sans-serif" stroke="none">Temporary memory:</text>
      <text x="922.0391" xml:space="preserve" y="199.6387" clip-path="url(#clipPath2)" font-family="sans-serif" stroke="none">modeling</text>
    </g>
    <g fill="rgb(255,204,0)" text-rendering="geometricPrecision" shape-rendering="geometricPrecision" transform="matrix(1,0,0,1,-213,16)" stroke="rgb(255,204,0)">
      <rect x="1021" width="130" height="35" y="174.5" clip-path="url(#clipPath2)" stroke="none"/>
    </g>
    <g text-rendering="geometricPrecision" stroke-miterlimit="1.45" shape-rendering="geometricPrecision" transform="matrix(1,0,0,1,-213,16)" stroke-linecap="butt">
      <rect fill="none" x="1021" width="130" height="35" y="174.5" clip-path="url(#clipPath2)"/>
      <text x="1029.8965" xml:space="preserve" y="189.1699" clip-path="url(#clipPath2)" font-family="sans-serif" stroke="none">Required memory:</text>
      <text x="1054.4414" xml:space="preserve" y="203.1387" clip-path="url(#clipPath2)" font-family="sans-serif" stroke="none">evaluation</text>
    </g>
    <g fill="rgb(255,102,0)" text-rendering="geometricPrecision" shape-rendering="geometricPrecision" transform="matrix(1,0,0,1,-213,16)" stroke="rgb(255,102,0)">
      <rect x="1021" width="130" height="29" y="138.5" clip-path="url(#clipPath2)" stroke="none"/>
    </g>
    <g text-rendering="geometricPrecision" stroke-miterlimit="1.45" shape-rendering="geometricPrecision" transform="matrix(1,0,0,1,-213,16)" stroke-linecap="butt">
      <rect fill="none" x="1021" width="130" height="29" y="138.5" clip-path="url(#clipPath2)"/>
      <text x="1024.1602" xml:space="preserve" y="150.1699" clip-path="url(#clipPath2)" font-family="sans-serif" stroke="none">Temporary memory:</text>
      <text x="1054.4414" xml:space="preserve" y="164.1387" clip-path="url(#clipPath2)" font-family="sans-serif" stroke="none">evaluation</text>
    </g>
    <g fill="rgb(255,204,0)" text-rendering="geometricPrecision" shape-rendering="geometricPrecision" transform="matrix(1,0,0,1,-213,16)" stroke="rgb(255,204,0)">
      <rect x="1021" width="130" height="54" y="268.1667" clip-path="url(#clipPath2)" stroke="none"/>
    </g>
    <g text-rendering="geometricPrecision" stroke-miterlimit="1.45" shape-rendering="geometricPrecision" transform="matrix(1,0,0,1,-213,16)" stroke-linecap="butt">
      <rect fill="none" x="1021" width="130" height="54" y="268.1667" clip-path="url(#clipPath2)"/>
      <text x="1020.3838" xml:space="preserve" y="292.3366" clip-path="url(#clipPath2)" font-family="sans-serif" stroke="none">Memory requirement:</text>
      <text x="1048.4766" xml:space="preserve" y="306.3053" clip-path="url(#clipPath2)" font-family="sans-serif" stroke="none">data loading</text>
    </g>
    <g fill="rgb(255,204,0)" text-rendering="geometricPrecision" shape-rendering="geometricPrecision" transform="matrix(1,0,0,1,-213,16)" stroke="rgb(255,204,0)">
      <rect x="1157" width="134" height="54" y="268.1667" clip-path="url(#clipPath2)" stroke="none"/>
    </g>
    <g text-rendering="geometricPrecision" stroke-miterlimit="1.45" shape-rendering="geometricPrecision" transform="matrix(1,0,0,1,-213,16)" stroke-linecap="butt">
      <rect fill="none" x="1157" width="134" height="54" y="268.1667" clip-path="url(#clipPath2)"/>
      <text x="1158.3838" xml:space="preserve" y="292.3366" clip-path="url(#clipPath2)" font-family="sans-serif" stroke="none">Memory requirement:</text>
      <text x="1186.4766" xml:space="preserve" y="306.3053" clip-path="url(#clipPath2)" font-family="sans-serif" stroke="none">data loading</text>
    </g>
    <g fill="rgb(255,204,0)" text-rendering="geometricPrecision" shape-rendering="geometricPrecision" transform="matrix(1,0,0,1,-213,16)" stroke="rgb(255,204,0)">
      <rect x="1157" width="132" height="42" y="215.3333" clip-path="url(#clipPath2)" stroke="none"/>
    </g>
    <g text-rendering="geometricPrecision" stroke-miterlimit="1.45" shape-rendering="geometricPrecision" transform="matrix(1,0,0,1,-213,16)" stroke-linecap="butt">
      <rect fill="none" x="1157" width="132" height="42" y="215.3333" clip-path="url(#clipPath2)"/>
      <text x="1157.3838" xml:space="preserve" y="233.5033" clip-path="url(#clipPath2)" font-family="sans-serif" stroke="none">Memory requirement:</text>
      <text x="1195.0391" xml:space="preserve" y="247.472" clip-path="url(#clipPath2)" font-family="sans-serif" stroke="none">modeling</text>
    </g>
    <g fill="rgb(255,204,0)" text-rendering="geometricPrecision" shape-rendering="geometricPrecision" transform="matrix(1,0,0,1,-213,16)" stroke="rgb(255,204,0)">
      <rect x="1158" width="131" height="35" y="174.5" clip-path="url(#clipPath2)" stroke="none"/>
    </g>
    <g text-rendering="geometricPrecision" stroke-miterlimit="1.45" shape-rendering="geometricPrecision" transform="matrix(1,0,0,1,-213,16)" stroke-linecap="butt">
      <rect fill="none" x="1158" width="131" height="35" y="174.5" clip-path="url(#clipPath2)"/>
      <text x="1167.3965" xml:space="preserve" y="189.1699" clip-path="url(#clipPath2)" font-family="sans-serif" stroke="none">Required memory:</text>
      <text x="1191.9414" xml:space="preserve" y="203.1387" clip-path="url(#clipPath2)" font-family="sans-serif" stroke="none">evaluation</text>
    </g>
    <g fill="rgb(255,204,0)" text-rendering="geometricPrecision" shape-rendering="geometricPrecision" transform="matrix(1,0,0,1,-213,16)" stroke="rgb(255,204,0)">
      <rect x="1158" width="131" height="35" y="132.5" clip-path="url(#clipPath2)" stroke="none"/>
    </g>
    <g text-rendering="geometricPrecision" stroke-miterlimit="1.45" shape-rendering="geometricPrecision" transform="matrix(1,0,0,1,-213,16)" stroke-linecap="butt">
      <rect fill="none" x="1158" width="131" height="35" y="132.5" clip-path="url(#clipPath2)"/>
      <text x="1167.3965" xml:space="preserve" y="147.1699" clip-path="url(#clipPath2)" font-family="sans-serif" stroke="none">Required memory:</text>
      <text x="1200.3701" xml:space="preserve" y="161.1387" clip-path="url(#clipPath2)" font-family="sans-serif" stroke="none">plotting</text>
    </g>
    <g fill="rgb(204,255,204)" text-rendering="geometricPrecision" shape-rendering="geometricPrecision" transform="matrix(1,0,0,1,-213,16)" stroke="rgb(204,255,204)">
      <rect x="1299" width="101" height="189.6667" y="132.5" clip-path="url(#clipPath2)" stroke="none"/>
    </g>
    <g text-rendering="geometricPrecision" stroke-miterlimit="1.45" shape-rendering="geometricPrecision" transform="matrix(1,0,0,1,-213,16)" stroke-linecap="butt">
      <rect fill="none" x="1299" width="101" height="189.6667" y="132.5" clip-path="url(#clipPath2)"/>
      <text x="1303.5889" xml:space="preserve" y="231.4876" clip-path="url(#clipPath2)" font-family="sans-serif" stroke="none">Memory ceiling</text>
    </g>
    <g fill="rgb(204,255,204)" text-rendering="geometricPrecision" shape-rendering="geometricPrecision" transform="matrix(1,0,0,1,-213,16)" stroke="rgb(204,255,204)">
      <rect x="725" width="42" height="42" y="333" clip-path="url(#clipPath2)" stroke="none"/>
    </g>
    <g text-rendering="geometricPrecision" stroke-miterlimit="1.45" shape-rendering="geometricPrecision" transform="matrix(1,0,0,1,-213,16)" stroke-linecap="butt">
      <rect fill="none" x="725" width="42" height="42" y="333" clip-path="url(#clipPath2)"/>
      <text x="742.1914" xml:space="preserve" y="358.1543" clip-path="url(#clipPath2)" font-family="sans-serif" stroke="none">d</text>
    </g>
    <g fill="rgb(204,255,204)" text-rendering="geometricPrecision" shape-rendering="geometricPrecision" transform="matrix(1,0,0,1,-213,16)" stroke="rgb(204,255,204)">
      <path d="M778 333 L868.9001 333 L879 354 L868.9001 375 L778 375 L788.0999 354 Z" fill-rule="evenodd" clip-path="url(#clipPath2)" stroke="none"/>
    </g>
    <g text-rendering="geometricPrecision" stroke-miterlimit="1.45" shape-rendering="geometricPrecision" transform="matrix(1,0,0,1,-213,16)" stroke-linecap="butt">
      <path fill="none" d="M778 333 L868.9001 333 L879 354 L868.9001 375 L778 375 L788.0999 354 Z" fill-rule="evenodd" clip-path="url(#clipPath2)"/>
      <text x="813.7637" xml:space="preserve" y="358.1543" clip-path="url(#clipPath2)" font-family="sans-serif" stroke="none">I_2(d</text>
    </g>
    <g fill="rgb(255,204,0)" text-rendering="geometricPrecision" shape-rendering="geometricPrecision" transform="matrix(1,0,0,1,-213,16)" stroke="rgb(255,204,0)">
      <rect x="725" width="154" height="54" y="268.1667" clip-path="url(#clipPath2)" stroke="none"/>
    </g>
    <g text-rendering="geometricPrecision" stroke-miterlimit="1.45" shape-rendering="geometricPrecision" transform="matrix(1,0,0,1,-213,16)" stroke-linecap="butt">
      <rect fill="none" x="725" width="154" height="54" y="268.1667" clip-path="url(#clipPath2)"/>
      <text x="736.3838" xml:space="preserve" y="292.3366" clip-path="url(#clipPath2)" font-family="sans-serif" stroke="none">Memory requirement:</text>
      <text x="764.4766" xml:space="preserve" y="306.3053" clip-path="url(#clipPath2)" font-family="sans-serif" stroke="none">data loading</text>
    </g>
    <g fill="rgb(204,255,204)" text-rendering="geometricPrecision" shape-rendering="geometricPrecision" transform="matrix(1,0,0,1,-213,16)" stroke="rgb(204,255,204)">
      <rect x="228" width="101" height="322.8333" y="-0.6667" clip-path="url(#clipPath2)" stroke="none"/>
    </g>
    <g text-rendering="geometricPrecision" stroke-miterlimit="1.45" shape-rendering="geometricPrecision" transform="matrix(1,0,0,1,-213,16)" stroke-linecap="butt">
      <rect fill="none" x="228" width="101" height="322.8333" y="-0.6667" clip-path="url(#clipPath2)"/>
      <text x="232.5889" xml:space="preserve" y="164.9043" clip-path="url(#clipPath2)" font-family="sans-serif" stroke="none">Memory ceiling</text>
    </g>
    <g fill="rgb(255,102,0)" text-rendering="geometricPrecision" shape-rendering="geometricPrecision" transform="matrix(1,0,0,1,-213,16)" stroke="rgb(255,102,0)">
      <rect x="725" width="154" height="29" y="228.3333" clip-path="url(#clipPath2)" stroke="none"/>
    </g>
    <g text-rendering="geometricPrecision" stroke-miterlimit="1.45" shape-rendering="geometricPrecision" transform="matrix(1,0,0,1,-213,16)" stroke-linecap="butt">
      <rect fill="none" x="725" width="154" height="29" y="228.3333" clip-path="url(#clipPath2)"/>
      <text x="740.1602" xml:space="preserve" y="240.0033" clip-path="url(#clipPath2)" font-family="sans-serif" stroke="none">Temporary memory:</text>
      <text x="764.4766" xml:space="preserve" y="253.972" clip-path="url(#clipPath2)" font-family="sans-serif" stroke="none">data loading</text>
      <rect fill="none" x="519" width="200" height="42" y="333" clip-path="url(#clipPath2)"/>
      <text x="579.9736" xml:space="preserve" y="358.1543" clip-path="url(#clipPath2)" font-family="sans-serif" stroke="none">Data storage</text>
    </g>
    <g fill="rgb(255,204,0)" text-rendering="geometricPrecision" shape-rendering="geometricPrecision" transform="matrix(1,0,0,1,-213,16)" stroke="rgb(255,204,0)">
      <rect x="465" width="42" height="102" y="393" clip-path="url(#clipPath2)" stroke="none"/>
    </g>
    <g text-rendering="geometricPrecision" stroke-miterlimit="1.45" shape-rendering="geometricPrecision" transform="matrix(1,0,0,1,-213,16)" stroke-linecap="butt">
      <rect fill="none" x="465" width="42" height="102" y="393" clip-path="url(#clipPath2)"/>
    </g>
    <g fill="rgb(255,102,0)" text-rendering="geometricPrecision" shape-rendering="geometricPrecision" transform="matrix(1,0,0,1,-213,16)" stroke="rgb(255,102,0)">
      <rect x="465" width="42" height="69" y="504.1667" clip-path="url(#clipPath2)" stroke="none"/>
    </g>
    <g text-rendering="geometricPrecision" stroke-miterlimit="1.45" shape-rendering="geometricPrecision" transform="matrix(1,0,0,1,-213,16)" stroke-linecap="butt">
      <rect fill="none" x="465" width="42" height="69" y="504.1667" clip-path="url(#clipPath2)"/>
    </g>
    <g fill="rgb(255,102,0)" text-rendering="geometricPrecision" shape-rendering="geometricPrecision" transform="matrix(1,0,0,1,-213,16)" stroke="rgb(255,102,0)">
      <rect x="1247" width="42" height="69" y="504.1667" clip-path="url(#clipPath2)" stroke="none"/>
    </g>
    <g text-rendering="geometricPrecision" stroke-miterlimit="1.45" shape-rendering="geometricPrecision" transform="matrix(1,0,0,1,-213,16)" stroke-linecap="butt">
      <rect fill="none" x="1247" width="42" height="69" y="504.1667" clip-path="url(#clipPath2)"/>
    </g>
    <g fill="rgb(204,255,204)" text-rendering="geometricPrecision" shape-rendering="geometricPrecision" transform="matrix(1,0,0,1,-213,16)" stroke="rgb(204,255,204)">
      <rect x="903" width="194" height="47" y="507.6667" clip-path="url(#clipPath2)" stroke="none"/>
    </g>
    <g text-rendering="geometricPrecision" stroke-miterlimit="1.45" shape-rendering="geometricPrecision" transform="matrix(1,0,0,1,-213,16)" stroke-linecap="butt">
      <rect fill="none" x="903" width="194" height="47" y="507.6667" clip-path="url(#clipPath2)"/>
      <text x="942.458" xml:space="preserve" y="535.321" clip-path="url(#clipPath2)" font-family="sans-serif" stroke="none">Temporary storage</text>
      <path fill="none" d="M1097 602.1667 L1239 602.1667" clip-path="url(#clipPath2)"/>
      <path d="M1247 602.1667 L1235 597.1667 L1238 602.1667 L1235 607.1667 Z" clip-path="url(#clipPath2)" stroke="none"/>
      <path fill="none" d="M1097 442.2985 L1239.0004 443.7115" clip-path="url(#clipPath2)"/>
      <path d="M1247 443.791 L1235.0503 438.6719 L1238.0005 443.7015 L1234.9508 448.6714 Z" clip-path="url(#clipPath2)" stroke="none"/>
      <path fill="none" d="M903 441.8366 L514.9999 443.8495" clip-path="url(#clipPath2)"/>
      <path d="M507 443.8911 L519.0258 448.8287 L515.9999 443.8444 L518.9739 438.8289 Z" clip-path="url(#clipPath2)" stroke="none"/>
      <path fill="none" d="M1097 531.1667 L1239.0381 531.1667" clip-path="url(#clipPath2)"/>
      <path d="M1247.0381 531.1667 L1235.0381 526.1667 L1238.0381 531.1667 L1235.0381 536.1667 Z" clip-path="url(#clipPath2)" stroke="none"/>
      <path fill="none" d="M903 531.1667 L515.0183 531.1667" clip-path="url(#clipPath2)"/>
      <path d="M507.0183 531.1667 L519.0183 536.1667 L516.0183 531.1667 L519.0183 526.1667 Z" clip-path="url(#clipPath2)" stroke="none"/>
    </g>
  </g>
</svg>
